<svg xmlns="http://www.w3.org/2000/svg" viewBox="0 0 290.04 290.63"><defs><style>.cls-1{fill:#e6e7e8;}</style></defs><title>A</title><g id="Capa_2" data-name="Capa 2"><g id="desktop"><path class="cls-1" d="M171.09,282.68,196.28,279c-7.88-24.22-15.39-47.26-22.85-70.3-3-9.25-6.06-18.49-8.69-27.84-1.48-5.22-3.92-8.87-9.7-9.32l-69.23-5.34c-3.18,8.69-5.55,16.5-8.85,23.89C68.86,208.27,59.78,226,52.2,244.32,48,254.45,46,265.49,42.42,278.42c17.46.42,32.88.84,48.3,1.14,4.38.08,8.88-.78,13.11,0,2.65.48,4.9,3.19,6.83,6.37C73.59,292.73,37,285,1,287.38c-2.47-6.62,0-8.89,4.77-9,8.29-.19,16.57-.05,26.21-.05,4.27-8.89,8.89-17.37,12.5-26.27,6.73-16.63,13-33.46,19.24-50.29C70.28,184,76.4,166,83.06,148.26c8-21.43,16.21-42.83,24.75-64.07C118,58.88,128.59,33.74,139.07,8.55,143.38-1.83,149.78-2.85,156.89,6c2.69,3.37,4.53,7.52,6.33,11.51C174.81,43.26,186.43,69,197.77,94.85c8.8,20.08,17.09,40.38,25.78,60.51,12.95,30,26.41,59.73,38.9,89.89,4.78,11.58,7.49,24,11.06,35.79L290,285.23c-13,9.8-26.43,3-39.41,4.2a282.53,282.53,0,0,1-39.47.25C197.75,289,184.41,287,171,285.62,171.06,284.64,171.07,283.66,171.09,282.68ZM126,66.12C109.32,96.73,98.28,125.81,88.43,157c22,3.86,43.4,4.78,67.24,5.1C147.74,129.18,136.27,99.43,126,66.12Z"/></g></g></svg>