<svg xmlns="http://www.w3.org/2000/svg" viewBox="0 0 137.84 73.99"><defs><style>.cls-1{fill:#f2a7df;}</style></defs><title>bcoaLineaRosa</title><g id="Capa_2" data-name="Capa 2"><g id="desktop"><path class="cls-1" d="M75.07,13.13c5.7-2.91,11.1-6.19,16.89-8.5a25.48,25.48,0,0,1,23.39,1.71A112.17,112.17,0,0,1,135.2,21.26c2.39,2.2,3.19,4.48,2.27,7.19a73.71,73.71,0,0,1-5.22,12.64c-4.81,8.43-11.83,14.84-20.15,19.75-15.71,9.29-32.73,13.92-51,13A114.39,114.39,0,0,1,41.78,71,64.15,64.15,0,0,1,18.39,60.85C7.47,53.16.45,42.91,0,29c0-1.52.16-3,.14-4.56,0-2.51,1.16-4,3.31-5.22a165,165,0,0,1,29.22-13C38.44,4.3,44.32,2.74,50.1.88,58.44-1.8,64.54,2,70.05,7.57,71.82,9.36,73.43,11.31,75.07,13.13ZM8.77,41.58,8.1,43c2.33,2.85,4.41,6,7,8.51C27.18,63.16,42.23,68.05,58.48,69a109.15,109.15,0,0,0,24.24-1.82C98.32,64.46,112,57.61,123.05,46a25.68,25.68,0,0,0,2.17-3.28ZM5,24.57H130.36c-5-6.68-11.47-10.26-17.72-14.25a18.3,18.3,0,0,0-8.56-2.79A23.92,23.92,0,0,0,90.4,10.78c-4.45,2.46-8.79,5.11-13.09,7.84-3.45,2.19-5.32,1.77-7.45-1.48a94.75,94.75,0,0,0-6.15-8C60.28,5,55.8,4.2,50.8,5.46A200.06,200.06,0,0,0,8.15,21.71C7.12,22.24,6.36,23.3,5,24.57Z"/></g></g></svg>