<svg xmlns="http://www.w3.org/2000/svg" viewBox="0 0 149.17 79.97"><title>blackWiggle</title><g id="Capa_2" data-name="Capa 2"><g id="desktop"><path d="M99.76,64.48c3,8,7.74,12.48,19.82,10.92,8.52-1.09,15.36-5.41,21.42-11,1.89-1.76,3-4.46,4.13-6.89.8-1.7,1.42-3.22,4-3a12,12,0,0,1-3.26,9.5C139.72,70.6,133,76.47,123.9,79a26.75,26.75,0,0,1-20.38-2.39c-2.25-1.22-3.81-3.81-5.52-5.9a29,29,0,0,1-2.3-4c-7,4-14.66,4.54-22.21,5.28a21.46,21.46,0,0,1-7.6-.73c-5.36-1.45-11-1.71-16-4.65C41.53,61.67,37,53.08,38.4,43.51c.3-2,.56-4.08.92-6.68-2.76-.16-5.28-.21-7.77-.47C18.32,34.94,8.29,28.52,1.76,16.9A13.87,13.87,0,0,1,0,11a4.14,4.14,0,0,1,2.24-3.2c1.52-.53,2.32.91,2.82,2.46,3.69,11.39,12.14,17.29,23.29,20,.94.22,1.92.25,2.86.46,6.45,1.51,10.84.13,14.38-6.48C50.05,15.87,57,9.18,65,3.77A56.39,56.39,0,0,1,70,.83a6.07,6.07,0,0,1,9,6.09c-.61,4.2-1.7,8.14-4.35,11.58A44.17,44.17,0,0,1,48.87,35.21c-3,.69-4.18,2.1-4.86,4.95C41,52.93,47.53,61.58,59.23,65.1a52.4,52.4,0,0,0,16.63,2.15c5.79-.16,11-2,16.23-4.1,1.83-.75,2.45-1.95,2.61-4a86,86,0,0,1,2-12.33c1.27-5.6,4.9-9.75,9.34-13.07,4.8-3.58,9.8-1.31,10.35,4.68a18.8,18.8,0,0,1-3.46,13.26c-2.79,3.66-6.31,6.77-9.6,10A36.73,36.73,0,0,1,99.76,64.48ZM73.2,5.71C65,7.38,50.42,21.82,48.51,30.05A36.66,36.66,0,0,0,72.2,13.32,8.5,8.5,0,0,0,73.2,5.71ZM110.48,36c-7,3.3-12.1,13.86-10.67,21.94C107.6,55.18,114.72,41.86,110.48,36Z"/></g></g></svg>