<svg xmlns="http://www.w3.org/2000/svg" viewBox="0 0 136.27 73.15"><defs><style>.cls-1{fill:#a7a9ac;}</style></defs><title>bocaGris</title><g id="Capa_2" data-name="Capa 2"><g id="desktop"><path class="cls-1" d="M8.67,41.11,8,42.47c2.3,2.82,4.36,5.9,7,8.42,11.9,11.56,26.78,16.38,42.85,17.29a107.25,107.25,0,0,0,24-1.81C97.2,63.73,110.71,57,121.65,45.52a26,26,0,0,0,2.15-3.25ZM4.92,24.3h124c-4.9-6.61-11.35-10.16-17.52-14.09a17.89,17.89,0,0,0-8.47-2.76,23.54,23.54,0,0,0-13.52,3.21C85,13.09,80.68,15.71,76.43,18.4,73,20.57,71.17,20.16,69.06,17A90.65,90.65,0,0,0,63,9c-3.4-4.1-7.82-4.89-12.76-3.64A197.64,197.64,0,0,0,8.05,21.46C7,22,6.29,23,4.92,24.3Z"/><path d="M74.22,13c5.63-2.88,11-6.12,16.69-8.4A25.18,25.18,0,0,1,114,6.27,110.93,110.93,0,0,1,133.66,21c2.36,2.18,3.16,4.43,2.25,7.11a72.35,72.35,0,0,1-5.17,12.49C126,49,119.06,55.29,110.83,60.15,95.3,69.33,78.47,73.91,60.44,73.05A113,113,0,0,1,41.3,70.17a63.5,63.5,0,0,1-23.12-10C7.39,52.55.45,42.42,0,28.7c0-1.5.16-3,.13-4.51,0-2.48,1.16-4,3.28-5.16A164.77,164.77,0,0,1,32.3,6.13C38,4.25,43.81,2.71,49.53.87,57.77-1.78,63.81,2,69.25,7.49,71,9.26,72.6,11.18,74.22,13ZM8.67,41.11,8,42.47c2.3,2.82,4.36,5.9,7,8.42,11.9,11.56,26.78,16.38,42.85,17.29a107.25,107.25,0,0,0,24-1.81C97.2,63.73,110.71,57,121.65,45.52a26,26,0,0,0,2.15-3.25ZM4.92,24.3h124c-4.9-6.61-11.35-10.16-17.52-14.09a17.89,17.89,0,0,0-8.47-2.76,23.54,23.54,0,0,0-13.52,3.21C85,13.09,80.68,15.71,76.43,18.4,73,20.57,71.17,20.16,69.06,17A90.65,90.65,0,0,0,63,9c-3.4-4.1-7.82-4.89-12.76-3.64A197.64,197.64,0,0,0,8.05,21.46C7,22,6.29,23,4.92,24.3Z"/></g></g></svg>