<svg xmlns="http://www.w3.org/2000/svg" viewBox="0 0 354.11 278.69"><defs><style>.cls-1{fill:#f1f2f2;}</style></defs><title>bub</title><g id="Capa_2" data-name="Capa 2"><g id="desktop"><path class="cls-1" d="M7.19,206.34C2.42,204.87-.12,200.94,0,196c.11-4.21.34-8.43.4-12.65C.77,159.07.29,44.11,1.81,19.86,2.5,8.76,12,.65,21.42.59Q53.73.35,86.05.23c21.35-.06,198.65,0,220-.06,8.89,0,17.8.24,26.67-.14a31.13,31.13,0,0,1,12.67,2.06,10.58,10.58,0,0,1,4,2.68,15.54,15.54,0,0,1,4.3,10.51c0,6.09.15,12.18.16,18.27,0,5.37-.12,10.74-.08,16.1.08,8.56.32,107.8.35,116.35,0,5.63-.38,11.26-.3,16.89a39,39,0,0,1-3.07,15.39c-2,4.87-5.45,8.25-10.57,9.46a62.1,62.1,0,0,1-14.6,1.35c-6.1,0-12.2,0-18.3,0-9.72,0-175.4,0-185.12.07-7.49,0-15,0-22.47,0-8.08,0-16.15.15-24.23.19-6.67,0-13.35,0-19.82,0a35,35,0,0,1-1.85,3.08q-7,9.24-14.11,18.43Q31.09,242,22.48,253.16q-9.26,12-18.56,23.89a11.31,11.31,0,0,1-2.13,1.64c-1.18-2.15-.11-3.63.45-5.07q8.64-22.1,17.4-44.16c2.53-6.41,5.08-12.82,7.79-19.64C20,209.89,13.55,208.3,7.19,206.34Zm47.63.76h3.81q30.43,0,60.88,0c17.36,0,190.69-.07,208.05-.26a42,42,0,0,0,11.11-1.23,14.48,14.48,0,0,0,10-9.13,39,39,0,0,0,2.5-14c-.15-16.19.18-123.07.29-139.26.06-8.8,0-17.6.09-26.4a17.92,17.92,0,0,0-2-8.1,9.72,9.72,0,0,0-8.49-5.94c-3.73-.27-7.48-.57-11.22-.55-34.49.1-224.93.27-259.42.42q-23.93.11-47.86.22C14.28,2.87,4.54,10,4.06,21.09c-.6,13.72-.54,27.43-.82,41.14-.3,14.42-.53,119.53-.77,134a8.27,8.27,0,0,0,6.47,8.52c6.15,1.34,12.26,3.13,18.68,2.85a21.68,21.68,0,0,1,2.89.28A42.21,42.21,0,0,1,29.27,212c-3.53,8.68-7.2,17.31-10.67,26-3.68,9.22-7.19,18.51-10.76,27.78a12.38,12.38,0,0,0-.37,1.6l.61.35Z"/></g></g></svg>