<svg xmlns="http://www.w3.org/2000/svg" viewBox="0 0 158.08 192.92"><defs><style>.cls-1{fill:#f1f2f2;}</style></defs><title>bubSqr</title><g id="Capa_2" data-name="Capa 2"><g id="desktop"><path class="cls-1" d="M127.11,134.53c3.06,7.69,10.3,36.73,16.8,53.37.48,1.23,1.54,2.83,1,4.18-.65,1.56-2.12.64-2.86-.31-7-9-45.89-56.3-46.76-57.76-7.31,0-31.39-.31-42.37-.33-6.89,0-13.77,0-20.66,0a69.58,69.58,0,0,1-16.5-1.53C10,130.81,6,127,3.8,121.49A43.78,43.78,0,0,1,.34,104.11C.43,97.76,0,91.4,0,85c0-9.65.3-19.31.39-29C.44,50,.28,44,.3,37.89c0-6.88.14-13.76.18-20.64A17.56,17.56,0,0,1,5.33,5.39a11.9,11.9,0,0,1,4.52-3A35.16,35.16,0,0,1,24.15,0c10,.43,20.08.15,30.12.16,24.1,0,48.21,0,72.32.07,24.32.08-17,.22,7.3.4C144.51.74,155.26,9.9,156,22.42c1.72,27.39,1.17,54.79,1.59,82.19.07,4.76.33,9.53.45,14.29.14,5.59-2.73,10-8.11,11.69C142.78,132.81,135.47,134.6,127.11,134.53Zm14.1,51.92c.23-.13-11.7-29.77-16.18-49.51-.57-1.39-.88-2.88-1.4-4.66a27,27,0,0,1,3.27-.31c7.24.32,14.14-1.7,21.09-3.21a9.37,9.37,0,0,0,7.31-9.63c-.28-16.29-.54-32.57-.87-48.86-.32-15.48-.25-31-.93-46.45C153,11.26,142,3.24,132.52,3.18q-27-.18-54.05-.26c-38.95-.17-12.22-.36-51.16-.47-4.22,0-8.46.32-12.67.62C10.15,3.39,7,5.74,5.06,9.78a20.16,20.16,0,0,0-2.22,9.15c.09,9.94,0,19.88.1,29.81.12,18.28.5,36.57.33,54.84A43.93,43.93,0,0,0,6.1,119.41a16.31,16.31,0,0,0,11.33,10.3A46.86,46.86,0,0,0,30,131.1c19.61.21,39.22.26,58.83.3,22.92,0-19.84,0,3.08,0h4.3C114,154.52,123.71,163.77,141.21,186.45Z"/></g></g></svg>