<svg xmlns="http://www.w3.org/2000/svg" viewBox="0 0 76.08 93.25"><title>bubWiggle</title><g id="Capa_2" data-name="Capa 2"><g id="desktop"><path d="M14.51,93.25c-1.68-.79-2-1.87-1.49-3.29,1.37-3.78,2.79-7.54,4.08-11.35,1.5-4.38,2.88-8.81,4.3-13.18C15.72,63,11.73,59,8.13,54.49c-2.3-2.88-4.55-5.75-5.7-9.24C.8,40.33-.41,35.25.13,30c.76-7.31,3.3-13.95,8.48-19.34a34.52,34.52,0,0,1,9.77-6.92A34.46,34.46,0,0,1,31.69.1a41.17,41.17,0,0,1,23.2,5.07A41,41,0,0,1,69.61,18.26C71.17,20.6,72.86,23,73.4,26c.37,2.11,1.7,4.05,2.07,6.16,1.76,10.25-.17,19.62-7.29,27.54C60.62,68.13,51,71.34,39.89,71A10.18,10.18,0,0,1,38,70.87a2.77,2.77,0,0,0-2.87,1.07c-4.39,4.66-8.82,9.28-13.22,13.92-2,2.12-4,4.27-6,6.38A8.79,8.79,0,0,1,14.51,93.25Zm3.19-8.12.63.36c.53-.61,1.05-1.23,1.6-1.82,4.17-4.47,8.32-9,12.53-13.39,1.52-1.6,3.12-3.16,5.65-1.76a3,3,0,0,0,1.35.14c9.59.18,18.1-2.37,25.16-9.27C70.1,54,75,43.87,73,33.2c-1-5.36-2.63-10.57-6.3-14.85C64.83,16.2,63.17,13.81,61,12,51.91,4.57,41.52.92,29.7,2.86,16.82,5,7.66,11.9,3.88,24.73c-3,10-.17,19.16,5.52,27.51a29.1,29.1,0,0,0,9,9c1.67,1,3.32,1.63,6.14,3.41C23.84,72.77,20.18,78,17.7,85.13Z"/><path d="M47.94,30.07c-1.42-2.77-3.33-3.93-6.13-3.74-2.2.15-2.61.35-2.56,2.55a39.71,39.71,0,0,1-1.16,10.86A32.33,32.33,0,0,1,32.82,50.1,2.45,2.45,0,0,1,28.63,50a12.83,12.83,0,0,1-2-4.73c-1.08-6.44,1.27-11.79,5.7-16.36,1.12-1.15,2.23-2.32,3.4-3.53-1-3.4-4.89-4.86-8.21-2.78C20.39,26,17.43,35,17.17,35.64a12.27,12.27,0,0,1-.93,1.7l-.61-.14a5.53,5.53,0,0,1-.2-2A26.5,26.5,0,0,1,17,30.6a27,27,0,0,1,2.55-4.21,17.25,17.25,0,0,1,9.61-6.84c3.81-1,6.42-.08,8.37,3.41.22.39.49.74.79,1.2,4.85-1.65,8.88-.67,11.85,3.73,2.26-1.21,3.66-4.1,6.88-3.34A2.86,2.86,0,0,1,55.52,28c-3.21,1.57-4,4-3.81,7.54A44.57,44.57,0,0,1,49,51.61c-.26.77-1.11,2-1.57,1.91a3.6,3.6,0,0,1-2.26-1.58,13.27,13.27,0,0,1-1.65-4C42.11,41.32,42.92,35.19,47.94,30.07ZM36.82,28.2a7.64,7.64,0,0,0-1.64.88c-3.56,3.92-6.12,8.35-6.25,13.77,0,1.88.14,4,2,5.33,3.1-2.7,4.2-6.25,4.93-9.88C36.46,35.15,37.28,32,36.82,28.2Zm12.24,5.91c-3.76,3.15-4.64,10.16-1.93,14.76A49.59,49.59,0,0,0,49.06,34.11Z"/></g></g></svg>