<svg xmlns="http://www.w3.org/2000/svg" viewBox="0 0 363.16 295.11"><defs><style>.cls-1{fill:#f1f2f2;}</style></defs><title>comilla</title><g id="Capa_2" data-name="Capa 2"><g id="desktop"><path class="cls-1" d="M144.12,37.18q20,30.87,20,77.2,0,58.91-30,105.52T43.47,295.11L32.6,274q36.6-15.45,62.91-48.33T121.82,159q0-14.3-3.43-24.59-20,15.45-43.47,15.44-32,0-53.47-20.3T0,74.92q0-32,21.73-53.47T74.92,0Q120.1,0,144.12,37.18Zm199,0q20,30.87,20,77.2,0,58.91-30,105.52t-90.65,75.21L231.63,274q36.6-15.45,62.91-48.33T320.84,159q0-14.3-3.43-24.59Q298,149.85,274,149.84q-31.45,0-53.19-20.3T199,74.92A73,73,0,0,1,209.32,36.6,74.84,74.84,0,0,1,274,0Q319.13,0,343.15,37.18Z"/></g></g></svg>