<svg xmlns="http://www.w3.org/2000/svg" viewBox="0 0 127.26 120.07"><title>curly1</title><g id="Capa_2" data-name="Capa 2"><g id="desktop"><path d="M127.2,35.76c-.46-3.06-1-6.08-2.76-8.8-1.53-2.34-3.32-4.06-6.12-4.59a8.33,8.33,0,0,1-1.73-.47,12.66,12.66,0,0,0-5.65-.76c-.63,0-1.26,0-2.19,0,1.18-2.31.82-4.37.71-6.49-.18-3.61-2.13-6.2-4.5-8.39C101.07,2.68,96.21,1,91,.43A14.07,14.07,0,0,0,83.36,1.5a29.67,29.67,0,0,0-7.47,4.6,6,6,0,0,1-.89.53A12,12,0,0,0,66.29.46C60.85-.66,56.05.14,51.9,4.13a45.28,45.28,0,0,0-6.87,8c-2.1-2.57-4.94-3.43-7.93-3.94A9.47,9.47,0,0,0,34,8.11c-4.06.73-7,3.19-9.14,6.56a39,39,0,0,0-4.59,11c-.3,1.13-.42,2.31-.62,3.46-4.72-.83-6.8-.39-10,4.81a23,23,0,0,0-1.87,4.61,34.77,34.77,0,0,0-.3,20.86c.12.41.2.84.31,1.34-.8.18-1.45.28-2.09.46C1.74,62.41,0,64.47,0,69a8.56,8.56,0,0,0,2.9,6.18,61.57,61.57,0,0,0,5.63,5.09,30.61,30.61,0,0,0,8.76,5.13,49.7,49.7,0,0,0,7.46,2.24C19.6,97.51,15.8,107.86,11,117.84a17,17,0,0,0-.65,2.23,7.1,7.1,0,0,0,1.36-.8c2.42-2.66,4.81-5.35,7.21-8,2.22-2.48,4.43-5,6.68-7.42,1.8-2,3.64-3.89,5.45-5.83,1-1.06,2-2.08,3-3.2.7-.84,1.36-.76,2.27-.36,1.82.8,3.64,1.7,5.76,1.21.67-.16,1.07.29,1.36.91a14.26,14.26,0,0,0,3.4,4.4,14.89,14.89,0,0,0,16.58,2.72,19.69,19.69,0,0,0,6.5-4.2,1.94,1.94,0,0,1,2-.56c2.1.33,4.21.59,6.33.74,5.59.4,9.92-2.13,13.54-6.1a8.51,8.51,0,0,0,1.66-2.91c.6-1.81,1-3.71,1.45-5.69a6,6,0,0,1,1.27,0,13.54,13.54,0,0,0,11.45-2.89,23.83,23.83,0,0,0,8.59-25.31c-.08-.3-.12-.61-.2-1,4.67-.92,7.23-4,8.58-8.17.89-2.79,1.64-5.62,2.35-8.46A8.9,8.9,0,0,0,127.2,35.76ZM74.15,17a1,1,0,0,1-1.81.05,3.7,3.7,0,0,1-.51-1.88,8.92,8.92,0,0,1,3-6.52C75.93,11.76,75.18,14.43,74.15,17Zm-28.73-.51C46.2,18.25,47,20,46,21.89,45.33,20.15,44.56,18.42,45.42,16.53Zm25,80.71c-3.14-1.29-4.6-5.62-3-8.15a2.57,2.57,0,0,1,3.85-.19,3.5,3.5,0,0,1,.89,1.74A8.59,8.59,0,0,1,70.39,97.24ZM123.94,45.3a30.51,30.51,0,0,1-2.34,5.49,7.28,7.28,0,0,1-6.13,3.77,36.76,36.76,0,0,0-2.56-2.89,8,8,0,0,0-6.8-2.16c-1.06.17-2.08.61-2.28,1.91a2.85,2.85,0,0,0,1.28,2.76,4.64,4.64,0,0,0,1.43.7c2,.62,3.88,1.28,6,.94,1.52-.24,2.13.24,2.41,1.71a27.77,27.77,0,0,1,.77,5.92,22.64,22.64,0,0,1-8.1,17c-3,2.62-6.47,4.23-10.63,3.63-2.53-.36-2.53-.36-3.22-2.89a5.38,5.38,0,0,0-.47-1.31,3.35,3.35,0,0,0-3.16-1.72,2.46,2.46,0,0,0-2.34,2.33,2.87,2.87,0,0,0,1.75,3.07,15.1,15.1,0,0,0,2.5.67c.64.15,1.21.39,1.15,1.14-.22,2.54-.54,5.14-2.17,7.17a15.42,15.42,0,0,1-6.64,5,18.94,18.94,0,0,1-12.59.06c.38-.91.77-1.68,1-2.5a25,25,0,0,0,.64-2.72,4.72,4.72,0,0,0-1-3.94c-1.45-1.87-5.19-2.31-6.35.42-1.3,3.07-.33,7.26,2.43,8.91a9,9,0,0,1,.74.52A16.55,16.55,0,0,1,58.05,104c-4.17.41-7.65-1.3-10.7-4-1.34-1.2-2.7-2.39-2.77-4.45.74-.5,1.54-1,2.28-1.54a6,6,0,0,0,2.48-4.38,2.69,2.69,0,0,0-1.29-2.71,2.16,2.16,0,0,0-2.71.6,7,7,0,0,0-1.55,2.49c-.49,1.42-.74,2.93-1.07,4.31-3,1-5.35-.46-7.74-2L25.5,102.79c-3.6,4-7.2,8-10.84,12-.38.41-.74,1.11-1.65,1,1.07-2.45,2.07-4.81,3.12-7.14s2.2-4.82,3.32-7.22,2.25-4.67,3.31-7c.95-2.15,2.14-4.22,2.58-6.58.41-1-2.91-1.66-3.52-1.82a39.29,39.29,0,0,1-5.77-2.1C10.42,81.45,5.54,76.34,3.7,74.42,1.11,71.73.43,68.78,1.87,65.28c.82-2,2.41-2.67,4.3-3.13A3.21,3.21,0,0,1,10,63.8a7.08,7.08,0,0,0,2.16,2.06A11.53,11.53,0,0,0,15.1,67,1.21,1.21,0,0,0,16.72,66c.32-1.56-.41-3.67-1.84-4a42.87,42.87,0,0,0-4.24-1,1.88,1.88,0,0,1-1.87-1.45c-.23-.84-.55-1.65-.73-2.5a36.8,36.8,0,0,1-.2-14.3A26.5,26.5,0,0,1,11.49,33c2.09-3.24,4.83-4,8.21-2.34.16.71.31,1.43.49,2.14a10.58,10.58,0,0,0,3.15,5,3.35,3.35,0,0,0,3.71.65c.86-.55,1.21-2,.73-3.47a6.24,6.24,0,0,0-3.53-4.29c-1.05-.42-2.11-.8-3.32-1.25a7.35,7.35,0,0,1,.12-1.67c1-3.18,1.84-6.41,3.06-9.49a17.73,17.73,0,0,1,5.63-7.39c4.65-3.64,10.62-1.8,13.8,1.38a2.48,2.48,0,0,1,.7,2.88c-.84,2.31-.34,4.61.35,6.86a2.62,2.62,0,0,0,1.94,2.12,10.27,10.27,0,0,0,.8-1.63,8.56,8.56,0,0,0-.5-5.85c-.95-2.18-1.09-4.26.6-6.13a80.61,80.61,0,0,1,6-6.38,14.31,14.31,0,0,1,5.3-3.05,9.17,9.17,0,0,1,4.32-.08A32.18,32.18,0,0,1,69.6,2.68c2.08.83,3.37,2.75,4.75,4.68-.34.39-.55.65-.77.89a12.72,12.72,0,0,0-2.9,5.85,4.35,4.35,0,0,0,.46,3.48,2.32,2.32,0,0,0,2.35,1.21,2.19,2.19,0,0,0,1.85-1.62c1-2.87,1.69-5.77.62-8.77a1.25,1.25,0,0,1,.58-1.69C78.6,5.48,80.62,4.2,82.7,3a12.18,12.18,0,0,1,7.14-1.52,30.7,30.7,0,0,1,12.65,4.05c5.51,3.06,6.91,10.23,5.66,14.81a2.29,2.29,0,0,1-1.64,1.73,21.25,21.25,0,0,0-4.24,2.18,5.88,5.88,0,0,0-2.46,4.62c-.17,1.57.7,2.26,2.21,1.77a7.72,7.72,0,0,0,4.27-3.15,26.65,26.65,0,0,0,2-4.1c.31-.74.67-1.31,1.53-1.37a22.74,22.74,0,0,1,10.14,1.74,3.41,3.41,0,0,1,.82.56c3.53,2.74,4.82,6.58,5.19,10.83C126.25,38.71,125,42,123.94,45.3Zm-10.32,9.55a15.1,15.1,0,0,1-7.49-1.51c-.69-.34-1.27-1-1-1.74a2.29,2.29,0,0,1,1.5-1C109.27,50,112.39,51.9,113.62,54.85ZM93.09,83.06l-.43.36c-.91-.34-1.86-.63-2.74-1a1.4,1.4,0,0,1-.81-1.81c.18-.49.7-1.21,1-1.2A2.49,2.49,0,0,1,92,80.2,13.27,13.27,0,0,1,93.09,83.06ZM44,94.12c.44-1.74.78-3.09,1.13-4.42a2,2,0,0,1,.32-.73c.5-.63,1.07-1.34,2-1s1,1.23.78,2.05C47.7,92.09,46.34,93.33,44,94.12ZM10.43,62.49c.09-.21.19-.41.28-.61A29.16,29.16,0,0,1,14.44,63c1.2.52,1.4,1.64,1.07,3A7.17,7.17,0,0,1,10.43,62.49ZM21.37,31.34c3.77,0,6.3,3.17,5,6.44C23.84,37.54,21.38,34.34,21.37,31.34Zm85.53-8.16a7.32,7.32,0,0,1-5.71,6.34C101,25.9,103.49,24.16,106.9,23.18Z"/></g></g></svg>