<svg xmlns="http://www.w3.org/2000/svg" viewBox="0 0 76.3 72.46"><title>curly2</title><g id="Capa_2" data-name="Capa 2"><g id="desktop"><path d="M28.85,5.67a14,14,0,0,1,4.9-4.57C35.93-.16,38.22-.14,40.68.19A8.8,8.8,0,0,1,45.1,2.4a17.1,17.1,0,0,1,2.55,2.87c.59.74,1.07,1.57,1.63,2.4a3.86,3.86,0,0,0,.79-.25c2.58-1.48,5.35-1.15,8.09-.82a11,11,0,0,1,3.18,1.45c2.18,1,3.69,2.84,5.31,4.44A10.81,10.81,0,0,1,70.09,20a27.58,27.58,0,0,1-.19,3.85,1.83,1.83,0,0,0,.59,1.81c1.42,1.31,2.73,2.73,4.05,4.14a6,6,0,0,1,1.76,4.49C76.05,43.41,72.12,50.61,64.83,56a10.63,10.63,0,0,1-5.44,1.74c-.13.51-.24,1-.42,1.55a25.14,25.14,0,0,1-5.4,9.07,11.37,11.37,0,0,1-5,2.63,25.65,25.65,0,0,1-9.51,1.41,14.75,14.75,0,0,1-4.51-.94A19,19,0,0,1,30.41,69a6.41,6.41,0,0,1-1.52-2.1c-.44-.78-.74-1.64-1.16-2.6a9.71,9.71,0,0,0-1.27.23,22.42,22.42,0,0,1-9.41,1,18.71,18.71,0,0,1-3.12-.69,17.09,17.09,0,0,1-2.41-.92,5.94,5.94,0,0,1-1.1-.78c-.18-.13-.35-.34-.55-.37A3.44,3.44,0,0,1,7.56,61c-.52-.79-1.23-1.42-1.78-2.23a13,13,0,0,1-1.95-9.11c.2-1.9.69-3.78,1.07-5.82A12.15,12.15,0,0,1,1.48,41,5.56,5.56,0,0,1,.16,38,20,20,0,0,1,3.93,23.7a12.37,12.37,0,0,1,5-3.87c1.57-.75,3.13-1.57,5.14-1.29,0-1.14,0-2.09.05-3a23.21,23.21,0,0,1,2.85-9.85c1.76-3.43,5.82-3.57,8.35-2.06Zm1.17,1a6.41,6.41,0,0,0,.8,1.2,12.48,12.48,0,0,1,3.06,3.83A12.83,12.83,0,0,0,34.64,13,8.62,8.62,0,0,1,35.31,21a4.81,4.81,0,0,1-3.71,3.4c-3.38.51-5.05-1.48-5.5-4.28a19.47,19.47,0,0,1,.49-8.06c.38-1.42.79-2.83,1.14-4.26a1.18,1.18,0,0,0-.18-1c-1.49-1.23-2.84-2.67-5-2.78S19,4.62,18.12,6.61c-.75,1.73-1.38,3.51-2,5.31a18.08,18.08,0,0,0-.5,6.56l1.2.5a4.69,4.69,0,0,1,2.4,2A12,12,0,0,0,22.1,24.3c1.73,1.41,1.92,3.27,1.53,5.28a1.7,1.7,0,0,1-1.46,1.47,6.1,6.1,0,0,1-3.63-.58c-2.24-1.11-3.08-3.17-3.6-5.41-.4-1.69-.68-3.4-1-5.23a7.74,7.74,0,0,0-1.6.09A12.46,12.46,0,0,0,5,24.8,18.42,18.42,0,0,0,1.59,36.67a5.71,5.71,0,0,0,4.18,5.48c.86-1.16,1.64-2.36,2.59-3.42,1.79-2,3.71-2.27,6.13-1.59a4.06,4.06,0,0,1,2.89,4c0,1.65-.85,2.68-2.89,3.18a19.26,19.26,0,0,1-4,.42c-1.27,0-2.54-.1-3.81-.17A14,14,0,0,0,5.48,50a20.78,20.78,0,0,0,.26,4.53,11.13,11.13,0,0,0,3,5.34,12.28,12.28,0,0,0,6.82,3.73,18.75,18.75,0,0,0,7.24.35,23.53,23.53,0,0,0,4.74-1.27c.07-1.12.09-2.17.23-3.21a10,10,0,0,1,2.8-6.16,3.15,3.15,0,0,1,4.83.19,4.13,4.13,0,0,1,.85,3.87A7.25,7.25,0,0,1,32,62.61c-.81.41-1.64.78-2.5,1.19a8.3,8.3,0,0,0,2.85,4.72c2.06,1.71,4.66,2.13,7.23,2.31a22.52,22.52,0,0,0,10.6-2.06A7.79,7.79,0,0,0,53,66.65a31.22,31.22,0,0,0,4.22-7.41,7.94,7.94,0,0,0,.32-1.47c-.92-.16-1.68-.27-2.43-.44A4.54,4.54,0,0,1,53,56.64a13,13,0,0,0-1.44-1.15A4.23,4.23,0,0,1,49.73,51c.41-1.48,1.13-2.86,2.7-3.22a5.06,5.06,0,0,1,4.58.93A7,7,0,0,1,59.41,53c.14,1,.2,2,.31,3.11.7-.16,1.32-.28,1.93-.43,2.2-.57,3.71-2.17,5.26-3.64A24,24,0,0,0,71,46.54,22.92,22.92,0,0,0,73.73,40a26.6,26.6,0,0,0,.73-5.19,4.43,4.43,0,0,0-.7-2.72,23.14,23.14,0,0,0-1.29-1.93,21.75,21.75,0,0,0-1.63-1.55c-.56-.54-1.09-1.09-1.75-1.74-.28.49-.46.85-.66,1.19-.45.75-.85,1.54-1.36,2.25C64.61,33.7,61.39,35,57.6,34a2.46,2.46,0,0,1-2-2.19c-.13-2.23.68-5.91,3.65-7.4a10.57,10.57,0,0,1,4.65-1.11c1.35,0,2.7.19,4.1.31a1.63,1.63,0,0,0,.18-.46,11.59,11.59,0,0,0-1.51-7.56,26.78,26.78,0,0,0-4.37-4.77c-2.21-2.13-4.7-3.37-7.85-3h-.27A7.18,7.18,0,0,0,50.24,9a3.53,3.53,0,0,0,.15,1c1,2,.61,4.16.29,6.23a11.57,11.57,0,0,1-1.06,3.13,7.92,7.92,0,0,1-3.13,3.43A2.88,2.88,0,0,1,42,20.72a9,9,0,0,1,.43-4.7,17.64,17.64,0,0,1,4.79-6.81c.84-.78.9-1.08.26-2a22.57,22.57,0,0,0-4.07-4.33,7.57,7.57,0,0,0-7.43-1.2A10.64,10.64,0,0,0,30,6.65ZM27.5,17.15c0,.64,0,1.29,0,1.93a4.5,4.5,0,0,0,.87,2.71c1,1.43,2.77,2.15,4.4.33s1.69-4,1.7-6.21a1.3,1.3,0,0,0-.16-.53,15,15,0,0,0-1-2c-1.06-1.58-2.18-3.12-3.3-4.66-.29-.41-.73-.35-1,.1a4.57,4.57,0,0,0-.24.65A23.59,23.59,0,0,0,27.5,17.15Zm40,8.48a6.7,6.7,0,0,0-1.69-.69,10.55,10.55,0,0,0-3,0c-3.5.63-5,2.35-5.52,5.6-.24,1.47.52,2.25,2,2.27a6.49,6.49,0,0,0,5.15-2.18A15.79,15.79,0,0,0,67.51,25.63ZM49,9.81a11.35,11.35,0,0,0-3.43,3.58,13.76,13.76,0,0,0-2.42,6.35c-.08.74-.12,1.65.63,2a2.34,2.34,0,0,0,1.94-.14,7.35,7.35,0,0,0,3.14-4.37A31.89,31.89,0,0,0,49.29,12,12.16,12.16,0,0,0,49,9.81Zm8.65,46.32c.17-1.69.55-3.15-.51-4.7a4.72,4.72,0,0,0-3.63-2.32,1.46,1.46,0,0,0-1,.29,3.55,3.55,0,0,0-.27,5.05c.66.61,1.5.65,2.19,1.07C55.4,56.12,56.49,55.9,57.62,56.13ZM7.5,42.86a16.31,16.31,0,0,0,6.53,0,3.29,3.29,0,0,0,1.17-.67,1.42,1.42,0,0,0,.38-1.75,3.45,3.45,0,0,0-4.73-1.68A9.63,9.63,0,0,0,7.5,42.86ZM29.28,61.8l.33.24a22,22,0,0,0,2.76-1.47,5.09,5.09,0,0,0,2.21-5c-.12-.95-.8-1.29-1.51-1.62s-1.15.14-1.54.6C29.71,56.63,29.3,59.16,29.28,61.8ZM16,20.76l-.29.18a17.37,17.37,0,0,0,1.8,6.41,4.36,4.36,0,0,0,3.41,2.27c.85.11,1.05-.08,1.17-.92A3.35,3.35,0,0,0,21,25.62c-1.19-1.15-2.34-2.32-3.52-3.48C17,21.67,16.46,21.22,16,20.76Z"/></g></g></svg>