<svg xmlns="http://www.w3.org/2000/svg" viewBox="0 0 97.09 83.01"><title>D</title><g id="Capa_2" data-name="Capa 2"><g id="desktop"><path d="M37.9,82.15l-.14-.09c-.59-.39-.55-.7-.62-1.37A31.64,31.64,0,0,1,37,76.56c.7-22.45,1.37-44.9,2.21-67.34C39.42,2.3,39.81,2,46.3.9,59.08-1.19,71.57,0,82.06,8c16.39,12.41,20.08,34.29,7.59,52.69a52.51,52.51,0,0,1-6.8,8.15A48.33,48.33,0,0,1,68,78.7a53.35,53.35,0,0,1-8.79,2.85A64.93,64.93,0,0,1,48.5,82.76c-1.29.08-2.58.13-3.88.16C42.4,83,39.88,83.35,37.9,82.15ZM44,7.2c.24,23.11-1.4,46.38-.62,69.61C65.9,78.69,85.12,65.29,89.56,45,91.22,37.32,91,29.68,86.7,22.89,77.2,7.83,61,2.69,44,7.2Z"/><path d="M.79,20.45c-.08-3.27,2.32-6.4,4.54-6.56s4.2,1.63,5,4.64A13,13,0,0,1,11,21.35c.08,2.73-1.51,4.38-4,5.06S2.83,26,1.84,23.74A25.64,25.64,0,0,1,.79,20.45Z"/><path d="M8.59,74.35a6.73,6.73,0,0,1-2,3.69c-1.34,1.21-3.49.7-4.77-.43A5.08,5.08,0,0,1,.58,71.3a3.23,3.23,0,0,1,1.67-1.88,5.78,5.78,0,0,1,2.82-.67,3.34,3.34,0,0,1,1.65.41C8.52,70.23,9,72.35,8.59,74.35Z"/></g></g></svg>