<svg xmlns="http://www.w3.org/2000/svg" viewBox="0 0 195.48 151.34"><defs><style>.cls-1{fill:#f1f2f2;}</style></defs><title>enter</title><g id="Capa_2" data-name="Capa 2"><g id="desktop"><path class="cls-1" d="M89.28,103.58c-10.31,0-19.92.06-29.53,0-11.64-.09-23.28-.23-34.92-.49-3.7-.08-7.39-.6-11.08-.93-3.2-.29-5.3-1.93-7.4-4.47A22.38,22.38,0,0,1,1,80.13c.15-1.34-.43-5.9-.44-7.43Q.5,51.88.37,31.06a7.8,7.8,0,0,0-.1-1.28c-1-6.26.9-12,3.53-17.44C7.14,5.43,12.31,1.25,20.56.94,36,.34,51.43,0,66.89.25c7.3.13,14.6-.12,21.9-.12,7.89,0,15.77.1,23.66.15,9.15.06,18.31.19,27.46.16,9.62,0,19.25.09,28.84-.44C198.26,0,193,30.4,193,30.81c.27,26.62.49,53.23.91,79.84.09,5.28,1.09,10.54,1.45,15.83a43.44,43.44,0,0,1-.19,8.61,17.06,17.06,0,0,1-17.36,15.32c-21.86.14-43.72.23-65.59.39-2,0-4,.47-6,.52-8.66.25-13.74-2.64-15.47-11.39-1.92-9.7-1.5-19.46-1.48-29.22Zm2.82-3.85c.55,2.69.29,4.94.44,7.24.37,5.75.31,11.52.74,17.26.36,4.69-.6,9.39.84,14.12,1.92,6.28,3.25,7.88,9.58,8.73a21.64,21.64,0,0,0,3.41-.06c4-.12,8-.31,12-.33,3,0,6,.33,9,.25,5.57-.13,11.12-.51,16.68-.69,4.46-.15,8.92-.2,13.38-.22,5,0,10,.1,15.08,0,2.95,0,6.11.27,8.81-.64,6-2,9.52-6.27,9.33-13-.05-1.87,0-3.74-.13-5.61-.27-3.27-.95-6.54-1-9.81q-.12-41,0-82.09c0-1.14-.43-11.53-.35-12.61.31-4.23-1.9-7.49-4.07-10.66A17.91,17.91,0,0,0,172,4c-7.28-.57-14.64-.21-22-.28q-15.9-.17-31.79-.38c-8.77-.1-17.54-.24-26.31-.27-2.71,0-5.42.43-8.12.43-3.7,0-7.39-.39-11.08-.35-7.43.07-14.85.46-22.28.44-5.29,0-10.59-.73-15.88-.68C29,3,23.43,2.85,18,4.38a15.91,15.91,0,0,0-9.92,7.68A33.83,33.83,0,0,0,3.64,29q-.17,23.76,0,47.52a42,42,0,0,0,1.3,11.09,24,24,0,0,0,4.53,8.13,9.23,9.23,0,0,0,5.13,2.85,54.17,54.17,0,0,0,10.25,1c19.15,0,38.29,0,57.43,0C85.26,99.48,89.24,99.65,92.1,99.73Z"/><path class="cls-1" d="M77.55,52.49l6.22,8.45L81.48,64c-2.84-1.2-3.82-4.15-5.85-6S71.46,54,69.34,52c0-2.94,2-4.75,4-6.34,3.33-2.74,6.41-5.91,11.22-8.21-.4,5.64-5.75,6.7-6.91,10.29,4.73.27,9.52.73,14.31.75,5.12,0,10.25-.51,15.37-.55s10.26.17,15.39.36c2.25.09,2.63-1.22,2.64-3,0-4.75.06-9.49.09-14.24,0-1,0-2,0-3.2l2.9-.91c.25.53.56.88.57,1.25.18,6,.41,12,.45,18,0,4.27-1.52,5.38-5.76,5.24-3.41-.1-6.83.38-10.24.41-4.15,0-8.31-.17-12.46-.25-3.14-.06-6.29-.22-9.42-.1C87.11,51.74,82.77,52.13,77.55,52.49Z"/></g></g></svg>