<svg xmlns="http://www.w3.org/2000/svg" viewBox="0 0 405.13 342.57"><defs><style>.cls-1{fill:#f2ebaf;}.cls-2{fill:#6484e8;}.cls-3{fill:#9f8bea;}.cls-4{fill:#f1f2f2;}</style></defs><title>hablado</title><g id="Capa_2" data-name="Capa 2"><g id="desktop"><path class="cls-1" d="M74.77,135.39c6,6.69,13.18,9.78,20.64,14.47,1.14.71,2.29,1.4,3.48,2,7.54,3.85,15.18,7.47,23.34,9.8q6.8,1.94,13.67,3.53c2.84.66,5.75,1,8.62,1.49.9.15,1.78.48,2.68.56,1.18.11,2.37,0,3.55.08,3.14.18,6.28.53,9.43.6a150.81,150.81,0,0,0,46.19-5.65,129.08,129.08,0,0,0,38.46-18.18c11.41-8,21-17.78,27.94-30a65.43,65.43,0,0,0,8.66-27.64,61.52,61.52,0,0,0-9-37.24C264,35.31,252,25.22,237.74,17.65a109.62,109.62,0,0,0-22.66-9c-4.86-1.33-9.75-2.64-14.71-3.51a75.81,75.81,0,0,0-13.11-1.64c-3.84,0-7.68-.59-11.52-.6a152,152,0,0,0-21.93,1.48c-5.4.77-10.75,1.72-16,3-2,.48-4,.91-6,1.5-2.35.71-4.65,1.56-7,2.36-2.69.94-5.42,1.77-8,2.87-2.33,1-4.54,2.21-6.78,3.38C102.93,21.19,95.93,25,89.61,30.1a98.2,98.2,0,0,0-14,13.37A107.8,107.8,0,0,0,67.65,54.4a80.15,80.15,0,0,0-4.9,9.2,49.49,49.49,0,0,0-3.08,7.88,96,96,0,0,0-2,10,52.57,52.57,0,0,0,0,15.84c.39,2.9,1,5.77,1.58,8.65.14.76.35,1.49-.36,2.19-2.13,2.11-4.25,4.23-6.26,6.45-6.16,6.76-12.26,13.59-18.41,20.37q-9,9.92-18,19.77c-1.71,1.87-3.43,3.73-5.13,5.6s-3.18,3.51-4.76,5.28c-.93,1-1.83,2.13-2.74,3.19a141.62,141.62,0,0,0,13-6.92c5.08-3,10.58-5.28,15.61-8.43,3-1.88,6.34-3.18,9.48-4.84,4.09-2.16,8.12-4.43,12.2-6.6,1.59-.86,3.29-1.51,4.86-2.4,2.31-1.32,4.53-2.81,6.83-4.16s3.35-.72,5.67-1.89c.78-.39.64,0,1.55-.1.17,0,.6.66.88.88C73.38,134.81,75,134.8,74.77,135.39Z"/><path d="M108.6,263.42a14.53,14.53,0,0,0,16.15,11.86,37.69,37.69,0,0,0,7.42-1.53c.14-1.07.26-2.24.46-3.39,1.24-7.35,4.15-13.82,10.29-18.35,2.63-1.94,5.63-1.44,7.58,1.37,1.82,2.61,2.28,5.46.63,8.26-2.52,4.29-5.11,8.6-9.41,11.42-1.9,1.25-3.92,2.32-6,3.56a10.08,10.08,0,0,0,.1,1.25,81.17,81.17,0,0,1,2.16,14,10.69,10.69,0,0,0,.4,1.6,9.08,9.08,0,0,1,.27,1.86c0,.85-.42,1.75-1.31,1.67a2.31,2.31,0,0,1-1.65-1.35c-.49-1.82-.69-3.72-1-5.59l-2.11-12.59c-1.8.3-3.35.48-4.86.81-10.35,2.26-19.32-3.5-21.83-12.93-.12-.45-.27-.9-.47-1.56-1,0-2-.05-3,0-10.23.58-18.29-3.7-24.68-11.33A15.76,15.76,0,0,1,75,235.39c.15-.36.26-.74.38-1.08-2.25-1.42-4.49-2.74-6.63-4.22a22,22,0,0,1-9.48-14.75,12.4,12.4,0,0,1,.51-6.55,20.76,20.76,0,0,1,12.9-13,41.5,41.5,0,0,1,15.35-2.21,3.39,3.39,0,0,1,3.17,1.69c.17.33,0,.83,0,1.3-6.46-1.67-12.41-.15-18.18,2a18.12,18.12,0,0,0-9.54,8.13,12.14,12.14,0,0,0-.81,10.72,22.11,22.11,0,0,0,9.47,11.21c1.33.84,2.72,1.61,4.1,2.36a2.33,2.33,0,0,0,.86.12c1.56-2,3-4,4.61-5.8a21,21,0,0,1,15.69-7c1.49,0,3.08,2.27,3.57,3.56.8,2.07-.13,4.15-1.41,5.79s-2.44,3.08-3.77,4.53a11.34,11.34,0,0,1-6.38,3.23,20.14,20.14,0,0,1-9.17-.05,17.83,17.83,0,0,0-2.05-.3,12.78,12.78,0,0,0-.44,12c1.84,4,5,6.65,8.44,9.12,5.38,3.85,11.43,4.77,17.83,4.29a1.4,1.4,0,0,0,.46-.1,3.42,3.42,0,0,0,.51-.33,25.94,25.94,0,0,1,3.1-9.26c3.21-5.34,7.82-9,13.21-11.91a7.13,7.13,0,0,1,1.57-.55,5,5,0,0,1,6.43,4.36c.6,3.89-1.44,6.66-3.74,9.34a33.46,33.46,0,0,1-16.51,11C109,263.06,108.85,263.21,108.6,263.42Zm-.12-3.63c1.7-.68,3.19-1.14,4.57-1.86,3.36-1.74,6.73-3.58,9.3-6.42a31.14,31.14,0,0,0,4-5.82,3.2,3.2,0,0,0-.6-3.75c-1.06-1.17-2.2-.49-3.26,0a24.2,24.2,0,0,0-13.22,12.85A8.28,8.28,0,0,0,108.48,259.79ZM80.11,232.16a35.18,35.18,0,0,0,5.4,1,13,13,0,0,0,4.08-.76c1.45-.44,3.16-.74,4.2-1.7a33.94,33.94,0,0,0,4.55-5.68c.85-1.23.48-2.34-.67-3.33A4.37,4.37,0,0,0,93,221.1,26.08,26.08,0,0,0,80.11,232.16Zm55.39,40.29c.62-.18.85-.22,1.07-.3,5.75-2.19,9.22-6.7,11.92-11.91a4.62,4.62,0,0,0-.64-5.12c-1.18-1.58-2.44-1.69-4-.39a22.59,22.59,0,0,0-5.94,8.17A29.11,29.11,0,0,0,135.5,272.45Z"/><path class="cls-2" d="M317.16,75.15c-2.91-1.3-5.64-2.34-8.19-3.72a78.29,78.29,0,0,1-7.21-4.65c-.79-.54-1.85-1.1-1.43-2.43a2.82,2.82,0,0,1,2.87-2c2.22-.12,4.43-.31,6.64-.37,3.31-.1,6.63-.05,10-.16,1.48-.06,2.95-.37,4.76-.61.23-2.18.43-4.51.7-6.82.6-5,1.19-10,1.89-15,.22-1.58,1-2.12,2.17-1.65a2.93,2.93,0,0,1,1.26,1.51A66.79,66.79,0,0,1,334.73,53c.28,1.46.61,2.91,1,4.74,2-1.58,3.62-3,5.37-4.32,4.36-3.28,8.73-6.54,13.16-9.72a15.62,15.62,0,0,1,3.14-1.34c1.08,1.26.77,2.35.34,3.5a58.14,58.14,0,0,1-6.47,11.81c-1.06,1.58-2.2,3.1-3.24,4.68-.58.9-1,1.89-1.67,3.08l6.6,1.1c3,.5,6.08,1,9.1,1.53a16.31,16.31,0,0,1,2.12.83c.6.21.55.44.95.85a3.68,3.68,0,0,0,1.53.76c.74.25,1.59.85,1.4,1.61a1.5,1.5,0,0,1-.68.81A10,10,0,0,1,364.84,74l-13.28,4.18a2.17,2.17,0,0,0-1.11.61c-.56.7.49,1.67.8,2.29l1.56,3.22c1,2.06,2,4.12,3,6.2,1.17,2.58,2.17,5.24,3.28,7.84.65,1.52,1.42,3,2.07,4.51a18.76,18.76,0,0,1,1,2.89,2,2,0,0,1-1,2.44,1.91,1.91,0,0,1-2.37-.5c-2.51-2.28-5-4.55-7.5-6.86-3.75-3.49-7.46-7-11.34-10.67-.38.57-.7,1-1,1.43-3.33,5.47-6.89,9.8-10.22,15.27-1.13,1.85.2-.32-1.42.57.19-6.87-1.11-12.28-2.26-19.37-2.75,1.51-5.37,3.13-8.14,4.42-3.57,1.68-7.27,3.09-10.91,4.61a3.41,3.41,0,0,1-.91.28c-1,.11-2.18.24-2.81-.76s.17-1.78.68-2.56A167.7,167.7,0,0,1,314.15,79.3C315.2,78,316.1,76.63,317.16,75.15Z"/><path class="cls-3" d="M83.57,298.44c-1.67-.37-2.89-.68-4.12-.9s-15.27-1.8-17.65-2.26c-.53-.11-2.18-.32-2.72-.35-1.49-.08-2.51.88-4,.83a1.43,1.43,0,0,1-1.48-1.25c-.34-1.62-.75-3.22-1-4.85-.81-4.5-1.57-9-2.37-13.51-.35-1.95-.74-3.88-1.17-5.81-.08-.36-.45-.66-1-1.37-.14,1.4-.89,1.37-1.29,2.13-1.15,2.19-1.19,4.7-1.94,7-1.34,4.11-1.12,9.45-2.25,13.63a4.88,4.88,0,0,1-3.8,3.75c-4.69,1.12-9.33,2.41-14,3.63l-12.1,3.13c1.9.66,3.29,1.54,4.67,1.54,3.54,0,6.71,1.42,10.07,2.08,2.61.51,5.21,1.12,7.78,1.79a42,42,0,0,1,5.16,1.69A3.1,3.1,0,0,1,42,310.86q1.59,4.31,2.89,8.69c1,3.26,1.83,6.55,2.75,9.82.27.94.58,1.87,1,3.1.41-.54.63-.69.66-.88.85-5.6,1.67-11.22,2.53-16.82.29-1.92.22-3.93,1.1-5.29a27.86,27.86,0,0,0,3.72-.77c4.14-1.51,8.25-3.13,12.37-4.68,3.25-1.23,6.51-2.39,9.76-3.62C80.25,299.84,81.73,299.19,83.57,298.44Z"/><path d="M393.73,147.16c-.56,4.76-2.09,8.41-6.16,10.53l-1.68.88c-3.37,1.77-6.4,1.14-9.52-.88s-4.25-4.71-4.6-8.08c0-.24-.1-.47-.1-.7,0-3.65,3.27-10,8.11-11.51s10.84,1,12.69,5.42A36.65,36.65,0,0,1,393.73,147.16Zm-19.29,1.52c0,4.67,3,7.83,7.35,8,4.9.19,8.79-3.62,9-9a8.14,8.14,0,0,0-7.37-8.28C378.65,139.16,374.51,143.18,374.44,148.68Z"/><path d="M33.55,206.77a9.53,9.53,0,0,1-7.62,8.77c-6.18,1.18-10-6.09-7.47-11.15A12.1,12.1,0,0,1,21,200.76a6.69,6.69,0,0,1,8.34-.89C31.5,201.26,33.78,204.05,33.55,206.77Zm-13.29,1c0,2.5,1.25,4.92,4.1,5,3.59.1,7.18-4.51,5.95-7.89a6.61,6.61,0,0,0-2.39-2.79c-1.79-1.26-4.66-.13-6,1.28A6.51,6.51,0,0,0,20.26,207.79Z"/><path d="M397,108.64a5.37,5.37,0,0,1-5.38-4.19,19,19,0,0,1-.65-3.72,6,6,0,0,1,.62-2.4,8,8,0,0,1,1-1.33,6.32,6.32,0,0,1,7-2.44,7.44,7.44,0,0,1,5.14,5.24c1.18,3.36.05,6.71-3.16,7.93a16,16,0,0,1-2.75.66C398.06,108.53,397.35,108.58,397,108.64Zm5.45-6.72c0-3.42-1.17-4.57-4.3-5-2-.26-4.56,2.28-4.44,4.27.16,2.81,1.26,5,3.31,4.88C400.42,105.92,402.38,104.54,402.4,101.92Z"/><path d="M196.45,106.52c1.09,1.2,2.24,2.58,3.5,3.86a24.67,24.67,0,0,0,12.43,7A15.75,15.75,0,0,0,224,115.3c1.54-.92,2.93-2.1,4.26-3.07-.77-3.38-1.62-6.42-2.15-9.52a69.1,69.1,0,0,1-.27-17.77,142,142,0,0,1,2.12-14,45,45,0,0,1,6-15.14,14.52,14.52,0,0,1,4.51-4.45,5.87,5.87,0,0,1,8.44,1.82,21.94,21.94,0,0,1,3.7,11.12,52.22,52.22,0,0,1-3,20c-1,3-2.1,6-3.29,8.87a65,65,0,0,1-10.81,18c-1.29,1.5-1.31,1.71,0,3.18a30.32,30.32,0,0,0,3.68,3.3c1.74,1.33,1.91,1.74.89,4.21-3.86-.89-6-4-8.38-6.79-1,.74-1.89,1.48-2.85,2.14-7,4.84-14.32,4.47-21.64.72a28.77,28.77,0,0,1-10.09-8.48c-.19-.25-.36-.52-.66-.93-1.25,1.16-2.29,2.22-3.42,3.16a40.6,40.6,0,0,1-16.62,8.76A26,26,0,0,1,158,118.78c-1.66-.71-3.29-1.5-5-2.28-1.66,2.26-3.13,4.61-5,6.66a28.05,28.05,0,0,1-12.66,8.36c-11.22,3.59-20.62,0-28.74-7.46a60.3,60.3,0,0,1-16.1-24c-.83-2.3-1.93-4.52-2.6-6.86a33.67,33.67,0,0,1-.75-5.6c-.07-.7.17-1.27,1.17-1.32a2.76,2.76,0,0,1,.42,1C89,91.08,90.51,94.54,92,98c2.93,6.69,6.28,13.12,11.13,18.67,3.29,3.77,6.66,7.4,11.15,9.83,5.69,3.08,11.67,4.47,18.05,3a26.1,26.1,0,0,0,13.4-8.1,22.39,22.39,0,0,0,4.62-6.65c-1.74-1.53-3.53-2.94-5.14-4.54A48.82,48.82,0,0,1,133.81,91.6c-4.44-12.42-4.72-25.08-2.33-37.9a47.55,47.55,0,0,1,1.9-6.34,13.32,13.32,0,0,1,4.79-6.06,2,2,0,0,1,.81-.47c4.2-.6,8.33-.95,11.62,2.59,1.12,1.2,2.46,2.2,3.55,3.44a32.21,32.21,0,0,1,7.46,14.61,64.24,64.24,0,0,1,1,16.27c-.48,11.26-3.43,22-6.9,32.57-.34,1-.78,2-1.22,3.18a18.26,18.26,0,0,0,1.6,1.09,28.28,28.28,0,0,0,13.87,3.5,19.51,19.51,0,0,0,6.44-1.38,43.45,43.45,0,0,0,15.55-9.77c.22-.22.41-.47.73-.84a11.3,11.3,0,0,0-.52-1.21,69,69,0,0,1-6.94-18.59,104,104,0,0,1-2.86-20.39,67,67,0,0,1,1.47-18.84,44.9,44.9,0,0,1,2.87-7.5,12,12,0,0,1,7.19-6.21,12.54,12.54,0,0,1,7.6-.45c1.35.4,2.69-.08,4.09.72a14.18,14.18,0,0,1,5.67,6.4c3.47,7,3.31,14.53,2.38,22.08-1.54,12.59-6.33,24.08-12,35.26C200.1,100.38,198.3,103.26,196.45,106.52Zm-44.51,5.37c.39-.87.71-1.49.94-2.14,4.31-12.46,7.41-25.14,7-38.46-.29-8.89-2.67-17-8.85-23.67-2.62-2.83-5.76-4.65-9.78-4.59a3.16,3.16,0,0,0-2.13.69c-2.46,1.93-3.57,4.62-4.24,7.47a56,56,0,0,0-1.63,9.57,91.27,91.27,0,0,0-.09,15.15c.92,8.28,3.08,16.31,7.53,23.52C143.59,104.16,147,108.53,151.94,111.89Zm42.85-8.51c.8-1.13,1.43-1.85,1.88-2.67C204,87.24,210,73.32,211,57.71a35.29,35.29,0,0,0-2.45-16.45,9.66,9.66,0,0,0-4.25-4.89,12.13,12.13,0,0,0-8-1.26,9.62,9.62,0,0,0-7.1,5,32.59,32.59,0,0,0-3.9,13.52c-.25,4.8-.31,9.63-.26,14.44a56,56,0,0,0,.73,7.75c.28,1.94.88,3.84,1.28,5.76s.51,3.78,1.05,5.58a76.87,76.87,0,0,0,5.33,13.89C193.79,101.74,194.21,102.39,194.79,103.38ZM231,109.05c1.16-1.38,2.11-2.41,3-3.52a65.48,65.48,0,0,0,10.94-22.44,61.59,61.59,0,0,0,2.52-14.66A25.26,25.26,0,0,0,245,56.26c-1.56-3.14-4.43-3.71-6.82-1.17a18.45,18.45,0,0,0-2.8,4.06c-3.95,7.44-5.73,15.54-6.49,23.82a88.08,88.08,0,0,0-.09,16.32A40.42,40.42,0,0,0,231,109.05Z"/><path d="M218.9,6.86c3.43,1.09,7,1.86,10.11,4,.68.46,1.7.4,2.46.79,3.51,1.78,7,3.56,10.48,5.48,2.59,1.45,5.12,3,7.59,4.68,1.63,1.08,3.08,2.43,4.67,3.59a73.56,73.56,0,0,1,18.07,18.92,68.76,68.76,0,0,1,10.54,24.67,65.24,65.24,0,0,1,.49,23.1c-1.93,12-7,22.75-14.3,32.48-10,13.34-23,23-37.56,30.68A129.19,129.19,0,0,1,209.7,164c-3.76,1.17-7.66,1.87-11.45,2.93-6.27,1.75-12.73,2.18-19.13,3.05a124.33,124.33,0,0,1-23.38.67,62.86,62.86,0,0,1-11.42-1.39c-1.59-.37-3.29-.22-4.9-.53a175.46,175.46,0,0,1-20.59-5.13,108.27,108.27,0,0,1-40.11-22.81c-2.06-1.83-3.89-3.93-6-6.07C71.16,135.53,19,163.49,14,166.43c-3.1,1.84-6.46,3.25-9.61,5-1.59.9-3.38.8-4.17-1s.48-3,1.6-4.22Q9.45,158,17.07,149.65q10.11-11,20.24-22c6.22-6.76,12.42-13.53,18.68-20.24a2.5,2.5,0,0,0,.55-2.77,57.3,57.3,0,0,1-2-18.34,67.77,67.77,0,0,1,5.58-23.64A85,85,0,0,1,84,31.13a36.92,36.92,0,0,1,7.64-5.5c1.76-.84,3.17-2.41,4.77-3.6a30,30,0,0,1,3.33-2.26c2.9-1.62,5.81-3.2,8.77-4.7,2.24-1.13,4.51-2.21,6.84-3.11,4.89-1.89,9.76-3.89,14.78-5.37a95.11,95.11,0,0,1,10.12-2.76c3.5-.62,7-1.12,10.5-1.84a119.42,119.42,0,0,1,20-1.93,20.76,20.76,0,0,1,6.75.48,2.05,2.05,0,0,0,.7,0c6.2-.72,12.29.08,18.34,1.31a59.61,59.61,0,0,0,7.84,1.53M75,133.18c.84.69,1.51,1.67,2.39,2.56,1.8,1.83,3.7,3.56,5.67,5.21a113.06,113.06,0,0,0,12.4,8.91c1.14.71,2.29,1.4,3.48,2,7.54,3.85,15.18,7.47,23.34,9.8q6.8,1.94,13.67,3.53c2.84.66,5.75,1,8.62,1.49.9.15,1.78.48,2.68.56,1.18.11,2.37,0,3.55.08,3.14.18,6.28.53,9.43.6a150.81,150.81,0,0,0,46.19-5.65,129.08,129.08,0,0,0,38.46-18.18c11.41-8,21-17.78,27.94-30a65.43,65.43,0,0,0,8.66-27.64,61.52,61.52,0,0,0-9-37.24C264,35.31,252,25.22,237.74,17.65a109.62,109.62,0,0,0-22.66-9c-4.86-1.33-9.75-2.64-14.71-3.51a75.81,75.81,0,0,0-13.11-1.64c-3.84,0-7.68-.59-11.52-.6a152,152,0,0,0-21.93,1.48c-5.4.77-10.75,1.72-16,3-2,.48-4,.91-6,1.5-2.35.71-4.65,1.56-7,2.36-2.69.94-5.42,1.77-8,2.87-2.33,1-4.54,2.21-6.78,3.38C102.93,21.19,95.93,25,89.61,30.1a98.2,98.2,0,0,0-14,13.37A107.8,107.8,0,0,0,67.65,54.4a80.15,80.15,0,0,0-4.9,9.2,49.49,49.49,0,0,0-3.08,7.88,96,96,0,0,0-2,10,52.57,52.57,0,0,0,0,15.84c.39,2.9,1,5.77,1.58,8.65.14.76.35,1.49-.36,2.19-2.13,2.11-4.25,4.23-6.26,6.45-6.16,6.76-12.26,13.59-18.41,20.37q-9,9.92-18,19.77c-1.71,1.87-3.43,3.73-5.13,5.6s-3.18,3.51-4.76,5.28c-.93,1-1.83,2.13-2.74,3.19a141.62,141.62,0,0,0,13-6.92c5.08-3,10.58-5.28,15.61-8.43,3-1.88,6.34-3.18,9.48-4.84,4.09-2.16,8.12-4.43,12.2-6.6,1.59-.86,3.29-1.51,4.86-2.4,2.31-1.32,4.53-2.81,6.83-4.16,2.09-1.24,4.43-3.22,6.95-3.18A3.76,3.76,0,0,1,75,133.18Z"/><path class="cls-4" d="M323.31,216.31c2.95-3,5.75-5.63,8.36-8.46a32.2,32.2,0,0,0,3.76-5.13c1.08-1.81,1.83-3.82,2.77-5.72,2.36-4.74,3.87-9.65,3.52-15.05-.28-4.26-.26-8.53-.53-12.79-.42-6.57-1.1-13.14-3.65-19.28-2-4.74-4.3-9.33-6.55-13.95a40.63,40.63,0,0,0-12.7-15.16c-9.34-6.82-19.13-13-30.17-16.76-5.23-1.8-10.42-3.89-15.8-5.05-7.63-1.66-15.4-2.74-23.16-3.78a100,100,0,0,0-14.66-1c-6.23.09-12.46.7-18.67,1.29-4.4.42-8.76,1.25-13.15,1.8a111.49,111.49,0,0,0-35,10.71c-4.77,2.32-9.42,4.87-14,7.5a58.18,58.18,0,0,0-14.09,10.8A148.21,148.21,0,0,0,121.94,150a20.09,20.09,0,0,0-3,6.66,50.33,50.33,0,0,0-.6,15.11c.19,1.4.12,2.84.24,4.26a29.42,29.42,0,0,0,.56,5.16,56.61,56.61,0,0,0,2.4,6.92,44.8,44.8,0,0,0,3.06,6.63A66.57,66.57,0,0,0,129.3,201,94.88,94.88,0,0,0,147,218.46c10.46,7.87,22.38,13,34.85,16.77,3.3,1,6.82,1.25,10.26,1.8,5.15.82,10.29,1.76,15.47,2.35,5.42.62,10.87.9,16.31,1.32a173.34,173.34,0,0,0,24.86.11c3.79-.26,7.58-.58,11.38-.63a66.56,66.56,0,0,0,11.1-.79c.93-.17,1.88-.18,2.82-.28,2.44-.24,4.91-.33,7.31-.78a49.49,49.49,0,0,0,15.77-6.26c1.21-.7,2.19-1.78,3.34-2.6,1.79-1.28,2.15-1.2,3.5.44q1.5,1.84,3,3.67l35.41,42.83a6.62,6.62,0,0,0,.88.78l.26-.21Q333.39,246.62,323.31,216.31Z"/><path d="M301.93,231.35c-3.23,3.55-7.42,5.54-11.61,7.33a46.4,46.4,0,0,1-10.48,2.84c-4.44.76-8.95,1.07-13.44,1.45-2.19.19-4.42,0-6.63.13-7.35.3-14.7.82-22,.91a190.11,190.11,0,0,1-32.41-2.15c-5.07-.81-10.15-1.61-15.25-2.25a68,68,0,0,1-16.49-4.27c-9.29-3.68-18.4-7.76-26.44-13.78a85.17,85.17,0,0,1-9.84-8.55c-4.53-4.63-8.86-9.47-13-14.43a36,36,0,0,1-5.69-10c-.47-1.19-.79-2.39-1.19-3.6a22,22,0,0,1-1-2.8c-.48-2.43-.43-4.92-.69-7.37a39.41,39.41,0,0,1-.2-4.61c0-1.41-.32-2.83-.26-4.23.2-4.14.29-8.35,1.81-12.25,1.12-2.9,2.22-5.84,4.45-8.26,1.63-1.75,2.72-4,4.08-6,6.82-10.17,14.38-19.64,25.31-25.74,5.73-3.2,11.46-6.46,17.41-9.21,11.46-5.31,23.41-9.11,36.07-10.34,7.07-.68,14.17-1.2,21.2-2.24,6.66-1,13.23-.26,19.83.18,2,.14,4.1.24,6.13.49,10.83,1.32,21.64,2.87,31.93,6.69,9,3.32,17.78,7,25.86,12.23,5.17,3.35,10.49,6.47,14.91,10.84a47.93,47.93,0,0,1,9.21,12.84c1.38,2.75,3,5.38,4.24,8.19,1.31,3,2.27,6.2,3.35,9.32.53,1.57,1.07,3.14,1.45,4.75a59.69,59.69,0,0,1,1.48,13.4c0,4.74.45,9.47.5,14.21a23.16,23.16,0,0,1-1.76,8.54,56.71,56.71,0,0,1-15.63,22,3.31,3.31,0,0,0-.37.65q11.06,34.11,22.25,68.67l-1.33,1.8a5.39,5.39,0,0,1-1.3-.84c-3.41-4-6.83-8.11-10.18-12.22Q325,260,313.91,246.18c-2.82-3.51-5.52-7.12-8.33-10.64C304.46,234.13,303.22,232.82,301.93,231.35Zm21.38-15c2.95-3,5.75-5.63,8.36-8.46a32.2,32.2,0,0,0,3.76-5.13c1.08-1.81,1.83-3.82,2.77-5.72,2.36-4.74,3.87-9.65,3.52-15.05-.28-4.26-.26-8.53-.53-12.79-.42-6.57-1.1-13.14-3.65-19.28-2-4.74-4.3-9.33-6.55-13.95a40.63,40.63,0,0,0-12.7-15.16c-9.34-6.82-19.13-13-30.17-16.76-5.23-1.8-10.42-3.89-15.8-5.05-7.63-1.66-15.4-2.74-23.16-3.78a100,100,0,0,0-14.66-1c-6.23.09-12.46.7-18.67,1.29-4.4.42-8.76,1.25-13.15,1.8a111.49,111.49,0,0,0-35,10.71c-4.77,2.32-9.42,4.87-14,7.5a58.18,58.18,0,0,0-14.09,10.8A148.21,148.21,0,0,0,121.94,150a20.09,20.09,0,0,0-3,6.66,50.33,50.33,0,0,0-.6,15.11c.19,1.4.12,2.84.24,4.26a29.42,29.42,0,0,0,.56,5.16,56.61,56.61,0,0,0,2.4,6.92,44.8,44.8,0,0,0,3.06,6.63A66.57,66.57,0,0,0,129.3,201,94.88,94.88,0,0,0,147,218.46c10.46,7.87,22.38,13,34.85,16.77,3.3,1,6.82,1.25,10.26,1.8,5.15.82,10.29,1.76,15.47,2.35,5.42.62,10.87.9,16.31,1.32a173.34,173.34,0,0,0,24.86.11c3.79-.26,7.58-.58,11.38-.63a66.56,66.56,0,0,0,11.1-.79c.93-.17,1.88-.18,2.82-.28,2.44-.24,4.91-.33,7.31-.78a49.49,49.49,0,0,0,15.77-6.26c1.21-.7,2.19-1.78,3.34-2.6,1.79-1.28,2.15-1.2,3.5.44q1.5,1.84,3,3.67l35.41,42.83a6.62,6.62,0,0,0,.88.78l.26-.21Q333.39,246.62,323.31,216.31Z"/><path d="M161.57,190.06a29.63,29.63,0,0,1-.38-4c.11-2.88.39-5.75.63-8.63a8.59,8.59,0,0,1,.37-1.36c.62-2.34,1.23-4.69,1.88-7a53.23,53.23,0,0,1,3.09-9.12,42.71,42.71,0,0,1,3.89-6.54c1.34-1.87,2-4,3.49-5.88,2.57-3.27,5.51-6.29,9.74-7.56a12.24,12.24,0,0,1,12.88,3.06A41.38,41.38,0,0,1,205,153.3c1.64-2.62,3-5.38,5-7.76a52,52,0,0,1,4.91-4.82c1.54-1.36,2.81-2.67,4.79-3.37a12.19,12.19,0,0,1,10.83,1.35c3.94,2.73,6.66,6.49,9.21,10.42.69,1.07,1.55,3.24,2.35,1.13a19.34,19.34,0,0,1,2.53-4.5c3-4.1,6.72-8.69,11.54-10.61a14.4,14.4,0,0,1,6.79-.58c4.08.4,6.91,3,9.53,5.71a40.8,40.8,0,0,1,3.9,5.63c.35.51.67,1,1.15,1.81,1.57-2.17,3-4.21,4.51-6.21,2.87-3.86,5.74-7.73,8.7-11.53a6,6,0,0,1,2.37-1.84c1.13-.46,1.86.38,1.44,1.53a13.44,13.44,0,0,1-2.07,3.85c-4,5.08-7.89,10.27-11.8,15.44a4.91,4.91,0,0,0-.73,5.41c2.18,5.15,2.59,10.73,3.28,16.22a93.56,93.56,0,0,1-.27,24.85,22.07,22.07,0,0,1-.85,3.68,3,3,0,0,1-4.15,2,7.3,7.3,0,0,1-4-3.86c-3-6.15-5.36-12.52-5.37-19.47a48.27,48.27,0,0,1,4.35-21,25.61,25.61,0,0,1,1.68-3.09,4.36,4.36,0,0,0-.12-4.7,27.9,27.9,0,0,0-6.19-8.33c-5.29-4.58-10.63-3.42-15.1.55-1.1,1-2.27,1.88-3.28,3a19.36,19.36,0,0,0-1.64,2.28c-1.63,2.37-2.84,5-4.29,7.52a3.35,3.35,0,0,0-.23,3.12c1.43,3.94,2.89,7.89,4.05,11.91,2.56,8.8,4,17.74,2.66,26.93a17.5,17.5,0,0,1-1.55,4.66,12.13,12.13,0,0,1-1.39,2.82,6.37,6.37,0,0,1-5.58,2.78,6.19,6.19,0,0,1-4-2.25,20.54,20.54,0,0,1-5.1-11.78,59.58,59.58,0,0,1-.44-6.81c0-2.08.36-4.23.48-6.33.1-1.74.19-3.47.4-5.2A40.09,40.09,0,0,1,235,166c.84-2.58,2.18-4.86,3.23-7.33a6.58,6.58,0,0,0-.32-6.45,39,39,0,0,0-7.64-9.84,11.31,11.31,0,0,0-5.88-2.76,6.38,6.38,0,0,0-4.87,1.46,26.64,26.64,0,0,0-5.06,4.58c-2.4,3-4.45,6.31-6.66,9.48a3.92,3.92,0,0,0-.34,4.17,99.5,99.5,0,0,1,6.85,25.82,31.86,31.86,0,0,1,.05,8.67,22.28,22.28,0,0,1-2.25,7.44,8.19,8.19,0,0,1-.64,1c-3.07,4.24-10.09,4.24-13.19,0a17.36,17.36,0,0,1-3.17-10.72,106.76,106.76,0,0,1,1-12c.94-7.58,3.61-14.61,7-21.41a2.87,2.87,0,0,0,.11-2.22c-2.42-4.76-5.4-9.12-9.88-12.2a8.62,8.62,0,0,0-6.11-1.32c-3.5.42-6.09,2.42-8.56,4.61a53.66,53.66,0,0,0-4.08,4.43,4.33,4.33,0,0,0-.63,1c-1.52,3.14-3.11,6.24-4.69,9.33a50.64,50.64,0,0,0-3.36,9.43,91.5,91.5,0,0,0-2.37,9.67,36.7,36.7,0,0,0-.52,5c0,.69.11,1.47,0,2.14a10.9,10.9,0,0,1-.8,2.17Zm44-28.39h-.53A70.55,70.55,0,0,0,198,192a14.16,14.16,0,0,0,2.54,8.24c1.49,2.15,5.13,2.51,7.31,1.31a6.8,6.8,0,0,0,3.31-5.22,69.45,69.45,0,0,0,.45-9c0-5.41-1.55-10.61-2.89-15.8C207.85,168.21,206.64,165,205.58,161.67ZM241,158.56c-.39.78-.53,1-.6,1.19a44.6,44.6,0,0,1-1.85,5.91,34.47,34.47,0,0,0-2.35,8.72c-.56,3-.44,6.1-.71,9.15a32.35,32.35,0,0,0,.46,9.67,19.89,19.89,0,0,0,3.43,8c1.65,2.19,3.3,2.22,5,.1a13.86,13.86,0,0,0,2.75-6.44,48.13,48.13,0,0,0-.22-16.24c-.92-5.88-2.94-11.46-4.63-17.13A28,28,0,0,0,241,158.56Zm37.75,39.1c3.61-7.45,2-33.43-1.78-41.58-.7.83-1.71,1.5-1.87,2.33-.35,1.86-1.26,3.5-1.75,5.27a49.44,49.44,0,0,0-1.87,15,36.78,36.78,0,0,0,5.1,17.05C277,196.58,277.53,197.53,278.72,197.66Z"/><path d="M40.43,293.12c.31-1.66.54-3.21.9-4.73.74-3.2,1.52-6.39,2.32-9.58q1.07-4.23,2.15-8.47L46.88,266c.22-.9.3-3.06,1.16-3.57a.74.74,0,0,1,.76,0c1.05.67,1.16,1.56,1.43,2.73.32,1.35.6,2.72.88,4.08.54,2.72,1,5.45,1.51,8.17s1,5.3,1.57,7.93c.3,1.34.62,2.67,1,4,.1.4.83,3.76,1.13,3.8,2.53.26,5,.55,7.37.76,4.6.4,9.21.83,13.82,1.09,3.7.21,7.41.16,11.12.28,2.13.07,2.13.12,4,1.81-.18,1.23-1.26,1.48-2.18,1.83-4.87,1.85-9.76,3.66-14.65,5.48-6.06,2.26-12.12,4.56-18.21,6.74a3.44,3.44,0,0,0-2.66,3.31c-.64,5.81-1.59,11.58-2.42,17.37-.44,3-.85,6.05-1.29,9.06-.14.93-.57,1.7-1.63,1.7a1.8,1.8,0,0,1-2-1.38q-1.35-5.38-2.72-10.77c-.74-2.9-1.53-5.78-2.27-8.68-.85-3.35-1.66-6.71-2.5-10.1q-12.27-3-24.55-5.91c-2.61-.63-5.21-1.27-7.79-2-.6-.17-1.44-.67-1.54-1.14-.21-1,.72-1.46,1.6-1.69,1.82-.49,3.65-.95,5.49-1.4l24.38-5.9C38.51,293.39,39.37,293.3,40.43,293.12Zm43.14,5.32c-1.67-.37-23.48-2.46-24-2.49-1.49-.08-3-.14-4.47-.19a1.43,1.43,0,0,1-1.48-1.25c-.34-1.62-.75-3.22-1-4.85-.81-4.5-1.57-9-2.37-13.51-.35-1.95-.74-3.88-1.17-5.81-.08-.36-.45-.66-1-1.37a89.39,89.39,0,0,1-2.26,10.16c-1.34,4.11-2.09,8.41-3.22,12.59a4.88,4.88,0,0,1-3.8,3.75c-4.69,1.12-9.33,2.41-14,3.63l-12.1,3.13c1.9.66,3.29,1.54,4.67,1.54,3.54,0,6.71,1.42,10.07,2.08,2.61.51,5.21,1.12,7.78,1.79a42,42,0,0,1,5.16,1.69A3.1,3.1,0,0,1,42,310.86q1.59,4.31,2.89,8.69c1,3.26,1.83,6.55,2.75,9.82.27.94.58,1.87,1,3.1.41-.54.63-.69.66-.88.85-5.6,1.67-11.22,2.53-16.82.29-1.92.22-3.93,1.1-5.29a27.86,27.86,0,0,0,3.72-.77c4.14-1.51,8.25-3.13,12.37-4.68,3.25-1.23,6.51-2.39,9.76-3.62C80.25,299.84,81.73,299.19,83.57,298.44Z"/><path d="M317.16,75.15c-2.91-1.3-5.64-2.34-8.19-3.72a78.29,78.29,0,0,1-7.21-4.65c-.79-.54-1.85-1.1-1.43-2.43a2.82,2.82,0,0,1,2.87-2c2.22-.12,4.43-.31,6.64-.37,3.31-.1,6.63-.05,10-.16,1.48-.06,2.95-.37,4.76-.61.23-2.18.43-4.51.7-6.82.6-5,1.19-10,1.89-15,.22-1.58,1-2.12,2.17-1.65a2.93,2.93,0,0,1,1.26,1.51A66.79,66.79,0,0,1,334.73,53c.28,1.46.61,2.91,1,4.74,2-1.58,3.62-3,5.37-4.32,4.36-3.28,8.73-6.54,13.16-9.72.91-.65,2.23-1.87,3.14-1.34,1.08,1.26.77,2.35.34,3.5a58.14,58.14,0,0,1-6.47,11.81c-1.06,1.58-2.2,3.1-3.24,4.68-.58.9-1,1.89-1.67,3.08l6.6,1.1c3,.5,6.07,1,9.1,1.53,7.5,1.26,8.95,2.62,9.61,3a2.49,2.49,0,0,1-1.74,2.79c-2.07.71-4.11,1.56-6.22,2.16-2.74.78-5.55,1.28-8.29,2.06a49.51,49.51,0,0,0-4.73,1.89c1.8,3.73,3.5,7.11,5.08,10.55,1.17,2.58,2.17,5.24,3.28,7.84.65,1.52,1.42,3,2.07,4.51a18.76,18.76,0,0,1,1,2.89,2,2,0,0,1-1,2.44,1.91,1.91,0,0,1-2.37-.5c-2.51-2.28-5-4.55-7.5-6.86-3.75-3.49-7.46-7-11.34-10.67-.38.57-.7,1-1,1.43l-8.33,13.72c-.8,1.31-2,4.87-4,3.91-1.85-.89-1.22-3.47-1.14-5.09s.16-3.54.2-5.31a58.62,58.62,0,0,0-.6-10.76c-2.75,1.51-5.37,3.13-8.14,4.42-3.57,1.68-7.27,3.09-10.91,4.61a3.41,3.41,0,0,1-.91.28c-1,.11-2.18.24-2.81-.76s.17-1.78.68-2.56A167.7,167.7,0,0,1,314.15,79.3C315.2,78,316.1,76.63,317.16,75.15Zm40.19,27.5a3.35,3.35,0,0,0,0-.79,194.28,194.28,0,0,0-8.46-19.07c-.35-.7-.87-1.33-1.19-2.05-.74-1.67-.56-2.17,1-3.1.4-.25.84-.44,1.26-.66,3.34-1.74,7-2.46,10.62-3.26,1.69-.38,3.47-.56,5-1.67a14.2,14.2,0,0,0-2.93-.62c-3.34-.53-6.68-1.09-10-1.63-2.42-.39-4.84-.76-7.26-1.14s-3.77-2.32-1.91-4.54c.25-.3.43-.66.66-1,2.4-3.53,4.85-7,7.2-10.6,1.08-1.64,2.2-3.29,2.34-5.45-4.42,3-8.62,6.2-12.84,9.37a45.1,45.1,0,0,1-4.43,3.15c-1.41.82-2.52.35-2.93-1.16-.61-2.26-.95-4.58-1.53-6.85s-.82-4.91-2.66-7.38c-.24,2-.46,3.48-.6,5-.36,4.17-.68,8.35-1,12.52-.21,2.45-.29,2.5-2.67,2.54-2.22,0-4.43.07-6.65.13-3.79.09-7.58.18-11.37.29-.74,0-1.46.14-2.68.27,1.32,1.11,2.1,2.11,3.12,2.57,3.5,1.59,7.08,3,10.66,4.45,2.62,1,3.23,3,1.5,5.13-2.17,2.73-4.41,5.39-6.52,8.16-1.88,2.47-3.62,5.06-5.42,7.59l.39.51c2.5-1.08,5.08-2,7.49-3.27,3.29-1.71,6.44-3.69,9.67-5.51,1.78-1,2.8-.52,3,1.59s.25,4.42.32,6.63c.1,2.8.15,5.6.23,8.4a5.34,5.34,0,0,0,1.67-1.77q3-4.73,5.86-9.47a33.26,33.26,0,0,1,2.05-3.42c1.14-1.43,2.3-1.16,2.95.56a10.22,10.22,0,0,0,3.47,4.33c2.1,1.68,4.26,3.29,6.26,5.07S355.08,100.46,357.35,102.65Z"/></g></g></svg>