<svg xmlns="http://www.w3.org/2000/svg" viewBox="0 0 463.79 378.7"><defs><style>.cls-1{fill:#fff;stroke:#fff;stroke-width:3px;}.cls-1,.cls-2{stroke-miterlimit:10;}.cls-2{fill:#9f8bea;stroke:#9f8bea;}</style></defs><title>habladoF</title><g id="Capa_2" data-name="Capa 2"><g id="desktop"><path class="cls-1" d="M177.35,322.66c-8.37-5.48-16-10.15-23.34-15.34a173.84,173.84,0,0,1-42.85-43.87,160.52,160.52,0,0,1-24.61-56.08c-8.69-38.53-3.37-74.94,15.6-109.7a152.76,152.76,0,0,1,19.42-28.45c10.37-11.69,20.7-23.81,35-31.39,6-3.17,11-8,17-11.12,23.25-11.89,47.25-21.51,73.8-23,8-.44,15.92-2.34,23.86-2.21,30.05.47,58.91,6.31,86.52,18.84a192.61,192.61,0,0,1,47.44,30.7,168.72,168.72,0,0,1,43,58.36c11.2,24.84,15.88,50.91,13.34,78.05-4.08,43.55-23.71,79.18-56.11,108.08a177.67,177.67,0,0,1-46.14,30.17c-12.87,5.72-26.07,10.57-40.12,13.3-16.46,3.19-32.88,6.58-49.63,5.55-18.3-1.13-36.7-2.38-54.28-8.5-1.55-.54-3.24-.67-4.84-1.1a4.75,4.75,0,0,0-5.58,1.86Q191,355.09,177,373.29c-.58.75-.88,1.8-1.6,2.32-1,.76-2.58,1.84-3.48,1.54a4,4,0,0,1-2-3.24c.21-3.52,1-7,1.49-10.49C173.37,349.89,175.34,336.36,177.35,322.66Zm5.21-3.64c-2.17,15.09-4.27,29.74-6.38,44.38a10.33,10.33,0,0,0,4.94-3.63c6.58-8.35,13.39-16.53,19.57-25.17,3.58-5,7.34-4.88,12.67-3.46,11.61,3.09,23.33,6.19,35.21,7.83,16.65,2.29,33.43,1.21,50.18-.42,13.15-1.27,25.7-5,38.25-8.55,8.95-2.52,17.41-6.74,25.75-11.14,16.81-8.88,32.55-19.11,46-32.64,19.85-20,34.29-43.12,42.27-70.29,6.88-23.43,7.26-47.1,3.19-70.91a141.76,141.76,0,0,0-6.36-24.43c-2.56-7-6.76-13.46-10-20.27C430,83.9,418.39,70.46,405.33,58.13c-15.57-14.69-33.51-25.71-52.89-34.74a173.33,173.33,0,0,0-47.91-14.1c-11.38-1.7-23-1.6-34.54-2.46-18.65-1.4-36.85,1.6-54.37,7.33-12.4,4.05-25.36,7.07-36.48,14.71-6.53,4.49-14.24,7.38-20.41,12.26-10.34,8.17-20.61,16.67-29.6,26.26-27.3,29.15-41.4,64.07-41.65,104.05-.26,42.72,15.54,79.26,44.7,110.18A182.69,182.69,0,0,0,182.56,319Z"/><path class="cls-2" d="M127.7,240.84c-.46-3.06-1-6.08-2.76-8.8-1.53-2.34-3.32-4.06-6.12-4.59a8.33,8.33,0,0,1-1.73-.47,12.66,12.66,0,0,0-5.65-.76c-.63,0-1.26,0-2.19,0,1.18-2.31.82-4.37.71-6.49-.18-3.61-2.13-6.2-4.5-8.39-3.89-3.58-8.75-5.25-13.95-5.83a14.07,14.07,0,0,0-7.65,1.07,29.67,29.67,0,0,0-7.47,4.6,6,6,0,0,1-.89.53,12,12,0,0,0-8.71-6.17c-5.44-1.12-10.24-.32-14.39,3.67a45.28,45.28,0,0,0-6.87,8c-2.1-2.57-4.94-3.43-7.93-3.94a9.47,9.47,0,0,0-3.14-.08c-4.06.73-7,3.19-9.14,6.56a39,39,0,0,0-4.59,11c-.3,1.13-.42,2.31-.62,3.46-4.72-.83-6.8-.39-10,4.81a23,23,0,0,0-1.87,4.61A34.77,34.77,0,0,0,8,264.53c.12.41.2.84.31,1.34-.8.18-1.45.28-2.09.46C2.24,267.49.49,269.55.5,274.12a8.56,8.56,0,0,0,2.9,6.18A61.57,61.57,0,0,0,9,285.39a30.61,30.61,0,0,0,8.76,5.13,49.7,49.7,0,0,0,7.46,2.24c-5.15,9.83-8.95,20.18-13.75,30.16a17,17,0,0,0-.65,2.23,7.1,7.1,0,0,0,1.36-.8c2.42-2.66,4.81-5.35,7.21-8,2.22-2.48,4.43-5,6.68-7.42,1.8-2,3.64-3.89,5.45-5.83,1-1.06,2-2.08,3-3.2.7-.84,1.36-.76,2.27-.36,1.82.8,3.64,1.7,5.76,1.21.67-.16,1.07.29,1.36.91a14.26,14.26,0,0,0,3.4,4.4,14.89,14.89,0,0,0,16.58,2.72,19.69,19.69,0,0,0,6.5-4.2,1.94,1.94,0,0,1,2-.56c2.1.33,4.21.59,6.33.74,5.59.4,9.92-2.13,13.54-6.1a8.51,8.51,0,0,0,1.66-2.91c.6-1.81,1-3.71,1.45-5.69a6,6,0,0,1,1.27,0,13.54,13.54,0,0,0,11.45-2.89,23.83,23.83,0,0,0,8.59-25.31c-.08-.3-.12-.61-.2-1,4.67-.92,7.23-4,8.58-8.17.89-2.79,1.64-5.62,2.35-8.46A8.9,8.9,0,0,0,127.7,240.84Zm-53-18.72a1,1,0,0,1-1.81,0,3.7,3.7,0,0,1-.51-1.88,8.92,8.92,0,0,1,3-6.52C76.43,216.84,75.68,219.51,74.65,222.12Zm-28.73-.51c.78,1.72,1.55,3.45.56,5.36C45.83,225.23,45.06,223.5,45.92,221.61Zm25,80.71c-3.14-1.29-4.6-5.62-3-8.15a2.57,2.57,0,0,1,3.85-.19,3.5,3.5,0,0,1,.89,1.74A8.59,8.59,0,0,1,70.89,302.32Zm53.55-51.94a30.51,30.51,0,0,1-2.34,5.49,7.28,7.28,0,0,1-6.13,3.77,36.76,36.76,0,0,0-2.56-2.89,8,8,0,0,0-6.8-2.16c-1.06.17-2.08.61-2.28,1.91a2.85,2.85,0,0,0,1.28,2.76,4.64,4.64,0,0,0,1.43.7c2,.62,3.88,1.28,6,.94,1.52-.24,2.13.24,2.41,1.71a27.77,27.77,0,0,1,.77,5.92,22.64,22.64,0,0,1-8.1,17c-3,2.62-6.47,4.23-10.63,3.63-2.53-.36-2.53-.36-3.22-2.89a5.38,5.38,0,0,0-.47-1.31,3.35,3.35,0,0,0-3.16-1.72,2.46,2.46,0,0,0-2.34,2.33,2.87,2.87,0,0,0,1.75,3.07,15.1,15.1,0,0,0,2.5.67c.64.15,1.21.39,1.15,1.14-.22,2.54-.54,5.14-2.17,7.17a15.42,15.42,0,0,1-6.64,5,18.94,18.94,0,0,1-12.59.06c.38-.91.77-1.68,1-2.5a25,25,0,0,0,.64-2.72,4.72,4.72,0,0,0-1-3.94c-1.45-1.87-5.19-2.31-6.35.42-1.3,3.07-.33,7.26,2.43,8.91a9,9,0,0,1,.74.52A16.55,16.55,0,0,1,58.55,309c-4.17.41-7.65-1.3-10.7-4-1.34-1.2-2.7-2.39-2.77-4.45.74-.5,1.54-1,2.28-1.54a6,6,0,0,0,2.48-4.38,2.69,2.69,0,0,0-1.29-2.71,2.16,2.16,0,0,0-2.71.6A7,7,0,0,0,44.29,295c-.49,1.42-.74,2.93-1.07,4.31-3,1-5.35-.46-7.74-2L26,307.87c-3.6,4-7.2,8-10.84,12-.38.41-.74,1.11-1.65,1,1.07-2.45,2.07-4.81,3.12-7.14s2.2-4.82,3.32-7.22,2.25-4.67,3.31-7c.95-2.15,2.14-4.22,2.58-6.58.41-1-2.91-1.66-3.52-1.82a39.29,39.29,0,0,1-5.77-2.1C10.92,286.53,6,281.42,4.2,279.5c-2.59-2.69-3.27-5.64-1.83-9.14.82-2,2.41-2.67,4.3-3.13a3.21,3.21,0,0,1,3.84,1.65,7.08,7.08,0,0,0,2.16,2.06,11.53,11.53,0,0,0,2.93,1.18,1.21,1.21,0,0,0,1.62-1.05c.32-1.56-.41-3.67-1.84-4a42.87,42.87,0,0,0-4.24-1,1.88,1.88,0,0,1-1.87-1.45c-.23-.84-.55-1.65-.73-2.5a36.8,36.8,0,0,1-.2-14.3A26.5,26.5,0,0,1,12,238.11c2.09-3.24,4.83-4,8.21-2.34.16.71.31,1.43.49,2.14a10.58,10.58,0,0,0,3.15,5,3.35,3.35,0,0,0,3.71.65c.86-.55,1.21-2,.73-3.47a6.24,6.24,0,0,0-3.53-4.29c-1.05-.42-2.11-.8-3.32-1.25a7.35,7.35,0,0,1,.12-1.67c1-3.18,1.84-6.41,3.06-9.49A17.73,17.73,0,0,1,30.24,216c4.65-3.64,10.62-1.8,13.8,1.38a2.48,2.48,0,0,1,.7,2.88c-.84,2.31-.34,4.61.35,6.86A2.62,2.62,0,0,0,47,229.26a10.27,10.27,0,0,0,.8-1.63,8.56,8.56,0,0,0-.5-5.85c-.95-2.18-1.09-4.26.6-6.13a80.61,80.61,0,0,1,6-6.38,14.31,14.31,0,0,1,5.3-3.05,9.17,9.17,0,0,1,4.32-.08,32.18,32.18,0,0,1,6.55,1.62c2.08.83,3.37,2.75,4.75,4.68-.34.39-.55.65-.77.89a12.72,12.72,0,0,0-2.9,5.85,4.35,4.35,0,0,0,.46,3.48A2.32,2.32,0,0,0,74,223.87a2.19,2.19,0,0,0,1.85-1.62c1-2.87,1.69-5.77.62-8.77a1.25,1.25,0,0,1,.58-1.69c2.06-1.23,4.08-2.51,6.16-3.7a12.18,12.18,0,0,1,7.14-1.52A30.7,30.7,0,0,1,103,210.62c5.51,3.06,6.91,10.23,5.66,14.81a2.29,2.29,0,0,1-1.64,1.73,21.25,21.25,0,0,0-4.24,2.18,5.88,5.88,0,0,0-2.46,4.62c-.17,1.57.7,2.26,2.21,1.77a7.72,7.72,0,0,0,4.27-3.15,26.65,26.65,0,0,0,2-4.1c.31-.74.67-1.31,1.53-1.37a22.74,22.74,0,0,1,10.14,1.74,3.41,3.41,0,0,1,.82.56c3.53,2.74,4.82,6.58,5.19,10.83C126.75,243.79,125.48,247.08,124.44,250.38Zm-10.32,9.55a15.1,15.1,0,0,1-7.49-1.51c-.69-.34-1.27-1-1-1.74a2.29,2.29,0,0,1,1.5-1C109.77,255.08,112.89,257,114.12,259.93ZM93.59,288.14l-.43.36c-.91-.34-1.86-.63-2.74-1.05a1.4,1.4,0,0,1-.81-1.81c.18-.49.7-1.21,1-1.2a2.49,2.49,0,0,1,1.82.84A13.27,13.27,0,0,1,93.59,288.14ZM44.47,299.2c.44-1.74.78-3.09,1.13-4.42a2,2,0,0,1,.32-.73c.5-.63,1.07-1.34,2-1s1,1.23.78,2C48.2,297.17,46.84,298.41,44.47,299.2ZM10.93,267.57c.09-.21.19-.41.28-.61a29.16,29.16,0,0,1,3.73,1.11c1.2.52,1.4,1.64,1.07,3A7.17,7.17,0,0,1,10.93,267.57Zm10.94-31.15c3.77,0,6.3,3.17,5,6.44C24.34,242.62,21.88,239.42,21.87,236.42Zm85.53-8.16a7.32,7.32,0,0,1-5.71,6.34C101.46,231,104,229.24,107.4,228.26Z"/></g></g></svg>