<svg xmlns="http://www.w3.org/2000/svg" viewBox="0 0 56.86 44.78"><defs><style>.cls-1{fill:#9f8bea;}</style></defs><title>hash</title><g id="Capa_2" data-name="Capa 2"><g id="desktop"><path class="cls-1" d="M8.81,35.39H.09c-.3-1.21.14-1.61,1.18-1.62,2.34,0,4.68-.17,7-.17a1.66,1.66,0,0,0,1.76-1c3-5.85,6-11.68,9-17.52a2.91,2.91,0,0,0,.12-.71c-4.65-.3-9.3.59-13.93-.27V12.86l15-.42c.81-1.64,1.65-3.38,2.51-5.1C23.92,5.18,25,3,26.11.89,26.47.16,26.9-.39,28,.36c-1.43,4.09-4,7.71-5.52,12.15,2,0,3.88,0,5.72,0,4.43,0,8.86-.18,13.28-.14A3.29,3.29,0,0,0,45,10.14C46.51,6.72,48.26,3.41,49.91.07c1.71.69,1.65.68,1,2-1.57,3.17-3.07,6.38-4.59,9.58a1.49,1.49,0,0,0,0,.49c3.5.29,7-.25,10.51.21C57,13.58,56.31,14,55.46,14s-2,.14-3,.15c-1.93,0-3.86,0-5.79,0a2.16,2.16,0,0,0-2.3,1.47c-2.49,5.42-5.06,10.81-7.6,16.21-.13.29-.21.61-.39,1.1.64.06,1.14.16,1.63.16,3.42,0,6.84-.05,10.26,0,1.35,0,1.38.11,1.41,2-4.83.37-9.71,0-14.58.36L31,43.93c-1.78-.67-1.86-.75-1.29-2.08s1.31-2.78,2-4.18c.31-.66.61-1.32.88-1.91-.12-.18-.15-.25-.19-.3s-.09-.1-.15-.11a2,2,0,0,0-.59-.1c-6.83.08-13.67.18-20.67.28-.75,1.73-1.51,3.5-2.29,5.26-.5,1.1-1,2.17-1.57,3.25,0,.06,0,.15-.09.17-.44.2-.89.38-1.34.57-.17-.45-.54-.94-.47-1.34A8.51,8.51,0,0,1,6,41.62C6.87,39.69,7.74,37.75,8.81,35.39Zm34-21.2c-2.68,0-4.88,0-7.08,0-4.34.07-8.68.2-13,.22-.76,0-1.3.09-1.65.8-.46.95-.94,1.9-1.42,2.85q-3.3,6.42-6.6,12.84c-.38.75-.65,1.56-1,2.49h6.84q6.44,0,12.86,0a2.55,2.55,0,0,0,2.75-1.49c2.32-5.05,4.77-10,7.17-15C42,16.1,42.31,15.38,42.85,14.19Z"/></g></g></svg>