<svg xmlns="http://www.w3.org/2000/svg" viewBox="0 0 48.66 65.73"><defs><style>.cls-1{fill:#9f8bea;}</style></defs><title>I</title><g id="Capa_2" data-name="Capa 2"><g id="desktop"><path class="cls-1" d="M20.52,62.89C21.61,42.81,22.68,23,23.77,3c-1-.06-1.77-.16-2.58-.15L2.36,3.29h-1C.62,3.32-.07,3.13,0,2.36c0-.31.78-.74,1.23-.79,1.66-.17,3.34-.25,5-.29C14.06,1.06,21.87.91,29.68.67,34.91.51,40.13.23,45.36,0c1,0,2.07,0,3.3,0l-.31,2.14-23,.59c-.94,20.09-1.87,40-2.8,60l22.59-.89.75,1.67a3.15,3.15,0,0,1-1,.45c-2.51.14-5,.23-7.52.34L5,65.71c-1,0-1.95,0-3,0l-.29-1.62C8,63.35,14.29,63.37,20.52,62.89Z"/></g></g></svg>