<svg xmlns="http://www.w3.org/2000/svg" viewBox="0 0 55.67 33.88"><defs><style>.cls-1,.cls-2{fill:#fff;stroke:#fff;stroke-width:2px;}.cls-1{stroke-miterlimit:10;}.cls-2{stroke-linecap:round;stroke-linejoin:round;}</style></defs><title>interrogacion</title><g id="Capa_2" data-name="Capa 2"><g id="desktop"><path class="cls-1" d="M30.54,32.18a.85.85,0,0,1,1-.76A.53.53,0,0,1,32,32a1.17,1.17,0,0,1-1,.93C30.7,32.86,30.54,32.59,30.54,32.18Z"/><path class="cls-2" d="M32.42,27.71l-.51-.24.58-2,1-3.66c0-.06,0-.12,0-.19.29-.83.64-1.52,1.74-1.45.83.05,1.67-.07,2.51-.1,1.18,0,2.35,0,3.53-.12.91-.06,1.82-.23,2.74-.33,1.09-.12,2.19-.16,3.27-.34a10.62,10.62,0,0,0,4.9-1.76A4.2,4.2,0,0,0,54,14.3a5.07,5.07,0,0,0-2.34-4.68c-1-.68-2.16-1.25-3.26-1.83a3.94,3.94,0,0,0-1.24-.35C45.8,7.2,44.42,7,43,6.78c-.48-.07-1,0-1.48,0-1-.06-2.06-.17-3.09-.21-.81,0-1.63,0-2.45,0-.36,0-.72,0-1.07.08-.1-.24-.06-.38.16-.42A10.61,10.61,0,0,1,38,6a31.06,31.06,0,0,0,3.48.14,20.09,20.09,0,0,1,3.79.34c.78.13,1.56.27,2.34.45a5.21,5.21,0,0,1,1.4.45c1.14.6,2.27,1.23,3.37,1.91a3.61,3.61,0,0,1,1.33,1.46,6.93,6.93,0,0,1,1,3,5.68,5.68,0,0,1-1.5,4,5.62,5.62,0,0,1-2.68,1.61c-.54.15-1.06.33-1.6.45a12.13,12.13,0,0,1-1.58.27c-1.61.16-3.21.3-4.82.43-1.39.12-2.79.22-4.19.31-1.09.07-2.19.1-3.28.17-.66,0-.67.07-.85.74-.3,1.08-.58,2.16-.89,3.24-.2.72-.42,1.44-.64,2.16C32.58,27.28,32.5,27.47,32.42,27.71Z"/><path class="cls-2" d="M18,13l2-6.27a.59.59,0,0,1,.28.73l-1.5,5.34c-.21.73-.26.78-1,.69a28.05,28.05,0,0,0-5,.06,17,17,0,0,0-3.49.5,11.54,11.54,0,0,0-4.43,2.17,9.55,9.55,0,0,0-3,4.79,4.39,4.39,0,0,0,.95,4.15A7.46,7.46,0,0,0,4.1,26.39a3.47,3.47,0,0,0,1.1.46c.48.15,1,.25,1.48.36a4.3,4.3,0,0,0,.51,0c.27,0,.55.07.82.13a3.5,3.5,0,0,0,1.61.17,1.9,1.9,0,0,1,.71,0,17.09,17.09,0,0,0,4,0c.73-.06,1.46-.11,2.19-.14a1.71,1.71,0,0,1,.63.11c.09,0,.22.21.2.28a.75.75,0,0,1-.28.31c-.06,0-.16,0-.25,0-1.63.08-3.27.2-4.9.21a26.81,26.81,0,0,1-3.22-.23c-.93-.11-1.86-.32-2.79-.47a5.63,5.63,0,0,1-4.73-4.2,5,5,0,0,1,.24-3.1,10.42,10.42,0,0,1,3-4.52,4.4,4.4,0,0,1,1-.69,13.88,13.88,0,0,1,3.73-1.57A31.88,31.88,0,0,1,12.52,13c1-.1,1.94-.12,2.91-.13.68,0,1.36.08,2.05.11Z"/><path class="cls-2" d="M22.51,1.7c0,.38-.25.69-.55.67a.6.6,0,0,1-.65-.55c0-.42.29-.81.58-.82A.69.69,0,0,1,22.51,1.7Z"/></g></g></svg>