<svg xmlns="http://www.w3.org/2000/svg" viewBox="0 0 80.71 77.96"><title>lineaLengua</title><g id="Capa_2" data-name="Capa 2"><g id="desktop"><path d="M8.11,1.11a1.79,1.79,0,0,1,.58,1.22c.47,2.87-.34,5.8.11,8.68A31.85,31.85,0,0,1,22,2.42a19.65,19.65,0,0,1,12.25,0c2.92.9,4.78,3.34,6.46,5.8.36.53.65,1.1,1,1.63,1.71-.24,2.6-1.43,3.56-2.55a18.72,18.72,0,0,1,8.34-5.56c3.19-1.08,6.27.13,9.27,1.35A22.48,22.48,0,0,1,71.2,9.23C71,9,71.42,7,71.45,6.54c.09-.93.18-1.87.26-2.8S71.25.23,72.53,0A1.51,1.51,0,0,1,74,1a4.4,4.4,0,0,1,.24,1.88q-.09,5.81.12,11.61c.13,3.66.66,7.37.66,11a21.16,21.16,0,0,0,4,10.69,16.64,16.64,0,0,1,1.56,2.59A1,1,0,0,1,79.13,40a8.07,8.07,0,0,1-1.75-1.7,31.18,31.18,0,0,1-4.63-10.2c-1.83,4.48-4.31,8.25-8.85,10.72.27,3.94.51,8,.82,12A28.25,28.25,0,0,1,60.3,69.25a18.52,18.52,0,0,1-7.87,6.26c-7.12,3.31-14.3,3.06-21.4.46a15,15,0,0,1-9-8.41c-1.62-3.78-2.91-7.49-2.75-11.67.06-1.81-.56-3.62-.68-5.45-.22-3.57-.31-7.15-.46-11C12.53,37,9.22,32.41,7,26.55c-.51,1.89-1,3.79-1.55,5.66q-1.11,3.7-2.32,7.37c-.31.93-.63,2.21-2,1.67C0,40.77-.2,39.59.19,38.41c.7-2.09,1.47-4.17,2.16-6.26A77.19,77.19,0,0,0,6,11.82c.16-3,.45-6.06.68-9.09C6.74,1.48,7.52.71,8.11,1.11Zm12,25c.23,3.45.54,6.83.67,10.22.25,6.62.33,13.24,1.3,19.82.52,3.55.81,7.11,2.43,10.41a14.4,14.4,0,0,0,10.35,8C40.43,75.64,46,75.9,51.34,73.27a16.53,16.53,0,0,0,6.3-5,21.16,21.16,0,0,0,2.9-5.58,27.56,27.56,0,0,0,1.62-11.83,100.6,100.6,0,0,1-.64-13.2A63.59,63.59,0,0,0,60,23c-6.61.82-13.06,1.86-19.55,2.36S27.25,25.84,20.15,26.06ZM41.72,12.55A5.84,5.84,0,0,1,40,11.48a4.45,4.45,0,0,1-1.57-1.83,8.79,8.79,0,0,0-1.21-2A8,8,0,0,0,33,4.9a20,20,0,0,0-9.57-.16C18,6,13.69,9.36,9.57,13c-1.94,1.7-1.63,3.85-1.33,5.86s2,2.82,3.8,3.16a35,35,0,0,0,5.75.71c5.23.1,10.47,0,15.71.06,7.86.14,15.57-1.37,23.35-2.07,3.74-.34,7.42-1.32,11.16-1.78,3.51-.43,4.36-1.71,2.87-4.93a11.71,11.71,0,0,0-.66-1.2,18.93,18.93,0,0,0-9-7.41c-3.91-1.65-7.71-1.68-11.29.83a20.4,20.4,0,0,0-2.61,2.4C46,9.87,44,13.14,41.9,12.6Zm29,8.3-8.16,1.89a86.23,86.23,0,0,0,1.75,12.54C68.21,32,71.3,25.1,70.73,20.85Zm-52.56,15V25.52L9.34,24.06C10.68,30.09,13.65,34.16,18.17,35.84Z"/><path d="M42.35,61.68a1,1,0,0,1-1.09,0c-1.8-.87-1.15-4.63-1.16-6.3-.05-5.8,0-11.59-.06-17.39,0-1.1-.25-2.2-.24-3.3a31.58,31.58,0,0,1,.32-3.16c1.75-.53,2.18.25,2.23,1.6.06,2.12.22,4.23.28,6.35q.19,6.38.38,12.75C43,53.42,44,60.51,42.35,61.68Z"/></g></g></svg>