<svg xmlns="http://www.w3.org/2000/svg" viewBox="0 0 178.8 118.82"><defs><style>.cls-1{fill:#f1f2f2;}</style></defs><title>mail</title><g id="Capa_2" data-name="Capa 2"><g id="desktop"><path class="cls-1" d="M176.23,2.1a2.62,2.62,0,0,1,.14,1.14c-.13,1.29.49,33.63.83,44.25.3,9,.53,18.11.75,27.16.31,12.7.62,25.4.85,38.1a43,43,0,0,1-.74,5.74c-8.22.12-16.16.36-24.09.33-12.16,0-24.32-.32-36.48-.4-12.68-.08-25.36.06-38-.11-7.27-.1-14.53-.79-21.79-.92-9-.15-18,0-27,0q-12.48,0-25-.18A5.13,5.13,0,0,1,.27,112.7a8.14,8.14,0,0,1-.12-1.56C.15,96.57-.06,82,.26,67.42c.12-5.55.11-11.05-.05-16.6C-.18,36.93.05,23,.28,9.1c.1-6,1.9-7.53,7.87-7.6,19.71-.23,39.41-.39,59.12-.64,19-.24,38-.64,57-.79q12-.09,24,0,6,0,12,.1c3.69,0,7.53.47,11.15-.05a5.7,5.7,0,0,1,.83-.09,6.78,6.78,0,0,1,2,.36,4.81,4.81,0,0,1,.94.36A2.51,2.51,0,0,1,176.23,2.1ZM5.4,113.17l168.06,1.34C173,79.56,171.62,45.17,172,9.58c-2.8,1.36-4.72,2-6.29,3.12-2.66,1.91-5,4.3-7.65,6.19-9.95,7-20,13.87-30,20.78Q119,46,109.8,52.26c-4.42,3-9,5.81-13.21,9.15-3.65,2.92-6.6,2.42-10.34.16-26-15.65-52-31.12-78.07-46.62C7.05,14.28,5.8,13.82,4.1,13,4.54,46.62,5,79.59,5.4,113.17ZM169.92,4.6c-55.66.34-110.66.69-165.66,1.05-.12,0-.26.18-.34.3a2.1,2.1,0,0,0-.2.49c.1.32.11.81.33.94Q47.88,33.14,91.92,58.93Z"/></g></g></svg>