<svg id="desktop" xmlns="http://www.w3.org/2000/svg" viewBox="0 0 449.03 390.19"><defs><style>.cls-1{fill:#afefd2;}.cls-2{fill:#f2ebaf;}.cls-3{fill:#6484e8;}.cls-4{fill:#9f8bea;}.cls-5{fill:#f2a7df;}.cls-6{fill:#fff;}</style></defs><title>Mesa de trabajo 38</title><path class="cls-1" d="M17.43,324.59s.92-55.54,13.81-63.51S65.3,241.13,65.3,241.13l37-16.95,69.47-26.43,108,.15,22.75,9.4,52.84,11.5s36.8,15,58.39,49.33,15.46,70.58,15.46,70.58S304.32,380.13,159.49,374.3,17.43,324.59,17.43,324.59Z"/><path class="cls-2" d="M215.66,175.89a.84.84,0,0,1,.53-.28c.79-.08,1.59-.13,2.38-.21,2.91-.29,5.82-.5,8.71-.93a57,57,0,0,0,7.3-1.51,90.9,90.9,0,0,0,10.4-3.4c3.84-1.63,7.48-3.71,11.21-5.6,6-3,11.12-7.34,16.16-11.7a83.87,83.87,0,0,0,6.83-7.14c1.73-1.89,3.43-3.82,5-5.84a57.51,57.51,0,0,0,6.64-11.07c1.73-3.7,3.47-7.42,4.9-11.24a55.17,55.17,0,0,0,2.06-8.07,57,57,0,0,0,1.36-8,60.75,60.75,0,0,0-2.36-22.13A44.25,44.25,0,0,0,292,68.22c-3.62-5.74-7.76-11-13.4-15.18a67.34,67.34,0,0,0-18.36-9.22,6.08,6.08,0,0,0-3.41,0c-2.74.74-5.36,2-8.12,2.56a37.62,37.62,0,0,1-13.75.81c-1.74-.27-2.38.06-3.05,1.74a6.09,6.09,0,0,1-2.44,3,31.75,31.75,0,0,0-2.61,2,22,22,0,0,1-9.38,4.35c-.57.12-1.13.27-1.69.42-2.79.72-5.53,1.83-8.52,1.13-.18,0-.41.11-.47.13-5.38,10.32-14.07,15-25.37,15.55.62,1.66,1.32,3.26,1.81,4.92a34.33,34.33,0,0,1,1.41,6.12,41.69,41.69,0,0,1-.16,6c-.1,2.53-1.53,3.74-4,3.35-.81-.12-1.6-.41-2.79-.72a44.49,44.49,0,0,0,2,5.2c2.39,4.5,3.65,9.45,5.75,14.06a24.58,24.58,0,0,1,1.73,6.28,25.44,25.44,0,0,1,.33,6.74c-.29,2.61-1.93,4.11-4.81,3a10,10,0,0,1-2.83-1.64,31.49,31.49,0,0,1-7.1-9.16A6.31,6.31,0,0,0,168.1,116c-5.57-1.13-11.13-1.06-16.4,1.12-6.87,2.85-12.82,6.86-16.33,13.87a28.19,28.19,0,0,0-3,8.81,40.8,40.8,0,0,0-.66,7.85c.24,4.4,2.1,8.34,4.33,12.09a17.1,17.1,0,0,0,1.41,1.71c.24-.95.41-1.49.52-2,.16-.82.53-1.4,1.46-1.27s1.15.86,1.1,1.64a11.72,11.72,0,0,1-.41,3,2.72,2.72,0,0,0,.76,3,19.26,19.26,0,0,0,5,3.71c1.37.8,3.42,2.45,5.12,2.22-.14-.87-.36-1.8-.59-2.66s-.48-1.69.54-2a1.44,1.44,0,0,1,1.15.24,2.46,2.46,0,0,1,1,1.57,23.14,23.14,0,0,1,.44,2.6c.22,2.4,4,2.17,5.79,2.26a31.34,31.34,0,0,0,5.81-.26,49.7,49.7,0,0,0,5.65-1.3,1.92,1.92,0,0,0,1.58-2.26c-.45-6.23,4.78-11.94,10.79-12.8a11.25,11.25,0,0,1,8.48,2.29,14.28,14.28,0,0,1,4.56,5c2.87,6,2.41,11.83-1.55,17.21a9.69,9.69,0,0,1-5.09,3.64c-3.46.94-7,1-10.21-1-.09-.06-.27,0-.58.1-1.52,4.8-3.49,9.48-7,13.38a12.81,12.81,0,0,0,.49,1.24c3.19,5.94,8.12,10.25,13.54,14a38.6,38.6,0,0,0,10.14,4.46,105.63,105.63,0,0,0,10.29,2.92,35.92,35.92,0,0,0,4.81.6c1.81.14,3.63.55,5.43.77a26.51,26.51,0,0,0,4.07.27c2.15-.06,4.3-.25,6.45-.45s4.33-.39,6.46-.75c3.08-.53,6.16-1.14,9.21-1.85a36.29,36.29,0,0,0,8.61-2.86c.85-.44,1.75-.76,2.62-1.16a59.08,59.08,0,0,0,11.94-6.82c1.9-1.47,3.76-3,5.66-4.47a24.12,24.12,0,0,0,6.17-7.42c-1.11-.88-2.13-1.79-3.24-2.57-5.19-3.65-8.16-8.49-8.13-15q0-8.26,0-16.52a15,15,0,0,0-.22-1.8c-1.33.93-2.36,1.77-3.49,2.41-3.32,1.86-6.79,3.48-10,5.52-.5.32-1,.61-1.53.9a40.13,40.13,0,0,1-7.89,3.16c-1.43.41-2.81,1.17-4.23,1.66a43.77,43.77,0,0,1-4.37,1.28,82.42,82.42,0,0,1-8.44,1.37l-5.65.72c-.94.12-1.89.23-2.83.36-.73.09-1.18.33-1.79-.27a1.72,1.72,0,0,1-.31-.4A1.08,1.08,0,0,1,215.66,175.89Z"/><path class="cls-3" d="M185.51,168.66a17.81,17.81,0,0,1,1.23,4.59c.14,1.47-1.07,1.95-2.37,1.17-1.53-.95-1.51-2.54-1.81-4a4.07,4.07,0,0,1,.21-1.27c.27-.55.71-1.47,1-1.46A2.23,2.23,0,0,1,185.51,168.66Z"/><path class="cls-1" d="M190.77,161.81a11.24,11.24,0,0,0-4.39-1.83c-4.69-1.29-6.45-.47-9.39,3.21a9.78,9.78,0,0,0-2,5,12.63,12.63,0,0,0,.28,5.23,40.33,40.33,0,0,0,1.68,4c.19.41.23.87.44,1.27a8.14,8.14,0,0,0,1.45,1.65,9.16,9.16,0,0,0,6.78,3c3.55-.08,6.6-1.43,8.32-4.78a15.34,15.34,0,0,0,1.55-7.51A12.57,12.57,0,0,0,190.77,161.81Zm-2.05,12.75c-.5,1.68-2,3.28-3.89,2.8a6.72,6.72,0,0,1-4.26-4.14,12.19,12.19,0,0,1-.61-3.08,5.54,5.54,0,0,1,1-3.82,4.73,4.73,0,0,1,.86-1,2.72,2.72,0,0,1,2.88-.33,6.06,6.06,0,0,1,2.69,2C188.61,169.25,189.55,171.76,188.72,174.56Z"/><path class="cls-4" d="M261.37,137.93c5.43-2.19,10.6-4.2,15.71-6.35a24.78,24.78,0,0,0,5-2.75c1.93-1.41,1.82-2.81-.15-4.22a3.53,3.53,0,0,0-1.8-.72c-2.39-.1-4.77-.44-7.19.2-4.39,1.16-8.23,3.39-12,5.73-.72.45-1.37,1-2.06,1.51C259.68,133.6,260.5,135.7,261.37,137.93Zm-3.85-8.81c.81-.74,1.51-1.36,2.17-2,1.24-1.25,2.43-2.54,3.68-3.78,4.2-4.21,8.18-8.59,10.84-14a3.52,3.52,0,0,0,.54-1.19c0-.61.11-1.46-.24-1.8a2,2,0,0,0-1.76-.09,10,10,0,0,0-2.65,1.55,96.79,96.79,0,0,0-8,6.84,34.08,34.08,0,0,0-7.55,10.79Z"/><path class="cls-5" d="M253.34,105.83c1.41.36,1.56-2.43,1.69-3.4a12.27,12.27,0,0,1,.24-1.93c.36-1.16.83-1.37,2-1a13.85,13.85,0,0,0,2,.81,3,3,0,0,0,2-.21c.31-.21.18-1.15.17-1.76,0-1.15-1-2.53-.45-3.66.36-.74.95-.55,1.58-.4a5.61,5.61,0,0,0,2.81.29c1.52-.46.55-1.91-.24-2.6a68.56,68.56,0,0,0-6.09-5c-4.42-3-9-5.8-13.46-8.67a34.14,34.14,0,0,0-3.75-2.25c-1.57-.73-3.23-1.33-5.29-.43a13.4,13.4,0,0,0,.83,2.88c2.29,4.23,4.76,8.36,7,12.62,1.17,2.23,2,4.65,3,7a8,8,0,0,0,.87,1.5c.76,1.06,1.55,2.1,2.35,3.14s1.3,2.25,2.38,2.87A1.33,1.33,0,0,0,253.34,105.83Z"/><path d="M290.33,202.45a24.14,24.14,0,0,1-4.48,6.69,69.29,69.29,0,0,1-18,13.19,132.79,132.79,0,0,1-19.88,8.1c-2.19.72-4.57.82-6.85,1.3-2.79.59-5.54,1.35-8.33,1.89a16.74,16.74,0,0,1-2.65.24c-.49,0-1.71.25-2-.28-.66-1.19.94-1.61,1.78-1.68A73.12,73.12,0,0,0,240,230.36c3.77-.85,7.54-1.77,11.23-3a84.78,84.78,0,0,0,10.49-4.33c3.36-1.6,6.68-3.31,9.87-5.24,2.58-1.58,5.07-3.28,7.53-5a28.11,28.11,0,0,0,3.58-2.75c.94-.93,4.54-6.6,5.6-8.18l-8.54-4c-1.22,1.4-2.5,2.71-3.6,4.15-4,5.17-9.2,8.77-14.67,12.07-7.17,4.32-15.07,6.75-23.17,8.49a79.9,79.9,0,0,1-20.77,1.3,88.22,88.22,0,0,1-10.64-1.12,64.26,64.26,0,0,1-7.32-2.14c-1.19-.34-2.43-.53-3.59-.94-6.12-2.17-11.92-5-16.76-9.4a41.32,41.32,0,0,1-8.43-10.52,8.37,8.37,0,0,0-.6-.77c-.48.22-.94.41-1.37.63a135,135,0,0,1-13.62,6.1c-3.42,1.28-6.7,2.94-10.12,4.22L133,214.65l-11.86,4.6c-3.79,1.46-7.63,2.84-11.39,4.32-2.91,1.15-5.83,2.27-8.75,3.39-1.57.59-3.14,1.17-4.7,1.77C78.47,235.6,61.79,245,45.18,254.3c-4.58,2.58-9.21,5.19-13.07,8.76a34.53,34.53,0,0,0-4.3,4.82c-.58.8-1.74,1.67-2.37.92a1.46,1.46,0,0,1-.21-1.09c.27-2.35,1.94-4.3,3.71-5.89a64.25,64.25,0,0,1,9.63-6.67c17.65-10.7,35.54-21.51,55.33-27.38a29.25,29.25,0,0,0,5.52-2.5,61.76,61.76,0,0,1,6.91-2.62c7.37-2.77,14.73-5.76,22.15-8.48,2.18-.8,23.83-9.7,29.91-12.15,3.91-1.58,7.86-3.12,11.31-5.57a12.32,12.32,0,0,0,3.5-3.83,27.26,27.26,0,0,0,3.27-9.25,2.5,2.5,0,0,0-.08-1.42c-1.36-2.48-2.8-4.92-4.31-7.56a36.56,36.56,0,0,1-18.63,1.14c-.3,1.19-.53,2.32-.87,3.42-1,3.4-4,4.55-7.1,2.8a4.84,4.84,0,0,1-2.4-4.21,21.52,21.52,0,0,1,.4-5c.17-1,.07-1.48-.78-2a24.26,24.26,0,0,1-2.43-1.88c-.55-.44-1.11-.87-2.05-1.6a6.86,6.86,0,0,1-.76,1.29c-2.34,2.32-5.9,1.61-7.6-1.23-2.06-3.44-1.23-7.57.74-10.84a3.24,3.24,0,0,0,.46-1c.14-.72-.47-1.86-.65-2.56a26.32,26.32,0,0,1-.64-3.18,35.08,35.08,0,0,1-.25-6.64,20.21,20.21,0,0,1,.4-2.55c-.61-1.08-1.17-2-1.62-2.91A69,69,0,0,1,124.14,125a62.54,62.54,0,0,1-1.69-13.68,39.51,39.51,0,0,1,1.48-12.54A28.76,28.76,0,0,1,130.7,86.7a16.56,16.56,0,0,1,7.13-4.61A2.91,2.91,0,0,0,140,79.72c1-3.43,2-6.87,3.24-10.21a61.18,61.18,0,0,1,8-13.87A48.18,48.18,0,0,1,161.7,45,58.93,58.93,0,0,1,181.53,35c1.41-.38,2.77-1,4.16-1.42a10,10,0,0,1,5.6-.63,2.23,2.23,0,0,0,1.4-.4c7.08-3.91,14.05-8.58,21.8-11a35.87,35.87,0,0,1,5.51-1.3,27.58,27.58,0,0,1,6.73-.22,21.92,21.92,0,0,1,3.43.57,9,9,0,0,1,3.09,1.09c2.77,2,3.65,3.73,3,7.08-.05.28-.1.56-.2,1.07,1.68-.27,3.22-.53,4.76-.75,1.29-.2,2.59-.42,3.9-.5,2.77-.17,5.55-.29,8.32-.36A14.32,14.32,0,0,1,262.11,31a5.35,5.35,0,0,1,.79,8.22l-2,2.22c1.61.65,2.94,1.22,4.29,1.74a53.42,53.42,0,0,1,14.45,8.14A71.16,71.16,0,0,1,290,61a40.73,40.73,0,0,1,3.55,5.26c.9,1.51,1.51,3.18,2.41,4.68,1.41,2.36,1.8,5.07,2.89,7.54a44.79,44.79,0,0,1,2.27,8.21,35.4,35.4,0,0,1,.61,9.36,69.46,69.46,0,0,1-.48,8.55c-.93,5.66-2.11,11.66-4.34,17a11.61,11.61,0,0,1-.64,1.13,7.69,7.69,0,0,0-1.16,2c-.94,4.19-3.44,7.56-5.69,11.06-1.07,1.65-2.16,3.3-3.3,4.91a50.3,50.3,0,0,1-9.05,9.78c-1,.83-1.76,1.94-2.7,2.83-2,1.92-4.08,3.78-6,5.55a10.62,10.62,0,0,1,.42,2c0,2,0,3.94,0,5.91,0,3.29,0,6.57-.13,9.85A18.46,18.46,0,0,0,270,185.2a15.26,15.26,0,0,0,3.79,5,80.75,80.75,0,0,0,9.06,6.65,75.77,75.77,0,0,0,10,4.85c3.67,1.59,29.66,9.25,29.94,9.32,3.63.86,7.23,1.8,10.88,2.54,4.87,1,9.9,1.68,14.77,2.64,20,3.92,40.89,22.64,45.37,26.63a108.57,108.57,0,0,1,17.95,20.39c5.24,7.7,11.29,14.68,11,24,0,.57-.18,1.29-.74,1.36a1.1,1.1,0,0,1-.87-.43c-1.47-1.54-1.68-3.84-2.07-5.93-1.68-8.92-7.81-16.25-13.72-23.14a130.27,130.27,0,0,0-13.63-14.35c-5.42-4.66-11.56-8.39-17.23-12.74-2.53-1.94-5-4-7.67-5.72a60.13,60.13,0,0,0-24-8.41c-7.64-1-35.61-8.66-39.1-10.09s-6.83-2.54-10.23-3.84C292.46,203.54,291.45,203,290.33,202.45Zm-74.67-26.56a.84.84,0,0,1,.53-.28c.79-.08,1.59-.13,2.38-.21,2.91-.29,5.82-.5,8.71-.93a57,57,0,0,0,7.3-1.51,90.9,90.9,0,0,0,10.4-3.4c3.84-1.63,7.48-3.71,11.21-5.6,6-3,11.12-7.34,16.16-11.7a83.87,83.87,0,0,0,6.83-7.14c1.73-1.89,3.43-3.82,5-5.84a57.51,57.51,0,0,0,6.64-11.07c1.73-3.7,3.47-7.42,4.9-11.24a55.17,55.17,0,0,0,2.06-8.07,57,57,0,0,0,1.36-8,60.75,60.75,0,0,0-2.36-22.13A44.25,44.25,0,0,0,292,68.22c-3.62-5.74-7.76-11-13.4-15.18a67.34,67.34,0,0,0-18.36-9.22,6.08,6.08,0,0,0-3.41,0c-2.74.74-5.36,2-8.12,2.56a37.62,37.62,0,0,1-13.75.81c-1.74-.27-2.38.06-3.05,1.74a6.09,6.09,0,0,1-2.44,3,31.75,31.75,0,0,0-2.61,2,22,22,0,0,1-9.38,4.35c-.57.12-1.13.27-1.69.42-2.79.72-5.53,1.83-8.52,1.13-.18,0-.41.11-.47.13-5.38,10.32-14.07,15-25.37,15.55.62,1.66,1.32,3.26,1.81,4.92a34.33,34.33,0,0,1,1.41,6.12,41.69,41.69,0,0,1-.16,6c-.1,2.53-1.53,3.74-4,3.35-.81-.12-1.6-.41-2.79-.72a44.49,44.49,0,0,0,2,5.2c2.39,4.5,3.65,9.45,5.75,14.06a24.58,24.58,0,0,1,1.73,6.28,25.44,25.44,0,0,1,.33,6.74c-.29,2.61-1.93,4.11-4.81,3a10,10,0,0,1-2.83-1.64,31.49,31.49,0,0,1-7.1-9.16A6.31,6.31,0,0,0,168.1,116c-5.57-1.13-11.13-1.06-16.4,1.12-6.87,2.85-12.82,6.86-16.33,13.87a28.19,28.19,0,0,0-3,8.81,40.8,40.8,0,0,0-.66,7.85c.24,4.4,2.1,8.34,4.33,12.09a17.1,17.1,0,0,0,1.41,1.71c.24-.95.41-1.49.52-2,.16-.82.53-1.4,1.46-1.27s1.15.86,1.1,1.64a11.72,11.72,0,0,1-.41,3,2.72,2.72,0,0,0,.76,3,19.26,19.26,0,0,0,5,3.71c1.37.8,3.42,2.45,5.12,2.22-.14-.87-.36-1.8-.59-2.66s-.48-1.69.54-2a1.44,1.44,0,0,1,1.15.24,2.46,2.46,0,0,1,1,1.57,23.14,23.14,0,0,1,.44,2.6c.22,2.4,4,2.17,5.79,2.26a31.34,31.34,0,0,0,5.81-.26,49.7,49.7,0,0,0,5.65-1.3,1.92,1.92,0,0,0,1.58-2.26c-.45-6.23,4.78-11.94,10.79-12.8a11.25,11.25,0,0,1,8.48,2.29,14.28,14.28,0,0,1,4.56,5c2.87,6,2.41,11.83-1.55,17.21a9.69,9.69,0,0,1-5.09,3.64c-3.46.94-7,1-10.21-1-.09-.06-.27,0-.58.1-1.52,4.8-3.49,9.48-7,13.38a12.81,12.81,0,0,0,.49,1.24c3.19,5.94,8.12,10.25,13.54,14a38.6,38.6,0,0,0,10.14,4.46,105.63,105.63,0,0,0,10.29,2.92,35.92,35.92,0,0,0,4.81.6c1.81.14,3.63.55,5.43.77a26.51,26.51,0,0,0,4.07.27c2.15-.06,4.3-.25,6.45-.45s4.33-.39,6.46-.75c3.08-.53,6.16-1.14,9.21-1.85a36.29,36.29,0,0,0,8.61-2.86c.85-.44,1.75-.76,2.62-1.16a59.08,59.08,0,0,0,11.94-6.82c1.9-1.47,3.76-3,5.66-4.47a24.12,24.12,0,0,0,6.17-7.42c-1.11-.88-2.13-1.79-3.24-2.57-5.19-3.65-8.16-8.49-8.13-15q0-8.26,0-16.52a15,15,0,0,0-.22-1.8c-1.33.93-2.36,1.77-3.49,2.41-3.32,1.86-6.79,3.48-10,5.52-.5.32-1,.61-1.53.9a40.13,40.13,0,0,1-7.89,3.16c-1.43.41-2.81,1.17-4.23,1.66a43.77,43.77,0,0,1-4.37,1.28,82.42,82.42,0,0,1-8.44,1.37l-5.65.72c-.94.12-1.89.23-2.83.36-.73.09-1.18.33-1.79-.27a1.72,1.72,0,0,1-.31-.4A1.08,1.08,0,0,1,215.66,175.89Zm-20.15-4.84a12.59,12.59,0,0,0-4.74-9.24,11.33,11.33,0,0,0-4.39-1.83c-4.68-1.29-6.45-.47-9.39,3.21a9.75,9.75,0,0,0-2,5,12.67,12.67,0,0,0,.28,5.24,41.75,41.75,0,0,0,1.68,4c.19.41.23.87.44,1.27a7.35,7.35,0,0,0,1.45,1.65,9.19,9.19,0,0,0,6.78,3c3.55-.09,6.6-1.45,8.32-4.79A15.39,15.39,0,0,0,195.51,171.05ZM146,172.76a6.77,6.77,0,0,0,.23,5.64,2.3,2.3,0,0,0,2.27,1.47c1.63-.15,3.23-3.6,2.32-5a1.88,1.88,0,0,0-.87-.59C148.76,173.78,147.53,173.33,146,172.76Zm-13.65-13.89a8.26,8.26,0,0,0-1.55,4.57c.15,1.28.28,2.63,1.52,3.48a2,2,0,0,0,2.61-.12,2.1,2.1,0,0,0,.83-2.66C134.74,162.42,133.61,160.75,132.38,158.87Z"/><path d="M164.16,210.9l.2-.07c.72-.17,1.43.43,1.87.9a22.31,22.31,0,0,0,2.33,2c1.59,1.32,3.21,2.6,4.92,3.76A103.3,103.3,0,0,0,203.57,231a64.36,64.36,0,0,0,7.06,1.41,10.85,10.85,0,0,0,2.18-.17,7,7,0,0,1,2.62.11.82.82,0,0,1,.34,1.46,2.25,2.25,0,0,1-1.19.39c-4.5.48-9.21-.77-13.58-1.72A69.49,69.49,0,0,1,179.6,224c-2.36-1.42-5-2.43-7.18-4s-4.31-3.51-6.4-5.34C165.58,214.26,162.64,211.53,164.16,210.9Z"/><path class="cls-6" d="M146,172.76c1.5.57,2.73,1,3.95,1.51a1.88,1.88,0,0,1,.87.59c.91,1.41-.69,4.86-2.32,5a2.3,2.3,0,0,1-2.27-1.47A6.77,6.77,0,0,1,146,172.76Z"/><path class="cls-6" d="M132.38,158.87c1.23,1.88,2.36,3.55,3.41,5.27a2.1,2.1,0,0,1-.83,2.66,2,2,0,0,1-2.61.12c-1.24-.85-1.37-2.2-1.52-3.48A8.26,8.26,0,0,1,132.38,158.87Z"/><path d="M267.59,124.07a8.15,8.15,0,0,0,1.05-.46,17.56,17.56,0,0,1,6.38-2,24.48,24.48,0,0,1,6.77.59,5.84,5.84,0,0,1,3.89,3,3.21,3.21,0,0,1-.38,3.71,13,13,0,0,1-3.19,3,35.87,35.87,0,0,1-5.33,2.58q-6.61,2.72-13.28,5.25a2.43,2.43,0,0,0-1.89,2.74,22.38,22.38,0,0,1-1.72,9.44c-.23.59-.53,1.5-1.18,1.76a1.08,1.08,0,0,1-1.32-.37c-.46-.82.14-2.13.34-2.95.48-2,1.08-3.95,1.37-6,.52-3.62-.65-6.95-2.17-10.17a33,33,0,0,0-7-9.5c-1.09-1-2.21-2.06-3.33-3.07-.88-.79-2.49-1.75-2.73-3a1.38,1.38,0,0,1,.19-1.14c.84-1,1.94-.34,2.67.31,2,1.75,3.84,3.59,5.86,5.5.91-1.23,1.78-2.45,2.72-3.63a63.5,63.5,0,0,1,5.84-7.08c1.74-1.65,3.32-3.48,5.16-5a44.83,44.83,0,0,1,5.91-3.71,3.76,3.76,0,0,1,1.7-.39c2.56-.09,4.23,1.8,3.6,4.27a18.28,18.28,0,0,1-1.9,4.64,51.8,51.8,0,0,1-3.93,5.53c-.88,1.12-1.83,2.18-2.77,3.25s-1.78,1.63-2.62,2.55c-.11.11-.22.27-.15.41a.36.36,0,0,0,.32.16A2.77,2.77,0,0,0,267.59,124.07Zm-6.22,13.86c5.43-2.19,10.6-4.2,15.71-6.35a24.78,24.78,0,0,0,5-2.75c1.93-1.41,1.82-2.81-.15-4.22a3.53,3.53,0,0,0-1.8-.72c-2.39-.1-4.77-.44-7.19.2-4.39,1.16-8.23,3.39-12,5.73-.72.45-1.37,1-2.06,1.51C259.68,133.6,260.5,135.7,261.37,137.93Zm-3.85-8.81c.81-.74,1.51-1.36,2.17-2,1.24-1.25,2.43-2.54,3.68-3.78,4.2-4.21,8.18-8.59,10.84-14a3.52,3.52,0,0,0,.54-1.19c0-.61.11-1.46-.24-1.8a2,2,0,0,0-1.76-.09,10,10,0,0,0-2.65,1.55,96.79,96.79,0,0,0-8,6.84,34.08,34.08,0,0,0-7.55,10.79Z"/><path d="M264,97.26c.59,5.75-1.62,6.75-6.36,5.39-.38,1.13-.74,2.29-1.16,3.42a6,6,0,0,1-.85,1.72c-1.07,1.31-2.16,1.51-3.39.38a18.22,18.22,0,0,1-3.39-4c-2.26-3.84-4.3-7.81-6.44-11.72-1.47-2.69-3-5.37-4.45-8.07-1.11-2.06-2.15-4.16-3.22-6.24a2.86,2.86,0,0,1-.15-.41c-1.18-3.39.78-5.82,4.29-5.23a14.6,14.6,0,0,1,6,2.51c2.33,1.63,4.81,3,7.17,4.64,4.36,3,8.68,6,13,9a13.3,13.3,0,0,1,1.59,1.51c1.53,1.48,1.5,3.22.83,5.06a2.55,2.55,0,0,1-2,1.8C265,97.11,264.5,97.18,264,97.26Zm-10.67,8.57c1.41.36,1.56-2.43,1.69-3.4a12.27,12.27,0,0,1,.24-1.93c.36-1.16.83-1.37,2-1a13.85,13.85,0,0,0,2,.81,3,3,0,0,0,2-.21c.31-.21.18-1.15.17-1.76,0-1.15-1-2.53-.45-3.66.36-.74.95-.55,1.58-.4a5.61,5.61,0,0,0,2.81.29c1.52-.46.55-1.91-.24-2.6a68.56,68.56,0,0,0-6.09-5c-4.42-3-9-5.8-13.46-8.67a34.14,34.14,0,0,0-3.75-2.25c-1.57-.73-3.23-1.33-5.29-.43a13.4,13.4,0,0,0,.83,2.88c2.29,4.23,4.76,8.36,7,12.62,1.17,2.23,2,4.65,3,7a8,8,0,0,0,.87,1.5c.76,1.06,1.55,2.1,2.35,3.14s1.3,2.25,2.38,2.87A1.33,1.33,0,0,0,253.34,105.83Z"/><path d="M213.12,76.42a4.7,4.7,0,0,1-.12.51,8.06,8.06,0,0,1-.58,1.18,15.28,15.28,0,0,1-1.53,2.66c-2.6,3.48-6.21,5.65-10.11,7.47-3.32,1.55-6.13-1.91-5.7-4.91a12,12,0,0,1,3.43-6.48,15.8,15.8,0,0,1,9.15-5.28C210.41,71.11,213.56,73.52,213.12,76.42Z"/><path d="M260.24,52a5.87,5.87,0,0,1-2.54,4.88,23,23,0,0,1-9.34,4.68,10.42,10.42,0,0,1-4.12-.11,3.38,3.38,0,0,1-2-4.79c2-3.59,4.53-6.66,8.3-8.48a32.63,32.63,0,0,1,3.89-1.38C257.2,45.85,260.71,48.48,260.24,52Z"/><path d="M168.19,160.39a1.25,1.25,0,0,1-.68,1.32,6.62,6.62,0,0,1-2.77.14,9,9,0,0,1-4.32-1.14,32.9,32.9,0,0,1-3.66-2.56,24.65,24.65,0,0,1-4-3.64c-2.19-2.76-3.3-5.82-4.42-9.13s-.79-6.8-.33-10.22a2.13,2.13,0,0,1,.9-1.36c1-.6,1.7-.08,1.66,1.06a44.76,44.76,0,0,0-.19,5.89,58.24,58.24,0,0,0,1.29,6.44c.49,2.28,3.56,1.87,5.33,1.88a31.94,31.94,0,0,0,7-.51c.76-.17,3.6-1.5,3.75.15a1.26,1.26,0,0,1-.71,1.13,3.5,3.5,0,0,1-1.36.34l-2,.25c-1.76.21-3.52.42-5.29.51s-3.29-.2-4.89-.09c.13,1.77,1.33,2.87,2.34,3.9a16.75,16.75,0,0,0,7.33,4.66A9.45,9.45,0,0,0,166,160c.69,0,1.64-.62,2.1.21A.5.5,0,0,1,168.19,160.39Z"/><path d="M260.39,67.51a.74.74,0,0,1,.56-.13,4.58,4.58,0,0,1,1.86,1.36,85.51,85.51,0,0,1,5.62,6.7,11.38,11.38,0,0,0,4.4,3.14,2.63,2.63,0,0,0,3.72-2.25,13.57,13.57,0,0,0-.61-7.55,60.16,60.16,0,0,0-3.64-6.5c-.46-.75-1.6-2.34-1.05-3.24,1.24-2,3.95,2.85,4.41,3.66.6,1,1.2,2.19,1.73,3.3a16.33,16.33,0,0,1,1.55,3.51,18.79,18.79,0,0,1,.14,7.9c-.71,2.7-4.17,4.43-6.85,3.61a10.65,10.65,0,0,1-5.06-3.33c-1.91-2.21-3.82-4.43-5.67-6.69A5.43,5.43,0,0,1,260,68.39,1,1,0,0,1,260.39,67.51Z"/><path d="M209.4,102.52a.77.77,0,0,1,.31-.34c1.34-.85,2.78,1.27,3.46,2.16a36.14,36.14,0,0,0,6.6,7.09c1.13.85,2.44,1.84,3.92,1.74a3.23,3.23,0,0,0,2.82-2.41,8,8,0,0,0,.18-2.8c-.33-3.77-2.18-6.94-4.11-10.07A20.26,20.26,0,0,1,221,95c-.24-.59-.08-1.74.74-1.79s1.74,1.06,2.11,1.72a66.7,66.7,0,0,1,4.17,7.63c1.13,2.87,2.43,5.84.94,9.13-1,2.14-3.37,4-5.67,3.74a12.74,12.74,0,0,1-9.06-5.58c-1-1.39-2-2.76-3.06-4.13C210.73,105.24,209,103.46,209.4,102.52Z"/><path d="M180,170.13a5.62,5.62,0,0,1,1-3.81,5.41,5.41,0,0,1,.87-1,2.67,2.67,0,0,1,2.88-.32,6,6,0,0,1,2.68,2c1.27,2.26,2.21,4.77,1.38,7.57-.5,1.68-2,3.28-3.89,2.8a6.73,6.73,0,0,1-4.27-4.14A13.64,13.64,0,0,1,180,170.13Zm2.61.25c.3,1.5.28,3.09,1.81,4,1.3.8,2.51.31,2.37-1.16a16.89,16.89,0,0,0-1.24-4.59,2.18,2.18,0,0,0-1.69-1c-.34,0-.77.9-1,1.46A4.39,4.39,0,0,0,182.56,170.38Z"/></svg>