<svg xmlns="http://www.w3.org/2000/svg" viewBox="0 0 256.5 297.24"><defs><style>.cls-1{fill:#f2a7df;}</style></defs><title>notaF</title><g id="Capa_2" data-name="Capa 2"><g id="desktop"><path class="cls-1" d="M64.4,69.63c-5.44-2.33-9.7-4.42-14.14-6-11.26-4-20.14-16-21.24-27.8-1.41-15,7.66-25.16,20.31-29.19A138.71,138.71,0,0,1,89.48,0c2.57,0,4.74.5,5.46,4.34-2.17.31-4.24,1-6.24.83A71.28,71.28,0,0,0,62.13,8.1C59.14,9,56,9.4,53,10.43a37.58,37.58,0,0,0-8.45,3.92c-12.3,8.25-14.59,22.22-5.45,34,5.75,7.41,13.36,12.28,22.13,15.78,5.92,2.35,11,1.94,16.95-.08s12.54-2.63,18.89-3.48c6.52-.87,13.1-1.57,19.67-1.8,10.27-.37,20.55-.42,30.82-.34A76,76,0,0,1,176,64.66c2.85,1.18,6.24,2.82,6.06,6.43-.16,3.27-3.38,5-6.19,5.57-6.63,1.42-13.36,2.43-20.09,3.28a90.44,90.44,0,0,1-13.16.65c-4.54-.11-9.06-.92-13.61-1.16-11.55-.61-23.09-1-34.44-3.66C87.84,74.17,80.88,73.4,74.07,72a10.78,10.78,0,0,0-8.86,1.9,45.46,45.46,0,0,0-6.73,5.71c-2.89,3.08-3.2,5.75-.63,8.94A50.7,50.7,0,0,0,66.43,97C74.38,103,83.59,106.59,93,109.79c15.75,5.35,32,8.41,48.34,11.09,8,1.31,16.18,1.14,24.22,2.11,11.17,1.35,22.38,1.07,33.56,1.67,6.54.35,13.22,1,19.37,3.91a20.59,20.59,0,0,0,4.25,1.12c3.35.78,4.79,3.38,5.53,6.29s-1.39,4.63-3.61,5.55c-8.67,3.58-17.22,7.72-26.21,10.16-10.62,2.88-21.65,4.25-32.52,6.17q-7.62,1.35-15.29,2.33c-13.36,1.71-26.75,2.74-40.24,1.64-2.65-.22-5.34,0-8,0-.15-.36-.31-.72-.47-1.08.79-.72,1.5-1.91,2.39-2.08a65.46,65.46,0,0,1,7.68-.74l33.62-2.14c3.86-.25,7.73-.42,11.57-.84a239.77,239.77,0,0,0,37.92-7c8-2.19,15.69-5.36,23.47-8.22a24.27,24.27,0,0,0,4.31-2.71c-1.29-3.71-4.4-4.43-7.39-5-12.12-2.29-24.38-2.79-36.7-3.22-14.83-.52-29.66-1.94-44.42-3.64a127.48,127.48,0,0,1-23.75-5.07c-7.61-2.41-15.52-4-22.79-7.51-2.61-1.27-5.61-1.71-8.36-2.73a63.44,63.44,0,0,1-6.52-2.94c-2.92-1.46-6-2.7-8.62-4.62-5.44-4-10.61-8.46-12.76-15.25-1.17-3.69,1.4-9.58,5-12.06C58.91,73.31,61.31,71.72,64.4,69.63ZM84.57,68c8.41,3.52,16.6,4.43,24.64,5.34,11.08,1.26,22.26,1.72,33.41,2.23a106.41,106.41,0,0,0,28.53-2.12c1.9-.43,3.9-.75,4.73-3.18C169.79,66.47,163,65.18,156.44,64c-6.93-1.3-14.16-1.28-21.25-1.33a239.61,239.61,0,0,0-46.37,4.13C87.62,67,86.47,67.45,84.57,68Z"/><path class="cls-1" d="M61.56,258.59c-9.87.56-19,1.56-28.19,1.43a66.82,66.82,0,0,1-17.87-2.95A22.21,22.21,0,0,1,.14,233.54c1.06-9,6.6-15.4,14.75-19.3,6.19-3,12-3.77,19.7-4,5.63-.68,9.12-.33,14.35-.57.59,0,0-12.5,0-13.64a32.45,32.45,0,0,1,.45-6.68c.42-1.91,1.41-2.9,3.21-3.06,3.26-.3,6.57-.45,9.84-.49,24.71-.26,49.43-.41,74.14-.67,21-.23,42-.6,63-.84q21.56-.22,43.13-.25c7.34,0,10.47,1.75,11.63,9a160.4,160.4,0,0,1,2.12,28,114.59,114.59,0,0,1-3.39,23.44,84.34,84.34,0,0,1-16.91,35,36.35,36.35,0,0,1-20.49,12.42c-11.14,2.34-22.52,4.73-33.82,4.85-18.2.18-36.5,1.43-54.67-1.26a64.45,64.45,0,0,0-9.93-.4c-19.44.16-35.07-7.23-46.38-23.26C67.71,267.37,64.55,262.85,61.56,258.59Zm186.23-69.37L53.51,190.66c0,2-.09,3.42,0,4.83.61,8.27,1,16.57,2,24.79A87.13,87.13,0,0,0,59,237.49C62.52,248,66.94,258,73.84,266.87c9.21,11.86,20.15,20.35,35.72,21.37,10.66.71,21.3,1.8,32,2.21,10.12.39,20.31-.46,30.39.29,12.12.91,23.86-1.17,35.7-2.78,7.66-1,14.39-4.45,20.65-8.76a19.56,19.56,0,0,0,5.34-5.5c7.39-11.52,14-23.42,16-37.28a106,106,0,0,0,1.51-14.27c0-8.46-.34-16.93-.9-25.38C250.06,194.33,248.71,192,247.79,189.22ZM50,215.24c-3.86-.26-7.14-.58-10.43-.68-9.62-.3-18.58,1.67-26.63,7.37-5.22,3.69-7.67,8.83-6.85,14.71S9.39,248.29,15.78,251c14.08,6,28.33,4.33,43.23,1.47C54.81,240.11,49.82,228.38,50,215.24Z"/><path class="cls-1" d="M64.4,69.63c-5.44-2.33-9.7-4.42-14.14-6-11.26-4-20.14-16-21.24-27.8-1.41-15,7.66-25.16,20.31-29.19A138.71,138.71,0,0,1,89.48,0c2.57,0,4.74.5,5.46,4.34-2.17.31-4.24,1-6.24.83A71.28,71.28,0,0,0,62.13,8.1C59.14,9,56,9.4,53,10.43a37.58,37.58,0,0,0-8.45,3.92c-12.3,8.25-14.59,22.22-5.45,34,5.75,7.41,13.36,12.28,22.13,15.78,5.92,2.35,11,1.94,16.95-.08s12.54-2.63,18.89-3.48c6.52-.87,13.1-1.57,19.67-1.8,10.27-.37,20.55-.42,30.82-.34A76,76,0,0,1,176,64.66c2.85,1.18,6.24,2.82,6.06,6.43-.16,3.27-3.38,5-6.19,5.57-6.63,1.42-13.36,2.43-20.09,3.28a90.44,90.44,0,0,1-13.16.65c-4.54-.11-9.06-.92-13.61-1.16-11.55-.61-23.09-1-34.44-3.66C87.84,74.17,80.88,73.4,74.07,72a10.78,10.78,0,0,0-8.86,1.9,45.46,45.46,0,0,0-6.73,5.71c-2.89,3.08-3.2,5.75-.63,8.94A50.7,50.7,0,0,0,66.43,97C74.38,103,83.59,106.59,93,109.79c15.75,5.35,32,8.41,48.34,11.09,8,1.31,16.18,1.14,24.22,2.11,11.17,1.35,22.38,1.07,33.56,1.67,6.54.35,13.22,1,19.37,3.91a20.59,20.59,0,0,0,4.25,1.12c3.35.78,4.79,3.38,5.53,6.29s-1.39,4.63-3.61,5.55c-8.67,3.58-17.22,7.72-26.21,10.16-10.62,2.88-21.65,4.25-32.52,6.17q-7.62,1.35-15.29,2.33c-13.36,1.71-26.75,2.74-40.24,1.64-2.65-.22-5.34,0-8,0-.15-.36-.31-.72-.47-1.08.79-.72,1.5-1.91,2.39-2.08a65.46,65.46,0,0,1,7.68-.74l33.62-2.14c3.86-.25,7.73-.42,11.57-.84a239.77,239.77,0,0,0,37.92-7c8-2.19,15.69-5.36,23.47-8.22a24.27,24.27,0,0,0,4.31-2.71c-1.29-3.71-4.4-4.43-7.39-5-12.12-2.29-24.38-2.79-36.7-3.22-14.83-.52-29.66-1.94-44.42-3.64a127.48,127.48,0,0,1-23.75-5.07c-7.61-2.41-15.52-4-22.79-7.51-2.61-1.27-5.61-1.71-8.36-2.73a63.44,63.44,0,0,1-6.52-2.94c-2.92-1.46-6-2.7-8.62-4.62-5.44-4-10.61-8.46-12.76-15.25-1.17-3.69,1.4-9.58,5-12.06C58.91,73.31,61.31,71.72,64.4,69.63ZM84.57,68c8.41,3.52,16.6,4.43,24.64,5.34,11.08,1.26,22.26,1.72,33.41,2.23a106.41,106.41,0,0,0,28.53-2.12c1.9-.43,3.9-.75,4.73-3.18C169.79,66.47,163,65.18,156.44,64c-6.93-1.3-14.16-1.28-21.25-1.33a239.61,239.61,0,0,0-46.37,4.13C87.62,67,86.47,67.45,84.57,68Z"/><path class="cls-1" d="M222.38,218.3c-.12.43-.56.93-1.46,1.51-1.83,1.18-4.81.64-6.86.7q-4.8.13-9.61.24c-23.56.53-47.12.77-70.69.9-11.67.07-23.34.67-35,.42-4.17-.09-10.31.68-14.26-.77s-2.84-3.82.73-3.88c15.82-.3,31.63-.7,47.45-.79,9.18-.06,18.35.6,27.52.53s18.28-.79,27.43-1c9.75-.19,19.52-.17,29.27-.05C218.65,216.16,222.79,216.72,222.38,218.3Z"/></g></g></svg>