<svg xmlns="http://www.w3.org/2000/svg" viewBox="0 0 476.83 324.81"><defs><style>.cls-1{fill:#a7a9ac;}.cls-2{fill:#f2a7df;}.cls-3{fill:#afefd2;}</style></defs><title>nota</title><g id="Capa_2" data-name="Capa 2"><g id="desktop"><path class="cls-1" d="M73.52,155.17a33.19,33.19,0,0,0,9.53,19.08C85.86,177,89,179.32,93.26,179a12.24,12.24,0,0,1,2,.22c2.31.22,4.63.61,6.94.62,5.92.05,11.85-.13,17.77-.1,10.92.06,21.85.22,32.77.3,7.15,0,14.3,0,21.45,0,4.92,0,9.83.18,14.75.18,11.67,0,23.33-.09,35-.08,6.66,0,13.31.15,20,.17,7,0,14-.08,21-.05q18.78.09,37.56.26c7.76.06,15.52.21,23.28.25a13.78,13.78,0,0,0,5.11-.54,12.78,12.78,0,0,0,4.14-3.14,40.48,40.48,0,0,0,7.58-12,22.17,22.17,0,0,0,2.12-9.47h-4.34c-11.1,0-22.2,0-33.3,0-6.08,0-12.16-.2-18.25-.23-4.92,0-9.84.14-14.76.06-4.15-.08-8.3-.56-12.45-.57q-30.92-.08-61.83,0c-6.84,0-13.68.09-20.52.13-11.44.07-22.87.17-34.31.19-12.52,0-25-.06-37.56-.08H73.52ZM262,32.86a9.12,9.12,0,0,0,.31-2.11c-.14-1.74-.49-3.47-.65-5.21a4.89,4.89,0,0,0-1.89-3.4,33.92,33.92,0,0,0-3.17-2.45,16,16,0,0,0-8.17-2.77c-2.48-.12-5,.16-7.46.19q-13,.11-26,.15c-4.16,0-8.32-.15-12.47-.1-5.5.05-11,.29-16.49.35-6,.06-12-.06-18,0-5.76.07-11.51.34-17.26.38-10.32.07-20.63.05-30.94,0-1.66,0-3.31-.34-5-.32-2.31,0-4.62.38-6.93.38-8,0-16-.1-24-.09-3.12,0-6,.76-7.68,3.74A59.64,59.64,0,0,0,73,28.69a9.19,9.19,0,0,0,0,2.91c10.67,0,21.16,0,31.64,0s21,.09,31.51.17,20.88.23,31.31.29,21.12,0,31.68.07,20.89.33,31.34.45S251.28,32.77,262,32.86Z"/><path class="cls-2" d="M83.27,49.3V60.9L245,62.59V49.24a55.65,55.65,0,0,0-5.7-.32,104.48,104.48,0,0,1-13.36-.1,18.44,18.44,0,0,0-2.23,0c-2.24.09-4.47.24-6.7.28s-4.49,0-6.73,0-4.63-.24-6.94-.22c-5.48.07-10.95.31-16.43.34-5.74,0-11.47-.2-17.2-.18-6.23,0-12.47.23-18.7.25-7.92,0-15.84-.06-23.76-.1L84.94,49A10.38,10.38,0,0,0,83.27,49.3Z"/><path d="M325,111.47a76,76,0,0,1,16.54.19c2-3.16,3.93-6.53,6.08-9.77,2.39-3.61,5.14-5.78,8.53-8.57,6.52-5.36,17.69-5.69,21.79-4.47a9.8,9.8,0,0,1,3.94,2.08c8.42,7.95,7.31,16.48,5.33,21,8.9-.07,18.11-.88,24.06-1,1.81,0,3.61,0,5.42-.06A6.59,6.59,0,0,1,419,111c1.23.54,1.14,1.89.87,3a7.33,7.33,0,0,1-1.84,3.1c-1.89,2.11-3.64,4.35-5.45,6.53a2,2,0,0,1-1.37,1,1.2,1.2,0,0,1-1.1-.74c-.5-1.08.21-1.93.83-2.77a30.68,30.68,0,0,1,2-2.41c.72-.79,1.46-1.57,2.17-2.39.35-.4,1.8-2.5,1.93-2.5-2,0-10-.18-12.43-.14-2,0-18.22.69-18.22.69a5.07,5.07,0,0,0-1.88,2.56c-1.47,3.38-9.07,14.82-17.51,18.81-4.86,2.3-18.24,3.73-23.08,1.53-5.89-2.68-8.15-9-3.91-22.86a54.67,54.67,0,0,0-15.9-.44,51.85,51.85,0,0,1-7.18,11.36,33.32,33.32,0,0,1-19,11.29,11.64,11.64,0,0,1-8.45-1.35,20,20,0,0,1-10.61-19.34,22.35,22.35,0,0,1,1.67-7,29.79,29.79,0,0,1,2.18-4.05,44.29,44.29,0,0,1,9.34-10.8,34.74,34.74,0,0,1,6-4,32.65,32.65,0,0,1,6.42-3c.95-.25,1.9-.46,2.85-.65A9.29,9.29,0,0,1,312,87c3.68,1.21,7.55,2.62,10,5.59,4.14,5,5.78,11.74,3.75,16.84A8.07,8.07,0,0,0,325,111.47ZM344.22,134c1.39-1.23,29.78-18.31,31.83-20s8.05-5.12,10.15-7a9.44,9.44,0,0,0,.19-2.44A15.9,15.9,0,0,0,383.57,96c-11.86,10-31.81,19.86-43.53,29.71C339.83,129.81,340.73,132.3,344.22,134ZM318.15,93.32c-2.25,1.63-4.45,3.11-6.52,4.74-4.18,3.27-8.39,6.52-12.41,10-4.21,3.62-15.94,13.14-17.26,14a14.88,14.88,0,0,0,5.34,8.52l36.2-30.24C322.87,97.05,321.34,94.44,318.15,93.32Zm63.64,1.15c-4.88-5.13-18.83-2.59-24.15.87-2.57,1.67-7.72,7.84-8.45,8.72-3.66,4.32-5.69,9.48-7.67,14.66a28.7,28.7,0,0,0-.91,3.71C340.77,122.51,366.27,105.09,381.79,94.47Zm-92.92,37.41a8.64,8.64,0,0,0,7.83,2.45,42.7,42.7,0,0,0,8.71-3c5.27-2.55,9-7.09,12.22-12a47.65,47.65,0,0,0,5.66-11.93,11.48,11.48,0,0,0,.33-4C312.16,112.77,300.45,122.46,288.87,131.88ZM316,91.79a11.09,11.09,0,0,0-11.27-2.69A31.17,31.17,0,0,0,293.87,95c-1.91,1.65-10.2,8.47-12.29,18-.57,1.52-1.37,5.77-.65,6.9,1.06-.36,14.26-11.35,19.69-15.66C305.64,100.18,310.6,96.13,316,91.79ZM347.7,135c10.9,2.64,19.91-1,27-8.32,2.54-3.39,4.89-6.94,7.23-10.47a51.85,51.85,0,0,0,3.13-5.61C384.34,110.92,348.79,134.27,347.7,135Z"/><path d="M285.61,54.53h-.09c-1.31-.07-.6-3.38-.42-4.15A36.59,36.59,0,0,1,287,45a15.52,15.52,0,0,1,5.67-6.47c2.08-1.5,7.52-1.21,9.76,1.37l3,3.45c.65-.36,1.32-.7,1.95-1.1,3.68-2.32,7.76-2.54,11.85-1.86,4.54.75,7.51,5,7.57,10.15,0,1.13,0,2.26,0,3.77,1.17-.57,2-1,2.77-1.33,4.24-1.7,8.49-3.39,12.75-5a4,4,0,0,1,1.72-.2c1,.1,1.23.71,1,1.4-3.71,1.39-7.31,2.66-10.83,4.11-2,.82-3.85,2-5.81,2.92a5.7,5.7,0,0,0-2.84,3.55c-1.1,2.87-2.48,5.63-3.83,8.4a8.52,8.52,0,0,1-1.65,2.19,2.94,2.94,0,0,1-3.43.64,5,5,0,0,1-1.17-3.59,17.19,17.19,0,0,1,4.69-7.79A10.79,10.79,0,0,1,322,57.9a5,5,0,0,0,2.48-5.3c-.1-.91,0-1.83-.09-2.75-.45-5.39-2.77-7.62-8.19-7.65a15.54,15.54,0,0,0-8.52,2.49A3.23,3.23,0,0,0,306,48a25.61,25.61,0,0,1-1,10.37,19.5,19.5,0,0,1-2,4.31c-1.82,2.8-4.85,2.46-6.48-.45-2.15-3.84-.6-7,1.59-10.07,1.49-2.1,3-4.19,4.58-6.23a2,2,0,0,0,.21-2.3c-2.29-5.33-8.74-4.83-11.24-2a23.59,23.59,0,0,0-3.33,4.89,20.69,20.69,0,0,0-1.66,4.51c-.19.82-.31,1.65-.44,2.48C286.25,54,286.15,54.5,285.61,54.53Zm17.93-5.48a21.68,21.68,0,0,0-5.16,7.42,13.19,13.19,0,0,0-.66,3.14,2.53,2.53,0,0,0,1.44,2.85c1.31.31,2-.51,2.5-1.55.07-.14.24-.24.29-.39C303.29,56.87,304.37,53.17,303.54,49.05ZM322.35,61c-3,2.28-4.92,5.55-4.53,7.84C319.76,67.62,321.71,64.25,322.35,61Z"/><path d="M133.19,278.35l.06-.06c1-.88,2.81,2,3.23,2.64a35.08,35.08,0,0,1,2.45,5.18,15.5,15.5,0,0,1,.57,8.58c-.41,2.53-4.46,6.18-7.87,5.93-1.48-.1-3-.23-4.53-.35-.2.72-.43,1.43-.6,2.16-1,4.24-3.69,7.29-7.06,9.7-3.74,2.67-8.82,1.8-12.53-1.83-.81-.79-1.6-1.6-2.66-2.66-.43,1.22-.67,2.08-1,2.9q-2.7,6.3-5.46,12.57a3.91,3.91,0,0,1-1.08,1.35A1,1,0,0,1,95,324.2c1.64-3.61,3.29-7.05,4.76-10.57.83-2,1.3-4.14,2-6.17a5.65,5.65,0,0,0-.49-4.52C100,300.13,99,297.2,98,294.29a8.79,8.79,0,0,1-.38-2.71,3,3,0,0,1,2-2.88,4.94,4.94,0,0,1,3.37,1.71,17.1,17.1,0,0,1,2.19,8.82,10.84,10.84,0,0,1-.14,2.49,5,5,0,0,0,2,5.5c.71.58,1.3,1.3,2,1.88,4.13,3.5,7.35,3.43,11.2-.37a15.68,15.68,0,0,0,4.27-7.8,3.19,3.19,0,0,0-1.13-3.52,25.51,25.51,0,0,1-6.65-8,19.4,19.4,0,0,1-1.67-4.42c-.69-3.27,1.69-5.17,4.91-4.26,4.23,1.19,5.36,4.51,6,8.24.42,2.54.84,5.08,1.17,7.64a2,2,0,0,0,1.48,1.78c5.38,2.15,9.59-2.77,9.34-6.56a24,24,0,0,0-1.11-5.81,20.78,20.78,0,0,0-2-4.36c-.44-.72-.94-1.39-1.44-2.07C133.13,279.2,132.83,278.75,133.19,278.35Zm-8.81,16.56a21.78,21.78,0,0,0-1.59-8.9,13.39,13.39,0,0,0-1.76-2.69c-.86-1.08-2.2-1.5-3-1-1.15.71-1,1.76-.67,2.85,0,.16,0,.35.06.49C119,289.2,120.88,292.58,124.38,294.91Zm-21.72,4.88c.53-3.75-.44-7.4-2.33-8.75C99.78,293.25,100.78,297,102.66,299.79Z"/><path d="M450.34,39.53l9.28-1c.55-4,1-8.35,2.39-12.49.3-.86.5-1.82,2.09-1.77,2.22,4.69,1.51,10.12,3,15.32,1.22.21,2.52.36,3.79.67,1.6.38,3.19.86,4.77,1.36a1.83,1.83,0,0,1-.06,3.42,36.23,36.23,0,0,1-5.34,1c-2,.19-2.61.46-3.28,2.34s-1.24,3.62-1.87,5.43a8.84,8.84,0,0,1-.65,1.62c-.85,1.47-2,1.51-2.8,0a21.24,21.24,0,0,1-1.33-3.76c-1.92-6.63-.2-4.66-6.3-7.52-1.13-.53-2.29-1-3.39-1.57S449.17,41.11,450.34,39.53Zm3.7,1.65-.07.41a14.81,14.81,0,0,0,2.42,1.08c3.32.83,5,3,5.44,6.28A27.14,27.14,0,0,0,463,52.63c.92-2.39,1.55-4.18,2.3-5.94a3.87,3.87,0,0,1,3.8-2.71,18.78,18.78,0,0,0,3.53-.61l0-.58c-1.18-.22-2.36-.49-3.55-.65-3.17-.43-4.08-1.22-4.49-4.32-.31-2.4-.48-4.81-.73-7.22a5.34,5.34,0,0,0-.3-1,42.4,42.4,0,0,0-1.81,8.19c-.31,2.48-.48,2.71-3.05,2.88C457.09,40.78,455.57,41,454,41.18Z"/><path d="M318,0a4.45,4.45,0,0,1,4.6,5,4.27,4.27,0,0,1-4.87,4.39,6.28,6.28,0,0,1-.75,0C314,9,312.76,5.8,313.88,3,314.05,2.54,315.69,0,318,0Zm-.9,2.18a2.8,2.8,0,0,0-1.43,2A4.12,4.12,0,0,0,316,6.75c.37.76,2.67.77,3.49.23a2.76,2.76,0,0,0,.69-3.14A2.72,2.72,0,0,0,317.11,2.18Z"/><path d="M457.76,4.67c.06-2.68.8-3.77,2.56-3.76,2.74,0,4.57,1.7,4.5,4.12a4,4,0,0,1-3.57,3.74C458.91,8.74,457.69,7.31,457.76,4.67Zm2.1,1.46c1,.8,1.88.6,2.43-.29.3-.48.46-1.48.18-1.78-.45-.49-1.31-.59-2.15-.91Z"/><path d="M297.14,20.79a2.77,2.77,0,0,1-3,2.89c-1.77,0-2.91-1-2.9-2.36,0-2.07,1.27-3.69,2.82-3.67A3,3,0,0,1,297.14,20.79ZM295,20c-1.38-1-2.47,1.11-1.5,1.78A1.16,1.16,0,0,0,295,20Z"/><path d="M336.49,163.43c-.34,1.27-3.73.81-4.72.82-4,.07-8,0-12,0-9.09,0-18.17-.09-27.26-.1-6.09,0-12.18,0-18.26,0-7,0-14-.08-21-.11-6,0-12,0-18-.06-11-.08-22-.21-33-.28-1.49,0-3,.21-4.49.19-3.58,0-7.16-.17-10.74-.19-4.49,0-9,0-13.46,0-5.4,0-10.8.12-16.2.14-6.51,0-13,0-19.53,0-7.23-.08-14.46-.32-21.69-.39-4.83,0-9.67.16-14.51.16-3.75,0-7.5-.12-11.25-.19a2.84,2.84,0,0,1-2.85-1.31c1.41-.11,2.52-.27,3.64-.28q11.76-.06,23.53-.07l49.32,0,84.17,0,30.29,0q27.68.06,55.35.15C334.74,162,336.82,161.8,336.49,163.43Z"/><path d="M169.82,20.94c1.6,0,2.9.39,3.55,1.95s-.07,2.61-1.11,3.52a8.69,8.69,0,0,1-2.68,1.68,3,3,0,0,1-3.82-1.88C164.1,22,166.38,21.11,169.82,20.94Zm1.25,2.93c-2.06-1.16-2.65-.79-2.79,1.71C170.11,25.79,170.11,25.79,171.07,23.87Z"/><path d="M90.44,71a1,1,0,0,1,.38-.3,4.21,4.21,0,0,1,1.77-.12c2-.05,3.94-.06,5.91-.07,2.88,0,5.77,0,8.65,0l10.73,0,12.16.08,12.91.12,13,.15,12.44.18,11.22.19c3.1.06,6.21.12,9.32.2,2.25.06,4.51.12,6.76.2.69,0,2.62-.15,3,.49a1.84,1.84,0,0,1,.18.8.44.44,0,0,1,0,.2.37.37,0,0,1-.18.17,5.16,5.16,0,0,1-3,.58c-1.11,0-2.23,0-3.34,0-5.83-.12-11.65-.34-17.48-.41-11.75-.14-23.49-.17-35.23-.32q-19-.24-38-.6c-3.16-.06-6.32-.21-9.47-.32a2.66,2.66,0,0,1-1.57-.35A.58.58,0,0,1,90.44,71Z"/><path d="M90.23,89.6a.87.87,0,0,1,.54-.59,6,6,0,0,1,2.47-.12c1.33,0,2.66-.09,4-.16,2.59-.11,5.19-.23,7.78-.12,7,.3,14.1,0,21.15,0a12,12,0,0,1,2,.09,69.74,69.74,0,0,0,11.38.35c7.47-.14,14.94-.13,22.42-.12,3.63,0,7.26.22,10.89.23,2.88,0,5.76-.22,8.64-.21,3.15,0,6.31.21,9.47.28,1.56,0,3.13,0,4.7-.06.7,0,1.53.06,1.38,1a1.83,1.83,0,0,1-1.34,1.1c-2,.14-4,.09-6,.09-6.42,0-12.83,0-19.25,0s-12.59-.24-18.88-.29c-7.89-.07-15.78,0-23.67-.09-5.74,0-11.47-.19-17.2-.24-3.08,0-6.15.09-9.23.11-3.35,0-6.78.22-10.13,0C90.68,90.64,90.14,90.1,90.23,89.6Z"/><path d="M91.58,109.57c-.27-.25-.32-.6,0-1.06a2.09,2.09,0,0,1,1.8-.61q5.75,0,11.49,0c7.4-.07,14.8-.2,22.2-.24,4.16,0,8.32.16,12.48.14,3.78,0,7.57-.21,11.35-.25,4.66-.05,9.31,0,14,0,3.23,0,6.46,0,9.69-.09,3.75,0,7.5-.09,11.25-.12a2.17,2.17,0,0,1,1.2.25,1.94,1.94,0,0,1,.78,1.11c0,.27-.41.74-.74.89a3.56,3.56,0,0,1-1.46.24c-10.25,0-20.51,0-30.76.06q-19.24.09-38.49.24c-7.33,0-14.66.1-22,.12A5.23,5.23,0,0,1,91.58,109.57Z"/><path d="M90.88,80.55c-.53-1,1.2-1.25,2-1.25,3.84,0,7.67,0,11.51,0,6.17,0,12.34,0,18.51.06q21.45.21,42.88.5c3.07,0,6.14.3,9.21.3,3.3,0,6.59-.18,9.89-.28a11.14,11.14,0,0,1,2,0c.64.1,1.72.73,1.27,1.53s-1.58.51-2.22.53c-2,0-4,.06-6.07.07-3,0-6,0-9,0l-11.19,0-12.52-.08c-4.34,0-8.68-.07-13-.12s-8.48-.09-12.71-.15c-3.85,0-7.71-.1-11.56-.17q-4.8-.07-9.6-.18-3.41-.07-6.81-.19c-.72,0-1.75.33-2.28-.29A1.61,1.61,0,0,1,90.88,80.55Z"/><path d="M92.49,127.24a.62.62,0,0,1,0-.13c.06-.48.4-.53.86-.64a13.63,13.63,0,0,1,3.19-.14c5.51-.08,11,0,16.51.06q15.75,0,31.51.06l32.28,0c1,0,2.48.21,1.87,1.58-.3.69-1.64.57-2.27.57l-55.06-.35c-5.48,0-11,0-16.46,0-3.07,0-6.15.06-9.23,0C94.89,128.18,92.44,128.57,92.49,127.24Z"/><path d="M91.76,98.85a1.09,1.09,0,0,1,.07-.37c.42-1.18,3.42-.46,4.34-.53,2.46-.19,5,0,7.42.07,9.64.12,19.29.26,28.93.33,6.83,0,13.66,0,20.49,0,3.59,0,7.18,0,10.77,0,1,0,2.82.56,1.42,1.72-.7.58-2.14.42-3,.41-7.42,0-14.85-.14-22.27-.21q-14-.14-28-.28c-3.9-.05-7.79-.1-11.69-.18-2,0-4-.08-6-.13C93.77,99.69,91.8,99.82,91.76,98.85Z"/><path d="M92.72,117.41a1,1,0,0,1,.44-.38,7.42,7.42,0,0,1,2.82-.28c11.43,0,22.86.13,34.28.14,7.59,0,15.17-.07,22.76-.11,1.83,0,3.66,0,5.5,0,1,0,2,.55,1.28,1.66-.42.67-1.53.59-2.21.6q-6.61,0-13.25,0-24.65-.1-49.29-.22a4,4,0,0,1-2-.21A.82.82,0,0,1,92.72,117.41Z"/><path d="M218.82,118c-.07.45-.62.66-.93.91-.12.09-1.29,1-1.27,1,.59,1,1.21,1.94,1.75,2.94.14.26.27.37.27.68a.61.61,0,0,1,0,.33.45.45,0,0,1-.51.19,1.21,1.21,0,0,1-.49-.31,7.41,7.41,0,0,1-1.34-1.85c-.06-.09-.76-1.28-.84-1.22-.49.37-1,.73-1.48,1.08l-.6.41a3.19,3.19,0,0,1-.44.31c-.49.21-.54-.4-.63-.7-.19-.57-.36-1.15-.53-1.73-.48-1.62-.94-3.24-1.4-4.87s-.86-3.07-1.28-4.6c-.06-.24-.13-.48-.19-.71s-.23-.81.11-.73c.09,0,.23.2.3.26l.43.34.84.68q1.68,1.38,3.31,2.8l.46.41q1.66,1.47,3.3,3l.81.75C218.62,117.48,218.85,117.61,218.82,118Z"/><path d="M264.28,35.46v.12h0S264.28,35.5,264.28,35.46Z"/><path d="M344.22,153.5c-5-.06-10-.14-15-.14q-16.15,0-32.29.08c-9.28,0-18.53.1-27.78.14-1,0-2-.08-3.17-.14,0-3.46,0-6.76,0-10.05-.06-9.87-.08-19.71-.18-29.56-.06-6-.25-12-.35-18-.1-5.83-.18-11.65-.29-17.47-.08-4-.14-8-.24-12-.12-4.74-.27-9.48-.41-14.21-.08-2.5-.16-5-.2-7.48-.05-1.76-.17-11-.33-11.38,0-2,0-4,0-6a9.59,9.59,0,0,0-4.43-8.44,21.23,21.23,0,0,0-12.3-4.14c-19.28.08-38.54.32-57.83.46-7.08,0-14.15,0-21.24,0-9.6,0-19.18.07-28.76.19-7,.08-14,.39-20.91.45l-.84,0c-6.86.06-13.73.1-20.59.08-6.7,0-13.17-.1-19.79,1.21-1.88.36-3,2.24-3.86,3.86a60.6,60.6,0,0,0-2.68,6.74,6.79,6.79,0,0,0-.28,2.2c0,9.11,0,18.2-.06,27.29-.07,13.77-.19,27.53-.27,41.3-.06,10,0,20-.21,30-.1,7.92-.12,15.83.25,23.73,0,.57-.06,1.39.27,1.68,1.2,1,1,2.37,1.2,3.65a28.7,28.7,0,0,0,.8,4.15,39.39,39.39,0,0,0,5.74,11.62c3.9,5.31,8.82,8.85,15.72,8.83,3.64,0,7.3,0,10.93,0q26.69.18,53.33.34l43.84.25c16.95.06,33.88.16,50.84.2q37.07.09,74.12.12a12.32,12.32,0,0,0,9.21-3.67,38.71,38.71,0,0,0,9-14.32,25.73,25.73,0,0,0,1.88-8.74C347,154.07,346.45,153.52,344.22,153.5ZM73,28.68a58.39,58.39,0,0,1,3.16-7c1.62-3,4.56-3.74,7.69-3.74,8,0,16,.1,24,.1,2.3,0,4.61-.34,6.92-.38,1.65,0,3.31.3,5,.3,10.32,0,20.63.06,31,0,5.76,0,11.5-.3,17.26-.37,6-.08,12,.05,18,0,5.5,0,11-.28,16.49-.34,4.16,0,8.31.1,12.48.1q13,0,26-.16c2.49,0,5-.29,7.45-.19a16.09,16.09,0,0,1,8.17,2.78,31.48,31.48,0,0,1,3.17,2.45,4.83,4.83,0,0,1,1.9,3.39c.16,1.76.51,3.47.65,5.21a9.11,9.11,0,0,1-.3,2.12c-10.69-.1-21.12-.14-31.54-.26s-20.9-.37-31.33-.45-21.12,0-31.68-.08-20.88-.21-31.32-.29-21-.14-31.51-.18-21,0-31.64,0A8.93,8.93,0,0,1,73,28.68Zm-.59,124.47c0-2.21,0-4.53,0-6.84.12-5.93.36-11.83.45-17.75a58.15,58.15,0,0,0-.43-6.19,27.75,27.75,0,0,1-.55-3.11c.1-10.76.3-21.52.4-32.29.13-14.38.17-28.74.29-43.1,0-3.33.2-6.64.33-10.21,1.18,0,2,0,2.84,0,8.76.14,17.5.35,26.26.43q28.93.3,57.87.47,29.17.21,58.36.35c10.66.06,21.32,0,32,.18,4.13.08,8.26-.35,12.42.22.06,6,.14,16,.23,21.9q.27,19.16.51,38.3.27,19.42.53,38.83c.06,3.33.18,6.66.22,10,0,2.71,0,5.45,0,8.29C200.1,152.8,136.39,153,72.42,153.15Zm270.17,12a40.56,40.56,0,0,1-7.58,12,12.71,12.71,0,0,1-4.15,3.15,14.19,14.19,0,0,1-5.12.55c-7.74,0-15.51-.19-23.27-.27q-18.78-.15-37.56-.24c-7,0-14,.06-21,0-6.66,0-13.32-.17-20-.17-11.67,0-23.35.09-35,.09-4.91,0-9.83-.17-14.75-.19-7.15,0-14.3,0-21.45,0-10.93-.06-21.85-.24-32.76-.28-5.93,0-11.85.14-17.77.1-2.33,0-4.64-.41-7-.64a13.63,13.63,0,0,0-2-.22c-4.31.29-7.41-2-10.21-4.78a33.14,33.14,0,0,1-9.54-19.08h33.87c12.52,0,25,.11,37.56.08,11.42,0,22.85-.12,34.29-.18,6.85,0,13.69-.12,20.53-.12q30.91-.06,61.83,0c4.15,0,8.29.49,12.46.55,4.9.08,9.82-.08,14.75-.06,6.08,0,12.17.22,18.26.24,11.09,0,22.2,0,33.29,0h4.33A22,22,0,0,1,342.59,165.14Z"/><path d="M82.08,143.57c-1-.3-1.11-1.09-1.11-2,0-4.75,0-9.5,0-14.25,0-4.58-.19-9.16-.2-13.74,0-4.83.11-9.66.13-14.49,0-4.33,0-8.65,0-13q.06-16.9.14-33.82c0-.16,0-.33,0-.5,0-3.79.91-4.67,4.7-4.7,5.82,0,11.64-.14,17.46-.19s11.44-.09,17.17-.09c9.45,0,18.9,0,28.36.09,7.13.07,34.68-.19,39.48-.08,1,0,16.58.43,19.45.48,2.16,0,11.93-.25,14.64-.22,2.38,0,4.76,0,7.14,0,4,0,8,.12,12,.17.65,0,1.31-.08,2,0,1,0,2.15-.06,2.89.7s.3,2.88.33,4c.06,2.58.59,22.61.81,30,.29,10,.65,20,1,30q.43,13.64.84,27.28c0,1.08.06,2.17,0,3.26,0,1.58-.57,2.2-2.06,2.2-3.83,0-7.66-.16-11.49-.16-3.15,0-6.3.17-9.45.2-4,.05-8,.31-11.94,0-4.15-.33-8.25,0-12.38,0-14.5,0-29,.08-43.51.06-4.24,0-8.47-.27-12.71-.27-6.1,0-12.2.14-18.31.18-1.33,0-2.65-.24-4-.23-2.65,0-5.31.18-8,.17-4.21,0-8.42-.16-12.63-.22-3.57,0-7.14,0-10.71-.06-2.9,0-5.8,0-8.7,0-.64,0-1.42.06-1.43-.95a12,12,0,0,1,5.58-.82c2.8.23,5.62.25,8.44.23,3.07,0,6.14-.26,9.21-.28,1.91,0,3.82.29,5.73.28,2.44,0,4.88-.27,7.32-.28,2.88,0,5.76.21,8.64.2,2.23,0,4.47-.25,6.71-.31,1.14,0,2.28.18,3.42.15,1.89,0,3.77-.24,5.66-.26,4.08-.05,8.18.07,12.26-.05s8.07.38,12.13.11c4.29-.28,8.61.06,12.91,0,9.92-.13,19.85,0,29.77,0l25.78.06H246.7c.58-3.21-1.36-74.83-2.06-77.61-2.87,0-5.78,0-8.69,0q-18.64-.16-37.29-.37c-8.59-.1-17.18-.27-25.78-.37-12.18-.13-24.37-.18-36.55-.32q-24.42-.3-48.83-.71a40.22,40.22,0,0,1-4.14-.48v7.94q0,22,0,44.08c0,6.9.1,13.8-.13,20.69C83.12,138.12,83.5,141,82.08,143.57ZM83.27,49.3V60.9L245,62.59V49.24a55.65,55.65,0,0,0-5.7-.32,104.48,104.48,0,0,1-13.36-.1,18.44,18.44,0,0,0-2.23,0c-2.24.09-4.47.24-6.7.28s-4.49,0-6.73,0-4.63-.24-6.94-.22c-5.48.07-10.95.31-16.43.34-5.74,0-11.47-.2-17.2-.18-6.23,0-12.47.23-18.7.25-7.92,0-15.84-.06-23.76-.1L84.94,49A10.38,10.38,0,0,0,83.27,49.3Z"/><path class="cls-3" d="M27.86,172.45c-4.46.25-8.61.71-12.76.65A30.1,30.1,0,0,1,7,171.76,10,10,0,0,1,.07,161.11c.47-4.08,3-7,6.67-8.73a17,17,0,0,1,8.92-1.82,50.65,50.65,0,0,0,6.49-.25c.38-3.38.15-6.21,1.24-9.75,1.9-.1,3-1,4.86-1.06,11.18-.11,22.37-.18,33.56-.3,9.51-.1,19-.27,28.53-.38q9.76-.1,19.53-.11c3.32,0,4.74.79,5.26,4.07a71.74,71.74,0,0,1,1,12.67,51.65,51.65,0,0,1-1.54,10.61,38.09,38.09,0,0,1-7.65,15.86,16.47,16.47,0,0,1-9.27,5.62c-5,1.06-10.2,2.14-15.31,2.2-8.24.08-16.52.65-24.75-.57a29.18,29.18,0,0,0-4.49-.18c-8.8.07-15.87-3.27-21-10.53Zm-5.25-19.62c-1.75-.12-3.23-.26-4.72-.31a19.11,19.11,0,0,0-12,3.33,6.76,6.76,0,0,0-3.11,6.67c.38,2.72,1.52,5.27,4.41,6.51,6.38,2.73,12.83,2,19.57.66C24.81,164.08,22.55,158.78,22.61,152.83Z"/><path d="M29.15,86.92c-2.46-1-4.39-2-6.4-2.72a15.49,15.49,0,0,1-9.62-12.58c-.63-6.81,3.47-11.39,9.2-13.21a62.35,62.35,0,0,1,18.17-3,2.09,2.09,0,0,1,2.47,2,13.66,13.66,0,0,1-2.82.37,32.42,32.42,0,0,0-12,1.33c-1.35.42-2.78.59-4.12,1.06a16.82,16.82,0,0,0-3.82,1.77c-5.57,3.73-6.6,10.06-2.47,15.39a22.9,22.9,0,0,0,10,7.14,10.28,10.28,0,0,0,7.67,0A45.9,45.9,0,0,1,44,82.82c2.95-.39,5.93-.71,8.9-.81,4.65-.17,9.3-.19,13.95-.15a34.42,34.42,0,0,1,12.88,2.81c1.28.54,2.82,1.28,2.74,2.91s-1.53,2.25-2.8,2.52c-3,.65-6.05,1.1-9.09,1.49a41,41,0,0,1-6,.29c-2.06,0-4.11-.41-6.16-.52-5.23-.28-10.45-.45-15.59-1.66C39.76,89,36.61,88.63,33.53,88a4.9,4.9,0,0,0-4,.87,20.24,20.24,0,0,0-3,2.58c-1.31,1.39-1.45,2.6-.29,4a22.68,22.68,0,0,0,3.89,3.82c3.59,2.75,7.76,4.36,12,5.81a137,137,0,0,0,21.88,5c3.6.59,7.32.51,11,.95,5,.61,10.13.49,15.19.76a23.11,23.11,0,0,1,8.76,1.77,9.45,9.45,0,0,0,1.93.51,3.42,3.42,0,0,1,2.5,2.84c.33,1.31-.63,2.1-1.63,2.51-3.92,1.63-7.79,3.5-11.87,4.6-4.8,1.3-9.8,1.93-14.72,2.8q-3.43.6-6.92,1a86.64,86.64,0,0,1-18.21.74c-1.2-.09-2.42,0-3.63,0l-.21-.49c.36-.33.67-.86,1.08-.94a28.67,28.67,0,0,1,3.48-.33l15.21-1c1.75-.12,3.5-.2,5.24-.38a108.27,108.27,0,0,0,17.16-3.18c3.61-1,7.1-2.42,10.62-3.72a11.8,11.8,0,0,0,2-1.22c-.59-1.68-2-2-3.35-2.27a109.75,109.75,0,0,0-16.61-1.45c-6.71-.24-13.43-.88-20.1-1.65a58,58,0,0,1-10.75-2.3c-3.45-1.09-7-1.8-10.32-3.4-1.18-.57-2.54-.77-3.78-1.23a30.09,30.09,0,0,1-3-1.33,27,27,0,0,1-3.9-2.09c-2.46-1.82-4.8-3.83-5.77-6.91-.53-1.67.63-4.33,2.25-5.45C26.66,88.58,27.75,87.87,29.15,86.92Zm9.13-.72a39,39,0,0,0,11.15,2.42c5,.57,10.08.78,15.12,1a48.34,48.34,0,0,0,12.92-1c.86-.2,1.76-.34,2.14-1.44-2.76-1.74-5.84-2.32-8.8-2.88a54.13,54.13,0,0,0-9.62-.6,107.89,107.89,0,0,0-21,1.87C39.66,85.72,39.14,85.94,38.28,86.2Z"/><path d="M27.86,172.45c-4.46.25-8.61.71-12.76.65A30.1,30.1,0,0,1,7,171.76,10,10,0,0,1,.07,161.11c.47-4.08,3-7,6.67-8.73a20.73,20.73,0,0,1,8.92-1.82c2.54-.3,4.13-.14,6.49-.25.27,0,0-5.66,0-6.18a14.52,14.52,0,0,1,.2-3,1.54,1.54,0,0,1,1.46-1.39c1.47-.13,3-.2,4.45-.22,11.18-.11,22.37-.18,33.56-.3,9.51-.1,19-.27,28.53-.38q9.76-.1,19.53-.11c3.32,0,4.74.79,5.26,4.07a71.74,71.74,0,0,1,1,12.67,51.65,51.65,0,0,1-1.54,10.61,38.09,38.09,0,0,1-7.65,15.86,16.47,16.47,0,0,1-9.27,5.62c-5,1.06-10.2,2.14-15.31,2.2-8.24.08-16.52.65-24.75-.57a29.18,29.18,0,0,0-4.49-.18c-8.8.07-15.87-3.27-21-10.53Zm84.29-31.4-87.93.65c0,.91,0,1.55,0,2.19.28,3.74.45,7.5.9,11.22a39.6,39.6,0,0,0,1.59,7.79,43.94,43.94,0,0,0,6.7,13.3c4.17,5.37,9.12,9.21,16.17,9.67,4.83.32,9.64.81,14.47,1,4.58.18,9.19-.21,13.75.13,5.49.41,10.8-.53,16.16-1.26a21.62,21.62,0,0,0,9.35-4,9,9,0,0,0,2.42-2.49c3.34-5.22,6.36-10.6,7.24-16.88a48.47,48.47,0,0,0,.68-6.46c0-3.82-.15-7.66-.4-11.48A14.74,14.74,0,0,0,112.15,141.05ZM22.61,152.83c-1.75-.12-3.23-.26-4.72-.31a19.11,19.11,0,0,0-12,3.33,6.76,6.76,0,0,0-3.11,6.67c.38,2.72,1.52,5.27,4.41,6.51,6.38,2.73,12.83,2,19.57.66C24.81,164.08,22.55,158.78,22.61,152.83Z"/><path d="M29.15,86.92c-2.46-1-4.39-2-6.4-2.72a15.49,15.49,0,0,1-9.62-12.58c-.63-6.81,3.47-11.39,9.2-13.21a62.35,62.35,0,0,1,18.17-3,2.09,2.09,0,0,1,2.47,2,13.66,13.66,0,0,1-2.82.37,32.42,32.42,0,0,0-12,1.33c-1.35.42-2.78.59-4.12,1.06a16.82,16.82,0,0,0-3.82,1.77c-5.57,3.73-6.6,10.06-2.47,15.39a22.9,22.9,0,0,0,10,7.14,10.28,10.28,0,0,0,7.67,0A45.9,45.9,0,0,1,44,82.82c2.95-.39,5.93-.71,8.9-.81,4.65-.17,9.3-.19,13.95-.15a34.42,34.42,0,0,1,12.88,2.81c1.28.54,2.82,1.28,2.74,2.91s-1.53,2.25-2.8,2.52c-3,.65-6.05,1.1-9.09,1.49a41,41,0,0,1-6,.29c-2.06,0-4.11-.41-6.16-.52-5.23-.28-10.45-.45-15.59-1.66C39.76,89,36.61,88.63,33.53,88a4.9,4.9,0,0,0-4,.87,20.24,20.24,0,0,0-3,2.58c-1.31,1.39-1.45,2.6-.29,4a22.68,22.68,0,0,0,3.89,3.82c3.59,2.75,7.76,4.36,12,5.81a137,137,0,0,0,21.88,5c3.6.59,7.32.51,11,.95,5,.61,10.13.49,15.19.76a23.11,23.11,0,0,1,8.76,1.77,9.45,9.45,0,0,0,1.93.51,3.42,3.42,0,0,1,2.5,2.84c.33,1.31-.63,2.1-1.63,2.51-3.92,1.63-7.79,3.5-11.87,4.6-4.8,1.3-9.8,1.93-14.72,2.8q-3.43.6-6.92,1a86.64,86.64,0,0,1-18.21.74c-1.2-.09-2.42,0-3.63,0l-.21-.49c.36-.33.67-.86,1.08-.94a28.67,28.67,0,0,1,3.48-.33l15.21-1c1.75-.12,3.5-.2,5.24-.38a108.27,108.27,0,0,0,17.16-3.18c3.61-1,7.1-2.42,10.62-3.72a11.8,11.8,0,0,0,2-1.22c-.59-1.68-2-2-3.35-2.27a109.75,109.75,0,0,0-16.61-1.45c-6.71-.24-13.43-.88-20.1-1.65a58,58,0,0,1-10.75-2.3c-3.45-1.09-7-1.8-10.32-3.4-1.18-.57-2.54-.77-3.78-1.23a30.09,30.09,0,0,1-3-1.33,27,27,0,0,1-3.9-2.09c-2.46-1.82-4.8-3.83-5.77-6.91-.53-1.67.63-4.33,2.25-5.45C26.66,88.58,27.75,87.87,29.15,86.92Zm9.13-.72a39,39,0,0,0,11.15,2.42c5,.57,10.08.78,15.12,1a48.34,48.34,0,0,0,12.92-1c.86-.2,1.76-.34,2.14-1.44-2.76-1.74-5.84-2.32-8.8-2.88a54.13,54.13,0,0,0-9.62-.6,107.89,107.89,0,0,0-21,1.87C39.66,85.72,39.14,85.94,38.28,86.2Z"/><path d="M100.65,154.21c-.05.2-.25.42-.66.69-.82.53-2.17.29-3.1.31-1.45,0-2.9.08-4.35.11-10.66.24-21.33.35-32,.41-5.28,0-10.56.3-15.84.19-1.89,0-4.67.31-6.46-.35s-1.28-1.73.33-1.76c7.16-.13,14.32-.31,21.48-.35,4.15,0,8.31.27,12.46.24s8.27-.36,12.41-.44c4.42-.09,8.84-.08,13.25,0C99,153.24,100.84,153.5,100.65,154.21Z"/><path d="M86.87,52.31,87,52.2a.12.12,0,0,1,.08,0c.47-.08,2.42,2.34,2.6,2.15l1.4-1.39c.31-.31.76-.74,1.17-.28a.8.8,0,0,1,.22.7c-.06.23-.34.42-.51.58a4.74,4.74,0,0,0-1.23,1.37A4.47,4.47,0,0,0,92,56.78c.36.36.81.79.55,1.34S91.27,58,91,57.71a5,5,0,0,0-1.45-1.21c-.09,0-.87.72-1,.8l-.52.43c-.13.11-.25.29-.4.36-.32.14-.63-.37-.61-.64a1.08,1.08,0,0,1,.47-.7,16.79,16.79,0,0,0,1.23-1.29c.21-.22-2.31-2.17-2.08-2.79A1.08,1.08,0,0,1,86.87,52.31Z"/></g></g></svg>