<svg xmlns="http://www.w3.org/2000/svg" viewBox="0 0 720.7 132.71"><defs><style>.cls-1{fill:#f2a7df;}</style></defs><title>paperF</title><g id="Capa_2" data-name="Capa 2"><g id="desktop"><path class="cls-1" d="M43.36,132.65c-.35,0-1.8.9.46-4.36,5.07-9.71,11.62-27.1,16.12-35.45,1.18-2.17,2.45-4.29,4-7a27.1,27.1,0,0,0-3-.33c-7.43.09-14.91.87-22.26.19-9.72-.91-19.57-2.3-27.44-9A34.08,34.08,0,0,1,6.8,71.2a16,16,0,0,1-1-2C-3,53.54-1.11,38,6.88,22.82c5.06-9.62,13.46-15.13,24-17.32C38,4,45.08,2.57,52.19,1.3a56,56,0,0,1,9.65-1c26.48,0,53,.11,79.43.09,16.65,0,33.29-.3,49.94-.33,30,0,432.3,0,462.3,0a126.56,126.56,0,0,1,13.36.19,109.08,109.08,0,0,1,17,2.89,62,62,0,0,1,22.7,10.94C714,20,718.88,27.41,720.37,36.76A27.57,27.57,0,0,1,716.17,56c-6,9.61-14.33,16.3-24.66,21a89.33,89.33,0,0,1-30.83,8.2c-6.19.44-12.45,0-18.67-.07-6.68-.1-13.36-.38-20-.39-9.36,0-391,.13-400.4.25-6.23.08-12.45.32-18.68.32-6.51,0-13-.27-19.52-.29-4.08,0-8.16.26-12.24.33-5.79.09-11.59.18-17.38.15-12.43-.07-24.87-.33-37.31-.3-7.41,0-14.82.47-22.24.62-1.9,0-2.92,1-4,2.36C79,102,57.62,117.35,48,128.86,46.85,130.2,44.27,132.65,43.36,132.65Zm3.75-6.1c.25.12,33.29-31,41.32-41.2a6.29,6.29,0,0,1,5.69-2.58c7.72.19,15.45.25,23.18.24,10.23,0,20.46-.12,30.7-.18,8.88-.06,17.77-.12,26.65-.12,1.76,0,3.52.42,5.27.36,8.11-.25,16.2-.73,24.31-.89s16.24-.07,24.36,0c11.15,0,394.6.1,405.75.15,4.14,0,8.28-.06,12.42,0,2.8.07,5.6.58,8.39.56a51.6,51.6,0,0,0,11-.86c9-2,17.79-4.33,26-8.71,8.52-4.54,16.1-10,21.1-18.47,5.82-9.88,6-19.71-.41-29.37-4.15-6.22-9.93-10.58-16.5-14-13-6.75-27.11-8.6-41.52-8.61-11.74,0-23.49.34-35.24.36-23.95,0-420.2.06-444.15,0C140,3.08,104.63,2.83,69.24,2.66c-3.86,0-7.8-.29-11.55.38C47.79,4.81,38,7.15,28.12,9c-5.58,1.06-9.54,4.64-13.66,8-1.58,1.29-3.32,2.8-4.1,4.59C7.87,27.32,5.19,33,3.69,39c-2.5,9.94,0,19.38,4.6,28.38,3.56,7,9.62,10.79,16.72,13,4.51,1.38,9.3,1.9,14,2.67a43.9,43.9,0,0,0,6.57.55c6.75.07,13.5,0,21.09,0C61.55,96.76,53.2,114.71,47.11,126.55Z"/></g></g></svg>