<svg xmlns="http://www.w3.org/2000/svg" viewBox="0 0 344.64 381.94"><defs><style>.cls-1{fill:#f2a7df;}.cls-2{fill:#f2ebaf;}.cls-3{fill:#afefd2;}</style></defs><title>paper</title><g id="Capa_2" data-name="Capa 2"><g id="desktop"><path d="M323.42,306.05c-1.36-3.39-2.49-6.86-3.74-10.34-3.1-8.66-4.46-17.7-5.27-26.82-.29-3.33.2-6.72.29-10.08.14-5.62-.2-11.24-.15-16.89,0-5.38-.37-10.77-.37-16.16,0-5.65.32-11.3.37-16.94,0-1.77-.49-3.54-.49-5.33,0-2.64.44-5.3.38-8-.09-6-.38-12.05-.49-18.1,0-1.54.55-3.07.55-4.64.05-5,0-10.08,0-15.15-.09-8-.26-16.07-.32-24.12-.09-13.56-.12-27.12-.2-40.67q-.09-16.73-.21-33.46c0-3.1,0-6.17-.17-9.27-.12-2.43-.7-4.8-.18-7.29a2.88,2.88,0,0,0-1.59-3.25,15.8,15.8,0,0,0-.55,2.64c0,3,.06,6,.06,8.95-.09,9.76-.23,19.52-.26,29.28q0,18.69.12,37.37c.05,10.66.17,21.29.2,31.95,0,6.77-.09,13.52,0,20.3.06,6,.32,12,.35,18.05,0,3.15-.26,6.34-.29,9.5,0,2.83.23,5.67.29,8.51.08,4.55.17,9.1.14,13.64,0,3.25-.29,6.52-.26,9.8.06,4.54.41,9.09.41,13.61,0,5.68-.29,11.35-.24,17,.06,5.27.29,10.54.76,15.79a94.22,94.22,0,0,0,1.94,11.76c1,4.25,2.31,8.43,3.59,12.6.84,2.72,1.82,5.38,2.87,8.43-6.35.55-12.49.11-18.92,1.5,2.35,6.66,4.55,12.89,6.78,19.26a8.21,8.21,0,0,1-1.48.26c-10.13.29-20.3.61-30.47.84-7.76.18-15.52.26-23.32.41-4.17.06-8.37.12-12.54.23-10.45.29-20.91.64-31.34.93-6.49.17-13,.23-19.43.4-11.07.29-22.1.61-33.17.93-7.47.23-14.95.26-22.39.78a30.5,30.5,0,0,1-12.31-1.53c-5.13-1.74-9.27-5-13-8.78-8.77-9-14-20-17.81-31.77A140.08,140.08,0,0,1,84.74,256c-.11-2-.46-4-.43-5.94.11-8.25.35-16.51.46-24.79.29-17.79-.09-35.6.2-53.41.12-7.59.12-15.15.12-22.74,0-10.05-.2-20.13-.17-30.18,0-7.33.37-14.69.46-22s0-14.68,0-22c0-5.68.06-11.33,0-17,0-3.86-.32-7.71-.59-11.55-.15-2-.3-4.07-.43-6.11-.08-1.26-.81-3.17,0-4.32.59-.86,1.77-.6,2.66-.59l4.22,0L108,35.5l33.68.26,33.65.25,33.62.24,33.61.21q16.8.1,33.59.18t33.58.14h2.35c.55-2.14.32-2.66-1.24-2.81a16.2,16.2,0,0,0-2.09,0c-2.46,0-5,.06-7.42,0-1.67-.06-3.33-.38-5-.41-2.78-.05-5.59,0-8.37,0-8.43-.08-16.86-.23-25.31-.26-4.43,0-8.87.18-13.3.15-6.25,0-12.54-.2-18.8-.23-2.66,0-5.35.23-8,.23-2.35,0-4.72-.29-7.07-.32-2.84,0-5.7.12-8.54.09-5.53-.06-11.07-.15-16.6-.24-7.53-.11-15.06-.29-22.59-.29-5.07,0-10.11.18-15.18.21a59.7,59.7,0,0,1-6-.32c-4.43-.41-8.86.46-13.32.11-5.21-.4-10.46,0-15.7,0-7.36,0-14.71-.17-22.07-.23-3.78,0-7.57-.07-11.35,0-2.44,0-2.21,2.26-2.24,4.17-.08,7.3.76,18.08.7,25.35q-.22,27.28-.44,54.6c-.08,12.86-.11,25.72-.2,38.58-.09,16.63-.32,33.28-.29,49.94.06,15.52-.87,31.05.47,46.57.31,3.48.2,6.95.49,10.43,1,12.05,3.1,23.9,7.21,35.28,2.84,7.88,6.31,15.47,11.5,22.16,4.49,5.79,9.5,11,16.13,14.34,5.91,3,12.08,4.4,18.8,3.33a88.82,88.82,0,0,1,11.88-.84c7.18-.21,14.33-.18,21.49-.26,7.79-.12,15.55-.24,23.32-.44s15.32-.55,23-.72c7.48-.2,15-.18,22.39-.38,9.36-.26,18.69-.66,28-1,4-.12,8.08-.06,12.1-.18,4.26-.11,8.49-.37,12.75-.46,5.15-.09,10.34-.32,15.49,0,3.91.23,6.32-1,8.06-4.58,2.49-5.18,5.27-10.25,8.28-15.18C324.63,310.74,324.46,308.57,323.42,306.05Zm-11.53,22.48c-2.29-5.47-4.35-10.46-6.58-15.76,5.3-.4,10.23-.81,15.62-1.24C317.86,317.35,315,322.68,311.89,328.53Z"/><path d="M167.2,177.89a2.77,2.77,0,0,1-1.89-3.55,26.69,26.69,0,0,1,4.81-10.16c4.5-6.38,9.47-12.32,16.14-16.63,1.73-1.12,1.81-4.22.26-5.73a9.93,9.93,0,0,0-6.49-2.68,22.79,22.79,0,0,0-8.5,1.15,76,76,0,0,0-16,7.24,4.93,4.93,0,0,0-2.51,3.72,27.7,27.7,0,0,1-6.12,12.05c-1.32,1.61-2.71,3.17-4,4.82-2.47,3.22-6,5.09-9.22,7.37a2.92,2.92,0,0,1-2.7.16,3.11,3.11,0,0,1-.83-2.59,16.32,16.32,0,0,1,1.48-4.8,52.9,52.9,0,0,1,16.75-19.53c.73-.51,1.42-1.06,2.21-1.66a4.7,4.7,0,0,0-4.34-3.57,24.31,24.31,0,0,0-6.75.37,27.29,27.29,0,0,0-6,1.8,38.62,38.62,0,0,0-3.62,1.86c-.7.39-1.81,1.37-2.66,1.21-2.19-.39,2.29-3.05,2.63-3.25a44.36,44.36,0,0,1,5.78-2.76,35.35,35.35,0,0,1,5.12-1.61c4.91-1.14,9.11-.09,12,4.34,4-1.88,7.79-3.79,11.68-5.5A43,43,0,0,1,177,136.3c4.06-.45,7.84.23,10.69,3.34a32.06,32.06,0,0,1,3.13,5c4-1.58,8.13-3.32,12.33-4.82a38.65,38.65,0,0,1,16.73-2.39c3.26.3,3.74,0,9.28,3.87a44.76,44.76,0,0,1,19.39-3.68c6.25.1,9.83,4.26,8.69,10.35-.22,1.15-.62,2.27-1.08,4,7.08-3.92,13.74-8,21.33-9.85,1.23,2.89,1,3.09-1.51,3.91a70.44,70.44,0,0,0-9.15,3.56,118.24,118.24,0,0,0-11.44,6.37,20.89,20.89,0,0,0-4.92,4.7c-4.06,5.11-9.15,9.12-13.89,13.51-.35.33-.79.79-1.2.8a2.53,2.53,0,0,1-1.84-.49,2.27,2.27,0,0,1-.11-1.84,6.17,6.17,0,0,1,1.17-1.72,60,60,0,0,1,12.75-12.51,17.55,17.55,0,0,0,6.69-8.88,11.93,11.93,0,0,0,.61-3.2c.22-3.41-1.09-4.89-4.45-5.49a29.1,29.1,0,0,0-12.69.91c-2.37.62-4.7,1.4-6.94,2.08-.28,2-.55,3.52-.72,5.07-.41,3.87-2.61,6.69-5.09,9.5-5.61,6.35-12.36,11.17-19.64,15.31a12.17,12.17,0,0,1-3.88,1.46c-2.12.37-3.42-1-2.6-3a33.8,33.8,0,0,1,4.1-7.55c3-3.93,6.52-7.51,9.71-11.33A39.16,39.16,0,0,1,223,144.54c.93-.54,1.81-1.16,3-1.91a9.14,9.14,0,0,0-4.94-2.28c-3.91-.85-7.72-.07-11.53.76a81.69,81.69,0,0,0-17.06,6.24,4.25,4.25,0,0,0-2.62,2.66c-1.75,6-5.31,11-9.4,15.54-3.18,3.55-6.54,6.94-9.94,10.28A16.73,16.73,0,0,1,167.2,177.89Zm35.31-6.35a97.55,97.55,0,0,0,15-10.16,39.7,39.7,0,0,0,8.39-9.2,8.38,8.38,0,0,0,1.48-6.41C220,148.2,205.08,163.51,202.51,171.54Zm-52.29-20.79c-2.63,2.19-4.85,3.82-6.82,5.72s-3.56,4.18-5.51,6.09c-2.84,2.78-3.91,6.3-5.07,10.12C140.12,169.35,149.71,157.54,150.22,150.75Zm35.43,1.34c-5.88,3.34-15.23,15.12-16.69,20.8C173.08,170.84,183.55,157.93,185.65,152.09Z"/><path d="M277.28,77.43c-7.19,2-14.29,4.31-20.86,7.88a14.48,14.48,0,0,1-2.08.69c.69-2.4,1.41-4.34,1.79-6.37.61-3.27-.72-5.07-4-5.68a20.6,20.6,0,0,0-2.95-.26,31.63,31.63,0,0,0-11.56,2.58c-3.56,1.39-7,3.1-10.72,4.75-.69-4.08-3.41-5.59-7-6a17.62,17.62,0,0,0-3.56-.06c-7.91.35-15.09,3.33-22.25,6.34-1.82.78-3.56,1.71-5.5,2.64-.17-.73-.32-1.3-.43-1.86-1-3.91-3.07-5.82-7.16-5.9a34.3,34.3,0,0,0-7.09.6c-5.13,1-9.77,3.31-14.28,5.83-1.28.69-2.58,1.27-3.86,1.91-2.92-5-7.32-6-12.25-5.62-5.24.43-10,2.32-14.71,4.69-5.82,3-11.27,6.4-15.24,11.73-.52.73-1.5,1.91-1.45,2.9v.14a.54.54,0,0,0,.32.38c.38.17,1.25-.26,1.6-.49a18.28,18.28,0,0,0,1.79-1.74,46,46,0,0,1,3.71-3.8,71.53,71.53,0,0,1,14.83-8.8c4.05-1.85,8.22-2.12,12.48-2.23a6.56,6.56,0,0,1,5.33,2.26c1.42,1.59,1.39,2.63-.32,3.91-5.9,4.43-10.14,10.31-14.13,16.36a26.17,26.17,0,0,0-2.06,5,2.11,2.11,0,0,0,.7,2.66c1.21.87,3-.29,4-1a34.23,34.23,0,0,0,7.61-7.68,32.33,32.33,0,0,0,2.81-4.69c.78-1.54,1.94-2.81,2.75-4.37a21,21,0,0,0,1.57-3.68,6.31,6.31,0,0,1,2.26-3,51.61,51.61,0,0,1,5.88-3.39,54.11,54.11,0,0,1,14.6-5A7.28,7.28,0,0,1,184,80.3,3.53,3.53,0,0,1,185.48,84a6.83,6.83,0,0,1-3.18,4.8A42.35,42.35,0,0,0,170.74,101a13,13,0,0,0-1.59,4.43c-.44,2.66,2.37,2.08,3.79,1,3.94-3,6.84-7.12,9.65-11.18,1.56-2.23,2.52-4.69,4.52-6.6a24,24,0,0,1,6.51-4.2c2.06-1,4.38-1.42,6.38-2.47,5.38-2.83,11.21-3.82,17.14-4.2A12.1,12.1,0,0,1,222.3,79c2.11.93,2.2,3.07.38,4.49-1.28,1-2.64,1.8-3.94,2.7-7,4.78-12.23,11.27-17.41,17.78a23.47,23.47,0,0,0-2.64,5,2,2,0,0,0,.67,2.64c1.28.84,2.51-.06,3.59-.76a42.33,42.33,0,0,0,3.89-2.91,84.26,84.26,0,0,0,6.95-6.68,87.1,87.1,0,0,0,8.42-10c1.31-1.89,2.86-3.53,3.74-5.73A3,3,0,0,1,227.37,84c3.44-1.62,7-3,10.43-4.75a22.6,22.6,0,0,1,10.86-2.57,19.91,19.91,0,0,1,3.53.43,1.86,1.86,0,0,1,1.48,2.26A7.7,7.7,0,0,1,253,82a32,32,0,0,1-3.79,5.67c-2.73,3-5.74,5.77-8.69,8.58-2.06,2-4.26,3.82-6.32,5.85a34.71,34.71,0,0,0-3.62,4.31c-.64.84-1.27,2-.11,2.93.92.75,1.88.23,2.66-.49a7.73,7.73,0,0,0,.64-.64c2.17-2.09,4.37-4.17,6.54-6.29,2.64-2.6,5.22-5.3,7.91-7.87a31.21,31.21,0,0,1,10.46-6.64c4.08-1.53,8.11-3.21,12.22-4.66a31.8,31.8,0,0,1,6.9-1.77A3.24,3.24,0,0,0,281,77.83C279.8,76.73,278.46,77.11,277.28,77.43ZM149.34,95.91c-.87,1.07-1.74,2.17-2.58,3.27-1.22,1.51-2.41,3-3.62,4.55-.47.58-3.39,4.61-3.8,3.79-.29-.58.84-2.31,1.13-2.83a26.58,26.58,0,0,1,3.16-4.47c1.45-1.73,2.93-3.47,4.49-5.09A17.47,17.47,0,0,1,150.58,93c.09,0,.23-.11.32,0a.45.45,0,0,1,.09.21C151.25,94,149.74,95.42,149.34,95.91Zm29.8-.12c-.87,2.67-3.07,4.67-5.18,6.52a2.09,2.09,0,0,1-1.08.58.34.34,0,0,1-.34-.09c-.15-.17,0-.4.08-.61a50.76,50.76,0,0,1,3.59-4.54c.64-.7,1.34-1.36,2-2C178.59,95.21,179.46,94.84,179.14,95.79Zm23.76,11.83c-.34,0-.59-.18-.53-.73a1.72,1.72,0,0,1,.3-.71,28.52,28.52,0,0,1,4.15-5C209.9,98,213,94.89,216.29,92a2,2,0,0,1,1.59-.72c.11.85-.7,1.62-1.17,2.24-.61.81-1.23,1.61-1.87,2.39Q213,98.19,211,100.37c-1.33,1.46-2.7,2.87-4.11,4.25a28.21,28.21,0,0,1-2.24,2.27A3.66,3.66,0,0,1,202.9,107.62Z"/><path d="M120.28,221.83c-.51-.63,1.79-3.11,2.18-3.56a28.67,28.67,0,0,1,3.26-3.26,46.28,46.28,0,0,1,17.94-9,16.71,16.71,0,0,1,5.8-.57c3.81.32,4.57.94,7.95,4.84,2.55-1.38,5.16-2.75,7.73-4.19A50,50,0,0,1,178,201.53c1.35-.32,2.74-.54,4.09-.86,3.93-.93,7.7.07,11.34,1.23a7,7,0,0,1,4.73,5.92c3.86-1.44,7.51-3,11.29-4.14a65.3,65.3,0,0,1,9.9-2.11c4.9-.67,9.31.5,12.66,4.6.84-.27,1.59-.45,2.31-.74a49.06,49.06,0,0,1,13.31-3.23,16.49,16.49,0,0,1,9,1.24c3.46,1.64,5.53,4.22,4.67,8.87,1.45-.87,2.44-1.48,3.44-2.06a90.89,90.89,0,0,1,17.82-8.32,10.16,10.16,0,0,1,2.91-.58,1.28,1.28,0,0,1,1.17,2.06c-.67,1.14-1.48,2.06-3.1,1.8a5.29,5.29,0,0,0-2.88.2,127.17,127.17,0,0,0-18,9.36c-3.52,2.32-5.71,5.79-8.53,8.71s-5.82,5.73-8.84,8.47c-1.39,1.26-1.5,1.14-3.36-.4.51-.77,1-1.61,1.58-2.36A72,72,0,0,1,255,217.41a10.05,10.05,0,0,0,3.42-5.48c.7-2.55.09-3.86-2.13-5.3a11.88,11.88,0,0,0-7.18-1.61,45.92,45.92,0,0,0-15.59,3.65c-.44,2.14-.73,4.2-1.3,6.19-1.49,5.15-4.89,9.1-8.64,12.7a44.88,44.88,0,0,1-11.75,8.13,9.34,9.34,0,0,1-2.81.95,2.48,2.48,0,0,1-2.87-3.35,15.1,15.1,0,0,1,1.66-3.82c5.11-8.19,11.09-15.59,19.55-20.61.6-.35,1.16-.75,1.84-1.19a6,6,0,0,0-5.5-3,55.17,55.17,0,0,0-9.79.76,42,42,0,0,0-14.71,5.42,4.64,4.64,0,0,0-1.93,2.08c-1.55,4.82-4.79,8.47-8.13,12a89.48,89.48,0,0,1-12.55,10.94c-2,1.44-2.21,1.45-4.23.22a17.09,17.09,0,0,1,3.45-7.46c4.94-6.55,10.4-12.59,17.33-17.15,2.62-1.71,2.68-4.4.21-6.29a9.2,9.2,0,0,0-6.41-2,53.08,53.08,0,0,0-20.08,5.21c-2.64,1.33-5.26,2.71-7.79,4.24a4.58,4.58,0,0,0-1.92,2.42c-2.12,7.88-6.9,14-12.58,19.61-1.42,1.39-2.88,2.74-4.35,4.07-.7.62-1.65,1.15-2.39.36a3.3,3.3,0,0,1-.73-2.3,10.47,10.47,0,0,1,1-3.13c3.31-7.74,8.47-14.14,14.64-19.74,2.32-2.1,2.33-3.29-.25-5-2-1.33-4.16-1.21-6.34-1A36.59,36.59,0,0,0,125.79,217a39.56,39.56,0,0,0-3.12,2.81,9.1,9.1,0,0,0-1.18,1.52c-.22.37-.58.87-1.11.58A.27.27,0,0,1,120.28,221.83ZM208.84,234a20.05,20.05,0,0,0,3.45-1.44,97.27,97.27,0,0,0,9.17-6.64A29.51,29.51,0,0,0,229,216a9.92,9.92,0,0,0,1.16-5.12C224.08,212.4,212.1,225.2,208.84,234Zm-16.08-18.5c-7.11,4.18-12,10.38-16.36,17.09C182.91,227.92,189,222.77,192.76,215.54Zm-39.09,1.26c-5.89,4.66-12.47,14.06-12.59,17.8C145.6,231.56,152.59,221.79,153.67,216.8Z"/><path d="M211.8,267.31c-.87-2.06-2.67-3-4.67-3.73-3.37-1.2-6.83-1.05-10.29-.59A54.81,54.81,0,0,0,175,271.31a8.38,8.38,0,0,0-.95.73c-.34,3.06-.85,5.86-.9,8.68,0,2.47-1.67,4.08-2.7,6a19,19,0,0,1-6.61,7.08c-1.92,1.22-3.68,2.68-5.54,4a6.25,6.25,0,0,1-1.61.76c-3,1-5.45-1.12-4.41-4.14a35.08,35.08,0,0,1,4-8.29c3.81-5.59,7.93-11,13.71-15.06a9.32,9.32,0,0,0-7.16-3.23,33.89,33.89,0,0,0-14.39,3.52,39.63,39.63,0,0,0-15,12c-.08.12-.33.13-.56.2-1-.81-.37-1.47.17-2.21a38.6,38.6,0,0,1,21.19-14.7,39.88,39.88,0,0,1,8.51-1.29,10,10,0,0,1,8.25,3.49,5.11,5.11,0,0,0,.78.63c4-2,7.88-4.11,11.89-5.79a42.66,42.66,0,0,1,19.77-3.7c4.64.33,8.48,1.91,11,6.2.76-.28,1.5-.5,2.2-.82a66.67,66.67,0,0,1,22.75-5.79c4.13-.31,8.18.47,11.22,3.52,5.51-1.72,10.77-3.54,16.12-5s10.79-2.66,16.39-2.35c.43,3,.36,2.94-2.25,3.08a86,86,0,0,0-8.88,1.06c-6.78,1.06-13.05,3.77-19.39,5.94-.52,2.5-.71,4.92-1.56,7.07a24,24,0,0,1-3.48,5.51,43.77,43.77,0,0,1-8.81,8.33c-3.41,2.5-6.95,4.82-10.5,7.12a32.58,32.58,0,0,1-10.48,4.66,3.5,3.5,0,0,1-2.42-.53c-1-.64-.85-1.8-.37-2.71a35.66,35.66,0,0,1,2.74-4.61,85.75,85.75,0,0,1,26.49-24.13c1.11-.64,2.25-1.21,3.64-2a12.37,12.37,0,0,0-8.35-2,59.88,59.88,0,0,0-16.63,3.4c-1.68.6-3.34,1.29-5,1.83-2.63.85-3.94,2.63-4.63,5.28a13.54,13.54,0,0,1-2.54,5.24,61.38,61.38,0,0,1-10.86,10.37,104.43,104.43,0,0,1-12.93,7.8c-.92.49-2,1-2.69.05a3.47,3.47,0,0,1-.28-2.48,7.08,7.08,0,0,1,1.33-2.95c3.24-3.75,6.52-7.5,9.95-11.08,4.29-4.49,9.49-7.85,14.72-11.13.5-.32,1-.65,1.47-1C211.58,267.81,211.64,267.59,211.8,267.31Zm6,28.3c1.16-.36,1.81-.5,2.4-.75,6.48-2.71,12.1-6.78,17.66-11a45.4,45.4,0,0,0,9-9.46,11,11,0,0,0,2.56-7,38.19,38.19,0,0,0-5,2.42,154.78,154.78,0,0,0-15.88,12.37C224.37,286,221.23,290.5,217.82,295.61ZM171.3,273.55c-2.45,2.26-5.12,3.82-6.85,6.61-1.6,2.58-4,4.68-5.66,7.23a27.75,27.75,0,0,0-4.32,8.95c1.7-.71,2.71-1,3.62-1.54a37.84,37.84,0,0,0,3.5-2.25,24.61,24.61,0,0,0,9.81-13A8.65,8.65,0,0,0,171.3,273.55Zm16.29,19.59a1.78,1.78,0,0,0,.53-.09,79.64,79.64,0,0,0,17.5-12.7c2.63-2.62,4.47-5.9,6.39-9.42C204,274.63,189.13,288.21,187.59,293.14Z"/><path d="M61.85,372.34c1.87,4.94,4.8,7.74,12.28,6.77,5.28-.68,9.52-3.35,13.27-6.84A13.57,13.57,0,0,0,90,368c.5-1.05.88-2,2.46-1.89a7.38,7.38,0,0,1-2,5.89c-3.79,4.13-8,7.77-13.6,9.31a16.54,16.54,0,0,1-12.62-1.48c-1.4-.76-2.36-2.36-3.42-3.66a18.34,18.34,0,0,1-1.43-2.49c-4.35,2.46-9.09,2.81-13.77,3.27a13.35,13.35,0,0,1-4.7-.46c-3.32-.9-6.81-1.05-9.94-2.88a13.87,13.87,0,0,1-7.1-14.26c.19-1.26.35-2.53.57-4.14-1.71-.1-3.27-.13-4.82-.3A22.84,22.84,0,0,1,1.11,342.86,8.71,8.71,0,0,1,0,339.19a2.53,2.53,0,0,1,1.38-2c1-.33,1.44.56,1.75,1.52,2.29,7.06,7.52,10.72,14.43,12.4.58.15,1.19.16,1.77.3,4,.93,6.73.07,8.91-4a36.64,36.64,0,0,1,12-12.68,35.08,35.08,0,0,1,3.08-1.82A3.77,3.77,0,0,1,49,336.67a14.94,14.94,0,0,1-2.7,7.18,27.4,27.4,0,0,1-16,10.35,3.49,3.49,0,0,0-3,3.07c-1.89,7.91,2.18,13.28,9.43,15.46A32.4,32.4,0,0,0,47,374.06a28.31,28.31,0,0,0,10.06-2.54A2.5,2.5,0,0,0,58.71,369a53.3,53.3,0,0,1,1.22-7.64c.79-3.47,3-6,5.79-8.1,3-2.22,6.07-.81,6.41,2.9A11.63,11.63,0,0,1,70,364.39,64.55,64.55,0,0,1,64,370.61,21,21,0,0,1,61.85,372.34ZM45.39,335.92c-5.09,1-14.12,10-15.3,15.09a22.76,22.76,0,0,0,14.68-10.37A5.28,5.28,0,0,0,45.39,335.92Zm23.1,18.76c-4.32,2-7.5,8.59-6.61,13.6C66.7,366.58,71.12,358.33,68.49,354.68Z"/><path class="cls-1" d="M300.42,17.83c.26-2.44-.88-4.16-1.4-6-.64-2.3-1.42-4.56-2-6.87a8,8,0,0,1-.25-2.66c.15-2,2-2.94,3.58-1.76a26.7,26.7,0,0,1,3.51,3.22c2,2.07,4,4.13,5.87,6.35,1.7,2.05,3.17,4.29,4.86,6.62A15,15,0,0,0,316,15.36Q321.13,9,326.28,2.59A15,15,0,0,1,327.6,1a1.92,1.92,0,0,1,3.29.86A5.64,5.64,0,0,1,331,4.18c-.94,5.3-1.95,10.58-2.88,15.88-.38,2.11-.63,4.25-1,6.56a23.4,23.4,0,0,0,2.42,0,32.21,32.21,0,0,1,11.29.31,13.08,13.08,0,0,1,2.55.82c1.4.65,1.65,1.41.64,2.53a26.68,26.68,0,0,1-3.57,3.13c-3.36,2.63-6.76,5.22-9.94,7.67,1.48,5.25,2.88,10.11,4.21,15,.45,1.61-.08,2.75-1.44,3a3.06,3.06,0,0,1-2.18-.52,25.16,25.16,0,0,1-6.76-7.07,32.61,32.61,0,0,0-2.29-3.12c-2.63,3.39-5.76,5.18-8.26,8.25-1.63,2-3.27,3.07-4.92,5.06-1.25,1.5-.57,1.31-2.36.27a48.22,48.22,0,0,1,.88-14.9c-1.29,0-2.26-.05-3.24,0-6,.35-11.91.74-17.87,1.09A10,10,0,0,1,283.6,48c-2.14-.46-2.62-2.16-1-3.72a9.63,9.63,0,0,1,2.25-1.42c4.9-2.61,9.82-5.19,14.9-7.87-2.24-3.42-4.37-6.72-6.54-10s-4.43-6.55-6.64-9.83c-.66-1-1-2.22-.14-3a3.26,3.26,0,0,1,2.73-.36A41.22,41.22,0,0,1,300.42,17.83Z"/><path d="M300.42,17.83c.26-2.44-.88-4.16-1.4-6-.64-2.3-1.42-4.56-2-6.87a8,8,0,0,1-.25-2.66c.15-2,2-2.94,3.58-1.76a26.7,26.7,0,0,1,3.51,3.22c2,2.07,4,4.13,5.87,6.35,1.7,2.05,3.17,4.29,4.86,6.62A15,15,0,0,0,316,15.36Q321.13,9,326.28,2.59A15,15,0,0,1,327.6,1a1.92,1.92,0,0,1,3.29.86A5.64,5.64,0,0,1,331,4.18c-.94,5.3-1.95,10.58-2.88,15.88-.38,2.11-.63,4.25-1,6.56a23.4,23.4,0,0,0,2.42,0,32.21,32.21,0,0,1,11.29.31,13.08,13.08,0,0,1,2.55.82c1.4.65,1.65,1.41.64,2.53a26.68,26.68,0,0,1-3.57,3.13c-3.36,2.63-6.76,5.22-9.94,7.67,1.48,5.25,2.88,10.11,4.21,15,.45,1.61-.08,2.75-1.44,3a3.06,3.06,0,0,1-2.18-.52,25.16,25.16,0,0,1-6.76-7.07,32.61,32.61,0,0,0-2.29-3.12c-2.63,3.39-5,6.56-7.5,9.63-1.63,2-3.51,3.81-5.16,5.81-.81,1-2,1.68-3.15.87s-1.32-1.84-1.27-3.23a39.64,39.64,0,0,1,.51-4.86c.14-.85,1.59-9.54,1.91-9.54-1.29,0-2.26-.05-3.24,0-6,.35-11.91.74-17.87,1.09A10,10,0,0,1,283.6,48c-2.14-.46-2.62-2.16-1-3.72a9.63,9.63,0,0,1,2.25-1.42c4.9-2.61,9.82-5.19,14.9-7.87-2.24-3.42-4.37-6.72-6.54-10s-4.43-6.55-6.64-9.83c-.66-1-1-2.22-.14-3a3.26,3.26,0,0,1,2.73-.36A41.22,41.22,0,0,1,300.42,17.83Zm21.76,25.22c3,4,4.44,8.39,8.65,10.64A29.34,29.34,0,0,0,329.38,48a39.19,39.19,0,0,0-1.84-4.08,4,4,0,0,1,1.17-5.32c2.91-2.41,5.88-4.75,8.81-7.14.4-.33.73-.73,1.41-1.42a43.67,43.67,0,0,0-11-.31c-3.32.24-4.33-.51-3.85-3.72.67-4.52,1.49-9,2.27-13.53.27-1.58.61-3.15.91-4.73-2.65,2.44-10.44,12.2-13.44,14.2-1-2.28-2.39-3.89-3.54-5.77s-6.3-9.32-9.42-9.88c.88,3.11,1.66,5.84,2.43,8.58s2.31,5.18,2.29,8.65c-4.87-1.7-8.23-5.67-13.53-6.28.75,1.31,7.83,11.77,10.55,16.26,1.29,2.13.94,3.11-1.31,4.32-2.54,1.37-5.16,2.58-7.73,3.89-1.8.92-3.59,1.89-5.38,2.83a2.71,2.71,0,0,0,1.89.43c5.75-.43,11.5-.9,17.26-1.29,2.79-.19,4,1.39,3.35,4.14-.09.39-.26.76-.34,1.15-.76,3.65-1.88,7.26-1.8,11.73,2.68-3.15,5.08-5.77,7.24-8.56S319.85,46.37,322.18,43.05Z"/><path class="cls-2" d="M70.59,147.85c.15,5,.34,9.9.44,14.78.08,3.86.22,7.73.28,11.59,0,2,0,3.92,0,5.88a11.22,11.22,0,0,1-.64,4.68L69.22,188a12.43,12.43,0,0,1-.84,1.62,8.32,8.32,0,0,1-3.87,3,23.16,23.16,0,0,1-4.79,1.19q-7.48,1.29-15,2.15c-4.86.56-9.91.3-14.81.35-5.86.06-11.73.06-17.58.28-3.2.12-5.72-1.31-8.2-2.93a4.85,4.85,0,0,1-1.61-2.06A25.77,25.77,0,0,1,.17,181.11C.18,170,0,158.82,0,147.67c0-3.67.11-7.34.3-11,.13-2.64,1.69-4.28,4-5.47a24.74,24.74,0,0,1,11.82-2.5c14.45.12,28.89.08,43.34.09h41.2c2.18,0,4.36,0,6.54,0,1.22,0,2.48.12,2.18,2.24Z"/><path class="cls-3" d="M106,103.9A17.31,17.31,0,0,1,93.56,120a17,17,0,0,1-13.81-1.52c-5.14-3-8-10.16-6.69-16.65C74.89,93,84,87.56,93.55,89.55a15.28,15.28,0,0,1,12.39,13.2A11.49,11.49,0,0,1,106,103.9Z"/><path d="M70.59,147.85c.15,5,.34,9.9.44,14.78.14,6.86.46,13.74.23,20.6a12.6,12.6,0,0,1-3,8.15c-2.21,2.44-5.66,3.16-8.79,3.66A125.41,125.41,0,0,1,44,196.45c-10.54.38-21.11-.34-31.65.06-3.2.12-5.72-1.31-8.2-2.93a4.85,4.85,0,0,1-1.61-2.06A25.77,25.77,0,0,1,.17,181.11C.18,170,0,158.82,0,147.67c0-3.67.11-7.34.3-11,.13-2.64,1.69-4.28,4-5.47a24.74,24.74,0,0,1,11.82-2.5c14.45.12,28.89.08,43.34.09h41.2c2.18,0,4.36,0,6.54,0,1.22,0,2.48.12,2.18,2.24Zm30.52-15.66-.19-.65H94.1c-10.94,0-21.88.16-32.82.1q-11.23,0-22.48-.16l-16.41-.15c-4.93-.05-10.11-.64-14.84,1a6.56,6.56,0,0,0-3.23,2.22c-1.36,1.89-1.24,4.52-1.44,6.73a61.65,61.65,0,0,0-.5,7.56c.3,10.86.28,21.72.33,32.59,0,2.43.82,4.61,1.42,6.91a7.47,7.47,0,0,0,4.2,4.52,15.85,15.85,0,0,0,2.33.76,9.28,9.28,0,0,0,3.76.5c1.16-.21,33.56-.85,44.3-1.3a9.59,9.59,0,0,0,9.2-6.82,19.51,19.51,0,0,0,1-5.84c0-6.27-.19-12.54-.31-18.8-.08-3.89-.24-7.78-.19-11.66,0-1.83.21-3.91,2.23-4.77,6.76-2.89,13.58-5.66,20.37-8.49C94.41,135,97.76,133.6,101.11,132.19Z"/><path d="M17.84,174.51a2.14,2.14,0,0,1-.85-.81c-.71-1.28-.11-3.25.5-4.44a27.82,27.82,0,0,1,9.66-11.13c2.64-1.71,5.42-3.2,8.12-4.78-.48-3.28-2-4.87-5.3-5.51-4.2-.82-8.15.24-11.9,1.95-2,.89-3.84,2-5.72,3-.77.43-1.38,1-2.08,1.45-.52.36-1.43.38-1.63-.37s.5-1.56,1-2c5.05-3.86,10.44-7,17-7.11s9.69,2,11.72,8.43a24,24,0,0,1,9.94.19c4.31.87,6.9,3.37,7.3,7.19a10.71,10.71,0,0,1-.25,3,8.07,8.07,0,0,1-.89,2.75,6.48,6.48,0,0,1,2.87.38,1,1,0,0,1,.65.65.79.79,0,0,1-.31.75,6.58,6.58,0,0,1-2.45.73,13.76,13.76,0,0,0-2.41.92,18.64,18.64,0,0,0-4.34,3,31,31,0,0,1-4.91,3.52c-.86.52-1.73,1-2.6,1.54s-1.62,1.26-2.82,1.18c-.94-.07-1.49-.64-1-1.55a3.61,3.61,0,0,1,.94-1A50.61,50.61,0,0,1,43,173.34a37.72,37.72,0,0,0,5.17-3.91,14.25,14.25,0,0,0,2.73-3.62,13.93,13.93,0,0,0,1.6-4.49,3.43,3.43,0,0,0-.82-2.65,6,6,0,0,0-3.23-1.95c-1.75-.21-3.67-.87-5.43-.88a30.65,30.65,0,0,0-4.66.44c-.19.13-6.08,18.66-17.6,18.74A6.17,6.17,0,0,1,17.84,174.51Zm13-14.9a20.68,20.68,0,0,0-2.25,1.47,25.25,25.25,0,0,0-3.85,3.53c-.94,1-1.76,2.2-2.61,3.33a5.91,5.91,0,0,0-1.58,3.17.94.94,0,0,0,.07.5.93.93,0,0,0,.84.39,4.9,4.9,0,0,0,2.71-1c4.48-2.86,9.22-8.71,10.4-13.89C34.59,157.13,31.31,159.35,30.86,159.61Z"/><path d="M106,103.9A17.31,17.31,0,0,1,93.56,120a17,17,0,0,1-13.81-1.52c-5.14-3-8-10.16-6.69-16.65C74.89,93,84,87.56,93.55,89.55a15.28,15.28,0,0,1,12.39,13.2A11.49,11.49,0,0,1,106,103.9Zm-3.25.34c.07-5.94-3-9.4-8.62-11.48-7.79-2.9-17.16,1.89-18.89,11.7a8.2,8.2,0,0,0,.16,3.52c1.47,5.1,4.61,8.45,10,9.66C93.93,119.57,102.6,113,102.76,104.24Z"/><path d="M89,96.4a1.47,1.47,0,0,1,.36,0,.4.4,0,0,1,.19.07c.82.58.11,7.1.66,7.1h4.17c.93,0,2.23,0,2.15,1.35a1.69,1.69,0,0,1-.7,1.36,3.21,3.21,0,0,1-1.63.09,10.32,10.32,0,0,0-3.88.21,9.19,9.19,0,0,0-.42,4c0,1.07,0,2.38-1.17,2.81-1.48.55-1.66-2-1.68-2.9a10.31,10.31,0,0,0-.35-4,13.31,13.31,0,0,0-2.67-.27l-1.41-.15a4.18,4.18,0,0,1-1.12,0c-.7-.26-.39-1.49,0-1.87a2.34,2.34,0,0,1,1.74-.33,36.7,36.7,0,0,0,3.77-.09c.62,0-.21-6.68,1-7.26A2.15,2.15,0,0,1,89,96.4Z"/></g></g></svg>