<svg xmlns="http://www.w3.org/2000/svg" viewBox="0 0 185.92 280.26"><defs><style>.cls-1{fill:#afefd2;}.cls-2{fill:#f2ebaf;}</style></defs><title>pfmisc3</title><g id="Capa_2" data-name="Capa 2"><g id="mobile"><path class="cls-1" d="M28.8,206.1c.33,4.93.76,9.76.95,14.6.36,9.46.48,18.92,1.86,28.33.74,5.07,1.15,10.16,3.48,14.87a20.55,20.55,0,0,0,14.78,11.39c7.9,1.66,15.8,2,23.5-1.72a23.64,23.64,0,0,0,9-7.13,30.47,30.47,0,0,0,4.15-8,39.53,39.53,0,0,0,2.32-16.91,141.73,141.73,0,0,1-.92-18.86,90.84,90.84,0,0,0-2.17-21c-9.45,1.17-18.67,2.66-27.94,3.37S38.94,205.78,28.8,206.1Z"/><path class="cls-2" d="M59.62,186.8a8.2,8.2,0,0,1-2.48-1.53,6.32,6.32,0,0,1-2.25-2.61,12.77,12.77,0,0,0-1.73-2.93,11.45,11.45,0,0,0-6-3.86,28.4,28.4,0,0,0-13.68-.23c-7.81,1.86-13.92,6.61-19.81,11.77-2.77,2.43-2.33,5.5-1.89,8.38s2.85,4,5.43,4.51a49.41,49.41,0,0,0,8.2,1c7.49.14,15,0,22.46.08,11.23.2,22.25-2,33.37-3,5.35-.48,10.6-1.88,15.94-2.54,5-.62,6.24-2.44,4.11-7a16,16,0,0,0-1-1.72,27.11,27.11,0,0,0-12.92-10.59c-5.58-2.35-11-2.41-16.13,1.19a28.73,28.73,0,0,0-3.73,3.43c-1.79,1.8-4.69,6.47-7.69,5.7Z"/><path class="cls-2" d="M101.07,198.66l-11.66,2.7a123.1,123.1,0,0,0,2.5,17.92C97.48,214.52,101.88,204.73,101.07,198.66Z"/><path class="cls-2" d="M26,220.07V205.33l-12.61-2.09C15.26,211.87,19.51,217.68,26,220.07Z"/><path d="M60.52,257A1.44,1.44,0,0,1,59,257c-2.57-1.25-1.64-6.62-1.66-9-.06-8.29,0-16.57-.08-24.86,0-1.57-.36-3.15-.35-4.72s.3-3.06.45-4.51c2.51-.75,3.13.36,3.19,2.29.1,3,.32,6,.41,9.07q.28,9.11.54,18.22C61.51,245.2,62.82,255.33,60.52,257Z"/><path d="M11.59,170.44a2.61,2.61,0,0,1,.83,1.75c.67,4.1-.49,8.29.16,12.41a45.34,45.34,0,0,1,18.86-12.27,28.1,28.1,0,0,1,17.51,0c4.17,1.29,6.82,4.77,9.23,8.29.51.75.92,1.57,1.36,2.33,2.45-.35,3.72-2,5.09-3.64a26.72,26.72,0,0,1,11.92-7.94c4.57-1.55,9,.17,13.25,1.92a32.18,32.18,0,0,1,12,8.78c-.35-.38.3-3.26.35-3.85.13-1.33.25-2.67.38-4s-.67-5,1.17-5.33a2.12,2.12,0,0,1,2.12,1.36,6.34,6.34,0,0,1,.35,2.67q-.14,8.31.17,16.6c.18,5.24.94,10.54.94,15.77A30.23,30.23,0,0,0,113,220.54a24.17,24.17,0,0,1,2.23,3.71,1.46,1.46,0,0,1-2.17,1.8,11.8,11.8,0,0,1-2.51-2.43c-3.19-4.28-5-9.2-6.61-14.57-2.61,6.4-6.16,11.79-12.65,15.32.38,5.62.73,11.37,1.18,17.12.74,9.47-1,18.4-6.32,26.33-2.73,4.07-6.7,6.82-11.25,8.94-10.17,4.74-20.43,4.38-30.58.67a21.47,21.47,0,0,1-12.89-12c-2.31-5.4-4.15-10.71-3.93-16.69.09-2.57-.8-5.17-1-7.77-.32-5.11-.44-10.22-.66-15.68-8-3.55-12.72-10.09-15.84-18.46-.74,2.7-1.43,5.41-2.23,8.09-1.05,3.52-2.14,7-3.31,10.52-.44,1.32-.89,3.16-2.85,2.38C0,227.12-.29,225.44.27,223.75c1-3,2.1-5.95,3.09-8.95a109.84,109.84,0,0,0,5.16-29c.24-4.34.66-8.66,1-13C9.63,171,10.75,169.87,11.59,170.44ZM28.8,206.1c.33,4.93.76,9.76.95,14.6.36,9.46.48,18.92,1.86,28.33.74,5.07,1.15,10.16,3.48,14.87a20.55,20.55,0,0,0,14.78,11.39c7.9,1.66,15.8,2,23.5-1.72a23.64,23.64,0,0,0,9-7.13,30.47,30.47,0,0,0,4.15-8,39.53,39.53,0,0,0,2.32-16.91,141.73,141.73,0,0,1-.92-18.86,90.84,90.84,0,0,0-2.17-21c-9.45,1.17-18.67,2.66-27.94,3.37S38.94,205.78,28.8,206.1Zm30.82-19.3a8.2,8.2,0,0,1-2.48-1.53,6.32,6.32,0,0,1-2.25-2.61,12.77,12.77,0,0,0-1.73-2.93,11.45,11.45,0,0,0-6-3.86,28.4,28.4,0,0,0-13.68-.23c-7.81,1.86-13.92,6.61-19.81,11.77-2.77,2.43-2.33,5.5-1.89,8.38s2.85,4,5.43,4.51a49.41,49.41,0,0,0,8.2,1c7.49.14,15,0,22.46.08,11.23.2,22.25-2,33.37-3,5.35-.48,10.6-1.88,15.94-2.54,5-.62,6.24-2.44,4.11-7a16,16,0,0,0-1-1.72,27.11,27.11,0,0,0-12.92-10.59c-5.58-2.35-11-2.41-16.13,1.19a28.73,28.73,0,0,0-3.73,3.43c-1.79,1.8-4.69,6.47-7.69,5.7Zm41.45,11.86-11.66,2.7a123.1,123.1,0,0,0,2.5,17.92C97.48,214.52,101.88,204.73,101.07,198.66ZM26,220.07V205.33l-12.61-2.09C15.26,211.87,19.51,217.68,26,220.07Z"/><path d="M60.52,257A1.44,1.44,0,0,1,59,257c-2.57-1.25-1.64-6.62-1.66-9-.06-8.29,0-16.57-.08-24.86,0-1.57-.36-3.15-.35-4.72s.3-3.06.45-4.51c2.51-.75,3.13.36,3.19,2.29.1,3,.32,6,.41,9.07q.28,9.11.54,18.22C61.51,245.2,62.82,255.33,60.52,257Z"/><path d="M151,19.62a29.79,29.79,0,0,0,4,.94c8.19,1.16,14.41,5.57,19.79,11.59,3.1,3.48,5.38,7.47,7.81,11.37a24.67,24.67,0,0,1,2,5.08,22.89,22.89,0,0,1,.84,12.17c-1.08,5.55-4.23,9.78-8.33,13.31-4.89,4.21-11,5.88-17.12,7.24-1.7.37-3.49.36-5.18.75-5.38,1.25-10.61.4-15.83-.89-9.82-2.43-19.66-4.78-29.46-7.29-3.64-.94-7.19-2.28-10.79-3.39s-7-2.23-10.58-3.16-7-1.6-10.48-2.39c-4.94-1.11-9.92-2.08-14.81-3.37a56.19,56.19,0,0,1-16.73-7.53c-1.89-1.26-3.95-2.16-5.5-4a24.24,24.24,0,0,1-5.13-11.38,32.77,32.77,0,0,1,.31-12.09c.89-4.63,3.41-8.51,6.41-12.07,1.06-1.26,2.29-2.39,3.43-3.59A25.76,25.76,0,0,1,57.76,3.48a18.64,18.64,0,0,0,2.86-1C66.26-.1,72.14-.29,78.2.23c5.2.45,10.07,2,15,3.45,3.36,1,6.8,1.66,10.17,2.59C108.45,7.66,140.21,16.54,151,19.62Zm-112.57,7c-.32,2.44-1.1,4.93-.87,7.31.37,3.76.23,7.64,2.46,11.13,1.64,2.58,3,5.23,5.84,6.72,2.44,1.28,4.94,2.46,7.37,3.76A52.27,52.27,0,0,0,66.5,60.2C73.31,61.78,80.22,63,87,64.7s13.4,4,20.1,6c1.15.35,2.29.71,3.45,1,6.43,1.57,12.88,3.09,19.31,4.66,3.29.81,6.53,1.81,9.84,2.52,4.31.93,8.66,1.83,13.11.87a22,22,0,0,1,3-.52,40.68,40.68,0,0,0,15.75-4.81A20.8,20.8,0,0,0,181.7,62.88c2.33-6.3,1.51-12.56-1.75-18.39a63.18,63.18,0,0,0-8.1-11.82,28.73,28.73,0,0,0-16.15-9.4,145.65,145.65,0,0,1-14.38-3.53c-17.93-5.37-35.95-10.41-54-15.53C85,3.53,82.52,3.13,80.09,2.64,70.41.69,61.69,3.72,53.34,8.1c-4.38,2.3-7.49,6.16-10.48,10A22.38,22.38,0,0,0,38.45,26.66Z"/><path d="M84,41c-5.54-1.72-11.09-3.41-16.62-5.18a32,32,0,0,1-4-1.75c-2.19-1-2.92-2.39-2.61-4.62.33-2.46,1.36-3.62,3.76-4.15a35,35,0,0,1,13.69-.07c10.26,1.83,20.3,4.52,30.34,7.26,7.46,2,15,3.87,22.45,5.84,2.22.59,4.39,1.4,6.61,2,4.09,1.09,8.2,2.07,12.29,3.14a10.26,10.26,0,0,1,5.67,3.73c1.74,2.26,1.54,3.83-.45,5.8a8.63,8.63,0,0,1-7.37,2.33c-3.39-.36-6.76-.83-10.15-1.21A102,102,0,0,1,114.15,49c-8-2.92-16.52-3.73-24.6-6.27-1.85-.58-3.72-1.07-5.57-1.6Zm9.74-9.81c-7.07-1.9-13.84-3.69-20.93-4.27A10.27,10.27,0,0,0,80.08,36C85.79,38,89.38,36.76,93.75,31.23ZM133.5,41.57A6.62,6.62,0,0,0,137.18,50c4.07,2,8.68,3.3,13.81-3.37ZM96.91,32c-1.72,3.92-.27,7.84,3,9.05,5.72,2.13,9.14.56,11.06-5Zm17.29,4.36c-.73,5.36,1.46,8.72,6,9.75a7.87,7.87,0,0,0,9.29-5.39Z"/></g></g></svg>