<svg xmlns="http://www.w3.org/2000/svg" viewBox="0 0 213.54 231.25"><defs><style>.cls-1{fill:#f1f2f2;}.cls-2{fill:#f2ebaf;}</style></defs><title>pfmisc2</title><g id="Capa_2" data-name="Capa 2"><g id="mobile"><path class="cls-1" d="M26.12,226.84c-2.22-2-1.45-4.5-1.07-6.66,1.59-8.91,3.44-17.77,5.31-27.22-1.47-.17-2.82-.42-4.16-.47-4.61-.18-9.23-.13-13.83-.49a42.08,42.08,0,0,1-8.5-1.68c-1.5-.44-3.39-.82-3.8-3C-.39,185,1.5,184,2.85,183a27.39,27.39,0,0,1,5.23-2.75c6.43-3,12.89-5.91,19.82-9.08-.73-1.62-1.27-2.88-1.86-4.11q-5.92-12.27-11.86-24.55a9.53,9.53,0,0,1-.72-1.83c-.34-1.53.39-2.3,1.91-1.94a9.89,9.89,0,0,1,2.55,1c9,5.27,17.82,10.8,24.43,20.12,1-2.35,2-4.24,2.72-6.2,2.86-7.55,7.93-13.9,11.45-21.09A29.78,29.78,0,0,1,60,127c1.78-2.19,4.17-1.57,5,1.13a5.76,5.76,0,0,1,.41,1.93c-.2,5.83,1.76,11.38,2.11,17.13.24,3.74.41,7.49.66,11.23.09,1.26.35,2.51.63,4.4,3.26-1.62,6.05-2.9,8.75-4.36a250.88,250.88,0,0,1,25.14-12c1.38-.55,2.46-.83,3.56.29s.89,2.45.12,3.61a87.12,87.12,0,0,1-5.76,8.31c-4.35,5.21-8.84,10.33-13.51,15.26-1.65,1.75-1.63,3.17-.47,4.86,5.05,7.37,9.49,15.19,15.79,21.63,1.13,1.15,2.65,2.3,1.69,4-1.06,1.87-3.15,1.87-5,1.25-3.86-1.31-7.72-2.66-11.44-4.32a22.14,22.14,0,0,0-12.25-1.86c-.6.07.38,15.33.47,16.76.17,2.79.39,5.59.61,8.38.08,1.11,1.18,6.09-.2,6.66a1.26,1.26,0,0,1-.72,0c-3-.66-3.94-2.68-5.78-5l-5.86-7.44c-1-1.27-12-14.91-11.86-15.06-4.17,3.83-8.11,7.29-11.86,11-3.28,3.22-6.29,6.72-9.52,10C29.56,225.88,28.24,227.36,26.12,226.84Zm35.51-94.06A163.09,163.09,0,0,0,43,165.55C36.7,157,29.43,150.25,19.89,146c4.29,8.8,8.57,17.61,13,26.82a44.47,44.47,0,0,1-4.51,2.78c-6.68,3.12-13.4,6.12-20.1,9.19-1,.44-1.83,1-2.75,1.52l.24.86a43.24,43.24,0,0,0,5.7,1c4.46.18,8.93.1,13.4.18a39.75,39.75,0,0,1,6.28.33c3.41.62,4.07,1.86,3.4,5.3q-2.16,11-4.25,22.08a12.9,12.9,0,0,0,0,2.2,14.25,14.25,0,0,0,1.46-1.06c5.09-4.95,10.09-10,15.26-14.85,3.36-3.16,6.19-2.81,9.15.8,1.34,1.63,2.57,3.34,3.95,4.94,3.55,4.12,7.17,8.21,11.39,13,0-9.94-.65-18.94.06-28.57,1.65.62,14,3,16.7,4.24,2.22,1,4.52,1.84,6.79,2.75a4.13,4.13,0,0,0-.85-2.45c-3.65-5.47-7.39-10.89-10.94-16.43-2.35-3.67-2-5.24,1-8.32,1.75-1.77,3.54-3.51,5.11-5.43,3.32-4.06,6.53-8.22,9.76-12.36.57-.72,1-1.55,1.5-2.33l-.58-.6L65.63,167.87a54.32,54.32,0,0,1-1.28-6.57c-.36-5.46.09-11-1.06-16.39-.26-1.26,0-2.62-.19-3.91C62.69,138.25,62.13,135.52,61.63,132.78Z"/><path class="cls-2" d="M155.16,85.13l.62.36c.54-.61,1.06-1.23,1.61-1.82,4.17-4.47,8.32-9,12.53-13.39,1.52-1.6,3.12-3.16,5.64-1.76a3,3,0,0,0,1.36.14c9.59.18,18.1-2.37,25.16-9.27,5.47-5.35,10.4-15.52,8.34-26.19-1-5.36-2.63-10.57-6.29-14.85-1.84-2.15-3.5-4.54-5.66-6.31C189.37,4.57,179,.92,167.16,2.86c-12.88,2.12-22,9-25.82,21.87-3,10-.17,19.16,5.52,27.51a29.1,29.1,0,0,0,9,9c1.67,1,3.32,1.63,6.13,3.41C161.3,72.77,157.64,78,155.16,85.13Z"/><path d="M185.4,30.07c-1.42-2.77-3.33-3.93-6.14-3.74-2.19.15-2.6.35-2.55,2.55a39.71,39.71,0,0,1-1.16,10.86,32.33,32.33,0,0,1-5.27,10.36,2.46,2.46,0,0,1-4.2-.15,13,13,0,0,1-2-4.73c-1.08-6.44,1.27-11.79,5.7-16.36,1.12-1.15,2.22-2.32,3.39-3.53-1-3.4-4.88-4.86-8.2-2.78C157.84,26,154.88,35,154.63,35.64a12.27,12.27,0,0,1-.93,1.7l-.62-.14a5.77,5.77,0,0,1-.2-2,27.39,27.39,0,0,1,1.62-4.61,26.22,26.22,0,0,1,2.55-4.21,17.26,17.26,0,0,1,9.6-6.84c3.82-1,6.43-.08,8.38,3.41.21.39.49.74.79,1.2,4.85-1.65,8.87-.67,11.85,3.73,2.26-1.21,3.65-4.1,6.88-3.34A2.86,2.86,0,0,1,193,28c-3.21,1.57-3.95,4-3.81,7.54a44.57,44.57,0,0,1-2.67,16.12c-.27.77-1.11,2-1.57,1.91a3.6,3.6,0,0,1-2.26-1.58,13.27,13.27,0,0,1-1.65-4C179.56,41.32,180.37,35.19,185.4,30.07ZM174.28,28.2a7.14,7.14,0,0,0-1.64.88c-3.56,3.92-6.12,8.35-6.25,13.77,0,1.88.13,4,2,5.33,3.1-2.7,4.2-6.25,4.93-9.88C173.92,35.15,174.74,32,174.28,28.2Zm12.24,5.91c-3.76,3.15-4.64,10.16-1.94,14.76A49.6,49.6,0,0,0,186.52,34.11Z"/><path d="M152,93.25c-1.68-.79-2-1.87-1.49-3.29,1.37-3.78,2.79-7.54,4.08-11.35,1.5-4.38,2.88-8.81,4.3-13.18C153.18,63,149.19,59,145.59,54.49c-2.3-2.88-4.55-5.75-5.71-9.24-1.62-4.92-2.83-10-2.29-15.23.76-7.31,3.3-13.95,8.48-19.34a34.52,34.52,0,0,1,9.77-6.92A34.42,34.42,0,0,1,169.15.1a43,43,0,0,1,37.92,18.16c1.56,2.34,3.25,4.76,3.79,7.76.37,2.11,1.7,4.05,2.07,6.16,1.76,10.25-.17,19.62-7.29,27.54-7.57,8.41-17.22,11.62-28.3,11.23a10.08,10.08,0,0,1-1.91-.08,2.76,2.76,0,0,0-2.87,1.07c-4.39,4.66-8.82,9.28-13.22,13.92-2,2.12-4,4.27-6,6.38A8.79,8.79,0,0,1,152,93.25Zm3.19-8.12.62.36c.54-.61,1.06-1.23,1.61-1.82,4.17-4.47,8.32-9,12.53-13.39,1.52-1.6,3.12-3.16,5.64-1.76a3,3,0,0,0,1.36.14c9.59.18,18.1-2.37,25.16-9.27,5.47-5.35,10.4-15.52,8.34-26.19-1-5.36-2.63-10.57-6.29-14.85-1.84-2.15-3.5-4.54-5.66-6.31C189.37,4.57,179,.92,167.16,2.86c-12.88,2.12-22,9-25.82,21.87-3,10-.17,19.16,5.52,27.51a29.1,29.1,0,0,0,9,9c1.67,1,3.32,1.63,6.13,3.41C161.3,72.77,157.64,78,155.16,85.13Z"/><path d="M185.4,30.07c-1.42-2.77-3.33-3.93-6.14-3.74-2.19.15-2.6.35-2.55,2.55a39.71,39.71,0,0,1-1.16,10.86,32.33,32.33,0,0,1-5.27,10.36,2.46,2.46,0,0,1-4.2-.15,13,13,0,0,1-2-4.73c-1.08-6.44,1.27-11.79,5.7-16.36,1.12-1.15,2.22-2.32,3.39-3.53-1-3.4-4.88-4.86-8.2-2.78C157.84,26,154.88,35,154.63,35.64a12.27,12.27,0,0,1-.93,1.7l-.62-.14a5.77,5.77,0,0,1-.2-2,27.39,27.39,0,0,1,1.62-4.61,26.22,26.22,0,0,1,2.55-4.21,17.26,17.26,0,0,1,9.6-6.84c3.82-1,6.43-.08,8.38,3.41.21.39.49.74.79,1.2,4.85-1.65,8.87-.67,11.85,3.73,2.26-1.21,3.65-4.1,6.88-3.34A2.86,2.86,0,0,1,193,28c-3.21,1.57-3.95,4-3.81,7.54a44.57,44.57,0,0,1-2.67,16.12c-.27.77-1.11,2-1.57,1.91a3.6,3.6,0,0,1-2.26-1.58,13.27,13.27,0,0,1-1.65-4C179.56,41.32,180.37,35.19,185.4,30.07ZM174.28,28.2a7.14,7.14,0,0,0-1.64.88c-3.56,3.92-6.12,8.35-6.25,13.77,0,1.88.13,4,2,5.33,3.1-2.7,4.2-6.25,4.93-9.88C173.92,35.15,174.74,32,174.28,28.2Zm12.24,5.91c-3.76,3.15-4.64,10.16-1.94,14.76A49.6,49.6,0,0,0,186.52,34.11Z"/></g></g></svg>