<svg xmlns="http://www.w3.org/2000/svg" viewBox="0 0 153.42 65.08"><defs><style>.cls-1{fill:#6484e8;}.cls-2{fill:#f2ebaf;}</style></defs><title>Recurso 17</title><g id="Capa_2" data-name="Capa 2"><g id="mobile"><path class="cls-1" d="M143.56,16.42a62.69,62.69,0,0,0-11-9.14,28.77,28.77,0,0,0-18.11-4.59,146,146,0,0,1-14.79.57C80.9,3,62.18,3.14,43.47,3.18c-2.48,0-5,.3-7.43.49-9.84.79-17.39,6.1-24.21,12.61-3.58,3.42-5.5,8-7.31,12.53a22.52,22.52,0,0,0-1.9,9.42c.36,2.43.3,5,1.18,7.26,1.38,3.51,2.32,7.28,5.42,10,2.29,2,4.36,4.19,7.47,4.84,2.7.57,5.42,1,8.12,1.6a53.1,53.1,0,0,0,14,.79c7-.36,14-1.14,20.93-1.32s14,.18,21,.29c1.19,0,2.39.05,3.58,0,6.62-.27,13.23-.58,19.85-.83,3.38-.13,6.78-.06,10.16-.29,4.4-.29,8.82-.63,12.84-2.77a21.44,21.44,0,0,1,2.73-1.32,41.12,41.12,0,0,0,13.82-9,20.9,20.9,0,0,0,6.58-13.94C150.81,26.92,148.3,21.12,143.56,16.42Zm-39.62,17a6.61,6.61,0,0,1-5.84-7h18.2C113.2,34.22,108.43,34.29,103.94,33.44ZM78.11,26.69H94a7.85,7.85,0,0,1-7.44,7.73C81.91,34.67,78.89,32,78.11,26.69ZM45.23,35.78a10.26,10.26,0,0,1-9.48-6.73c7-1.39,14-1.53,21.3-1.65C54.36,33.92,51.24,36.05,45.23,35.78Zm15.05-8.52H74.9c-.3,5.89-3.16,8.34-9.25,7.88C62.19,34.87,59.71,31.5,60.28,27.26Z"/><path d="M120.85,25.77a10.24,10.24,0,0,0-6.47-2c-4.23.1-8.45.29-12.68.36-2.3,0-4.6-.13-6.9-.08-7.73.16-15.46.46-23.19.55-10.41.13-20.8.31-31.16,1.38A34.79,34.79,0,0,0,27.3,29.79c-2.16,1.16-2.83,2.56-2.48,5,.33,2.23,1.4,3.32,3.78,3.72A32.41,32.41,0,0,0,33,39.1c5.8.18,11.6.28,17.39.41v.1c1.93,0,3.87,0,5.8,0,8.47.21,16.86-1.35,25.38-.75a101.83,101.83,0,0,0,23.94-1.51c3.36-.56,6.73-1,10.09-1.63A8.6,8.6,0,0,0,122,31.46C123.4,29,123.15,27.46,120.85,25.77Zm-75.62,10a10.26,10.26,0,0,1-9.48-6.73c7-1.39,14-1.53,21.3-1.65C54.36,33.92,51.24,36.05,45.23,35.78Zm20.42-.64c-3.46-.27-5.94-3.64-5.37-7.88H74.9C74.6,33.15,71.74,35.6,65.65,35.14Zm20.87-.72c-4.61.25-7.63-2.38-8.41-7.73H94A7.85,7.85,0,0,1,86.52,34.42Zm17.42-1a6.61,6.61,0,0,1-5.84-7h18.2C113.2,34.22,108.43,34.29,103.94,33.44Z"/><path class="cls-2" d="M116.3,26.4c-3.1,7.82-7.87,7.89-12.36,7a6.61,6.61,0,0,1-5.84-7Z"/><path class="cls-2" d="M94,26.69a7.85,7.85,0,0,1-7.44,7.73c-4.61.25-7.63-2.38-8.41-7.73Z"/><path class="cls-2" d="M74.9,27.26c-.3,5.89-3.16,8.34-9.25,7.88-3.46-.27-5.94-3.64-5.37-7.88Z"/><path class="cls-2" d="M57.05,27.4c-2.69,6.52-5.81,8.65-11.82,8.38a10.26,10.26,0,0,1-9.48-6.73C42.72,27.66,49.72,27.52,57.05,27.4Z"/><path d="M108.91.47a30.13,30.13,0,0,0,4.14-.2c8.19-1.14,15.38,1.39,22.21,5.7,3.94,2.49,7.22,5.7,10.64,8.77a25.48,25.48,0,0,1,3.29,4.35,22.91,22.91,0,0,1,4.16,11.47c.49,5.63-1.38,10.56-4.35,15.09-3.54,5.39-8.93,8.67-14.46,11.67-1.54.83-3.26,1.3-4.78,2.15-4.83,2.67-10.09,3.3-15.47,3.5-10.11.37-20.21.82-30.32,1.09-3.76.11-7.54-.21-11.31-.29s-7.36-.2-11-.12-7.16.39-10.74.59c-5.05.29-10.1.73-15.16.83a56,56,0,0,1-18.16-2.63c-2.16-.69-4.38-1-6.39-2.37A24.23,24.23,0,0,1,3.1,50.55a32.8,32.8,0,0,1-3-11.71c-.42-4.69.93-9.12,2.83-13.36.68-1.51,1.54-2.94,2.32-4.4a25.69,25.69,0,0,1,9.58-10.46,17.27,17.27,0,0,0,2.47-1.76c4.71-4,10.31-5.81,16.28-7C38.69.88,43.8,1,49,1.06c3.5,0,7-.27,10.49-.31C64.69.69,97.67.49,108.91.47ZM2.62,38.23c.36,2.44.31,5,1.18,7.26,1.39,3.52,2.33,7.29,5.43,10,2.29,2,4.36,4.19,7.46,4.85,2.7.56,5.43,1,8.12,1.59a52.74,52.74,0,0,0,14,.8c7-.37,14-1.14,20.93-1.32s14,.17,21,.28c1.19,0,2.39.05,3.59,0,6.61-.27,13.23-.58,19.84-.84,3.39-.13,6.78-.06,10.16-.28,4.4-.3,8.82-.63,12.84-2.77a22.18,22.18,0,0,1,2.73-1.33,40.86,40.86,0,0,0,13.83-9,20.86,20.86,0,0,0,6.57-13.93c.51-6.7-2-12.49-6.74-17.19a63.42,63.42,0,0,0-11-9.14A28.73,28.73,0,0,0,114.41,2.7a145.91,145.91,0,0,1-14.79.56C80.91,3,62.19,3.14,43.47,3.18c-2.48,0-4.95.3-7.43.5-9.84.79-17.39,6.1-24.21,12.6-3.58,3.42-5.5,8-7.31,12.54A22.48,22.48,0,0,0,2.62,38.23Z"/><path d="M50.38,39.51c-5.8-.13-11.6-.22-17.4-.41a32.44,32.44,0,0,1-4.37-.56c-2.39-.41-3.46-1.5-3.78-3.73-.36-2.46.31-3.86,2.47-5A35,35,0,0,1,40.45,26c10.36-1.06,20.76-1.24,31.16-1.37,7.73-.1,15.46-.4,23.19-.56,2.3-.05,4.6.13,6.91.09,4.22-.08,8.45-.27,12.68-.36a10.23,10.23,0,0,1,6.47,2c2.3,1.7,2.54,3.26,1.16,5.7a8.66,8.66,0,0,1-6.44,4.27c-3.35.59-6.73,1.06-10.09,1.63a101.26,101.26,0,0,1-23.94,1.5c-8.51-.59-16.91,1-25.38.75-1.93,0-3.86,0-5.79,0ZM57.05,27.4c-7.32.12-14.32.26-21.3,1.66a10.27,10.27,0,0,0,9.48,6.73C51.25,36.06,54.37,33.92,57.05,27.4Zm41.05-1a6.64,6.64,0,0,0,5.85,7c4.48.84,9.26.77,12.35-7Zm-37.81.85c-.58,4.24,1.91,7.61,5.37,7.88,6.08.47,8.94-2,9.25-7.88Zm17.83-.57c.77,5.36,3.8,8,8.4,7.74A7.88,7.88,0,0,0,94,26.69Z"/></g></g></svg>