<svg xmlns="http://www.w3.org/2000/svg" viewBox="0 0 63.81 104.4"><title>smile</title><g id="Capa_2" data-name="Capa 2"><g id="desktop"><path d="M44.7.78a1.74,1.74,0,0,1,.51-.42C47.8-1.1,49.91,2.24,51.08,4c6.6,9.87,11,20.59,11.72,32.61.24,4,1,8,1,12.06a117.46,117.46,0,0,1-.85,15,82.4,82.4,0,0,1-6.45,23.83,70.09,70.09,0,0,1-6.17,11c-1.79,2.6-4.94,8.4-8.68,4.83-2.86-2.74.24-5.51,1.83-7.81,1.82-2.66,4.24-5.17,5.55-8.12A103.81,103.81,0,0,0,55.25,70.7c2.59-9.77,8.56-31.17-5.63-58.66A45.92,45.92,0,0,0,45.2,5.51C44.4,4.45,43.66,2,44.7.78Z"/><path d="M.1,82.61c-.31-2.15,0-4.31,2-5.59A7.38,7.38,0,0,1,8,76.65c2.18.87,2.14,3.32,1.39,5.47a9.79,9.79,0,0,1-.85,2.35C7,86.76,3.13,90.79,1.22,86.38A15.49,15.49,0,0,1,.1,82.61Z"/><path d="M4.6,27.74c-2.72,0-4.45-1.66-4.36-4.26.11-3,2.37-6,4.54-6.05S9.56,20,9.63,22.38A5,5,0,0,1,4.6,27.74Z"/></g></g></svg>