<svg xmlns="http://www.w3.org/2000/svg" viewBox="0 0 263.83 260.72"><defs><style>.cls-1{fill:#9f8bea;}</style></defs><title>tweetF</title><g id="Capa_2" data-name="Capa 2"><g id="desktop"><path class="cls-1" d="M136.23,92.68C126.09,88.15,115.76,84,105.87,79c-9.71-5-19-10.82-28.43-16.26-2.27-1.3-4.68-2.36-6.87-3.78C61,52.72,51.2,46.84,42.05,40.06c-12.7-9.42-24.92-19.5-37.26-29.4a19.93,19.93,0,0,1-4-4.83C-.61,3.69-.1,1.33,2.05.29,3.41-.36,5.5.22,7.17.62,8,.81,8.54,1.9,9.29,2.49,24.8,14.79,39.92,27.63,56,39.17A434.78,434.78,0,0,0,97.12,64.93c14.09,7.92,28.88,14.56,43.24,22,9.33,4.85,18.88-.54,28.12-2.93,22.09-5.72,45-7.53,67.73-8,4.3-.08,8.61-.11,12.91.16,3.74.23,7.43.31,10.63,2.34,5.28,3.34,5.29,8,.85,12.34A54.32,54.32,0,0,1,248,100.13c-10.58,5.55-21.57,7.58-33.43,7.2a241,241,0,0,1-38-4c-11-2.12-22.7-8.32-33.79-3.7-13.07,5.45-26,11.15-36.15,21.41a46.19,46.19,0,0,0-9.38,13.3c-3.57,8.12-3.81,16.35.94,24.73,4.46,7.87,9.74,15.08,16.84,20.22,10.18,7.37,21.36,13.34,33.91,16.08,4.07.88,7.5-.69,10.86-2.61,10.77-6.17,21.92-11.57,33.8-15.23,4.26-1.31,8.81-1.75,13.24-2.49,7.48-1.24,14.95-2.55,22.47-3.54A50.19,50.19,0,0,1,251,173.31c6.56,2.06,7.87,7.57,3.14,12.65a37.3,37.3,0,0,1-6,5.06c-20.74,14.49-47.27,18.58-72,16.36a146.78,146.78,0,0,1-16.7-2.47c-7.91-1.64-12.33,4.24-16.69,9.85-4.68,6-5.9,13-2.64,20.26,4.85,10.74,14,16.12,24.9,18.33,9.65,2,19.78,2.92,29.54,1.48,9.54-1.42,18.77-4.35,27.94-7.28,2.36-.75,4.73-1.5,7-2.47,1.46-.62,4-2.62,5.45-1.11,2.25,2.26-3.39,4.93-5,5.74-10.44,5.42-22.09,8.06-33.69,9.45s-22.61,2.9-34.11-.54c-10.84-3.24-21.1-6.75-27-17.85-5.56-10.44-3.88-21.07,4.76-32.47,1.51-2,3.13-3.88,5.45-6.73-3.42-1.1-5.58-1.85-7.78-2.5-14.81-4.36-27.82-11.67-38.2-23.28a45.72,45.72,0,0,1-12-33.51c.41-9.19,5.21-16.84,11.44-23.29,9-9.36,20.07-16,31.7-21.64,1.84-.89,3.68-1.8,5.51-2.71ZM165.39,197.1c10.26,5.53,23.61,3.91,34.7,2.48,12.14-1.58,24.32-4,35.41-9.12a42.09,42.09,0,0,0,7.12-4.06c1.21-.89,5.16-3.54,5.45-5.06.38-2-4-3.24-5.62-3.41-2.23-.22-4.49.23-6.72.29a178.87,178.87,0,0,0-43.6,7C183,187.79,174.67,192.27,165.39,197.1ZM166,92.63a4,4,0,0,0-1.3,2c7,1,13.85,2.77,20.83,3.84,20.78,3.18,44.75,5.8,63.05-7.12,1.32-.94,3.74-2.51,3.73-4.38,0-3.67-5.94-4.31-8.49-4.31a350.33,350.33,0,0,0-67.31,6.42,47.78,47.78,0,0,0-7.74,2A9.28,9.28,0,0,0,166,92.63Z"/></g></g></svg>