<svg xmlns="http://www.w3.org/2000/svg" viewBox="0 0 383.96 349.03"><defs><style>.cls-1{fill:#6484e8;}.cls-2{fill:#f2ebaf;}.cls-3{fill:#f1f2f2;}.cls-4{fill:#a7a9ac;}.cls-5{fill:#f2a7df;}</style></defs><title>tweet</title><g id="Capa_2" data-name="Capa 2"><g id="desktop"><path class="cls-1" d="M149.81,17.92A3.64,3.64,0,0,1,148.26,20c-3.62,2.88-7.19,5.76-10.81,8.64a2.19,2.19,0,0,0-.87,2.58c1.91,5.68.81,11.37,0,17.08a65.48,65.48,0,0,1-5.78,18.08,70.55,70.55,0,0,1-7.27,12.08,79.32,79.32,0,0,1-13.18,14.33c-4.08,3.37-8.19,6.71-12.49,9.74a53.14,53.14,0,0,1-10.71,5.89c-3.39,1.32-6.63,3.14-10.1,4-5.53,1.43-10.86,4.53-16.67,4.81-1.61.08-3.32-.45-5-.35a92.71,92.71,0,0,1-22.26-.68,80.19,80.19,0,0,1-20.88-6.58c-.71-.33-1.38-.79-2.5-1.45,1.94-.23,3.37-.44,4.82-.59A120.28,120.28,0,0,0,31.8,105a35.37,35.37,0,0,0,8-2.75,36.16,36.16,0,0,0,6.88-5.46,3.86,3.86,0,0,0,1-1.24,2.07,2.07,0,0,0-1-2.6c-.37-.17-.77-.22-1.14-.36-.57-.21-1-.67-1.53-.93-.86-.4-1.77-.73-2.64-1.13-1.81-.83-3.57-1.76-5.34-2.66A34.12,34.12,0,0,1,26.69,81a14.62,14.62,0,0,1-3.59-7.42c3.23.33,6.19.72,9.15.87a39.46,39.46,0,0,0,6-.36,1.41,1.41,0,0,0,1.48-1.38c0-1.09-.69-1.32-1.51-1.6a81.42,81.42,0,0,1-8.8-3.29,36.28,36.28,0,0,1-11.26-9c-1.33-1.53-2.68-3-3.85-4.64a15.13,15.13,0,0,1-2.67-6.47c-.11-.6-.16-1.2-.23-1.8,0-.33-.35-1-.22-1.27.41-1,3,0,3.61.2.86.27,1.75.47,2.63.66l4.65,1c.85.19,1.7.38,2.57.5a16.26,16.26,0,0,0,3.69.06.62.62,0,0,0,.35-.12.49.49,0,0,0,.16-.31,4.44,4.44,0,0,0-.75-3c-.66-1-1.38-2-2-3C23.17,35.9,19.86,31.33,17.9,26c-.95-2.52-1.76-5.1-2.48-7.67-.84-2.91-.12-5.79.41-8.65.05-.3.41-.56.59-.76,1.91,1.81,3.67,3.59,5.55,5.28,3.85,3.41,7.63,7,12.17,9.43,5.45,3,10.86,6,16.47,8.59a89.31,89.31,0,0,0,13.08,4.59c3.39,1,7.08,1.15,10.6,1.63,1.35.18,2.88.72,3.65-1.07.36,0,.25.1.82.13,0-.72-.4-1.34-.43-2-.1-2.32-.4-4.55-.28-6.85.28-4.21,2.59-8.28,4.71-11.92A29.63,29.63,0,0,1,99.36,3.47a26.66,26.66,0,0,1,16.08-.59,28.62,28.62,0,0,1,9.79,4.82A12.16,12.16,0,0,1,129,11.91c5.53-1.3,11-2.63,16.52-3.93.07.15.18.31.25.46a17.77,17.77,0,0,1-3.9,4.08c-1.91,1.66-2.54,3.49-4.38,5.22-.51.49.86-.5.5.72C143.08,18.13,144.92,18.59,149.81,17.92Z"/><path d="M154.52,16a2.5,2.5,0,0,0-1.38-.92,3.29,3.29,0,0,0-1.55.08c-2.94.46-5.87,1-8.8,1.45-.61.08-1.22,0-2.27.11l2.32-2.45c2.17-2.25,4.31-4.51,6.53-6.73.92-.92.46-2-.79-2.25a7.28,7.28,0,0,0-2.83.46c-1.89.44-3.78.89-5.64,1.35-3.34.79-6.65,1.64-10.17,2.5a10.19,10.19,0,0,0-.66-.89A27.84,27.84,0,0,0,108.14,0C95.67.26,86.39,6,80.4,16.78a26.8,26.8,0,0,0-2.52,20.53v0l0,0c-2.78-.34-5.59-.46-8.29-1.05a73.15,73.15,0,0,1-17.41-5.79c-5.64-2.72-11.2-5.68-16.68-8.72-4.74-2.6-8.77-6.19-12.87-9.68a28.24,28.24,0,0,1-4.82-5.31c-.79-1.12-1.68-1.15-2.53,0A10.06,10.06,0,0,0,14,9.31c-1.88,5.74-.63,11.25,1.38,16.62C17.55,31.8,21,37,24.34,42.2c.91,1.4,1.93,2.78,3.13,4.49-3.16-.51-6-.72-8.62-1.66-2.24-.81-4.46-1.73-6.73-2.5-2-.71-3.08.1-2.88,2.22A26.21,26.21,0,0,0,11,52.86a8.46,8.46,0,0,0,1.25,2.06c1,1.23,4.1,5.51,4.87,6.28a55.21,55.21,0,0,0,13.71,9.86c.44.21.84.44,1.28.67a45.21,45.21,0,0,1-7.4-.36A24.15,24.15,0,0,0,22.09,71c-.86,0-1.81.4-1.63,1.45,2.09,12.85,16.9,18.79,22.69,21.39,1.2.54,2.48.89,3.93,1.43-.49.43-.79.74-1.12,1A38.15,38.15,0,0,1,30.46,103c-5.28,1.07-10.64,1.68-16,2.29-2.73.34-5.51.18-8.26.26-.13,0-.28.1-.54.18-.15.56-.3,1.17-.48,1.93,1.1.74,2.11,1.51,3.21,2.15a63,63,0,0,0,17.59,7,99.9,99.9,0,0,0,19.15,2.37,106.28,106.28,0,0,0,45.59-8.89c5.25-2,10.25-7.58,14.66-10.79a86.46,86.46,0,0,0,24.8-27.74A71.79,71.79,0,0,0,139,47a54,54,0,0,0,.43-15.19,2.25,2.25,0,0,1,.92-2.3c1.79-1.47,3.57-2.95,5.31-4.46,2.8-2.42,5.58-4.92,8.41-7.31C154.7,17.16,154.87,16.58,154.52,16Zm-6.25,4c-3.62,2.86-7.21,5.77-10.83,8.65a2.21,2.21,0,0,0-.87,2.57c1.94,5.69.82,11.37,0,17.06a65.81,65.81,0,0,1-5.76,18.1,72.73,72.73,0,0,1-7.29,12.09,79.94,79.94,0,0,1-13.16,14.33c-4.08,3.34-8.18,6.7-12.51,9.73a52.48,52.48,0,0,1-10.71,5.87c-3.37,1.35-6.61,3.16-10.1,4-5.53,1.46-15.68,4.82-21.62,4.49-7.44-.43-14.84.56-22.26-.69a79.68,79.68,0,0,1-20.88-6.58c-.71-.33-1.38-.79-2.5-1.45,1.94-.23,3.37-.46,4.82-.59,9-.91,18-1.78,26.31-5.89a37.29,37.29,0,0,0,5-3c1.4-1,3.54-2.17,3.46-4.16,0-1.22-.79-1.56-1.76-1.78a28.1,28.1,0,0,1-4-1.25c-2.6-1.05-5.1-2.38-7.63-3.65A35,35,0,0,1,26.68,81a15,15,0,0,1-3.59-7.42c3.23.3,6.19.71,9.15.84a40.36,40.36,0,0,0,6-.33c.68-.08,1.45-.36,1.48-1.38s-.67-1.33-1.51-1.63a80.82,80.82,0,0,1-8.77-3.27,35.84,35.84,0,0,1-11.29-9c-1.33-1.5-2.68-3-3.85-4.61a16.32,16.32,0,0,1-3-9.77c.94.28,1.71.44,2.42.72a37.4,37.4,0,0,0,6.37,2,29.47,29.47,0,0,0,8.83.77,2.48,2.48,0,0,0,1.45-.44C32,46.31,29.61,45.29,29,44.6a21.31,21.31,0,0,1-2.85-3.93C23.16,35.9,19.87,31.34,17.89,26c-.92-2.53-1.74-5.1-2.48-7.68-.84-2.9-.13-5.78.41-8.64.08-.31.43-.56.59-.77,1.91,1.81,3.69,3.6,5.55,5.28,3.85,3.42,7.63,7,12.19,9.44,5.43,2.93,10.84,6,16.47,8.56a90.37,90.37,0,0,0,13.06,4.62,79.52,79.52,0,0,0,10.48,1.88c.59.07,1.18.12,1.77.17a5.42,5.42,0,0,0,2.37-.09,1.1,1.1,0,0,0,.51-.3,2.69,2.69,0,0,0,.35-.86,1.12,1.12,0,0,0,.06-.51l-.06-1.06C79.1,35,79,33.9,79,32.82a35.65,35.65,0,0,1,0-4.26,26.83,26.83,0,0,1,3.8-11.78A29.71,29.71,0,0,1,99.37,3.47a26.6,26.6,0,0,1,16.09-.58,28.39,28.39,0,0,1,9.76,4.82,11.91,11.91,0,0,1,3.75,4.2L145.47,8c.1.15.18.3.28.45a19,19,0,0,1-3.93,4.08c-1.71,1.48-3.57,2.83-5.23,4.39-.56.53-1.17,1.73-.71,2.52s2.19.49,3,.39c3.67-.51,7.27-1.41,10.94-1.89A3.73,3.73,0,0,1,148.27,20Z"/><path d="M77.88,37.31v0l0,0Z"/><path class="cls-2" d="M170.05,214.16c-.11-.1-.15-.18-.21-.19-.36-.05-.73-.11-1.1-.13-5.08-.34-10.12-.8-15-2.56a23.82,23.82,0,0,1-12.17-9.76l-3.93-6c-1.5,0-2.91,0-4.33,0-3.44-.05-6.89,0-10.32-.2-2.39-.14-2.38-.31-3.58,1.82-4.36,7.77-8.69,15.54-13.07,23.3-1.16,2.06-2.07.81-3.29,2.83-1.15-.21-1,2.15-2,2,.62-4.66-.29-8.46.36-13,1.08-7.39,2.26-14.76,3.32-22.15a55.26,55.26,0,0,0,.44-6.43c0-1.41-.27-2.83-.29-4.24-.06-4.6-.05-9.2-.09-13.8-.06-5.67-.15-11.34-.21-17,0-4.93-.06-9.86-.1-14.79a77.87,77.87,0,0,1,.74-12.49,8.19,8.19,0,0,1,7.8-7.23c1.12-.06,2.24,0,3.36,0,10.08-.12,20.17-.26,30.25-.35,3,0,6,0,8.94.1,5.23.09,10.46.07,15.68.33a7.63,7.63,0,0,1,7.17,7.78c0,2-.06,4,0,6,0,6.37.13,12.74.16,19.1,0,9.27,0,18.53.08,27.79,0,.1.2.19.45.41l6.78-1.9c0-2.25,0-4.32,0-6.4q.12-8.28.29-16.56c0-.73.33-1.46.32-2.18-.06-3.36-.28-6.71-.26-10.06.05-6.64.23-13.28.33-19.92.07-4.94.11-9.88.15-14.82,0-1.69,0-3.39,0-5.13-1.7,0-3.11,0-4.51,0l-29.85.44c-9.27.14-18.54.32-27.81.43-10.18.12-20.37.18-30.55.28-.71,0-1.42.11-2.13.16-.08.62-.15,1-.16,1.35-.11,7.27-.24,14.53-.32,21.79,0,5.38,0,10.77,0,16.16,0,4.86,0,9.72-.07,14.58-.07,8.09-.12,16.17-.24,24.25-.11,7.33-.36,14.65-.44,22-.06,5.07.1,10.14.11,15.22,0,2.16-.31,4.29-.22,6.5.21,5.75-.11,11.52-.19,17.29a25.77,25.77,0,0,0,2.18,10c.82,2,1.29,5.09,3.58,5.59a8.16,8.16,0,0,1,2.6,1.22c.71.61,1.74-1.19,2.58-1.22,3.8-.13,7.61-.3,11.42-.34q12.78-.15,25.57-.18c6.58,0,13.15,0,19.72,0,1.31,0,2.62-.19,4-.29a14.89,14.89,0,0,0,.29-3.51c-.6-3.88.08-7.71.55-11.49.55-4.35,1.6-8.64,2.58-12.92A40,40,0,0,1,170.05,214.16Z"/><path class="cls-3" d="M119.77,192.14a19.33,19.33,0,0,0,3.29.65c3.89,0,7.78-.07,11.68-.14a11.12,11.12,0,0,0,1.49-.21,3.54,3.54,0,0,0,.19-1c-.11-1-.51-1.91.68-2.77.86-.62,1.41-1.59,2.59-1.93,9.44-2.7,18.85-5.47,28.27-8.21l7.86-2.3a24.86,24.86,0,0,0,.21-2.64c-.13-4.91-.42-9.83-.42-14.74q0-14.94.28-29.87a30.78,30.78,0,0,0-1.22-8.61,4.71,4.71,0,0,0-3.06-3.27c-1.73-.74-3.36-.25-5-.21-9.4.18-18.8-.15-28.2,0-3.28.06-6.57.09-9.86,0-4.71,0-9.41-.16-14.12-.28-1.48,0-3.08.12-4,1.19a12.35,12.35,0,0,0-2.86,5,20.13,20.13,0,0,0-.09,5.08c.11,6.56.14,13.12.16,19.67,0,3.28-.11,6.57-.12,9.85s0,6.41,0,9.62c0,2.24-.14,4.49-.11,6.73.06,6.95.17,13.89-.85,20.81-1.11,7.46-2,15-3,22.43a21.1,21.1,0,0,0,0,2.58,16,16,0,0,0,1.14-1.51c1.77-3.21,3.48-6.45,5.28-9.63q4.11-7.31,8.33-14.54A14.86,14.86,0,0,1,119.77,192.14Z"/><path class="cls-4" d="M91.81,97a4.74,4.74,0,0,0,.59.13l29.36-.51c7.35-.13,14.7-.28,22-.4,3.12,0,6.25,0,9.38-.07,4.09-.08,8.17-.25,12.26-.31,6.5-.1,13-.13,19.5-.21a12.71,12.71,0,0,0,1.71-.22,54.08,54.08,0,0,0,.25-7.34c-.25-2.63.24-7.09-1.71-9.21-1-1.09-2.36-1.46-3.22-2.67-1.15-1.62-3.19-1.26-5.12-1-.89.09-1.79.08-2.69.09-4.94,0-9.87.12-14.81.14q-25.26.09-50.51.11c-3,0-6.09-.3-9.14-.4-3.55-.1-8,4.69-8,8.42,0,2.47,0,4.94.06,7.41C91.82,92.87,91.81,94.87,91.81,97Z"/><path class="cls-5" d="M148.15,187.1a9.77,9.77,0,0,0,5.77,9.21c3.41,1.44,6.94,1.44,10.89.81-1-4.64-.75-9.34-2.08-14Z"/><path d="M116.48,285.21a2.72,2.72,0,0,1,.75-.06c1.77.14,1.56,2.17,1.4,3.42-.77,6.2-3.44,11.72-6.07,17.26-.77,1.62-1.7,3.16-2.47,4.78a31.78,31.78,0,0,1-6.23,8.71c-1.58,1.6-1.64,3.42-1.65,5.34a36.69,36.69,0,0,0,.35,4.67c.2,1.68.45,3.37.8,5,.68,3.29,1.45,6.57,2.19,9.85,0,.21.17.41.22.63.33,1.38,0,2.15-.92,2.39-1.33.33-1.46-.69-1.65-1.57-.4-1.82-.82-3.65-1.14-5.49-.56-3.24-1.07-6.48-1.55-9.73-.21-1.4-.28-2.83-.44-4.24-.07-.72-.19-1.44-.34-2.48-1.18.79-2.11,1.37-3,2-2.55,1.83-5.07,3.71-8.13,4.6a8,8,0,0,1-5.57-.67c-3.81-1.63-5.61-5-7.82-8.06-2.38-3.28-3.25-7.17-3.91-11.1,0-.27-.14-.53-.22-.81-2.34,1.19-4.65,2.21-6.8,3.48a23.8,23.8,0,0,1-7,2.39,14.42,14.42,0,0,1-4.39-.09,23.7,23.7,0,0,1-2.84-.55,8.36,8.36,0,0,1-4.33-2.15,42.26,42.26,0,0,1-3.5-3.45A14.27,14.27,0,0,1,39.39,301c0-.74,0-1.49,0-2.51a40.8,40.8,0,0,0-3.93,1.5,26,26,0,0,1-9.75,2.25c-2.81.23-5.42-.61-8-1.22a10.66,10.66,0,0,1-4.25-2.36C8.14,294.17,6.75,288.49,8.86,282c1-3,2.47-5.92,3.74-8.87.23-.53.51-1.05.78-1.58-2-.44-3.87-1-5.77-1.24-5.46-.8-8.23-6.75-7.49-10.83a14.75,14.75,0,0,1,3.08-6.9,47.51,47.51,0,0,1,9.5-8.85c6.47-4.53,13.32-8.3,21-10.28a19.87,19.87,0,0,1,2.61-.64c1-.12,2.11.65.84,1.32a10,10,0,0,1-2.1.7c-7.88,2-14.84,5.94-21.44,10.49a40.37,40.37,0,0,0-9,9,10.42,10.42,0,0,0-2.2,6.91,7.4,7.4,0,0,0,6.07,7.2c1.69.32,3.41.44,5.11.66a2.21,2.21,0,0,0,2.28-1,63.84,63.84,0,0,1,16.85-16.29,62.14,62.14,0,0,1,7.9-4.2,10.2,10.2,0,0,1,3.93-.72,3.41,3.41,0,0,1,3.18,5,8.72,8.72,0,0,1-1.42,2,53.68,53.68,0,0,1-10.53,8.66c-2.87,1.88-5.89,3.55-8.91,5.19a23.14,23.14,0,0,1-8.83,3.1A2.63,2.63,0,0,0,16,272a28.91,28.91,0,0,0-5.59,14.25c-.3,3.39.39,6.52,3,9,.6.54,1.08,1.22,1.68,1.76a11.63,11.63,0,0,0,7.78,2.85,26.22,26.22,0,0,0,9.68-1.16c2-.69,4-1.74,5.95-2.63A2.36,2.36,0,0,0,40,294.25a36.38,36.38,0,0,1,5.52-12.43A75.13,75.13,0,0,1,61.35,264.2a32.79,32.79,0,0,1,4.49-2.95,8.8,8.8,0,0,1,2.73-1,2.94,2.94,0,0,1,3.68,3.11c0,2.77-1.13,5.23-2.29,7.67-2.17,4.63-5.65,8.18-9.23,11.73a99,99,0,0,1-11.87,9.88C47.05,294,45,295,43.16,296.25a2.31,2.31,0,0,0-1.07,1.26c-.7,4.59.29,8.79,3.58,12.15,2.15,2.2,4.6,4.22,8,3.91a41,41,0,0,0,6.81-1.11,29.67,29.67,0,0,0,9.33-4.81,2.39,2.39,0,0,0,1.23-2c.37-10.14,4.33-18.83,10.82-26.46a65.69,65.69,0,0,1,5-5.19C88,273,89.22,272,91,272.22a2.34,2.34,0,0,1,2,1.52c1.21,2.57.59,5-.34,7.39a86.64,86.64,0,0,1-4,8.5A54.93,54.93,0,0,1,75.54,305.7c-2,1.69-2.05,3.31-1.8,5.61a23.1,23.1,0,0,0,6.94,13.94c1.27,1.29,2.6,2.75,4.71,3a6.19,6.19,0,0,0,3.5-.35,35.53,35.53,0,0,0,10.7-7.67,4.63,4.63,0,0,0,.93-2.21,104.91,104.91,0,0,1,8.1-23.48c1.5-3.13,3.78-8.13,7.35-9.22A4.77,4.77,0,0,1,116.48,285.21Zm-73.75,8c.42.11.6.22.69.17.53-.27,1-.56,1.56-.88a88,88,0,0,0,17-14.21,32.77,32.77,0,0,0,7.37-12.14,3.92,3.92,0,0,0,0-3.56,5.81,5.81,0,0,0-1.7.42,56.48,56.48,0,0,0-6.08,4.13c-2.06,1.71-3.86,3.73-5.75,5.63A58.75,58.75,0,0,0,44,289.45,30.73,30.73,0,0,0,42.73,293.18Zm30.55,11.58c.76-.64,1.27-1,1.74-1.48a63.37,63.37,0,0,0,12.93-17A25.66,25.66,0,0,0,91.16,277c.1-.93.31-1.93-.88-2.85a42.11,42.11,0,0,0-17,30.61Zm-55.1-36a23.32,23.32,0,0,0,6.65-2.28c4.18-2.45,8.4-4.86,12.37-7.64a79.59,79.59,0,0,0,7.74-6.75,1.77,1.77,0,0,0,.61-2.38,1.81,1.81,0,0,0-2.38-.66,51.11,51.11,0,0,0-5.81,2.28A47.91,47.91,0,0,0,27,259,61.42,61.42,0,0,0,18.18,268.78Zm85.48,46.67c4.63-4,13.13-23.25,12.26-27.92C109.2,295.92,106.43,305.69,103.66,315.45Z"/><path d="M251.89,107.05c3.47.15,7,.17,10.42.49s6.76,1,10.15,1.46c.81.11,1.63.15,2.43.31,3.5.7,7,1.28,10.48,2.2,4.78,1.28,9.5,2.81,14.23,4.26a6.23,6.23,0,0,1,1.73,1,1.13,1.13,0,0,1,.26,1.76,2.78,2.78,0,0,1-1.52.49c-.26,0-.55-.22-.84-.3-5.93-1.79-11.81-3.79-17.81-5.3a137.44,137.44,0,0,0-14.95-2.75c-5-.68-10.08-.91-15.12-1.42-3.28-.34-5.43,2.33-7.85,4.09a91.11,91.11,0,0,1-18.8,10.12c-1.24.52-2.49,1-3.77,1.45a6.8,6.8,0,0,1-3.37.54c-1.92-.36-2.46-1.71-1.67-3.49a16.92,16.92,0,0,1,2.62-4.15,20.52,20.52,0,0,1,8.9-6,76.3,76.3,0,0,1,11.52-3.23c3.46-.65,7.56-.19,10.26-2.81,3.18-3.1,6.29-6.25,8.05-10.4a14.26,14.26,0,0,0,1.2-5,8.15,8.15,0,0,0-3.12-7.09,19.45,19.45,0,0,0-7.23-4,28.63,28.63,0,0,0-11.73-.77,4.71,4.71,0,0,0-2.86,2A52.21,52.21,0,0,1,225.42,89a31.13,31.13,0,0,1-3.57,2.25c-2,1.23-4.06,2.47-6.13,3.62a15.72,15.72,0,0,1-6.54,2c-2.14.16-3.16-1.29-2.37-3.32A12.29,12.29,0,0,1,208,91.32c4.36-6.6,11.61-10.85,19.07-13.06a45.26,45.26,0,0,1,5.15-1.2c2.49-.44,3.1-2.66,3.72-4.79a5.87,5.87,0,0,0-1.57-6.2C231.7,63.5,228.43,63,225,63.6a27.17,27.17,0,0,0-8.77,3,56.79,56.79,0,0,0-7.29,5.34c-.6.49-1.2,1-1.76,1.53-.35.35-.85,1.22-1.46,1-.91-.4.42-1.82.78-2.24a30.59,30.59,0,0,1,8.72-6.63c3.22-1.74,6.25-3.45,10-3.78,3.53-.31,6.92-.47,9.92,2.08,2.83,2.4,3.56,5.69,2.36,10-.21.75-.46,1.49-.81,2.59,1.12-.07,1.84-.1,2.55-.17A25,25,0,0,1,253,78.62,14.3,14.3,0,0,1,260.37,87a11.31,11.31,0,0,1-.65,8.1A34.41,34.41,0,0,1,253,105l-1.29,1.43ZM231.36,80C227.74,79.59,224,81.6,221,83.3A37.56,37.56,0,0,0,211.72,90a13.37,13.37,0,0,0-1.6,2c-.25.4-1.1,1.63-1,2.1.12.63,1.53.49,2,.35a17.47,17.47,0,0,0,1.93-.86A56,56,0,0,0,225,86.56,44.22,44.22,0,0,0,231.36,80Zm11.87,30.47a1.16,1.16,0,0,0,.14-.73c-2.14.52-4.35.79-6.5,1.28-6.42,1.47-13.7,3.47-17.53,9.34-.28.43-.8,1.16-.58,1.71.42,1.06,2.22.56,3,.27a110.43,110.43,0,0,0,18.85-9.62,14.53,14.53,0,0,0,2-1.48A2.92,2.92,0,0,0,243.23,110.49Z"/><path d="M148,241.45c-10.67-.2-21.35-.34-32-.66a12,12,0,0,1-5.38-1.45c-1-.54-1.52-2.14-1.86-3.38a6,6,0,0,1,2.14-6.8c2.36-1.87,4.71-3.29,8-3.25,6,.08,12.09-.44,18.13-.59q7.74-.18,15.46,0a8.3,8.3,0,0,1,6.88,3.58c2.63,3.57,1.32,11-4.05,12A48.44,48.44,0,0,1,148,241.45ZM134.5,227.9c-5,0-10,.13-15-.06a8.2,8.2,0,0,0-6.18,2.59c-1.57,1.45-2.34,3.71-1.67,5.21.91,2.05,3.1,3,5.21,3.28,3.11.45,6.57.06,9.71.06q9.83,0,19.65-.21l6.09-.15c1.94-.05,3.81-.66,4.53-2.63a5.33,5.33,0,0,0-1.07-6,7.16,7.16,0,0,0-5.75-2.45C144.83,227.62,134.5,227.79,134.5,227.9Z"/><path d="M133.55,143.85c-2-3.19-6-3.26-8.67-.45a22.93,22.93,0,0,0-6.19,12.92c-.3,2.21-.36,4.44-.55,6.66-.09,1-.65,1.27-1.74,1-.51-5.63-.18-11.15,2.55-16.27a31.65,31.65,0,0,1,3.71-5.58,9.43,9.43,0,0,1,9.08-3.22,12.34,12.34,0,0,1,3.23,1.44c1.95-2.35,3.82-4.78,5.9-7a9.34,9.34,0,0,1,3.35-2.14,6.68,6.68,0,0,1,8.28,2.08c1.11,1.29,2.06,2.72,3.24,4.29.47-.73.86-1.4,1.31-2q2.5-3.45,5-6.87a3,3,0,0,1,3.59-1.25,1.75,1.75,0,0,1-.4,2.61,35,35,0,0,0-7.47,10.83,2.52,2.52,0,0,0-.11,1.67,44.36,44.36,0,0,1,1.76,16.19c-.25,3.1-.82,6.18-1.25,9.27a2.13,2.13,0,0,1-.13.43c-.55,1.43-1.21,2.81-2.9,3.11-1.84.31-2.43-1.27-3.12-2.42a14.4,14.4,0,0,1-1.78-6.66,41.94,41.94,0,0,1,3-18.9,3.89,3.89,0,0,0-.26-3.78,16.78,16.78,0,0,0-3.84-4.92,3.93,3.93,0,0,0-5.47-.1,23.46,23.46,0,0,0-5.91,7.54,2,2,0,0,0,.12,2.1c4.09,7,4.84,14.64,4,22.55-.26,2.45-.36,4.92-.66,7.37a11.6,11.6,0,0,1-.9,3.22c-1.15,2.58-3.62,3-5.56.91a17.5,17.5,0,0,1-4.26-7.79,36.8,36.8,0,0,1,1.4-22.46C132.43,146.71,133,145.26,133.55,143.85Zm2.11,3.44c-1.78,4.41-2.65,5.25-3.18,14a25.39,25.39,0,0,0,2.16,11.28,6.7,6.7,0,0,0,2.8,3.65C139.61,170.43,140.39,152.69,135.66,147.29Zm19.93.07c-2.75,4.11-3.05,16.86-.37,20.1A53.94,53.94,0,0,0,155.59,147.36Z"/><path d="M138,81.15c1.74,0,3,2,3.29,3.56.12,2.25-2.8,5.6-5.56,4.49-2.07-.47-3.75-4.09-2.19-5.89A5.17,5.17,0,0,1,138,81.15ZM139,84.06c-1.67-1.88-5.08.12-3.57,2.42C137.05,88.44,140.17,86.15,139,84.06Z"/><path d="M120.9,233.81c-.93-1,1.49-1.42,2-1.43,3-.09,6-.07,8.93-.13,3.5-.07,7-.2,10.51-.28,1.42,0,2.84,0,4.25,0a5,5,0,0,1,1.56.14,1.43,1.43,0,0,1,1.15,1.67,1.34,1.34,0,0,1-1.55,1.24c-2.76-.07-5.53-.07-8.29-.12q-7.83-.17-15.67-.37a5.89,5.89,0,0,1-2.85-.65Z"/><path d="M130.06,256.92c-7.28,0-14.68,0-22.08,0a58.41,58.41,0,0,1-8.48-.25c-4.4-.65-8.19-2.45-9.53-7.29-.37-1.36-.72-2.74-1.15-4.09-1.72-5.3-1.08-10.77-1.19-16.18s0-10.89,0-16.59c-.81-.34-1.75-.73-2.71-1.11-3.7-1.46-7-3.44-8.79-7.22a12.74,12.74,0,0,1,2.27-14.93,8.66,8.66,0,0,1,5.18-2.76,25,25,0,0,0,4.4-1.42c0-1.13-.1-2.08-.15-3-1.53-.49-3-1.05-4.44-1.38-2.25-.5-3.56-2.26-5.21-3.57a9.82,9.82,0,0,1-.77-.81c-3.91-4-4.26-8.72-1.21-13.35,2.65-4,6.56-5.65,11.09-6.24.29,0,.58-.11,1-.19v-5.94a20.47,20.47,0,0,1-7.24-4.9,13,13,0,0,1-3.69-12.72,11.83,11.83,0,0,1,6.56-8.55,28.08,28.08,0,0,1,4.79-1.4,5.21,5.21,0,0,0,.38-1.48c-.64-11.43.08-22.85.08-34.28,0-4.09.1-6.55,2.31-9.92,2-3,6-5.55,9.19-4.79,4.73.18,8,.45,12.08.42l13.45-.13c6.87-.05,13.74-.12,20.62-.13,4.1,0,8.2.14,12.3.1,3.5,0,7-.33,10.51-.35a59.91,59.91,0,0,1,8.48.37c4.5.63,7.74,3.42,9.91,7.21,1.39,2.42,1.24,12.75,1.22,15.07-.05,5.45-.12,10.91-.16,16.36,0,4.89,0,9.77,0,14.66,0,.67,2.06,8,2.23,8.54,3,8.59,7,16.77,10.65,25.1,3.38,7.73,7,15.35,10.5,23,1.48,3.27,2.83,6.59,4.29,9.86,1.76,3.95,3.59,7.86,5.35,11.8,1.49,3.35,2.91,6.73,4.39,10.08s3.14,6.94,4.66,10.42q3.18,7.31,6.3,14.62,2.46,5.76,4.89,11.54c.68,1.62,1.34,3.25,2,4.89a1.71,1.71,0,0,1,.24.84c-.32,1.82.76,3.15,1.56,4.56q5.58,9.87,11.17,19.73,4.9,8.7,9.76,17.42,5,8.91,9.91,17.86a6,6,0,0,1,.84,2.28,2.08,2.08,0,0,1-.83,1.59c-.29.18-1.09-.22-1.52-.55a4.08,4.08,0,0,1-.89-1.28l-14-25.36c-3.76-6.81-7.54-13.6-11.25-20.43-3-5.51-6.11-11-8.81-16.63-3-6.33-5.68-12.85-8.47-19.3q-9.11-21.1-18.2-42.24c-7.34-17.12-23-55-23.55-56.72a19.56,19.56,0,0,0-.89-2c-.8,2.75-1,31.51-.37,36.75a16.68,16.68,0,0,0,2.13-.16c2.27-.46,2.58-.22,2.48,2.37l-27.44,7.56c.67,4,1.36,7.85,1.91,11.68.69,4.84.67,5.63-4.71,6.9a16,16,0,0,1-13.15-2.81,11.77,11.77,0,0,1-4.13-6.27c-.4-1.2-.64-2.45-1-3.9l-6.63,1.63c.27,2.89,1.88,5,3.33,7.25.81,1.24,1.72,2.41,2.61,3.6,3,4.08,7.19,6.52,11.91,8.22,4.31,1.55,8.77,1.55,13.23,1.77,4,.19,7.9.62,11.85.91a2.53,2.53,0,0,1,2.46,2.38c-.46,1.06-1.33.84-2.13.76-1.94-.17-3.87-.38-5.81-.52-.89-.07-1.78,0-2.65,0-3.7,5.68-5.1,12-6.42,18.38a92.35,92.35,0,0,0-1.66,19,56.66,56.66,0,0,0,2.16,16.4,18.36,18.36,0,0,0,6.87,10c.77.56,1.39,1.13,1.26,2.18-.11.86-.65,1.24-1.41.95a8.18,8.18,0,0,1-2.11-1.24A21.8,21.8,0,0,1,163.77,266c-.55-2.69-1-5.41-1.49-8.11a1.34,1.34,0,0,0-1.63-1.14c-2.6.25-23.39.14-27.56.27-.28,0,.35,4.47,2.11,7.16a130.73,130.73,0,0,0,10.6,17.34,31,31,0,0,0,18.42,12.77c5.36,1.27,10.87,1.92,16.32,2.81,1.48.24,3,.33,4.46.46,3.72.32,7.45.62,11.12-.52.24.42.37.67.51.92.79,1.41.66,2-.87,2.45a24.17,24.17,0,0,1-4.42.65c-1.19.1-2.38,0-3.87,0,.24.87.38,1.5.59,2.1q7.42,21.15,14.86,42.31c.47,1.3.56,2.45-.6,3.55a2.72,2.72,0,0,1-2.22-2.17q-2.53-7.89-5.16-15.76c-1.77-5.32-3.61-10.61-5.33-15.94-1.06-3.27-2-6.59-3-9.87-.42-1.35-1-2.66-1.5-4.16-3.71-.47-7.56-.95-11.4-1.46a50.92,50.92,0,0,1-16.32-4.56,36.63,36.63,0,0,1-10.77-8.25c-3.35-3.66-5.55-8-8.07-12.2a84.1,84.1,0,0,1-4.23-7.35C132.8,264,131.57,260.61,130.06,256.92Zm40-42.76c-.11-.1-.15-.18-.21-.19-.36-.05-.73-.11-1.1-.13-5.08-.34-10.12-.8-15-2.56a23.82,23.82,0,0,1-12.17-9.76l-3.93-6c-1.5,0-2.91,0-4.33,0-3.44-.05-6.89,0-10.32-.2-2.39-.14-2.38-.31-3.58,1.82-4.36,7.77-8.69,15.54-13.07,23.3-.86,1.52-1.78,3-2.69,4.49a18,18,0,0,1-1.39,1.52c-.39.3-.69.88-1.26.83a1,1,0,0,1-.73-.5,2.49,2.49,0,0,1-.27-.85c-.38-2.22.22-4.59.51-6.79s.6-4.58.93-6.86c1.08-7.39,2.26-14.76,3.32-22.15a55.26,55.26,0,0,0,.44-6.43c0-1.41-.27-2.83-.29-4.24-.06-4.6-.05-9.2-.09-13.8-.06-5.67-.15-11.34-.21-17,0-4.93-.06-9.86-.1-14.79a77.87,77.87,0,0,1,.74-12.49,8.19,8.19,0,0,1,7.8-7.23c1.12-.06,2.24,0,3.36,0,10.08-.12,20.17-.26,30.25-.35,3,0,6,0,8.94.1,5.23.09,10.46.07,15.68.33a7.63,7.63,0,0,1,7.17,7.78c0,2-.06,4,0,6,0,6.37.13,12.74.16,19.1,0,9.27,0,18.53.08,27.79,0,.1.2.19.45.41l6.78-1.9c0-2.25,0-4.32,0-6.4q.12-8.28.29-16.56c0-.73.33-1.46.32-2.18-.06-3.36-.28-6.71-.26-10.06.05-6.64.23-13.28.33-19.92.07-4.94.11-9.88.15-14.82,0-1.69,0-3.39,0-5.13-1.7,0-3.11,0-4.51,0l-29.85.44c-9.27.14-18.54.32-27.81.43-10.18.12-20.37.18-30.55.28-.71,0-1.42.11-2.13.16-.08.62-.15,1-.16,1.35-.11,7.27-.24,14.53-.32,21.79,0,5.38,0,10.77,0,16.16,0,4.86,0,9.72-.07,14.58-.07,8.09-.12,16.17-.24,24.25-.11,7.33-.36,14.65-.44,22-.06,5.07.1,10.14.11,15.22,0,2.16-.31,4.29-.22,6.5.21,5.75-.11,11.52-.19,17.29a25.77,25.77,0,0,0,2.18,10,9.3,9.3,0,0,0,8.76,5.59c3.81,0,7.61-.3,11.42-.34q12.78-.15,25.57-.18c6.58,0,13.15,0,19.72,0,1.31,0,2.62-.19,4-.29a14.89,14.89,0,0,0,.29-3.51c-.6-3.88.08-7.71.55-11.49.55-4.35,1.6-8.64,2.58-12.92A40,40,0,0,1,170.05,214.16Zm-50.14-21.54c1-.3,2.1.16,3.15.17,3.89,0,7.78-.07,11.68-.14a11.12,11.12,0,0,0,1.49-.21,3.54,3.54,0,0,0,.19-1c-.11-1-.51-1.91.68-2.77.86-.62,1.41-1.59,2.59-1.93,9.44-2.7,18.85-5.47,28.27-8.21l7.86-2.3a24.86,24.86,0,0,0,.21-2.64c-.13-4.91-.42-9.83-.42-14.74q0-14.94.28-29.87a30.78,30.78,0,0,0-1.22-8.61,4.71,4.71,0,0,0-3.06-3.27c-1.73-.74-3.36-.25-5-.21-9.4.18-18.8-.15-28.2,0-3.28.06-6.57.09-9.86,0-4.71,0-9.41-.16-14.12-.28-1.48,0-3.08.12-4,1.19a12.35,12.35,0,0,0-2.86,5,20.13,20.13,0,0,0-.09,5.08c.11,6.56.14,13.12.16,19.67,0,3.28-.11,6.57-.12,9.85s0,6.41,0,9.62c0,2.24-.14,4.49-.11,6.73.06,6.95.17,13.89-.85,20.81-1.11,7.46-2,15-3,22.43a21.1,21.1,0,0,0,0,2.58,16,16,0,0,0,1.14-1.51c1.77-3.21,3.48-6.45,5.28-9.63s3.53-6.23,5.31-9.33c.88-1.52,1.78-3,2.64-4.56.43-.77.91-1.69,1.81-2ZM91.81,97a4.74,4.74,0,0,0,.59.13l29.36-.51c7.35-.13,14.7-.28,22-.4,3.12,0,6.25,0,9.38-.07,4.09-.08,8.17-.25,12.26-.31,6.5-.1,13-.13,19.5-.21a12.71,12.71,0,0,0,1.71-.22,54.08,54.08,0,0,0,.25-7.34c-.44-4.55-2.31-10.1-7-11.89-2.86-1.09-6.45-.93-9.47-.9-3.7,0-7.39.09-11.09.1q-25.26.09-50.51.11c-3,0-6.09-.3-9.14-.4-3.55-.1-8,4.69-8,8.42,0,2.47,0,4.94.06,7.41C91.82,92.87,91.81,94.87,91.81,97Zm-3.94,91a10.35,10.35,0,0,0-9.53,5.82c-2.83,6.41,1.42,13.64,8.25,15.64a4.24,4.24,0,0,0,1.28,0Zm60.28-.87a9.77,9.77,0,0,0,5.77,9.21c3.41,1.44,6.94,1.44,10.89.81-1-4.64-.75-9.34-2.08-14Zm-60.09-6.83c.16-7.05.21-13.85.1-20.93a20.3,20.3,0,0,0-2.45.47c-1.2.41-2.39.89-3.55,1.4a8.33,8.33,0,0,0-4.64,10A7.9,7.9,0,0,0,81,176C83.21,177.37,85.17,179.23,88.06,180.27Zm.67-53.92a7.15,7.15,0,0,0-1.34,0c-5.59,1.18-8.65,6.84-7,12.73,1.1,3.95,4.06,6.57,7.94,8.73C88.46,140.45,88.59,133.42,88.73,126.35Z"/><path d="M358.72,33.55c1-3.07,2.13-6.22,3.11-9.42s1.89-6.67,2.82-10c.1-.35.06-.8.26-1.07s.84-1,1.21-1,.88.66,1.23,1.1c.15.2.07.58.07.88,0,3.27.57,17.09.82,20.5,0,.14.13.26.31.63,1.32.18,2.78.39,4.25.57,3,.35,5.92.67,8.87,1a4.32,4.32,0,0,1,1.28.39,1.42,1.42,0,0,1,.45,2.49,15.76,15.76,0,0,1-6.08,3.68c-2.11.74-4.19,1.57-6.3,2.31a2.62,2.62,0,0,0-1.69,1.65c-1.66,4.32-3.35,8.63-5,12.94-.19.49-.24,1.14-.59,1.43a3.43,3.43,0,0,1-1.91.83c-.38,0-1-.67-1.13-1.14-.52-2.1-.86-4.24-1.32-6.35-.7-3.19-1.41-6.39-2.17-9.57-.22-1-10.7-2.42-12.29-2.74a6.37,6.37,0,0,1-2.42-1c-1-.68-.92-1.4,0-2.16a4.27,4.27,0,0,1,1.16-.65c2.64-1,5.28-2,8-3C353.9,35.09,356.23,34.36,358.72,33.55Zm-14.18,6.73c0,.15,11,1.85,13,2.17a2.2,2.2,0,0,1,2,2c.17.95.33,1.91.54,2.85.66,2.91,1.32,5.81,2,8.71a5.75,5.75,0,0,0,.48,1.1c.24-.22.39-.31.44-.43,1.4-3.54,2.8-7.07,4.16-10.63a3.53,3.53,0,0,1,2.44-2.33c2.84-.92,5.61-2.06,8.36-3.21.82-.34,1.85-.55,2.37-1.69-.68-.15-1.25-.33-1.82-.4-1.71-.2-3.43-.3-5.13-.54-2.22-.31-4.42-.73-6.63-1.1a1.33,1.33,0,0,1-1.29-1.68,36.22,36.22,0,0,0,.1-4.66c-.1-2.63-.3-5.26-.46-7.9a67.13,67.13,0,0,0-5,12.38S349.1,38.88,344.54,40.28Z"/></g></g></svg>