<svg xmlns="http://www.w3.org/2000/svg" viewBox="0 0 345.2 283.62"><defs><style>.cls-1{opacity:0.6;}.cls-2{fill:#9f8bea;}</style></defs><title>wiggle</title><g id="Capa_2" data-name="Capa 2"><g id="desktop"><g class="cls-1"><path class="cls-2" d="M269,89.93c-11.78-22.88-27.53-32.49-50.7-30.88-18.12,1.25-21.52,2.9-21.13,21.09.66,30.36-1.94,60.17-9.53,89.65-8.19,31.85-25.12,59.21-43.53,85.63-8.79,12.6-25.88,12.19-34.67-1.25C101.8,242.48,95.28,228.72,93,215.08,84.07,161.91,103.44,117.73,140.06,80c9.24-9.52,18.37-19.15,28-29.22-8.54-28.08-40.35-40.13-67.75-22.94-59,28.37-83.41,102.57-85.49,108.11-1.86,5-5.08,9.4-7.71,14.07l-5.07-1.12c-.66-5.53-3-11.5-1.66-16.49,3.48-13,7.58-26,13.32-38.07A220.35,220.35,0,0,1,34.78,59.58C54.87,32,81.59,11.38,114.15,3.05c31.49-8.06,53.1-.63,69.17,28.16,1.79,3.2,4,6.15,6.54,9.94,40.07-13.64,73.3-5.55,97.87,30.74,18.71-10,30.19-33.79,56.81-27.51,2.37,12.53-1.56,22.51-12.92,28.07-26.52,13-32.68,33-31.47,62.22,1.88,45.24-7.43,90.05-22.1,133.18-2.16,6.36-9.18,16.19-12.95,15.76-6.77-.78-14.84-6.87-18.65-13a108.74,108.74,0,0,1-13.61-33.11C220.8,182.89,227.49,132.26,269,89.93ZM177.11,74.5c-7.29,3.82-11.26,4.77-13.52,7.26-29.42,32.35-50.55,69-51.6,113.77-.36,15.49,1.09,32.81,16.27,44,25.57-22.29,34.67-51.56,40.67-81.57C174.13,131.93,180.93,105.69,177.11,74.5Zm101.12,48.8c-31.08,26.06-38.3,83.89-16,121.92C272.84,204.66,279.77,166.44,278.23,123.3Z"/></g></g></g></svg>