<svg xmlns="http://www.w3.org/2000/svg" viewBox="0 0 54.36 48.5"><defs><style>.cls-1{fill:#808285;}</style></defs><title>x</title><g id="Capa_2" data-name="Capa 2"><g id="desktop"><path class="cls-1" d="M38.67,47.43a1.65,1.65,0,0,1,1.91-1.69c1.13,0,2.27,0,3.44,0-.55-1.4-13.62-17-16.29-19.48-2.11,2.13-4.24,4.24-6.32,6.41-2.28,2.39-4.49,4.84-6.76,7.23-.5.53-1.17.87-1.7,1.37-1.38,1.3-2.72,2.63-4.24,4.11a9.22,9.22,0,0,0,4.59.8,3.63,3.63,0,0,1,3.39,1.51,1.77,1.77,0,0,1-1.9.71c-2.75-.28-5.49-.54-8.24-.77-1.54-.14-3.09-.22-4.64-.32A1.84,1.84,0,0,1,0,45.92a5.78,5.78,0,0,1,3.54-.24c2,.34,3.18-.55,4.43-2,2.82-3.21,5.84-6.25,8.77-9.37l9.42-10.08c-.37-.51-.65-1-1-1.35-5.43-6.52-10.89-13-16.3-19.56A3,3,0,0,0,6.17,2c-.84.06-1.93.29-2.6-.81A1.74,1.74,0,0,1,5.45,0C8.82,0,12.18,0,15.55,0a8.53,8.53,0,0,1,2.29.87c-2.36,1.58-4.65,1.23-7.29,1.26C16.34,9.11,22,15.65,27.85,22.39L46.22,3c-1.59-.11-2.75-.14-3.89-.28S41,2.43,41.63.91C45.8,1,50,.83,54.36,1.5c-.91,2-1.46,2.38-3.08,1.93-1.43-.4-2.16.11-3.08,1.12-3.45,3.78-7,7.45-10.55,11.17L29.5,24.34c1.61,1.91,3.15,3.76,4.7,5.59C36.77,33,39.33,36,41.91,39c1.32,1.53,2.68,3,4,4.53.22.25.58.46.65.75.51,2,2,1.85,3.5,1.73s2.18.3,2.22,1.1-.66,1.48-2,1.4c-3.56-.2-7.12-.5-10.67-.78A4.19,4.19,0,0,1,38.67,47.43Z"/></g></g></svg>