<svg xmlns="http://www.w3.org/2000/svg" viewBox="0 0 66.93 71.23"><defs><style>.cls-1{fill:#e6e7e8;}</style></defs><title>Xserif</title><g id="Capa_2" data-name="Capa 2"><g id="desktop"><path class="cls-1" d="M33,1.44c-3.33.76-6.41,0-9.3.61a1.94,1.94,0,0,0-.25.38.5.5,0,0,0,0,.32c1,2,1.93,4.07,3,6.07,3,5.69,6,11.35,9.09,17.31,3.39-3.75,5.27-8.14,7.92-12s4.86-7.84,7.42-12a8.14,8.14,0,0,0-1.69-.44c-2.37,0-4.75,0-7.12-.07-.61,0-1.08-.28-1-1.17a7,7,0,0,1,1.18-.3C46.41-.14,59.38.05,61.78.42c-.3.39-.5.89-.73.91-1.46.13-2.93.16-4.4.2-1.12,0-2.25,0-3.53,0-3.06,4.25-5.57,8.78-8.36,13.14s-5.5,8.77-8.32,13.27L58,69.48c3,.54,5.88-.06,8.93,1.26a3.45,3.45,0,0,1-.87.37,17.15,17.15,0,0,1-2,.11q-14.07,0-28.14,0a18.75,18.75,0,0,1-2.7-.18c-.22,0-.39-.44-.78-.93,3.93-.74,7.74-.05,11.47-.56a4,4,0,0,0,0-1.19C43,66.23,30.22,42.43,29,40.7c-.6-.16-.75.37-1,.71Q20.1,54,12.2,66.61c-.46.73-.78,1.55-1.26,2.52a20.07,20.07,0,0,0,5.25.36c1.92.05,3.84,0,5.76,0,.77,0,1.29.41.92,1.48a14,14,0,0,1-1.89.2c-3.5-.07-7-.24-10.5-.25-2.93,0-5.86.17-8.8.2A6,6,0,0,1,0,70.56c1.61-1.48,3.24-.82,4.73-.94l4.53-.33,19-30.53c-6.15-12.18-12.78-24.09-19-36.43C6.64,1.9,3.92,2.47.8,1.92,1.51,1.34,1.85.81,2.23.78,3.81.65,5.39.65,7,.65c4.4,0,8.8.3,13.18-.32a5.09,5.09,0,0,1,1.35,0,35.77,35.77,0,0,0,9.13,0A2.14,2.14,0,0,1,33,1.44Z"/></g></g></svg>