<?xml version="1.0" encoding="utf-8"?>
<!-- Generator: Adobe Illustrator 24.0.1, SVG Export Plug-In . SVG Version: 6.00 Build 0)  -->
<svg version="1.1" id="Layer_1" xmlns="http://www.w3.org/2000/svg" xmlns:xlink="http://www.w3.org/1999/xlink" x="0px" y="0px"
	 viewBox="0 0 216.4 342.8" style="enable-background:new 0 0 216.4 342.8;" xml:space="preserve">
<style type="text/css">
	.st0{clip-path:url(#SVGID_2_);}
	.st1{fill:#9F8BEA;}
	.st2{fill:#AFEFD2;}
	.st3{fill:#FFFFFF;}
	.st4{fill:#F2A7DF;}
	.st5{fill:#F2EBAF;}
	.st6{fill:#6484E8;}
</style>
<title>Mesa de trabajo 17</title>
<g>
	<defs>
		<rect id="SVGID_1_" y="5.5" width="215.8" height="337.3"/>
	</defs>
	<clipPath id="SVGID_2_">
		<use xlink:href="#SVGID_1_"  style="overflow:visible;"/>
	</clipPath>
	<g class="st0">
		<path class="st1" d="M-82.7,325.3c0,0,4.4-133.2,33.3-140.2l45.8-10.8l28.9-7.8l24.5-9.6l4.9-8.9l68.7,4.5l81.1,30.8
			c0,0,59.8,6.7,62.1,55.3s-2,111.5-2,111.5S56,426-82.7,325.3z"/>
		<path class="st2" d="M53.7,152.6l1.6-28.1c0,0-20.9-1.7-20.9-22c0-16.2,8.2-18.6,8.2-18.6l23-42.6L102.2,19
			c0.7-0.4,2.7-0.2,3.4-0.2l7.3-0.4c5.4-0.3,10.8-1.7,16.3-0.7c1.7,0.4,3.5,0.9,5.1,1.7c3.2,1.3,6.3,2.9,9.6,3.6
			c3,0.6,6.2,1.6,8.6,3.5c0.9,0.9,1.9,1.7,3,2.4c0.6,0.4,1.3,0.6,1.9,0.9c2.4,1.2,3.1,3,4.6,4.9c1.3,1.6,4.9,4.2,6.2,5.8
			c1.9,2.3,2.6,4.2,4.5,6.5c2.9,7.7,6.7,15.7,6.3,24c-0.1,5.5-0.6,11-1.5,16.4c-0.6,3.4-1.6,6.7-2.9,9.9c-0.7,1.6-1.6,3-2.4,4.6
			c-0.5,1.2-0.8,2.4-1.4,3.6c-0.7,1.3-1.4,2.5-2.3,3.7c-3.7,5.4-7.5,10.8-12.6,14.9c-1,0.8-2,1.5-3,2.2l-3.6,2.5
			c-1.7,1.3-3.5,2.4-5.4,3.4c-1.4,0.7-2.8,0.9-4.1,1.9c-1.7,1.2-3.9,3.6-5.9,4.3L123,142l3.7,14.3l3.2,17.4l-38.3,32.6l-39.9-31.1
			L53.7,152.6z"/>
		<path class="st3" d="M164,48.6c-0.9,1.8-2.2,3.3-3.7,4.6c-2.1,2-4.6,3.4-7.4,4c-1.4,0.3-2.9,0.2-4.3-0.2c-3-1-4.3-3.2-4.4-6.5
			c0-4,1.6-7.8,4.3-10.7L164,48.6z"/>
		<path class="st4" d="M114.7,25.7c-0.8,0.6-1.8,0.7-2.7,0.3c-2-0.7-3.8-1.8-5.3-3.2c-0.7-0.7-1.5-1.4-2.2-2c-1,0.2-1.3,0.7-0.9,1.6
			c0.6,1.9,1.2,3.7,1.8,5.6c0.2,0.7,0.3,1.4,0.4,2.1c-1.5,0.3-3.1,0-4.4-0.8c-1.8-1.2-3.5-2.7-4.8-4.4c-0.4-0.5-0.8-0.9-1.2-1.3
			c-1,0.5-0.9,1.2-0.7,1.9c0.4,1.4,0.8,2.7,1.1,4.1c0.4,1.6,0.6,3.3,0.9,4.9c0,0.4-0.1,0.9-0.2,1.3c-1.4,0-2.9-0.4-4.1-1.2
			c-1.9-1.2-3.6-2.7-5.1-4.4l-1.8-1.7c-1.1,0.3-1,0.9-0.8,1.6c0.6,1.9,1.2,3.8,1.7,5.8c0.2,1,0.3,2.1,0.2,3.2c0,1.1-0.8,1.6-1.9,1.6
			c-2.2,0-3.9-1.3-5.5-2.7c-1.4-1.2-2.7-2.5-4.1-3.8c-0.8,0.5-0.8,1-0.6,1.8c0.7,2.3,1.4,4.7,2,7.1c0.1,0.8,0.1,1.6,0,2.4
			c-1.1,0.2-2.3,0-3.3-0.7c-2.5-1.4-4.8-3.2-6.7-5.3c-0.9,0.3-1.2,0.6-0.9,1.6c0.7,2,1.3,4,1.9,6.1c0.4,1.2,0.7,2.3,1,3.5
			c0.1,0.6,0.1,1.2,0,1.9c-1.7,0.3-3.4-0.2-4.7-1.3c-1.5-1.2-2.8-2.6-4.2-3.9c-0.2-0.2-0.5-0.4-0.8-0.6c-0.9,0.8-0.5,1.7-0.2,2.5
			c1,2.4,2.2,4.7,2.9,7.2c1,3.3,1.8,6.7,2.7,10.1c0,0.3,0,0.5,0,0.8c-1.8-1.2-3.4-2.7-4.6-4.6c-1.1-1.7-2.2-3.5-3.3-5.3
			c-0.2-0.2-0.3-0.5-0.5-0.7c-0.2-0.1-0.5-0.1-0.8-0.1c-0.2,0.2-0.3,0.4-0.3,0.7c0.2,0.6,0.4,1.2,0.7,1.7c2.2,3.6,4.3,7.2,6.5,10.8
			c2.8,5,5.3,10.2,7.5,15.4c1.8,4,3.6,8,5.4,12c0.2,0.6,0.4,1.3,0.6,1.9c-1.4-0.6-2.6-1.6-3.5-2.8c-2.4-2.8-4.5-5.8-6.2-9
			c-0.8-1.4-1.6-2.8-2.3-4.3c-0.2-0.4-0.9-0.6-1.1-1.1c0.5-0.1-1.3-1-0.8-1.2c-3.5-2.4-4.5-2.1-8.5-1.7c-4,0.2-7.9,1.6-11.2,4
			c0.2-2,0.3-3.6,0.5-5.2c1.7-11,6.1-21.5,12.9-30.3c9-11.9,21.2-20.9,35.1-26c6.5-2.4,13.4-4,20.3-4.6c0.5,0,1,0,1.6,0
			c0.8,2,1.5,4,2.3,6C115.1,24.1,115.4,25.1,114.7,25.7z"/>
		<path class="st4" d="M121.1,21.2c-1,0.8-2,0.1-3-0.4c-1.5-0.7-2.5-2-3.7-3.7c2.2,0,4,0,5.9,0c0.3,0,0.5,0.4,0.8,0.5
			c0,0,0,0.1,0.1,0.1C121.7,19.1,121.7,20.7,121.1,21.2z"/>
		<path class="st4" d="M151,19.4c-0.3,1.4-1.1,2.6-2.3,3.3c-0.2-0.6-0.4-1.1-0.6-1.7c-0.5-1.6-0.9-3.1-1.3-4.7
			c-0.1-0.7-0.6-1.2-1.3-1.4c-0.1,0.5-0.1,1,0,1.5c0.5,2.1,1,4.3,1.5,6.4c0.3,0.8,0,1.7-0.8,2c-0.6,0.4-1.3,0.7-2.2,1.1
			c-1.2-3.3-2.3-6.4-3.4-9.6c0.6-0.2,1.2-0.6,1.8-0.8c0.9-0.4,1.9-0.6,2.9-0.8c2.6-0.4,4.1,1.4,5.5,3.1
			C151.1,18.3,151.1,18.9,151,19.4z"/>
		<path class="st4" d="M142.2,26.5l-4.4,2.1c-1.9-2.9-2.4-6.4-4.4-9.4l5.8-2.6C140.6,19.9,141.3,23.2,142.2,26.5z"/>
		<path class="st4" d="M136,29.3l-4.1,1.9l-3.4-8.8l3.9-2.6L136,29.3z"/>
		<path class="st4" d="M130.3,31.9l-3.5,1l-3.2-5.9l3.7-3.8C128.3,26.2,129.3,28.9,130.3,31.9z"/>
		<path class="st4" d="M124.8,33c-0.9,0.4-1.9,0.2-2.5-0.6c-1-1.2-0.2-2.4,0.3-3.7c0.2,0.2,0.3,0.4,0.5,0.6
			C123.7,30.5,124.2,31.7,124.8,33z"/>
		<path class="st3" d="M114.5,69.3c-1.2-4.5-4.9-6.8-9.4-6.8c-2.6,0.1-5.1,0.8-7.2,2.2c-4.5,2.4-7.6,6.9-8.2,12
			c-0.7,4.7,1.8,9.4,6.7,10.7c3,0.8,6.2,0.4,8.9-1.1c3.6-1.9,6.6-4.9,8.4-8.6c0.7-1.4,1.1-3,1.2-4.6
			C114.9,71.8,114.7,70.6,114.5,69.3z"/>
		<path class="st4" d="M96.2,43.2c-1-0.1-2.1-0.2-3.1-0.2l2.9,5.5c0.8-0.8,1.4-1.9,1.6-3C97.9,44.2,97.5,43.4,96.2,43.2z M74.2,58.9
			c-1.1,1.6-1.8,3.5-2,5.4c-0.1,2.5,1.4,3.1,3.3,2.5c1-0.3,2-0.9,2.8-1.7C77.5,62.6,75.9,60.9,74.2,58.9L74.2,58.9z M91.7,43.3
			l-3.9,1.5l4.8,8.6l2.7-3.2C94,47.8,92.9,45.6,91.7,43.3z M82.2,49.1l-3,3.1l4.9,8.7c0.8-1,1.5-1.8,2.3-2.9L82.2,49.1z M78.2,53.3
			c-0.9,1.1-1.6,2.1-2.4,3c-0.6,0.6-0.7,1.5-0.2,2.1c1.3,1.9,2.6,3.8,4,5.9l3.2-2.4L78.2,53.3z M86.5,45.6l-3.4,2.7
			c1.6,3,3.1,5.9,4.8,8.9l3.2-2.6C89.9,51.4,88.4,48.4,86.5,45.6L86.5,45.6z"/>
		<path class="st5" d="M149.8,70.8c-0.7-1.2-1.4-2.3-2.3-3.3c-1.5-1.8-3.1-3.6-4.6-5.3c-1.2-1.5-2.5-3-4-4.3
			c-2.5-1.9-5.2-3.5-7.8-5.2c-0.7-0.4-1.5-0.8-2.3-1c-1.1-0.3-1.4-0.1-1.6,1c-0.3,1.3-0.2,2.6,0.4,3.7c0.2,0.9,0.3,1.8,0.4,2.8
			c0.4,1.8,1,2.5,1.4,4.3c0.1,0.7,0.1,2.1,0.3,2.8c0.2,1.4,0.6,2.2,0.9,3.6c0.4,1.8,0.8,3.6,1,5.4c0.3,2.3,0.9,4.6,1.9,6.7
			c0.3,0.8,0.8,2.1,2,2.2c1.8-2.5,2-5.2,3.6-7.9c1,0.7,1.5,0.2,2.4,0.8s2.3,1.8,3.6,1.7c0.6-2.2-0.1-3.6,0-6
			c0.7,0.3,0.4-0.8,0.9-0.6c1,0.3,1.9,0.5,2.9,0.6C149.9,72.7,150.4,71.8,149.8,70.8z"/>
		<path class="st6" d="M153.1,90.1c-3.1,0.3-6,1.7-8.1,4c-0.2,0.3-0.4,0.6-0.6,0.9l3.6,4.2c1.1-0.8,2.1-1.5,3-2.2
			c1.6-1.1,2.9-2.6,3.8-4.4C155.7,90.8,155.1,90,153.1,90.1z M157.5,96.3c-3.6,0.1-6,2.3-8.4,4.3l2.5,5.3c2-1.3,4.1-2.6,6-4
			c0.9-0.7,1.6-1.6,2-2.6C160.4,97.4,159.6,96.3,157.5,96.3L157.5,96.3z"/>
		<path d="M50.3,92.1c0.3,0.2,0.1,1.1,0,1.4c-0.7,2.1-1.4,4.3-0.9,6.6l5.9,2.9c0.5,0.2,2.2,0.7,2.1,1.4s-0.9,0.3-1.3,0.1
			c-2.1-1.1-4.1-2.3-6.2-3.4c-0.2-0.1-0.5-0.1-0.7-0.1c0.2,1.3,0.4,2.6,0.7,3.8c0.4,1.1,0.9,2.2,1.4,3.2c0.7,1.5,2,2.6,3.5,3.2
			c0.4,0.2,1.6,0.3,1.9,0.7c0.4,0.7-0.7,1.1-1.2,0.9c-1.9-0.5-3.5-1.6-4.5-3.3c-2.4-3.4-3.3-7.6-2.7-11.8c0.2-1.5,0.6-3,1-4.4
			c0.1-0.4,0.2-1.2,0.6-1.4S50.2,92,50.3,92.1z"/>
		<path d="M87,177.7c0.2-0.1,0.4-0.1,0.6,0c0.4,0.2,0.5,0.4,0.7,0.7s0.6,0.8,0.9,1.1c0.6,0.8,1.2,1.6,1.7,2.4
			c1.2-0.7,1.7-1.9,2.6-2.7c0.5-0.6,1-1.2,1.6-1.7c0.2-0.2,0.5-0.4,0.9-0.4c0.3,0,0.6,0.1,0.8,0.4c0.1,0.3,0.1,0.6,0,0.9
			c-1.5,1.7-3,3.4-4.5,5c-0.7,0.6-1.2,0.6-1.8-0.2s-1.4-1.8-2.1-2.7c-0.3-0.4-0.7-0.9-1-1.4s-0.7-0.7-0.4-1.3
			C86.9,177.8,87,177.8,87,177.7z"/>
		<path d="M114.5,69.3c-1.2-4.5-4.9-6.8-9.4-6.8c-2.6,0.1-5.1,0.8-7.2,2.2c-4.5,2.4-7.6,6.9-8.2,12c-0.7,4.7,1.8,9.4,6.7,10.7
			c3,0.8,6.2,0.4,8.9-1.1c3.6-1.9,6.6-4.9,8.4-8.6c0.7-1.4,1.1-3,1.2-4.6C114.9,71.8,114.7,70.6,114.5,69.3z M106.6,84.3
			c-0.8,0.5-1.7,0.9-2.5,1.3c-2.5,0.9-5.1,1.5-7.7,0.6c-4-1.4-6.3-5.5-5.5-9.7c0.5-3.6,2.4-6.8,5.1-9.1l15.8,11.2
			C110.3,80.7,109,83,106.6,84.3z"/>
		<path d="M231.6,190.2c-2.6-0.9-5.3-1.8-7.9-2.7c-3.2-1.1-6.5-2.1-9.8-3c-4.8-1.4-63.7-23.5-76.2-27.5c-0.9-0.3-1.6-0.5-2-0.6
			c-0.7-0.2-9.5-3.4-9.7-4.1c-0.1-0.4-1.4-5.9-1.9-8c-0.2-0.8-0.4-1.6-0.7-2.4l0.8-0.2c15.5-4.2,29.3-13,39.6-25.3
			c6.8-8,11.7-17.4,14.4-27.6c1.2-4.5,1.8-9.1,1.9-13.8c0-3.1-0.2-6.3-0.6-9.4c-0.4-3-1-5.9-1.9-8.7c-1-3.6-2.5-7.1-4.4-10.3
			c-1.2-2.3-2.6-4.4-4.1-6.5c-0.7-0.9-1.2-1.8-1.6-2.9c-0.8-2-2.2-3.6-4.1-4.5c-0.6-0.3-1.1-0.6-1.6-1c-2.8-2.5-5.9-4.7-9.1-6.7
			c-0.9-0.5-1.8-1.1-2.7-1.7l0.7-0.7c2-1.9,3-4.9-0.1-7.2c-0.2-0.2-0.4-0.4-0.6-0.6c-1.8-1.6-4.2-2.1-6.5-1.4c-1,0.3-2,0.8-3,1.1
			l-5.7,2.4c-1.4,0.6-3.1,0.1-4.5-0.4c-0.8-0.2-1.6-0.3-2.3-0.3c-0.8-0.1-1.7-0.2-2.5-0.3c-0.7-0.1-1.3-0.2-2-0.3
			c-9.8-0.7-19.6,0.5-29,3.4c-8.2,2.6-16,6.4-23,11.4c-5.1,3.7-9.8,8.1-14,12.9c-3.9,4.4-7.2,9.4-9.8,14.7c-1.4,3-2.7,6-3.7,9.2
			c-1.6,4.7-2.6,9.7-3,14.7c0.1,0.6,0.2,1.2,0.4,1.8L41,84.3c-2.5,2.5-4.5,5.6-5.8,9c-2,5.6-1.9,11.8,0.3,17.3
			c1.2,3.3,3.2,6.3,5.8,8.7c3.8,3.3,8.3,5.3,13.5,5.1c0.2,0,0.4,0,0.5,0.1c-0.1,0-1.7,17.7-2.7,26.1c-0.1,1.1-3.5,5.5-4,6
			s-4.8,2.2-7.6,3.4c-5.3,2.2-10.9,3.7-16.3,5.7C16.6,168.6,8.4,171,0,173l-12.1,2.9c-3.5,0.8-7.1,1.7-10.6,2.5c-4.4,1-8.7,2-13.1,3
			c-2,0.5-4,1-6,1.4s-4.1,0.9-6.1,1.4c-0.7,0.2-1.6,0.2-1.9,1.1c0.5,0.7,1.1,0.6,1.7,0.4c1.2-0.2,2.3-0.5,3.4-0.8
			c6.6-1.6,13.2-3.3,19.8-4.9c5.6-1.3,11.1-2.8,16.7-3.9c11.6-2.2,39.3-10.9,44.9-13.3c1.5-0.6,10.8-4.6,9-3c0,0-4.8,4-5.4,4.6
			c-2.5,2.4-4.9,4.9-7.1,7.7c-0.6,0.8-1.7,2.4-2.2,3.2c-0.4,0.6-0.4,1.3,0,1.9c0,0,0.3,0.6,0.4,0.8c1.5,2.5,4.1,6.3,5.6,8.8
			c1.1,1.8,2.1,3.7,3.2,5.6c1.5,2.4,3.1,4.8,4.6,7.3c1.9,3.1,3.7,6.1,5.6,9.2c1.5,2.5,3.1,5,4.6,7.5c2.8,4.5,5.7,8.9,8.5,13.4
			c1,1.7,2,3.4,3.1,5.2c0.9,0.4,1.5-0.2,2.1-0.9l5.7-6.5L87.2,213c1.1-1.5,2.4-2.8,3.7-4.1c0.1-0.1,0.2-0.2,0.4-0.3
			c0.2,0,0.4,0,0.7,0c0,0,0.1,0,0.1,0c0,0,0.1,0.1,0.1,0.1s0,0,0,0c0.2,0.4,0.5,0.7,0.8,1l1,1.3l2,2.6l3.9,5.1
			c2.6,3.4,5.1,6.8,7.8,10.2l1,1.3c1.7,2.3,3.4,4.5,5.2,6.7c0.6,0.8,1.2,1.8,2.3,1.4c0.8-0.3,1.2-1.3,1.7-2
			c1.1-1.5,7.7-10.8,9.4-13.9c1.7-3.1,3.9-6.1,5.8-9.1c1.6-2.6,3.3-5.1,4.9-7.6c1.8-2.8,3.6-5.5,5.3-8.3c2.4-3.8,4.8-7.5,7.2-11.3
			c1.1-1.6,1.9-3.5,3-5.1c1-1.4,0.9-2.2,0-3.6c-2.7-4-5-7.9-8.3-11.4c-1.3-1.3-8.1-7.2-9.5-8.4c20.4,7,69.4,26.1,73.3,27.1
			c6,1.5,12,3.2,17.9,5.3c1.8,0.7,3.7,1.3,5.5,2c0.9,0.3,1.4,0.1,1.5-1.1C233.1,190.8,232.3,190.5,231.6,190.2z M164,48.6
			c-0.9,1.8-2.2,3.3-3.7,4.6c-2.1,2-4.6,3.4-7.4,4c-1.4,0.3-2.9,0.2-4.3-0.2c-3-1-4.3-3.2-4.4-6.5c0-4,1.6-7.8,4.3-10.7L164,48.6z
			 M142.5,15.5c0.9-0.4,1.9-0.6,2.9-0.8c2.6-0.4,4.1,1.4,5.5,3.1c0.3,0.5,0.3,1.1,0.2,1.6c-0.3,1.4-1.1,2.6-2.3,3.3
			c-0.2-0.6-0.4-1.1-0.6-1.7c-0.5-1.6-0.9-3.1-1.3-4.7c-0.1-0.7-0.6-1.2-1.3-1.4c-0.1,0.5-0.1,1,0,1.5c0.5,2.1,1,4.3,1.5,6.4
			c0.3,0.8,0,1.7-0.8,2c-0.6,0.4-1.3,0.7-2.2,1.1c-1.2-3.3-2.3-6.4-3.4-9.6C141.2,16.1,141.8,15.8,142.5,15.5z M139.2,16.6
			c1.5,3.2,2.1,6.5,3.1,9.9l-4.4,2.1c-1.9-2.9-2.4-6.4-4.4-9.4L139.2,16.6z M136,29.3l-4.1,1.9l-3.4-8.8l3.9-2.6L136,29.3z
			 M123.6,27l3.7-3.8c1.1,3,2,5.8,3,8.7l-3.5,1L123.6,27z M124.8,33c-0.9,0.4-1.9,0.2-2.5-0.6c-1-1.2-0.2-2.4,0.3-3.7
			c0.2,0.2,0.3,0.4,0.5,0.6C123.7,30.5,124.2,31.7,124.8,33z M120.2,17.2c0.3,0,0.5,0.4,0.8,0.5c0,0,0,0.1,0.1,0.1
			c0.6,1.2,0.7,2.8,0,3.3c-1,0.8-2,0.1-3-0.4c-1.5-0.7-2.5-2-3.7-3.7C116.6,17.2,118.4,17.2,120.2,17.2L120.2,17.2z M42.6,78.2
			c1.7-11,6.1-21.4,12.9-30.2c9-11.9,21.2-20.9,35.1-26c6.5-2.4,13.4-4,20.3-4.6c0.5,0,1,0,1.6,0c0.8,2,1.5,4,2.3,6
			c0.3,0.8,0.6,1.8-0.1,2.4c-0.8,0.6-1.8,0.7-2.7,0.2c-2-0.7-3.8-1.8-5.3-3.2c-0.7-0.7-1.5-1.4-2.2-2c-1,0.2-1.3,0.7-0.9,1.6
			c0.6,1.9,1.2,3.7,1.8,5.6c0.2,0.7,0.3,1.4,0.4,2.1c-1.5,0.3-3.1,0-4.4-0.8c-1.8-1.2-3.5-2.7-4.8-4.4c-0.4-0.5-0.8-0.9-1.2-1.3
			c-1,0.5-0.9,1.2-0.7,1.9c0.4,1.4,0.8,2.7,1.1,4.1c0.4,1.6,0.6,3.3,0.9,4.9c0,0.4-0.1,0.9-0.2,1.3c-1.4,0-2.9-0.4-4.1-1.2
			c-1.9-1.2-3.6-2.7-5.1-4.4l-1.8-1.7c-1.1,0.3-1,0.9-0.8,1.6c0.6,1.9,1.2,3.8,1.7,5.8c0.2,1,0.3,2.1,0.2,3.2c0,1.1-0.8,1.6-1.9,1.6
			c-2.2,0-3.9-1.3-5.5-2.7c-1.4-1.2-2.7-2.5-4.1-3.8c-0.8,0.5-0.8,1-0.6,1.8c0.7,2.3,1.4,4.7,2,7.1c0.1,0.8,0.1,1.6,0,2.4
			c-1.1,0.2-2.3,0-3.3-0.7c-2.5-1.4-4.8-3.2-6.7-5.3c-0.9,0.3-1.2,0.6-0.9,1.6c0.7,2,1.3,4,1.9,6.1c0.4,1.2,0.7,2.3,1,3.5
			c0.1,0.6,0.1,1.2,0,1.9c-1.7,0.3-3.4-0.2-4.7-1.3c-1.5-1.2-2.8-2.6-4.2-3.9c-0.2-0.2-0.5-0.4-0.8-0.6c-0.9,0.8-0.5,1.7-0.2,2.5
			c1,2.4,2.2,4.7,2.9,7.2c1,3.3,1.8,6.7,2.7,10.1c0,0.3,0,0.5,0,0.8c-1.8-1.2-3.4-2.7-4.6-4.6c-1.1-1.7-2.2-3.5-3.3-5.3
			c-0.2-0.2-0.3-0.5-0.5-0.7c-0.2-0.1-0.5-0.1-0.8-0.1c-0.2,0.2-0.3,0.4-0.3,0.7c0.2,0.6,0.4,1.2,0.7,1.7c2.2,3.6,4.3,7.2,6.5,10.8
			c2.8,5,5.3,10.2,7.5,15.4c1.8,4,3.6,8,5.4,12c0.2,0.6,0.4,1.3,0.6,1.9c-1.4-0.6-2.6-1.6-3.5-2.8c-2.4-2.8-4.5-5.8-6.2-9
			c-0.8-1.4-1.6-2.8-2.3-4.3c-0.2-0.4-0.4-0.9-0.5-1.3c0.4-0.4-0.6-1.3-0.8-1.5c-0.7-0.6-1.5-1-2.4-1.2c-2.2-0.6-4.4-0.8-6.6-0.6
			c-4.1,0.4-7.9,2-11.1,4.5C42.3,81.4,42.4,79.8,42.6,78.2L42.6,78.2z M67.6,232.5c-0.6-0.9-1.2-1.7-1.7-2.5
			c-3.7-6-7.4-12-11.1-17.9s-7.4-11.9-11.1-17.8c-3.3-5.2-7.6-11.8-10.9-17c-0.1-0.2-0.2-0.3-0.3-0.5c0.2-0.1,3.2-4.8,4.5-6.4
			c3-3.6,6.2-7,9.8-10.1l2.6-2.4c1.7-1.4,3.1-3.3,4-5.4c0.1,0.6,0,3.2-0.1,3.6c0,0.2,0,0.4,0,0.6c-0.3,4.5-0.7,9-1,13.5
			c-0.1,1.7-0.3,3.4-0.4,5.1c0,0.4,0.2,0.9,0.5,1.1c5,4.1,10,8.2,15,12.3c4.8,3.9,9.7,7.7,14.6,11.6c2.8,2.2,5.5,4.4,8.4,6.7
			C82.7,215.4,75.2,223.9,67.6,232.5L67.6,232.5z M90.5,204.3c-8.3-6.6-16.7-13.1-25-19.6c-4.1-3.2-8.3-6.4-12.3-9.5
			c0.3-1.2,1.8-20,1.5-22.2c-0.5-5.1,0.4-10,0.8-15c0.3-3.3,0.5-6.5,0.7-9.8c0.1-1.2,0-2.3,0-3.6c0,0,3.2-0.6,3.5-0.7
			c1.1-0.3,2.3-0.7,3.3-1.2c1-0.5,2.1-1.1,3-1.7c0.6-0.4,1.2-0.8,1.7-1.3c0.5-0.8,0.1-1.6-0.7-0.8c-0.9,1-2,1.7-3.2,2.3
			c-3.2,1.8-6.8,2.6-10.4,2.3c-5.7-0.4-10.8-3.4-14-8.1c-4.2-5.6-5.5-12.8-3.7-19.6c1.8-7.2,6.2-12.4,13.3-15
			c3.5-1.1,7.3-1.2,10.8-0.1c0.8,0.2,1.5,0.8,1.8,1.5c2.2,5,5,9.7,8.3,14c1.3,1.9,2.9,3.4,4.9,4.5c1.2,0.6,2,0.2,2-1.2
			c0-0.8-0.2-1.7-0.6-2.4c-1.4-3.3-2.9-6.7-4.4-10c-2.6-5.5-5.2-11-7.7-16.5c-0.3-0.5-0.5-1-0.8-1.7c2.2,0.2,2.7-0.3,2.6-2.2
			c0-0.3,0-0.7-0.1-1c-0.8-4.3-2-8.5-3.6-12.6c-0.2-0.5-0.4-1-0.5-1.6c1.6,1.6,3.7,2.5,6,2.4c1.7-0.1,2.8-1,2.5-2.6s-0.7-3.2-1-4.8
			c-0.2-1-0.6-2-1-3.4c1.5,1,2.6,1.7,3.8,2.4c1.1,0.6,2.3,1.2,3.5,1.5c1.4,0.4,2.3-0.3,2.7-1.8c0.2-1.3,0.1-2.7-0.3-4
			c-0.2-0.9-0.3-1.8-0.5-2.7c0.9,0.4,1.8,0.9,2.6,1.5c1.7,1,3.4,2.2,5.6,1.7c1.9-0.4,2.9-1.2,3-3.2c0-1.3-0.2-2.6-0.4-3.8
			c-0.1-0.6-0.3-1.2-0.5-2.1c1,0.9,1.8,1.5,2.6,2.2c1.5,1.3,3.4,2.1,5.3,2.2c2.2,0.1,3-1.1,2.9-2.6c-0.1-1-0.1-1.9-0.3-2.8
			c-0.2-1.1-0.5-2.3-0.8-3.7c0.9,0.7,1.6,1.3,2.3,1.8c1.8,1.3,3.8,2.3,6.1,2c1.3-0.2,1.8-0.6,1.8-2c-0.1-1-0.3-2-0.6-2.9
			c-0.2-0.7-0.4-1.4-0.8-2.4c0.9,0.6,1.5,1,2.1,1.3c1.8,1.2,3.9,1.8,6,1.7c1.6-0.1,2.3-0.7,2.5-2.2c0.1-0.8,0-1.6-0.1-2.3
			c-0.1-0.5-0.2-1-0.3-1.4c0.8,0.4,1.7,0.8,2.6,1c1.2,0.2,2.6,0.3,3.6-0.5c1.2-1.1,0.8-3,0.7-4.4c2.5-0.1,5.2-0.1,7.4,1
			c0.1,0.1,0.2,0.1,0.3,0.2c0.2,0.4-0.7,0.8-0.9,0.9c-2.5,1.5-4.7,3.4-6.7,5.6c-1.4,1.4-2.3,3.3-2.6,5.3c-0.1,0.7,0.1,1.3,0.4,1.9
			c0.8,1.5,2.5,2.2,4.2,1.7c2.1-0.3,4.1-0.8,6-1.6c5.6-2.5,11.5-4.4,16.8-7.8c0.6-0.5,1.4-0.5,2,0c2.8,1.8,5.5,3.6,8.3,5.5
			c0.7,0.5,1.3,1,1.9,1.6c-1,0.1-2,0.3-2.9,0.5c-6.8,2.1-12,7.6-13.7,14.5c-0.6,2.1-0.6,4.3,0.1,6.3c0.6,2.1,2.2,3.8,4.4,4.6
			c2.1,0.6,4.4,0.6,6.4-0.1c5-1.5,8.7-5,11.3-9.5c1.4-2.4,2.2-5.1,2.4-7.8c0.9,1,1.6,2.1,2.3,3.2c1.9,2.7,3.4,5.6,4.6,8.7
			c0.7,2,1.4,4,2,6c0.8,2.4,1.3,4.8,1.7,7.3c0.2,1.6,0.3,3.2,0.3,4.8c-0.1,3.5,0.2,7.1-0.4,10.6s-0.8,7.3-2.4,10.7
			c-0.8,1.7-1.3,3.6-2,5.3c-3.9,9.5-9.9,18-17.5,24.9c-11.6,10.9-26.3,17.9-42,20.3c-5.5,0.8-11,1-16.5,0.7c-4.4-0.3-8.8-1-13-2.2
			c-2-0.6-4.1-1.2-6.1-1.9c-1.7-0.6-3.4-1.5-5.1-2.2c-0.3-0.1-2.2-1.2-2.5-0.8c-0.4,0.6,4.2,2.6,4.7,2.9c3.1,1.2,6.2,2.3,9.3,3.2
			c5.4,1.5,11,2.2,16.7,2.3c6.9,0.2,13.7-0.6,20.3-2.3c0.1,0.7,0.2,1.3,0.4,2c0.5,2.1,1.3,5.7,2,8.4c0,0,1.8,6.7,2.2,8.7l0.8,4.4
			c0.4,2.2,0.8,4.4,1.2,6.6c0.2,0.7-0.1,1.4-0.7,1.9c-0.9,0.8-1.9,1.6-2.8,2.4c-5.7,4.9-11.4,9.8-17.2,14.8l-5.8,5.1
			c-3.1,2.7-6.1,5.4-9.2,8.1C92.2,205.4,91.9,205.4,90.5,204.3L90.5,204.3z M147.6,171.5c1.8,2.5,3.3,5.1,5.1,7.8
			c-2.1,3.3-4.2,6.5-6.3,9.7c-1.3,2-2.5,3.9-3.8,5.9c-2.1,3.1-3.8,6.4-6.1,9.4c-1.9,2.5-3.5,5.4-5.2,8.1c-1.1,1.7-2,3.4-3.1,5.1
			s-2.2,3.4-3.3,5.1c-0.8,1.3-5.4,8.6-6.5,10.2c-0.4,0.7-0.9,1.5-1.3,2.2c-0.3,0.5-0.8,1.3-1.4,1.2c-0.4-0.1-0.7-0.7-1-1l-10.8-13.8
			c-3.6-4.6-7.2-9.1-10.7-13.7l-0.3-0.4c0.7-0.6,32.8-28.8,34.5-30.3c0.7-0.6,1.5-1.2,2.2-1.7c1.1-0.8,1.5-2.1,1.2-3.4
			c-0.6-2.9-0.9-5.3-1.5-8.2c-0.4-2-2.5-9.6-2.6-9.8C135,158,142.2,164.1,147.6,171.5L147.6,171.5z"/>
		<path d="M95.2,41.6c-0.2,0-0.3,0-0.5,0c-1.8,0.3-3.5,0.6-5.3,1c-2,0.4-3.3,1.8-4.9,2.9c-5,3.6-9.2,8.3-12.3,13.7
			c-0.9,1.7-1.4,3.6-1.6,5.6c0.2,0.8,0.5,1.6,1,2.4c1.1,1.3,2.8,1.7,4.4,1.1c0.7-0.3,1.4-0.6,2.1-1.1c3.3-2,6.3-4.3,9-7
			c2.7-2.6,5.6-5.1,8.1-7.8c1.4-1.5,2.5-3.2,3.3-5C100.1,44,98.7,41.8,95.2,41.6z M75.5,66.8c-1.9,0.6-3.4,0-3.3-2.5
			c0.2-1.9,0.9-3.8,2-5.4c1.6,2,3.3,3.7,4,6.2C77.5,65.9,76.5,66.4,75.5,66.8z M79.7,64.3c-1.4-2.1-2.7-4-4-5.9
			c-0.5-0.6-0.4-1.6,0.2-2.1c0.8-0.9,1.5-1.9,2.4-3l4.6,8.6L79.7,64.3z M84.1,60.9l-4.9-8.7l3-3.1l4.3,8.9
			C85.6,59,84.9,59.9,84.1,60.9z M87.9,57.1c-1.6-3-3.2-5.9-4.8-8.9l3.4-2.7c1.8,2.8,3.3,5.8,4.5,8.9L87.9,57.1z M92.5,53.4
			l-4.8-8.6l3.9-1.5c1.2,2.4,2.3,4.6,3.5,6.9L92.5,53.4z M97.6,45.4c-0.2,1.1-0.8,2.2-1.6,3L93.1,43c1,0,2.1,0.1,3.1,0.2
			C97.5,43.4,97.9,44.2,97.6,45.4z"/>
		<path d="M157.8,95c-0.8,0-1.7,0-2.4,0c0.5-1.2,0.9-2.4,1.2-3.6c0.2-1-0.4-2.1-1.4-2.3c-0.1,0-0.2,0-0.4,0
			c-1.1-0.1-2.2-0.1-3.3,0.1c-2.3,0.4-4.5,1.5-6.2,3.2c-0.6,0.6-1.2,1-1.8,1.5c-0.6-0.4-1.1-0.8-1.7-1.2c-0.3-0.2-0.6-0.4-1-0.2l0,0
			c0,0,0,0.1,0,0.1c0,0.4,0.4,0.7,0.6,1l0.8,0.9c0.5,0.6,1.1,1.2,1.6,1.8c1.8,1.9,3.3,4,4.7,6.2c0.6,0.9,1,1.9,1.3,2.9
			c0.3,1.2,0.5,2.3,0.7,3.5c0.1,0.6,0.1,1.2,0.1,1.8c0,0.3,0,0.6,0,0.9c0,0.2,0,0.5,0.1,0.7c0.1,0.2,0.4,0.4,0.6,0.4
			c1,0,0.9-1.6,0.8-2.2c-0.1-1-0.2-2-0.2-2.9c1-0.6,1.9-1.1,2.8-1.7c1-0.5,1.9-1.2,2.8-1.9c1.3-1,2.4-2.2,3.3-3.6
			C162.4,97.6,160.9,95.1,157.8,95z M148,99.2l-3.6-4.2c0.2-0.3,0.4-0.6,0.6-0.9c2.1-2.3,5-3.7,8.1-4c2-0.1,2.6,0.7,1.7,2.6
			c-0.9,1.7-2.2,3.2-3.8,4.4C150.1,97.7,149.1,98.4,148,99.2z M159.5,99.3c-0.4,1-1.1,1.9-2,2.6c-1.9,1.4-4,2.7-6,4l-2.5-5.3
			c2.4-2,4.9-4.2,8.4-4.3C159.6,96.3,160.4,97.4,159.5,99.3L159.5,99.3z"/>
		<path d="M151,70.5c-0.8-1.5-1.7-2.9-2.8-4.2c-2.2-2.5-4.5-5-6.7-7.4c-0.8-0.9-1.7-1.8-2.6-2.6c-0.6-0.6-1.3-1.1-2-1.5
			c-2.1-1.3-4.3-2.7-6.4-4c-0.5-0.2-0.9-0.4-1.4-0.5c-1.7-0.5-2.8,0.1-3,1.9c-0.1,1.3,0,2.6,0.3,3.8c0.7,2.9,1.7,5.7,2.2,8.6
			c0.6,3.3,1,6.7,1.5,10c0.5,3,0.9,6,2.6,8.6c0.5,1,1.4,1.6,2.5,1.7c1.1,0,1.6-1,2-1.8c0.2-0.4,0.3-0.7,0.4-1.1
			c0.3-1,0.6-2.1,0.9-3.1c0.2-0.6,0.5-1.2,0.8-1.9c0.3,0.3,0.6,0.5,1,0.7c1.1,0.6,2.3,1.2,3.5,1.6c1.5,0.4,2.2-0.4,2.2-1.9
			c0-1.2,0-2.4,0-3.7c1.1,0.1,2.2,0.1,3.3,0C151.1,73.6,151.9,72.3,151,70.5z M148.7,72.7c-1-0.1-2-0.3-2.9-0.6l-0.5-0.1
			c-0.5-0.1-0.9,0.1-1.1,0.6c0,0.1,0,0.2,0,0.4c0.3,2.3,1.1,5.2,0.2,5.3c-1.1,0-2.2-0.4-3-1.2c-0.6-0.4-1.2-0.8-1.8-1.2
			c-0.5-0.3-1.1-0.2-1.4,0.3c0,0.1-0.1,0.1-0.1,0.2c-1.2,2.9-1.6,7.3-2.7,7.4c-1.2-0.1-1.6-0.9-1.9-1.7c-1.2-4-2.2-8.1-2.9-12.2
			c-0.3-1.4-1-5.7-1.1-6.4c-0.4-1.8-2.5-9.6-2.2-10.9s0.6-1.4,1.7-1c1,0.4,2,0.8,2.9,1.4c2.4,1.5,4.9,3.1,7.2,4.8
			c1.5,1.3,2.8,2.7,4,4.3c1.6,1.8,3.1,3.5,4.6,5.3c0.8,1,1.6,2.2,2.3,3.3C150.4,71.8,149.9,72.7,148.7,72.7L148.7,72.7z"/>
		<path class="st2" d="M40.5,313.4l41.8-57l28.4-46.1c-4.5-9.7-6.3-20.5-7.4-31.1c-0.3-3.6-0.4-7.5,1.7-10.4c2-2.8,5.5-4,7.8-6.5
			c3.3-3.4,3.8-8.5,4.4-13.2c0.6-5,1.4-9.9,2.5-14.9c0.4-2,0.6-4.1,0.7-6.2c0.2-2.2,1.8-4,2-6.2c0.1-0.8,0-1.6,0.1-2.4
			c0.4-1.5,0.9-3,1.7-4.4c1-2.3,1.3-4.7,2.4-6.9s3.2-4.2,5.7-3.9c1.9,0.3,3.5,1.7,4.2,3.5c0.6,1.8,0.8,3.7,0.6,5.6
			c-0.3,3.5-0.8,7-1.6,10.5c-1.1,5.7-2.6,11.5-3.4,17.3c-0.7,5.3-0.5,11.1-0.5,16.4c0-2.8,3.8-7.4,5.8-9c2.4-1.9,7.5-2.6,10.2-1
			c1.2,0.8,2.1,2.2,2.2,3.6c0.2,1.5,0.1,2.9-0.2,4.4c-0.2,1-0.3,2.1-0.5,3.1c1.4-0.8,1.7-2.4,2.6-3.6c0.8-1.1,1.9-2,3.1-2.6
			c1.5-0.7,3.1-1,4.8-1c0.5-0.1,1,0,1.4,0.2c0.3,0.2,0.6,0.5,0.7,0.8c0.9,1.4,2.4,2.5,2.3,4.2c-0.1,2.5-1.6,4.9-1.2,7.4
			c-0.1-0.4,2.6-1.5,3-1.7c1.5-1.1,2.8-2.3,4-3.6c0.3-0.3,0.6-0.6,0.9-0.8c0.9-0.5,2-0.6,3-0.3c2.4,0.4,3.1,1.4,4,3.5
			c0.8,1.8,1.3,3.8,1.3,5.7c-0.1,1.1-0.3,2.3-0.6,3.4c-2,8.3-4,16.6-7.1,24.4c-0.8,1.9-1.5,3.8-2.1,5.8c-0.4,1.5-0.5,3-0.8,4.4
			c-0.7,2.9-1.7,5.6-2.9,8.3c-1.2,3.3-2.9,6.3-5,9.1c-1,1.3-2.3,2.4-3.7,3.2c-1.3,0.8-2.9,0.9-4.2,1.5c-2.4,1.2-2.4,11.6-3.1,14
			c-7.4,26-15.8,45.6-23.2,71.7c-3.1,10.8-6.5,22.2-14.8,29.8c-7.8,7.3-18.8,10-29.5,11.2c-4.5,0.5-9.1,0.9-13.6-0.2
			c-4.7-1.4-9-3.8-12.6-7.1C47.3,338.8,42.7,324.7,40.5,313.4z"/>
		<path class="st1" d="M40.5,315l30.2-42.1l34.5-52.2l43.8,20.5c-0.9,5.4-1.9,10.9-2.9,16.3c-3.7,20.8-9.1,46.7-12.9,67.5
			c-1,5.4-18.6,43.5-25.8,52.2c-3.2,4.2-6.9,8-10.9,11.4c-5,4-10.9,6.9-16.8,9.4c-11.3,4.9-23.2,9.1-35.5,9.8
			c-14.7,0.8-29.3-3.4-42.5-9.9s-25.1-15.3-36.8-24.2c-6.6-5-13.2-9.8-18.3-16.4c-5.5-6.9-10.2-14.3-14-22.2
			c-7.8-16.8-13-34.7-15.6-53c-0.7-5.3-1.3-10.7-0.1-15.9s4-10.1,7.2-14.5c2.4-3.5,5.4-6.7,8.9-9.2c7-4.9,15.9-5.9,24.4-6.8
			c3.7-0.4,7.8-0.9,10.9,1.5c1.3,1.2,2.6,2.6,3.8,4l9.6,10.4l25.7,27.8l23,25C31.1,304.8,40.8,314.7,40.5,315z"/>
		<path d="M39.7,314.2c0.4-0.4,0.6-0.6,0.8-0.8c1.8-2.4,3.7-4.7,5.5-7.2c1.5-2,2.7-4.1,4.2-6.1c3.3-4.5,6.6-9,9.9-13.6
			c3.8-5.2,7.4-10.4,11.1-15.6c0.8-1.1,1.4-2.4,2.2-3.6c1.2-1.9,2.5-3.8,3.7-5.7c0.9-1.4,1.6-2.8,2.5-4.2c1.6-2.4,3.3-4.8,4.9-7.2
			c0.7-1.1,1.3-2.2,2-3.3c1.5-2.5,3.1-4.9,4.7-7.4c0.8-1.3,1.9-2.4,2.8-3.8c1-1.5,1.8-3.1,2.7-4.6s2.1-3,3.1-4.6
			c0.4-0.6,0.6-1.3,1-1.9c2-3,4-6,5.9-9c1-1.5,1.8-3.1,2.8-4.6c0.3-0.5,0.6-1.3,1.4-0.8s0.3,1.1,0,1.6c-1.4,2.2-2.8,4.5-4.2,6.7
			l-0.6,1c14.5,6.4,28.7,13.5,43.4,19.6c0.8-3.6,1.6-7.1,2.4-10.8c-0.6,0.2-1.2,0.4-1.8,0.5c-0.7,0.1-1.3,0.2-2,0.1
			c-0.3-0.1-0.5-0.6-0.7-1c0.2-0.2,0.4-0.4,0.7-0.5c3.8-0.6,7.3-2.3,10.1-5c2.1-2.1,3.9-4.5,5.1-7.3c2-4.3,3.7-8.8,5.1-13.3
			c1.2-3.5,2.4-7,3.5-10.5c1.2-4,2.3-8,3.4-12c0.6-2.1,1.4-4.3,1.9-6.4c0.7-3,1-6,1-9.1c-0.1-2-0.9-3.9-2.3-5.3
			c-1.2-1.3-3-1-4.6-0.4c-1,0.4-2,1.1-2.8,1.9c-1.4,1.4-2.8,2.8-4,4.4c-0.6,0.9-1.1,1.9-1.5,2.9c-0.4,0.9-0.3,0.9-1.8,1.1
			c0.2-0.9,0.3-1.6,0.5-2.4c0.6-2.7,1.3-5.4,1.9-8c0.5-2.2-0.5-4.1-1.5-5.9c-0.2-0.4-0.8-0.5-1.3-0.7c-0.3-0.1-0.7,0.1-1,0
			c-3.5-0.5-5.6,1.3-7.1,4.2c-1,2-1.7,4.1-2.1,6.4c-0.1,0.6-0.2,1.1-0.4,1.6c-0.2,0.9-0.7,1.1-1.5,0.9c-0.3-1-0.2-2,0.2-2.9
			c0.7-2.7,1.1-5.5,1.1-8.3c0.3-4.6-2.7-6.2-6.6-6c-2.5,0.1-4.8,1.3-6.2,3.4c-1.9,2.8-4,5.4-5.1,8.6c-1.3-0.2-1.4-0.2-1.3-1.4
			c0.3-3.2,0.7-6.4,1-9.5c0.2-2.2,0.4-4.5,0.7-6.7c0.6-3.9,1.5-7.8,2.2-11.7c0.9-5.2,1.7-10.4,2.5-15.6c0.2-2.1,0.1-4.3-0.3-6.4
			c-0.3-1.8-1.6-3.2-3.4-3.6c-1.7-0.7-3.7-0.2-5,1.2c-1.1,1.2-1.9,2.5-2.4,4c-1.4,4-2.5,8-3.7,12c-0.3,0.8-0.2,1.8-0.4,2.7
			c-0.5,2.3-1.1,4.7-1.6,7c-0.4,1.7-0.7,3.5-1,5.3c-0.3,1.5-0.6,3.1-0.8,4.6c-1,5.9-2,11.8-2.6,17.8c-0.4,2.8-1,5.5-1.8,8.2
			c-0.9,3.9-1.9,7.7-2.7,11.6c-1,4.9-2.1,9.8-2.3,14.8c-0.2,4.2,0.5,8.3,2,12.2c0.7,1.7,1.7,3.2,3,4.4c0.2,0.3,0.6,0.4,0.7,0.7
			s0.2,0.8,0,0.9s-0.8,0.4-1,0.3c-0.6-0.4-1.1-0.8-1.5-1.3c-2.1-2.6-3.6-5.8-4.2-9.1c-0.2-0.8-0.5-1.6-0.8-2.3c-1.2-2.4-2-5-2.5-7.6
			c-0.4-2.7-0.9-5.3-1.2-8c-0.4-3.2-0.6-6.5-0.6-9.7c0.1-5,2.7-8.8,6.5-11.8c1-0.8,2.2-1.6,3.3-2.4c0.5-0.3,1-0.5,1.6-0.6
			c0.2-1.8,0.5-3.6,0.7-5.5c0.5-5.6,1.4-11.2,2.5-16.8c1-5.3,2-10.6,3.3-15.8c1-4.3,2.4-8.4,3.8-12.6c0.4-1.1,1-2.1,1.7-3.1
			c2-3,6-3.8,9-1.9c1.5,1,2.5,2.5,2.8,4.2c0.3,1.8,0.4,3.6,0.2,5.3c-0.7,5-1.6,10-2.4,15c-0.7,4.4-1.6,8.8-2.2,13.3
			c-0.4,3.1-0.6,6.3-0.9,9.4c-0.3,1.1-0.4,2.3-0.2,3.5c0.4-0.6,0.7-0.9,1-1.3c1.2-1.6,2.2-3.3,3.5-4.7c2.3-2.6,7.6-3.6,10.8-2
			c2,0.9,3.3,2.8,3.5,5c0.1,0.7,0.1,1.4,0.1,2.5c0.4-0.3,0.7-0.7,1-1.1c2.2-3,6.2-3.9,9.5-2.2c1.5,0.8,2.5,2.3,2.8,4
			c0.5,1.7,0,3.5-0.1,5.2c-0.1,0.7-0.3,1.3-0.5,2.3c0.9-1.1,1.7-1.9,2.4-2.7c1.6-1.7,3.4-3.1,5.9-3.3c2.1-0.2,4,0.8,5.1,2.6
			c2.2,3.2,2.2,6.7,1.6,10.2c-0.4,2.3-1,4.6-1.7,6.8c-1.3,4.6-2.7,9.1-4.1,13.7c-0.7,2.5-1.3,5-2.1,7.4c-0.6,1.9-1.4,3.9-2,5.8
			c-0.5,1.4-0.9,2.8-1.3,4.1c-0.3,0.9-0.7,1.6-1,2.5c-1.2,3.7-2.8,7.2-4.7,10.5c-1.2,2.1-2.8,3.8-4.7,5.2c-1.5,1.1-3.1,2-4.6,3
			c-0.9,4.8-1.8,9.6-2.7,14.4c-1.1,5.7-2.1,11.3-3.2,17c-1.3,6.7-2.6,13.3-3.8,20c-1.3,6.5-2.4,13.1-3.7,19.7
			c-0.9,4.7-1.9,9.5-2.8,14.2c-0.6,3.1-1.2,6.3-1.8,9.4c-0.1,0.7-0.3,1.3-0.4,2s-0.6,1-1.5,0.9c0.1-1.1,0.2-2.3,0.4-3.4
			c0.9-4.5,1.8-9,2.7-13.5c0.9-4.3,1.7-8.7,2.5-13c0.9-4.7,1.7-9.4,2.6-14c0.9-4.5,1.8-9,2.7-13.5c0.1-0.5,0.2-1.1,0.3-1.9
			c-17.7-7.6-34.8-16.2-52.2-24.5c-0.2,0.2-0.5,0.4-0.7,0.6c-2.9,4.6-5.8,9.3-8.8,13.9c-3.6,5.5-7.2,11.1-11,16.5
			c-3.2,4.7-6.6,9.3-10,14c-1.8,2.5-3.7,5-5.5,7.6c-2.1,3-4.1,6.2-6.3,9.1c-3.4,4.6-6.6,9.3-9.9,14c-0.6,0.8-1,1.9-2.4,1.6
			c-0.4-1.8,1.3-2.6,1.8-4l-5.6-6.2l-20-21.7c-3.6-3.9-7.2-7.8-10.8-11.8c-7.7-8.4-15.4-16.8-23.1-25.2c-4.2-4.6-8.4-9.2-12.6-13.8
			c-0.4-0.5-1.4-1-0.5-1.8c0.7-0.6,1.2,0.3,1.6,0.8c9.3,10.1,18.6,20.3,28,30.5c6.9,7.5,13.8,15.1,20.7,22.6
			c4.8,5.2,9.5,10.4,14.2,15.6c2.8,3.1,5.6,6.2,8.4,9.2C39.5,313.7,39.6,313.9,39.7,314.2z M92.5,240.6
			c17.4,8.2,34.4,16.5,51.8,24.5c1.6-8.2,3.1-16.1,4.6-23.9l-43.8-20.5L92.5,240.6z M113.9,161.5c-1.9,0.9-3.6,2.2-5,3.8
			c-2.5,2.3-3.9,5.6-4,9c0,2.9,0.1,5.7,0.4,8.6c0.3,3.1,0.8,6.2,1.3,9.3c0.2,0.9,0.4,1.8,0.6,2.6
			C108.6,183.4,111.2,172.5,113.9,161.5z"/>
		<path d="M128.4,144.1c-1.4,0.6-3,0.8-4.5,0.3c-2.2-0.6-3-3-1.3-4.4c0.9-0.7,1.7-1.4,2.6-2.3c-0.5-0.3-0.9-0.6-1.3-0.9
			c-0.8-0.5-1-1.5-0.5-2.3c0.1-0.1,0.2-0.3,0.3-0.4c0.8-0.8,1.7-1.5,2.6-2.1c0.5-0.3,1-0.6,1.5-0.8l-2.6-1.5l0.2-0.4
			c0.6,0.1,1.2,0.3,1.8,0.4l3.4,0.8c0.6,0.1,1,0.5,0.8,1.3c-2.2,0.1-4.2,1-5.8,2.5c-0.3,0.3-0.8,0.9-0.7,1.1
			c0.3,0.5,0.7,0.8,1.2,0.9c0.7,0.2,1.3,0.2,2,0.2c0.4,0,0.9,0,1.3,0c0.3,0.1,0.7,0.4,0.6,0.6c-0.1,0.3-0.3,0.6-0.6,0.8
			c-0.9,0.2-1.8,0.4-2.7,0.8c-1.1,0.6-2.2,1.4-3.1,2.2c-0.7,0.6-0.5,1.1,0.2,1.7c0.8,0.6,1.9,0.7,2.9,0.4
			C127.5,142.9,128.1,143.1,128.4,144.1z"/>
		<path d="M127.2,112.2c0.3-1.1,0.7-2.1,1-3.2c0.1-0.7,0.8-1.1,1.4-0.9c0,0,0.1,0,0.1,0c1.4,0.2,2.9,0.4,4.3,0.6
			c0.6,0.1,0.9,0.1,1,1c0,0.5,0.9,1,0.5,1.8c-0.4,1.4-1.1,2.7-2.1,3.8c-0.9,0.9-2.3,1.3-3.6,0.9C128.2,115.7,127.1,114,127.2,112.2z
			 M129,109.3c-0.1,1.2-0.1,2.4-0.1,3.7c0,1,0.6,1.9,1.5,2.2c1,0.1,1.9-0.3,2.5-1.1c0.2-0.3,0.4-0.5,0.5-0.8c0.4-1,0.7-2,1-3
			L129,109.3z"/>
		<path d="M156.1,170.3l-2.8-1.3c0.7-1.2,0.9-1.3,2.1-0.6C156.6,168.9,156.6,169,156.1,170.3z"/>
		<path d="M141.5,163.1c-0.4,0.5-0.9,1.1-1.5,0.8c-0.6-0.4-1.1-0.8-1.6-1.4c-0.1-0.1,0-0.5,0.2-0.6c0.2-0.1,0.5-0.2,0.8-0.1
			C140,162.1,140.6,162.6,141.5,163.1z"/>
		<path d="M166.6,173.3c1.1,0.1,2-0.3,3,0.5c-0.3,0.3-0.6,0.9-0.8,0.9c-0.7,0-1.4-0.1-2.1-0.3C166.6,174.3,166.6,173.7,166.6,173.3z
			"/>
		<path d="M131,124.3c-1.4,1-2,0.8-3.2-0.7C128.9,123.4,130.1,123.6,131,124.3z"/>
		<path d="M108.8,235.1c-1.1,1-2.6,1.4-4,0.9c-1.3-0.3-2.1-1.6-1.8-2.8c0.1-0.4,0.3-0.8,0.7-1.2c0.8-0.8,1.6-1.4,2.8-0.9
			c1.2,0.3,2,1.3,2.1,2.5C108.7,234.1,108.7,234.6,108.8,235.1z M107,234.2c-0.1-0.3-0.2-0.7-0.3-1c-0.2-0.5-0.7-0.7-1.1-0.5
			c-0.1,0-0.2,0.1-0.3,0.2c-0.3,0.3-0.5,0.6-0.7,1c0.4,0.2,0.8,0.4,1.3,0.6C106.2,234.6,106.5,234.4,107,234.2z"/>
	</g>
</g>
</svg>
