<?xml version="1.0" encoding="utf-8"?>
<!-- Generator: Adobe Illustrator 24.0.1, SVG Export Plug-In . SVG Version: 6.00 Build 0)  -->
<svg version="1.1" id="Layer_1" xmlns="http://www.w3.org/2000/svg" xmlns:xlink="http://www.w3.org/1999/xlink" x="0px" y="0px"
	 viewBox="0 0 216.2 342.8" style="enable-background:new 0 0 216.2 342.8;" xml:space="preserve">
<style type="text/css">
	.st0{clip-path:url(#SVGID_2_);}
	.st1{fill:#F1F2F2;}
	.st2{fill:#9F8BEA;}
	.st3{fill:#F2A7DF;}
	.st4{fill:#F2EBAF;}
	.st5{fill:#FFFFFF;}
</style>
<title>Mesa de trabajo 18</title>
<g>
	<defs>
		<rect id="SVGID_1_" y="5.5" width="215.8" height="337.3"/>
	</defs>
	<clipPath id="SVGID_2_">
		<use xlink:href="#SVGID_1_"  style="overflow:visible;"/>
	</clipPath>
	<g class="st0">
		<path class="st1" d="M188.7,113.6c0.5,0.6,0.9,1.1,1.3,1.5c0.5,0.5,1,1,1.6,1.4c2,1.6,4.6,2.4,7.1,2.3c1.1,0,2.3-0.2,3.3-0.6
			c1.9-0.7,2.9-2.8,2.2-4.7c0-0.1,0-0.1-0.1-0.2c-0.3-0.7-0.6-1.3-0.9-1.9c-1.9-5.2-5.3-9.4-9.1-13.2c-3.4-3.1-6.9-6-10.6-8.8
			c-2.2-1.7-4.6-3.1-7-4.6c-2.1-1.4-4.1-2.8-6.2-4.1c-1.5-1-3.1-2-4.7-2.8c-2.2-1-4.5-1.9-6.8-2.8c-2.1-0.8-4.3-1.6-6.4-2.3
			s-4.3-1.5-6.4-2.1c-3-0.8-6-1.4-9.1-2.1c-0.2,0-0.4-0.1-0.5-0.2c-1.4-0.3-2.7-0.7-4.1-1c-4.3-0.8-8.5-1.6-12.8-2.3
			c-2.7-0.5-5.5-1.1-8.2-1.3s-5.8-0.2-8.8-0.3c-1.6,0-3.2-0.2-4.8-0.2c-0.8,0-1.7,0.3-2.5,0.2c-1.9-0.1-3.8,0.4-5.6,0.3
			c-2.8-0.2-5.3,0.7-7.9,1.2c-0.8,0.2-1.5,0.5-2.2,0.9c-1.7,0.8-3.3,1.6-5,2.3c-1.2,0.5-2.3,1-3.4,1.5c-0.6,0.3-1.4,0.3-2,0.6
			c-1.7,0.9-3.3,1.9-5,2.8c-1.7,0.9-3.4,2-4.9,3.2c-1.7,1.5-3.7,2.7-5,4.6c-1,1.5-2.5,2.6-4.2,3.2c-0.7,0.3-1.4,0.8-1.9,1.4
			c-1.7,1.7-3.3,3.4-4.9,5.1c-1.4,1.5-2.8,3-4.2,4.5c-1.8,1.9-3.6,3.9-5.3,5.9c-2.5,2.6-4.6,5.5-6.3,8.7c-1.2,1.9-1.7,4.1-1.7,6.3
			c0,2.1,1.7,3.9,3.9,4c3.3,0.2,6.6-0.7,9.4-2.6c0.4-0.3,0.8-0.5,1.2-0.7c0.3,0,0.5,0.1,0.7,0.3c0.1,0.2,0.1,0.4,0,0.6
			c-0.2,0.3-0.4,0.6-0.7,0.9c-2.4,2.3-4.4,5-6,8c-1.9,3.6-3.4,7.4-4.4,11.3c-0.2,1.3-0.3,2.7-0.2,4.1c0,0.8,0.6,1.6,1.4,1.8
			c0.6,0.2,1.3,0.4,1.9,0.4c2.3,0.3,4.5-0.5,6.6-1.3c3.5-1.5,6.6-3.9,8.9-6.9c1.8-2.2,3.5-4.4,5.2-6.6c0.3-0.4,0.7-1,1.4-0.6
			s0.2,1,0,1.5c-0.8,1.8-1.8,3.5-2.5,5.2c-2.3,5-3.4,10.4-3.3,15.9c0.2,3.8,2.5,7.2,6.1,8.6c2.2,0.7,4.8,0.3,6.2-1.3
			c0.7-0.8,1.3-1.6,1.8-2.5c1.4-2.5,2.8-5,4.1-7.6c0.8-1.6,1.6-3.3,2.4-5c0.2-0.3,0.6-0.7,0.9-0.7c0.5,0.1,0.7,0.6,0.6,1.1
			c-0.1,0.9-0.3,1.9-0.3,2.8c-0.3,2.5-0.2,5.1,0.4,7.6c0.8,3.1,3.5,5.2,6.7,5.3c0.5,0,1,0,1.4,0.1c0.8,0.1,1.5-0.1,2.1-0.7
			c1.3-1.2,2.5-2.4,3.7-3.7c1.6-1.7,2.7-3.6,3.4-5.8c0.7-2.1,1.4-4.1,2.2-6.1c0.6-1.6,1.3-3.2,1.9-4.9c1.1,0.5,1.9,1.4,2.3,2.5
			c0.5,1,0.9,2.1,1.4,3.1c1.7,3.2,3.6,6.2,5.8,9.1c1.7,2.4,4.2,4,7,4.8c2,0.6,4.1,0.4,5.9-0.6c3.3-1.7,5.7-4.7,6.7-8.2
			c0.4-1.4,0.7-2.7,0.8-4.1c0.1-0.7,0.3-1.2,1.3-1.2c0.1,0.4,0.2,0.8,0.2,1.2c0,1.8,0.2,3.7,0.8,5.4c1.1,4.2,3.9,7.7,7.7,9.7
			c2.8,1.5,3.5,1,5-1.4c0.1-0.1,0.1-0.3,0.2-0.4c1.5-2.6,2.6-5.5,3.1-8.5c0.2-1.1,0.3-2.1,0.3-3.2c0-1.1,0.1-1.2,1.4-0.8
			c0,1.3,0.4,2.5,1.2,3.5c0.2,0.3,0.4,0.7,0.6,1c1.6,2.8,3.9,5.2,6.7,6.8c1.8,1.1,3.9,1.5,6,1.1c0.7-0.1,1.3-0.5,1.8-1
			c0.7-1.2,1.3-2.4,1.7-3.7c0.4-1.4,0.5-2.8,0.1-4.2c-0.3-1,0-1.3,1.1-1.5c0.2,0.4,0.3,0.9,0.3,1.3c0,1.1,0.5,2,1.3,2.7
			c1.4,1.5,3.2,2.5,5.1,3.2c2.5,0.9,5.2,1.4,7.9,1.6c2.5,0.2,5-0.5,7-2.1c1-0.7,1.6-1.9,1.8-3.1c0.2-1.7,0-3.4-0.7-5
			c-1.5-3.5-2.9-7-4.3-10.5c-0.4-1-0.8-2.1-1.2-3.2c-0.1-0.4-0.1-0.9,0.4-1.1s0.7,0.2,0.8,0.6c0.7,1.4,1.7,2.6,2.9,3.4
			c4,3.3,9.7,3.5,13.9,0.4c0.5-0.4,0.9-0.9,1.1-1.4c0.6-1.3,0.5-2.8-0.1-4c-0.9-1.6-1.7-3.2-2.6-4.7c-2.3-3.8-4.1-7.9-7.2-11.2
			c-0.1-0.1-0.1-0.1-0.2-0.2C187.6,114.5,187.6,114.4,188.7,113.6z"/>
		<path d="M162,152.9c-0.3,0.9-0.5,1.7-0.7,2.5c-0.2,0.9-0.7,1.8-1.4,2.4c-0.2,0.1-0.4,0.3-0.5,0.5c-0.6,1.1-1.7,1.8-3,1.7
			c-1,0-2.1-0.1-3.1-0.3c-1.7-0.3-3.2-1.1-4.5-2.2c-2.4-1.9-4.4-4.3-5.8-7c-0.2-0.3-0.4-0.5-0.6-0.8c-0.2,0.7-0.4,1.2-0.5,1.7
			c-0.6,3.1-1.9,6.1-3.7,8.8c-0.2,0.3-0.4,0.6-0.6,0.8c-0.6,0.7-1.5,1.1-2.4,1.1c-2.3,0.1-4.6-0.8-6.2-2.5c-2.4-2-4.2-4.7-5.2-7.6
			c-0.2-0.6-0.4-1.1-0.6-2c-0.3,0.7-0.6,1.1-0.8,1.6c-1.1,2.4-2.8,4.6-5,6.1c-1.9,1.3-4.1,1.9-6.4,1.9c-4.6,0-7.8-2.5-10.4-6
			c-2.4-3.3-4.5-6.9-6.1-10.7c-0.3-0.6-0.6-1.3-1-1.9c-0.7,1.6-1.3,2.9-1.9,4.2c-0.7,1.6-1.2,3.3-1.8,4.9c-1.1,3.4-3.4,6.1-5.8,8.6
			c-0.2,0.2-0.4,0.4-0.6,0.6c-1.6,2.1-3.9,2.1-6.2,1.8l-0.7-0.1c-3.4-0.5-6.2-3.1-6.7-6.6c-0.3-1.8-0.3-3.6-0.5-5.5
			c0-0.2-0.1-0.5-0.3-0.6c-0.5,1-1,1.9-1.5,2.9c-1.2,2.6-2.6,5-4.2,7.4c-2.7,4.3-8.4,3.6-11.1,1.3c-1.2-0.8-2.2-1.9-3-3.1
			c-1-1.6-1.6-3.4-1.6-5.3c0.1-1.7,0.1-3.4,0.1-5.1c0-0.1,0-0.3,0-0.4c0.6-2.5,1.2-5,2-7.5c0.3-1,0.8-2,1.1-3.1
			c-0.2,0.2-0.5,0.4-0.7,0.7c-1.5,1.6-3,3.3-4.6,4.8c-3.3,2.9-7.5,4.6-11.9,4.8c-1,0-2-0.1-2.9-0.5c-1.5-0.5-2.6-1.9-2.6-3.5
			c-0.1-2.1,0.2-4.2,0.9-6.1c0.8-2.4,1.7-4.8,2.8-7.1c1.2-2.6,2.6-5.1,4.4-7.4c0.1-0.1,0.2-0.3,0.4-0.7c-0.9,0.2-1.7,0.4-2.4,0.6
			c-1.7,0.5-3.6,0.6-5.3,0.3c-1.9-0.3-3.4-1.7-3.8-3.5c-0.6-2-0.5-4,0.3-5.9c1.2-2.9,2.8-5.7,4.9-8.1c5-5.8,10.3-11.3,15.4-17
			c0.8-0.9,1.6-1.8,2.4-2.8c0.4-0.5,1-0.9,1.7-0.9c1.2-0.1,2.3-0.8,3-1.8c1.6-1.9,3.4-3.6,5.4-5.1c3.3-2.8,7.2-4.6,10.9-6.6
			c1.8-1,3.7-1.8,5.6-2.6c2.9-1.2,5.8-2.3,8.7-3.3c1.3-0.4,2.6-0.6,4-0.7c2.1-0.2,4.2-0.4,6.3-0.5c1.9-0.1,3.8-0.1,5.7-0.2
			c4.2-0.2,8.5-0.1,12.7,0.3c3.2,0.3,6.4,1,9.6,1.5c2.7,0.5,5.5,1,8.2,1.6c1.8,0.4,3.6,0.8,5.4,1.3c3.1,0.7,6.2,1.4,9.3,2.2
			c4.1,1,8.1,2.2,12,3.7c2.6,1,5.2,1.8,7.8,2.9c2.7,1.2,5.2,2.6,7.7,4.2c3.4,2.3,6.8,4.4,10.2,6.6c0.9,0.5,1.7,1.1,2.6,1.8
			c2.8,2.2,5.6,4.4,8.2,6.7c5.1,4.4,9.4,9.5,11.8,15.9c0.4,0.9,0.7,1.7,1,2.7c0.6,2.9-1.1,5.4-4.3,6.2c-2.9,0.7-5.6,0.2-8.7-0.8
			c0.4,0.7,0.6,1.1,0.8,1.5c1.7,2.9,3.5,5.8,5.2,8.8c0.9,1.4,1.3,3.1,1.1,4.7c-0.2,1.8-1.3,3.3-2.8,4.2c-0.9,0.6-2,1.1-3.1,1.4
			c-1.3,0.3-2.7,0.4-4,0.4c-1.2,0-2.3-0.2-3.4-0.6c-0.8-0.3-1.6-0.7-2.4-1.2c-0.7-0.5-1.5-0.9-2.3-1.2c0.3,0.6,0.6,1.3,0.8,1.9
			c1.1,2.9,2.3,5.7,3.4,8.6c0.5,1.5,0.6,3.2,0.3,4.8c-0.1,1.3-0.9,2.5-2,3.3c-0.8,0.5-1.4,1.4-2.3,1.7c-1.3,0.5-2.7,0.9-4.1,1
			c-3.3-0.1-6.6-0.6-9.8-1.6c-1.9-0.6-3.6-1.6-5.1-3L162,152.9z M188.7,113.6c0.5,0.6,0.9,1.1,1.3,1.5c0.5,0.5,1,1,1.6,1.4
			c2,1.6,4.6,2.4,7.1,2.3c1.1,0,2.3-0.2,3.3-0.6c1.9-0.7,2.9-2.8,2.2-4.7c0-0.1,0-0.1-0.1-0.2c-0.3-0.7-0.6-1.3-0.9-1.9
			c-1.9-5.2-5.3-9.4-9.1-13.2c-3.4-3.1-6.9-6-10.6-8.8c-2.2-1.7-4.6-3.1-7-4.6c-2.1-1.4-4.1-2.8-6.2-4.1c-1.5-1-3.1-2-4.7-2.8
			c-2.2-1-4.5-1.9-6.8-2.8c-2.1-0.8-4.3-1.6-6.4-2.3s-4.3-1.5-6.4-2.1c-3-0.8-6-1.4-9.1-2.1c-0.2,0-0.4-0.1-0.5-0.2
			c-1.4-0.3-2.7-0.7-4.1-1c-4.3-0.8-8.5-1.6-12.8-2.3c-2.7-0.5-5.5-1.1-8.2-1.3s-5.8-0.2-8.8-0.3c-1.6,0-3.2-0.2-4.8-0.2
			c-0.8,0-1.7,0.3-2.5,0.2c-1.9-0.1-3.8,0.4-5.6,0.3c-2.8-0.2-5.3,0.7-7.9,1.2c-0.8,0.2-1.5,0.5-2.2,0.9c-1.7,0.8-3.3,1.6-5,2.3
			c-1.2,0.5-2.3,1-3.4,1.5c-0.6,0.3-1.4,0.3-2,0.6c-1.7,0.9-3.3,1.9-5,2.8c-1.7,0.9-3.4,2-4.9,3.2c-1.7,1.5-3.7,2.7-5,4.6
			c-1,1.5-2.5,2.6-4.2,3.2c-0.7,0.3-1.4,0.8-1.9,1.4c-1.7,1.7-3.3,3.4-4.9,5.1c-1.4,1.5-2.8,3-4.2,4.5c-1.8,1.9-3.6,3.9-5.3,5.9
			c-2.5,2.6-4.6,5.5-6.3,8.7c-1.2,1.9-1.7,4.1-1.7,6.3c0,2.1,1.7,3.9,3.9,4c3.3,0.2,6.6-0.7,9.4-2.6c0.4-0.3,0.8-0.5,1.2-0.7
			c0.3,0,0.5,0.1,0.7,0.3c0.1,0.2,0.1,0.4,0,0.6c-0.2,0.3-0.4,0.6-0.7,0.9c-2.4,2.3-4.4,5-6,8c-1.9,3.6-3.4,7.4-4.3,11.3
			c-0.2,1.3-0.3,2.7-0.2,4.1c0,0.8,0.6,1.6,1.4,1.8c0.6,0.2,1.3,0.4,1.9,0.4c2.3,0.3,4.5-0.5,6.6-1.3c3.5-1.5,6.6-3.9,8.9-6.9
			c1.8-2.2,3.5-4.4,5.2-6.6c0.3-0.4,0.7-1,1.4-0.6s0.2,1,0,1.5c-0.8,1.8-1.8,3.5-2.5,5.2c-2.3,5-3.4,10.4-3.3,15.9
			c0.2,3.8,2.5,7.2,6.1,8.6c2.2,0.7,4.8,0.3,6.2-1.3c0.7-0.8,1.3-1.6,1.8-2.5c1.4-2.5,2.8-5,4.1-7.6c0.8-1.6,1.6-3.3,2.4-5
			c0.2-0.3,0.6-0.7,0.9-0.7c0.5,0.1,0.7,0.6,0.6,1.1c-0.1,0.9-0.3,1.9-0.3,2.8c-0.3,2.5-0.2,5.1,0.4,7.6c0.8,3.1,3.5,5.2,6.7,5.3
			c0.5,0,1,0,1.4,0.1c0.8,0.1,1.5-0.1,2.1-0.7c1.3-1.2,2.5-2.4,3.7-3.7c1.6-1.7,2.7-3.6,3.4-5.8c0.7-2.1,1.4-4.1,2.2-6.1
			c0.6-1.6,1.3-3.2,1.9-4.9c1.1,0.5,1.9,1.4,2.3,2.5c0.5,1,0.9,2.1,1.4,3.1c1.7,3.2,3.6,6.2,5.8,9.1c1.7,2.4,4.2,4,7,4.8
			c2,0.6,4.1,0.4,5.9-0.6c3.3-1.7,5.7-4.7,6.7-8.2c0.4-1.4,0.7-2.7,0.8-4.1c0.1-0.7,0.3-1.2,1.3-1.2c0.1,0.4,0.2,0.8,0.2,1.2
			c0,1.8,0.2,3.7,0.8,5.4c1.1,4.2,3.9,7.7,7.7,9.7c2.8,1.5,3.5,1,5-1.4c0.1-0.1,0.1-0.3,0.2-0.4c1.5-2.6,2.6-5.5,3.1-8.5
			c0.2-1.1,0.3-2.1,0.3-3.2c0-1.1,0.1-1.2,1.4-0.8c0,1.3,0.4,2.5,1.2,3.5c0.2,0.3,0.4,0.7,0.6,1c1.6,2.8,3.9,5.2,6.7,6.8
			c1.8,1.1,3.9,1.5,6,1.1c0.7-0.1,1.3-0.5,1.8-1c0.7-1.2,1.3-2.4,1.7-3.7c0.4-1.4,0.5-2.8,0.1-4.2c-0.3-1,0-1.3,1.1-1.5
			c0.2,0.4,0.3,0.9,0.3,1.3c0,1.1,0.5,2,1.3,2.7c1.4,1.5,3.2,2.5,5.1,3.2c2.5,0.9,5.2,1.4,7.9,1.6c2.5,0.2,5-0.5,7-2.1
			c1-0.7,1.6-1.9,1.8-3.1c0.2-1.7,0-3.4-0.7-5c-1.5-3.5-2.9-7-4.3-10.5c-0.4-1-0.8-2.1-1.2-3.2c-0.1-0.4-0.1-0.9,0.4-1.1
			s0.7,0.2,0.8,0.6c0.7,1.4,1.7,2.6,2.9,3.4c4,3.3,9.7,3.5,13.9,0.4c0.5-0.4,0.9-0.9,1.1-1.4c0.6-1.3,0.5-2.8-0.1-4
			c-0.9-1.6-1.7-3.2-2.6-4.7c-2.3-3.8-4.1-7.9-7.2-11.2c-0.1-0.1-0.1-0.1-0.2-0.2C187.6,114.5,187.6,114.4,188.7,113.6L188.7,113.6z
			"/>
		<path class="st2" d="M-63.3,301.9c0,0,23.3-103.4,59.5-117.5S92.4,147,92.4,147l68.1,1l27.1,9.7l57,21.9c0,0,34.8,33.5,42.5,101.7
			c0,0-22.8,77.4-175.1,75.2S-63.3,301.9-63.3,301.9z"/>
		<path class="st3" d="M66.7,156l19.8-7.6l2.6-10c0,0-43.2-8.2-53.6-44.5c0,0-11.9-34.1,26.4-54.9s85,1.3,85,1.3l17.3,18.3L162.3,73
			c0,0,12.7-2.3,16.3,6.5s1.2,22.1-12.1,27.9c0,0-5.9,2.2-8.5,1.9c-2.3-0.3,2.3,37.2,2.3,37.2l9.2,4.6l3.9,17.8L161.1,183
			c-1.3,1.5-2.8,4.1-4.6,5.1s-5.1,1.1-7.2,1.3c-4.8,0.3-9.6-0.3-14.1-1.9c-3.2-1.1-6.2-2.7-9.3-3.8c-3.1-1.3-6.6-1.7-9.9-1.2
			c-2,0.5-3.9,1.2-5.9,1.9c-4.5,1.4-9.3,1.5-14,1.4c-8.1-0.2-16.7-1-23.4-5.7c-4.9-3.4-4.1-9.2-4.5-14.6c0-0.5-0.8-8.4-0.6-8.4
			l-1.2,0.3"/>
		<path class="st4" d="M60.3,158.9c0.5,0,18.8-7,18.8-7s5.1,13.7,17.4,22.1c6.2,4.3,14.9,6.4,24.5,6.1c31.3-0.9,43.6-31,43.6-31
			l21,7.8c-0.4,5.1-1.5,10.2-3.3,15c-5,13.5-16.4,31-38.3,31.4c-16.9,0.3-23.2-19-23.2-19c-2.5,5-6,9.5-10.1,13.2
			c-6.6,5.7-16.3,10-26.7,6.6c-9-2.9-15.9-13.5-19.5-23.9C62.2,173.4,60.7,166.2,60.3,158.9z"/>
		<path d="M152.1,76.5c-0.1-0.5,1-1,1.2-1.2c3.2-2.3,7-3.6,11-3.8c3.1-0.1,6.2,0.6,9.1,1.9c0.5,0.3,1,0.6,1.4,1
			c0.4,0.4,0.8,0.7,1.2,1c2.6,1.8,3.9,4.4,4.7,7.3c1.1,3.9,0.8,8.1-0.8,11.8c-2.3,5.8-6.7,10.5-12.3,13.2c-2.5,1.2-5.3,2-8.1,2.2
			c-0.4,0-0.8,0.1-1.3,0.2c1.2,12.3,2.5,24.6,3.7,36.8c1.9,0.7,3.9,1.4,5.8,2.1c4.1,1.6,8.2,3.2,12.3,4.8c1.8,0.7,3.6,1.4,5.4,2.1
			c2.4,1,4.7,2,7.1,2.9c3,1.2,6.1,2.3,9.1,3.4c4.6,1.8,9.2,3.6,13.9,5.4c1.1,0.4,2.3,0.8,3.4,1.4c2.1,1,4.4,1.6,6.5,2.5
			s4.3,1.7,6.4,2.6l7,2.8c0.5,0.2,1.1,0.3,0.9,1s-0.9,0.4-1.4,0.2l-9-3.5c-2.9-1.1-5.9-2.3-8.9-3.4c-4.5-1.8-9-3.5-13.4-5.3
			l-19.1-7.5c-0.5-0.2-1-0.4-1.5-0.6c-0.5,2.9-0.9,5.8-1.6,8.5c-0.6,3.1-1.6,6.1-3,9c-0.7,1.3-1.3,2.6-1.8,4
			c-0.7,2.1-1.8,4.1-3.2,5.9c-1.4,2-3,3.9-4.6,5.7c-1.7,1.8-3.6,3.4-5.7,4.8c-0.5,0.3-1,0.7-1.5,1l-2.5,1.6
			c-0.4,0.3-0.8,0.5-1.2,0.7c-4.6,2.8-9.8,4.6-15.1,5.2h-0.2c-2.5,0.2-5.1-0.1-7.5-0.9c-2.5-0.7-4.8-1.7-7-3
			c-3.4-2.1-6.2-5.2-7.9-8.9c-0.9-2-1.8-3.9-2.8-5.9c0-0.1-0.2-0.2-0.2-0.2c-0.6,1.3-1.3,2.6-1.8,3.9c-1,2.1-2.4,4-4.1,5.6
			c-1.1,1.1-2.2,2.2-3.3,3.3c-1.4,1.4-7.2,4.2-8.3,4.7c-2.8,1.3-5.7,2.2-8.8,2.5c-3.2,0.4-6.4,0.1-9.6-0.7c-2.8-0.8-5.5-1.9-7.6-4.1
			c-0.6-0.7-1.4-1.1-2-1.7c-1.2-1.2-2.4-2.4-3.4-3.7c-1-1.3-1.9-2.7-2.7-4.1c-1.3-2.3-2.7-4.6-3.9-7.1c-1.6-3.3-2.8-6.7-3.5-10.3
			c-0.2-0.9-0.3-1.9-0.5-2.8c-0.1-0.5-0.1-0.9-0.2-1.4s-0.2-0.7-0.2-1.1c-0.1-1.3-0.4-2.6-0.6-3.9s-0.3-2.3-0.3-3.5
			c-0.1-0.4,0-0.9,0.1-1.3c0.1-0.3,0.6-0.6,0.8-0.3c0.2,0.2,0.3,0.4,0.2,0.6c0.1,1.9,0.2,3.7,0.4,5.6c0.2,1.7,0.5,3.4,0.8,5
			c0.2,1.1,0.5,2.3,0.7,3.4c0.1,0.4,0.2,0.7,0.3,1.1c0.3,1.1,0.6,2.1,1,3.2c0.4,1.2,0.9,2.5,1.4,3.7c1,2.2,2.2,4.3,3.3,6.4
			c0.8,1.4,1.6,2.8,2.3,4.2c0.2,0.3,0.4,0.6,0.7,0.9c1.6,2.2,3.5,4.2,5.5,6c1.6,1.3,3.3,2.3,5.2,3.1c6.1,2.5,12.1,2.1,18.3-0.1
			c5.9-2,11-5.7,14.8-10.7c2.2-2.9,3.6-6.3,4-9.9c-20-0.7-33.3-10.8-41-29.1c-0.4,0.1-0.9,0.3-1.4,0.5l-31.7,12.4
			c-7.2,2.8-14.3,5.7-21.5,8.5c-4.2,1.6-8.4,3.2-12.5,4.9c-3.3,1.3-6.7,2.6-10,4c-1.4,0.6-2.8,1.1-4.2,1.7c-0.4,0.2-0.8,0.3-1.2,0.3
			c-0.2,0-0.5-0.3-0.6-0.5s0.1-0.5,0.3-0.6c0.5-0.3,1-0.5,1.5-0.7c1.7-0.6,3.4-1.1,5-1.8c2.4-0.9,4.7-2,7-2.9c1.5-0.6,3-1,4.5-1.6
			s3.1-1.3,4.7-2c6.5-2.6,13-5.2,19.5-7.8c5.6-2.2,11.3-4.4,16.9-6.6l18.6-7.2c4.2-1.6,8.5-3.3,12.6-5.1c0.2-0.1,0.4-0.2,0.7-0.1
			c0.2,0,0.5,0.2,0.4,0.5s-0.3,0.4-0.5,0.4c-1.3,0.6-2.6,1.2-3.9,1.8c-1.1,0.5-2.2,0.9-3.4,1.4c0.5,1.2,1,2.3,1.5,3.3
			c3.1,6.7,7.9,12.5,13.8,16.9c2.7,2,5.6,3.7,8.7,4.9c3.3,1.2,6.7,2,10.2,2.5c4.2,0.5,8.5,0.3,12.6-0.5c1.9-0.3,3.8-0.9,5.6-1.3
			c2.1-0.6,4.1-1.4,6-2.4c3.3-1.5,6.5-3.4,9.3-5.6c2.8-2.1,5.3-4.4,7.6-7c1.9-2.1,3.7-4.3,5.3-6.7c0.8-1.2,1.6-2.4,2.3-3.7
			c0.6-1.1,1.2-2.2,1.7-3.4c0.1-0.1,0.1-0.2,0.2-0.3c0.2-0.2,0.4-0.2,0.6-0.1c1,0.5-0.1,2.4-0.5,3c-0.5,0.8-1,1.5-1.5,2.3
			c-1,1.7-2,3.4-3.2,5c-3.6,5.2-8.1,9.6-13.3,13.3c-1.9,1.3-3.9,2.5-5.9,3.6c-3.4,1.8-6.9,3.2-10.6,4.1c-2.5,0.7-5.1,1.1-7.7,1.3
			c-0.4,0-0.8,0.1-1.1,0.2c-0.4,0.9-0.4,2,0.1,2.9c1.1,2.3,2.2,4.6,3.4,6.9c2.9,5.6,7.7,8.9,13.8,10.5c2.4,0.7,5,1,7.5,0.9
			c2.6-0.3,5.1-1,7.5-2c0.9-0.3,1.8-0.7,2.7-1.1c2.5-1.2,4.8-2.5,7.1-4.1c2.2-1.4,4.3-2.9,6.3-4.6c0.9-0.8,1.8-1.7,2.7-2.7
			c3.1-3.5,5.6-7.5,7.4-11.8c0.9-2.3,2-4.4,2.8-6.8c1-3.4,2.3-12,2.5-12.5c-0.9-0.4-2-0.7-3-1.2l-10.6-4.3c-2.9-1.2-5.9-2.4-8.8-3.5
			c-0.7-0.2-1.4-0.3-2.1-0.3c-1.2-12.6-2.4-25.2-3.6-37.9c-0.4-0.1-0.8-0.2-1.1-0.2c-2.5-0.3-5-1.2-7.2-2.5c-0.4-0.2-0.7-0.5-1-0.8
			c-0.2-0.2-0.2-0.5-0.1-0.8c0.1-0.1,0.5-0.2,0.7-0.1c0.3,0.1,0.5,0.2,0.7,0.4c3.9,2.7,8.1,3,12.6,2.3c3.9-0.7,7.5-2.5,10.4-5.1
			c3.2-2.7,5.7-6.3,7-10.3c1.2-3.1,1.4-6.6,0.6-9.8c-0.6-3.3-2.6-6.1-5.4-7.9c-4.6-2.9-9.4-3-14.4-1.6c-2.3,0.7-4.5,1.7-6.5,3
			c-0.2,0.2-0.7,0.3-0.9,0.1C152.2,76.6,152.1,76.6,152.1,76.5z"/>
		<path d="M40.8,59c1.6-0.5,3-1,4.3-1.4c3.9-1.1,8.1-1.2,12,0c3,0.8,5.8,2.3,8.2,4.4c3.1,2.8,5.1,6.5,5.8,10.5
			c0.1,0.3,0.2,0.6,0.3,1.1l28.9-1.5c0.6-0.8,1.1-1.6,1.7-2.4c3.4-4.5,8.1-7.7,13.5-9.1c4.4-1.3,9-1.4,13.5-0.3
			c2.5,0.6,5,1.6,7.1,3.1c2.4,1.5,4.4,3.6,5.8,6c1.2,2,2,4.3,2.3,6.6c0.6,3.5,0.2,7.1-1.1,10.4c-1.6,3.8-4.1,7.1-7.3,9.6
			c-3.6,3-8,4.9-12.7,5.6c-2.3,0.4-4.6,0.4-6.9,0.2c-3.3-0.2-6.4-1.3-9.2-3c-6.5-4.1-9.9-10-9.6-17.8c0.2-2.2,0.7-4.4,1.6-6.4
			c0.1-0.2,0.2-0.4,0.3-0.8c-1,0-2-0.1-2.9-0.1c-4.1,0.2-8.2,0.4-12.3,0.6s-8.1,0.3-12.2,0.4c-0.1,0-0.3,0.1-0.5,0.1
			c0,0.2,0,0.3,0,0.5c0.5,5.3-1,10.2-3.6,14.8c-1.6,2.7-3.7,5.1-6.1,7.1c-3.7,3.3-8.3,5.3-13.3,5.9c-3.1,0.5-6.3,0.2-9.2-0.7
			c-0.2,0-0.4-0.1-0.6-0.1c0.4,1,0.8,1.9,1.3,2.8c1.4,2.6,3.1,5,5.1,7.3c2.5,2.9,5.1,5.5,8,8c1.6,1.4,3.4,2.7,5.2,4
			c2.8,2,5.7,3.8,8.8,5.4c4.4,2.3,9.1,4.1,13.9,5.4c3.5,1,7.1,1.8,10.8,2.5c3.7,0.6,7.4,1,11.1,1.1c2.3,0.1,4.7-0.2,7.1-0.1
			c2,0,4-0.2,6-0.5c1-0.1,2.1-0.3,3.1-0.5c0.3-0.1,0.8-0.2,1.1-0.1c0.3,0.2,0.3,0.6,0.1,0.9c0,0,0,0.1-0.1,0.1
			c-0.4,0.3-0.9,0.5-1.4,0.4c-0.6,0.1-1.3,0.2-1.9,0.3c-1.3,0.2-2.5,0.3-3.8,0.4c-2.5,0.2-4.9,0.3-7.4,0.3
			c-5.2-0.1-10.4-0.5-15.5-1.3c-0.7,3-1.7,6.9-2.5,9.9c-0.2,0.5-0.3-0.1-0.5,0.4c-0.5-0.4-0.3-0.2-0.7-0.5c0.8-3.3,1.7-6.6,2.6-10
			l-1.1-0.3c-6.2-1.3-12.2-3.2-17.9-5.8c-2.5-1-4.8-2.2-7-3.7c-1.4-1-3-1.7-4.5-2.6c-1.7-1.1-3.4-2.3-5-3.7c-2-1.6-3.9-3.3-5.6-5.2
			c-2-2.1-3.9-4.4-5.6-6.9c-1.2-1.9-2.5-3.7-3.7-5.6c-0.4-0.7-0.8-1.5-1.2-2.3c-0.3-0.7-0.9-1.3-1.6-1.7C30.6,97.9,27,92.8,26,87
			c-1-5.3-0.1-10.8,2.4-15.6c2-4.1,5.1-7.7,9-10.2c1.1-0.9,1.9-2,2.5-3.2c2.7-4.2,5.9-8,9.7-11.2c3.1-2.7,6.4-5,9.9-7.1
			c4-2.3,8.2-4.1,12.5-5.6c3.1-1.1,6.3-2,9.5-2.7c3-0.5,6.1-1,9.1-1.4c4.4-0.5,8.9-0.6,13.3-0.4c3.9,0.2,7.8,0.7,11.7,1.5
			c2.9,0.5,5.7,1.2,8.5,2c4.4,1.2,8.6,2.9,12.6,5c2.9,1.6,8.5,3.1,11.3,4.8c3.3,2,3.6,4.4,6.4,7.1c2.5,2.5,5.2,5,7.2,7.9
			c2.2,3,4.1,6.1,5.7,9.4c0.5,1.1,0.8,2.2,1.2,3.3l-0.3,0.2c-0.2-0.3-0.4-0.6-0.6-1c-1.2-2.3-2.3-4.8-3.7-7c-1.4-2.2-3-4.3-4.6-6.2
			c-3.9-4.8-5.9-8.8-11.1-12.3c-7.7-5.2-18.9-8.7-27.8-11c-8.2-2-16.6-2.9-25-2.5c-7.8,0.3-15.6,1.8-23,4.4
			c-8,2.7-15.3,6.9-21.7,12.3C46.8,50.9,43.5,54.7,40.8,59z M122.6,60.7c-1.1-0.1-2.2-0.1-3.3,0c-3.4,0.5-6.6,1.7-9.5,3.5
			c-4.1,2.6-7.4,5.8-9.3,10.3c-1.3,3-1.8,6.3-1.4,9.5c0.6,5.8,4,10.8,9.1,13.5c3.6,2.1,7.8,3,11.9,2.8c8.2-0.3,15.7-4.6,20-11.6
			c1.9-3,3-6.5,3-10.1c0-2.9-0.8-5.7-2.1-8.2c-1-1.9-2.4-3.5-4-4.9c-1.3-1-2.6-1.8-4.1-2.6C129.8,61,126.2,60.7,122.6,60.7
			L122.6,60.7z M33.9,80.3c-0.1,4.6,0.4,9.1,1.6,13.6c0.5,1.8,1.2,3.7,1.9,5.5c0.2,0.4,0.5,0.7,0.8,0.9c0.5,0.3,1,0.5,1.5,0.7
			c4.5,1.5,9.5,1.3,13.9-0.6c9.2-3.9,14.9-10.6,16.4-20.6c1-6-0.9-12.1-5.2-16.4c-2.5-2.6-5.8-4.4-9.4-5.1c-5.3-1-10.8,0-15.4,2.9
			c-0.4,0.3-0.8,0.7-1,1.1C35.9,67.7,34.1,73.9,33.9,80.3z M35.3,98.8l0.3-0.3c0-0.2,0-0.5-0.1-0.7c-0.5-1.7-1-3.3-1.4-5
			c-0.5-2.4-1-4.8-1.3-7.2c-0.2-1.2,0.1-2.4,0-3.7c-0.1-3,0.2-6,1-8.9c0.3-1.1,0.5-2.3,0.9-3.4c0.6-2,1.3-4,2.1-6.1
			c-0.2,0.1-0.4,0.2-0.6,0.3c-2.5,2.2-4.6,4.8-6.2,7.7c-1.5,2.9-2.5,6-2.8,9.3c-0.4,3.4,0.1,6.9,1.5,10.1c0.9,2.1,2.2,4.1,3.9,5.7
			C33.3,97.4,34.3,98.1,35.3,98.8z"/>
		<path class="st1" d="M119.6,55.8c-1.2,0-2.4,0.1-3.7,0c-1.6-0.2-3.2-0.9-4.4-2.1c-0.9-0.9-0.8-2.3,0-3.1c0.1-0.1,0.3-0.2,0.4-0.3
			c0.8-0.6,1.8-1.1,2.8-1.4c2.9-1,5.9-1.2,8.9-0.7c1.3,0.2,2.5,0.8,3.3,1.8c1,0.9,1.1,2.4,0.2,3.4c-0.1,0.1-0.2,0.2-0.3,0.3
			c-1.1,1-2.4,1.7-3.9,1.9C121.9,55.8,120.8,55.8,119.6,55.8L119.6,55.8z"/>
		<path d="M119.6,56.5c-0.1,0-0.2,0-0.3-0.1h-0.8c-0.9,0-1.7,0-2.6,0c-1.8-0.2-3.4-1-4.7-2.3c-0.6-0.5-0.9-1.3-0.8-2.1
			c0.1-0.9,0.6-1.8,1.3-2.3c0.9-0.6,1.9-1.1,2.9-1.5c3-1,6.1-1.3,9.2-0.7c1.4,0.2,2.7,0.9,3.6,2c1.2,1.1,1.3,3,0.1,4.2
			c-0.1,0.1-0.1,0.2-0.2,0.2c-1.1,1.1-2.6,1.9-4.2,2.1c-0.8,0.1-1.6,0.2-2.4,0.3l-1,0.1L119.6,56.5z M119.6,55.3
			c0.1,0,0.2,0,0.3,0.1l0.7-0.1c0.8-0.1,1.5-0.1,2.3-0.3c1.3-0.2,2.6-0.8,3.6-1.7c0.8-0.6,1-1.7,0.4-2.5c-0.1-0.1-0.2-0.2-0.3-0.3
			c-0.7-0.9-1.8-1.5-2.9-1.7c-2.9-0.5-5.9-0.3-8.6,0.7c-0.9,0.3-1.8,0.8-2.6,1.3c-0.5,0.3-0.8,0.8-0.8,1.4c0,0.4,0.1,0.8,0.4,1.1
			c1.1,1.1,2.5,1.8,4,1.9c0.8,0.1,1.6,0.1,2.5,0L119.6,55.3z"/>
		<path class="st1" d="M57.7,54.8c-1.8-0.1-3.7,0-5.4-0.8c-0.4-0.1-0.7-0.3-1-0.5c-1-0.5-1.3-1.7-0.8-2.7c0.1-0.3,0.3-0.5,0.6-0.7
			c0.7-0.6,1.5-1.1,2.4-1.4c3.1-1.1,6.5-1.1,9.6-0.1c1,0.3,1.9,0.8,2.7,1.5c1.3,1,1,2.4-0.5,3.1c-1.9,1-4.1,1.5-6.2,1.6L57.7,54.8z"
			/>
		<path d="M57.7,55.5L57.7,55.5h-0.9c-1.6,0.1-3.2-0.2-4.8-0.8c-0.4-0.2-0.7-0.4-1.1-0.7c-0.7-0.5-1.2-1.3-1.3-2.2
			c0-0.8,0.4-1.6,1-2.1c0.8-0.7,1.7-1.2,2.6-1.5c3.2-1.1,6.7-1.2,10-0.1c1.1,0.3,2.1,0.9,2.9,1.6c0.7,0.5,1.1,1.3,1,2.2
			c-0.2,0.9-0.8,1.7-1.7,2c-2.1,1-4.3,1.6-6.6,1.6h-0.9L57.7,55.5L57.7,55.5z M58.4,48.5c-1.6,0-3.2,0.3-4.7,0.8
			c-0.8,0.3-1.6,0.7-2.2,1.3c-0.4,0.3-0.6,0.7-0.6,1.2c0.1,0.5,0.4,1,0.8,1.3c0.3,0.2,0.6,0.4,0.9,0.5c1.4,0.5,2.8,0.8,4.3,0.7h0.9
			h0.4H59c2.1-0.1,4.1-0.6,6-1.5c0.5-0.2,0.8-0.5,1-1c0-0.4-0.2-0.8-0.6-1.1c-0.7-0.6-1.6-1.1-2.5-1.4
			C61.5,48.8,59.9,48.5,58.4,48.5z"/>
		<path d="M93.6,111.7c-3.8,3.5-8.7,5.6-13.8,6.2c-3.7,0.5-7.4-0.2-10.7-1.9c-1-0.5-1.8-1.2-2.6-1.9c-0.4-0.4-0.8-0.8-1.1-1.3
			c-0.3-0.5-0.6-1-0.9-1.4c-1,1-2,2-3.1,3c-0.2,0.2-0.8,0.3-0.8-0.2s0.4-0.7,0.6-0.9c1.5-1.8,3-3.6,4.5-5.3c0.2-0.2,0.3-0.5,0.7-0.5
			c0.2,0,0.4,0.1,0.4,0.3c0.2,0.6-0.4,1-0.7,1.4c-1.1,1.2-1.1,1.2-0.2,2.5c1.6,2.3,4.1,3.8,6.9,4.3c6.6,1.3,12.5-0.3,18-4.1
			c0.7-0.5,1.4-1.1,2.1-1.7c-0.1-0.3-0.1-0.6-0.2-0.9l-0.3-1l-0.2-1c-0.1-0.3-0.2-0.6-0.1-0.9c0,0,0-0.1,0.1-0.1l0.1-0.1
			c0.2-0.1,0.4,0,0.6,0.1c0.2,0.2,0.4,0.4,0.4,0.7c0.3,1.1,0.7,2.2,1,3.3c0.2,0.7,1.7,3.9,2,4.3l0.8,1.4c0.1,0.2,0.2,0.3,0.2,0.5
			c0,0.2,0,0.4-0.1,0.5c-0.2,0.2-0.5,0.3-0.8,0.2c-0.4-0.2-0.7-0.6-0.9-1.1c-0.2-0.5-0.4-1-0.7-1.5s-0.4-1-0.7-1.6
			C94,112.8,93.8,112.2,93.6,111.7z"/>
		<path d="M163.7,79.8c0-0.1,0.1-0.1,0.1-0.2c0.4-0.3,0.7,0.2,1,0.4c1.1,1.3,1.9,2.8,2.5,4.4c0.8,2.2,1.2,4.5,1.1,6.8
			c0,2.4-1,4.8-2.7,6.5c-0.4,0.4-0.9,0.8-1.4,1.2s-0.9,0.9-1.4,0.8c-0.9-0.1-0.7-1-0.2-1.5c0.7-0.7,1.5-1.3,2.2-2
			c1.4-1.3,2.1-3.1,2-4.9c-0.1-1.1,0-2.3,0-3.6c-1.4,0.9-2.6,1.6-3.8,2.4c-0.6,0.6-1.4,1.1-2,1.7c-0.3,0.2-0.4,0.5-0.8,0.5
			s-0.6-0.1-0.7-0.4s0.4-0.7,0.6-0.8l5-3.9c0.2-0.2,0.5-0.3,0.7-0.5c0.7-0.6,0.8-0.9,0.3-1.7c-0.6-1.1-1.2-2.1-1.8-3.2
			c-0.3-0.4-0.6-0.9-0.8-1.5C163.6,80.1,163.7,79.9,163.7,79.8z"/>
		<path d="M119.9,211.7c1.1,0.1,2.4,0.2,3.3,1.4c1,1.4,0.5,2.7-0.1,4c-0.6,1.2-1.8,1.9-3.1,1.8c-0.8-0.1-1.7-0.3-2.4-0.7
			c-1.1-0.4-1.6-1.6-1.2-2.7c0.2-0.9,0.6-1.7,1-2.5C118,212,118.5,211.7,119.9,211.7z M119.5,217.7c1.5,0,2.7-1.1,2.9-2.5
			c0.1-1-0.8-1.8-2.4-2c-1.4,0-2.5,1.1-2.5,2.5C117.5,216.8,118.4,217.7,119.5,217.7L119.5,217.7z"/>
		<path d="M115,243.3c0.1-2.2,1.2-3.3,3.1-3.2c2.1,0.2,3.7,1.5,3.6,3c-0.1,2-1.7,3.6-3.3,3.6C116,246.6,114.9,245.5,115,243.3z
			 M120.1,243.5c0-1-0.8-1.9-1.9-1.9c-1.1,0.1-2,1-2,2.1c-0.1,0.9,0.7,1.6,1.9,1.7C119.2,245.4,120.1,244.6,120.1,243.5L120.1,243.5
			z"/>
		<path d="M70.7,122.6l0.1-0.1c0.7-0.4,1.6,0.2,2.3,0.3c0.8,0.2,1.7,0.3,2.5,0.4c0.6,0,1.2,0,1.8,0c0.6-0.1,1.1-0.2,1.6-0.2
			c0.2,0,0.5,0,0.7,0.1c0.3,0.1,0.4,0.4,0.3,0.6c0,0.1-0.1,0.2-0.2,0.3c-0.3,0.2-0.7,0.3-1,0.2c-0.8,0-1.6,0.1-2.4,0.1
			c-1.7,0.1-3.4-0.2-5-0.8C71.2,123.3,70.4,122.9,70.7,122.6z"/>
		<path class="st5" d="M118.8,90.7c-2.3,0-4.5-0.6-6.6-1.6c-1.5-0.8-2.8-2-3.5-3.6c-1-2-1-4.4,0.2-6.4c1.9-3.4,5.1-5.9,8.9-6.9
			c2.4-0.8,5-1.1,7.5-0.8c3.2,0.4,6.2,1.4,7.9,4.5c1.2,2,1.2,4.6,0.1,6.6c-2.2,4.3-6,6.4-10.5,7.5C121.5,90.5,120.1,90.5,118.8,90.7
			z"/>
		<path class="st5" d="M46.6,88.4c-2.5-0.1-4.9-0.4-7-1.9c-2.1-1.4-3-4.1-2.1-6.5c0.8-2.6,2.8-4.2,4.9-5.6c1.9-1.3,4.1-1.7,6.2-2.3
			c2.2-0.5,4.5-0.5,6.7-0.2c3.4,0.2,6.3,3.2,6.4,6.3c0,2-0.9,3.8-2.3,5.2c-1.3,1.4-2.9,2.4-4.6,3.2C52.2,87.7,49.4,88.3,46.6,88.4z"
			/>
		<path d="M118.8,90.7c-2.3,0-4.5-0.6-6.6-1.6c-1.5-0.8-2.8-2-3.5-3.6c-1-2-1-4.4,0.2-6.4c1.9-3.4,5.1-5.9,8.9-6.9
			c2.4-0.8,5-1.1,7.5-0.8c3.2,0.4,6.2,1.4,7.9,4.5c1.2,2,1.2,4.6,0.1,6.6c-2.2,4.3-6,6.4-10.5,7.5C121.5,90.5,120.1,90.5,118.8,90.7
			z M120,89.1c-0.3-3.1,0-6.2,0.7-9.3c0.4-2.3,0.7-4.6,1.1-7.1c-0.8,0.1-1.6,0.3-2.5,0.4c-3.8,1.1-7.2,2.8-9.3,6.4
			c-1.2,2.2-0.9,5,0.8,6.9C113.4,88.9,116.6,89.2,120,89.1z"/>
		<path d="M46.6,88.4c-2.5-0.1-4.9-0.4-7-1.9c-2.1-1.4-3-4.1-2.1-6.5c0.8-2.6,2.8-4.2,4.9-5.6c1.9-1.3,4.1-1.7,6.2-2.3
			c2.2-0.5,4.5-0.5,6.7-0.2c3.4,0.2,6.3,3.2,6.4,6.3c0,2-0.9,3.8-2.3,5.2c-1.3,1.4-2.9,2.4-4.6,3.2C52.2,87.7,49.4,88.3,46.6,88.4z
			 M51.5,73c-2.6,0.1-5.1,0.8-7.4,2c-1.9,0.9-3.6,2.2-4.8,4c-1.4,2.3-1.4,4.4,0.8,6.2c1.4,1,3,1.7,4.7,1.9c1.2,0.1,2.4,0.1,3.7,0
			c0.5,0.1,1.1,0,1.6-0.3C50.5,82,51,77.6,51.5,73z"/>
		<path class="st2" d="M84,88.7c0.2,0.2,0.4,0.4,0.5,0.7c0.2,0.3,0.4,0.6,0.6,0.9c1.3,2,2.2,2.4,2.6,2.6c0.2,0.1,0.4,0.1,0.6,0.1
			c0.2,0,0.4-0.1,0.5-0.3c0.1-0.1,0.1-0.2,0.1-0.3c0.1-0.3,0.2-0.7,0.2-1c0-0.2,0-0.5,0-0.7c0-0.6,0-1.3,0-1.9
			c0-1.2-0.2-2.4-0.5-3.5c-0.4-1.6-0.9-3.1-1.6-4.5c-0.1-0.1-0.1-0.2-0.1-0.3c-0.8-1.7-2.2-3.1-4-3.8c-1.2-0.5-2.6-0.1-3.4,1
			c-1.1,1-2.1,2.2-3,3.4c-0.3,0.5-0.6,1-0.9,1.4c-1.5,2.3-2.7,4.9-3.5,7.6c-0.3,0.7-0.2,1.4,0.1,2.1c0.8,0,1.5-0.4,2.1-1
			c0.8-0.8,1.5-1.6,2.3-2.3c0.4-0.5,1.2-0.7,1.8-0.3c0.1,0.1,0.1,0.5,0.2,0.6s0.1,0.5,0.1,0.7c0.1,0.5,0.1,1,0.2,1.5
			c0.1,0.5,0.2,0.9,0.4,1.4c0.2,0.4,0.5,1,0.9,1.1c0.2,0,0.3,0,0.5-0.1c0.2-0.1,0.3-0.4,0.4-0.7c0.6-1.2,1.1-2.4,1.7-3.6
			c0.1-0.3,0.3-0.5,0.6-0.7C83.4,88.6,83.7,88.6,84,88.7L84,88.7z"/>
		<path d="M83.5,90.2c-0.5,1.1-1,2.8-1.5,3.6c-0.7,1.2-1.5,1.3-2.7,0.6c-1.1-0.7-1.9-1.9-2-3.3c-0.1-0.3-0.1-0.6-0.2-1.2
			c-0.5,0.4-0.8,0.8-1.2,1.1c-0.9,0.7-1.8,1.4-2.8,2c-1.3,0.7-2.7,0-2.6-1.8c0.2-2.2,0.9-4.3,2-6.2c1.2-2.5,2.7-4.9,4.7-6.9
			c0.5-0.5,0.8-1,1.3-1.5c1.4-1.7,3.8-2,5.6-0.8c0.3,0.2,0.7,0.3,1,0.6c3.5,2.9,3.3,4.6,4.2,6.4c0.7,2.8,1.1,5.8,1,8.7
			c-0.1,0.7-0.1,1.5-0.6,1.9c-0.7,0.5-1.6,0.6-2.4,0.4c-0.3-0.1-0.6-0.2-0.9-0.4C85.4,92.5,84.4,91.4,83.5,90.2z M84,88.7
			c0.2,0.2,0.4,0.4,0.5,0.7c0.2,0.3,0.4,0.6,0.6,0.9c1.3,2,2.2,2.4,2.6,2.6c0.2,0.1,0.4,0.1,0.6,0.1c0.2,0,0.4-0.1,0.5-0.3
			c0.1-0.1,0.1-0.2,0.1-0.3c0.1-0.3,0.2-0.7,0.2-1c0-0.2,0-0.5,0-0.7c0-0.6,0-1.3,0-1.9c0-1.2-0.2-2.4-0.5-3.5
			c-0.4-1.6-0.9-3.1-1.6-4.5c-0.1-0.1-0.1-0.2-0.1-0.3c-0.8-1.7-2.2-3.1-4-3.8c-1.2-0.5-2.6-0.1-3.4,1c-1.1,1-2.1,2.2-3,3.4
			c-0.3,0.5-0.6,1-0.9,1.4c-1.5,2.3-2.7,4.9-3.5,7.6c-0.3,0.7-0.2,1.4,0.1,2.1c0.8,0,1.5-0.4,2.1-1c0.8-0.8,1.5-1.6,2.3-2.3
			c0.4-0.5,1.2-0.7,1.8-0.3c0.1,0.1,0.1,0.5,0.2,0.6s0.1,0.5,0.1,0.7c0.1,0.5,0.1,1,0.2,1.5c0.1,0.5,0.2,0.9,0.4,1.4
			c0.2,0.4,0.5,1,0.9,1.1c0.2,0,0.3,0,0.5-0.1c0.2-0.1,0.3-0.4,0.4-0.7c0.6-1.2,1.1-2.4,1.7-3.6c0.1-0.3,0.3-0.5,0.6-0.7
			C83.4,88.6,83.7,88.6,84,88.7L84,88.7z"/>
		<path class="st1" d="M58.3,30c-0.2-0.3-0.3-0.5-0.4-0.6c-1.4-1.8-1.3-3.3,0.1-5c1.2-1.3,2.8-2.3,4.5-2.9c2.9-1.2,6-2,9.1-2.4
			c3.2-0.4,6.5-0.5,9.7-0.2c1,0.1,2.1-0.1,3.2,0c2.2,0.1,4.3,0.2,6.5,0.3c0.9,0,1.8,0.4,2.7-0.3c0.2-0.1,0.5,0,0.7,0
			c3.1,0.4,6.3,0.8,9.4,1.3s6.3,1,9.4,1.8c5.9,1.5,11.8,3,17.6,4.9c4.5,1.6,9,3.5,13.3,5.5c4.3,2,8.4,4.4,12.1,7.3
			c1.7,1.2,3.4,2.5,4.9,4c0.9,0.9,1.8,1.8,2.9,2.6c2.3,1.8,3.9,4.2,5.9,6.3c2.8,3.3,5.1,7.1,6.8,11.1c1,2.3,1.7,4.7,2.6,7.1
			c0.1,0.4,0.2,0.9,0.3,1.4c0.2,1.1,0.3,2.1,0.2,3.2c-0.1,0.8-0.6,2-1.6,1.8c-0.4-0.2-0.8-0.4-1.1-0.8c-3.1-2.9-7-4.5-11.2-4.7
			c-1.4,0-2.7,0.2-4.1,0.4c-1.2,0.2-2.4,0.3-3.6,0.3c-2.8,0.1-5.5-1.2-7.1-3.5c-0.6-0.9-0.6-2.1,0-3c1.2-2,3-3.6,5.2-4.7
			c1.4-0.7,2.8-1.3,4.2-2.2c-0.8-0.1-1.7-0.3-2.5-0.3c-1.2-0.1-2.4-0.2-3.7-0.3c-0.3,0-0.7,0-1,0.1c-0.4,0.1-0.8,0.1-1.1,0.1
			c-2-0.3-4-0.6-6.1-0.9c-1.2-0.2-2.4-0.1-3.5-0.2c-1.5-0.2-2.8-0.9-3.8-2c-1-1-0.9-3.1,0-4.5c1.7-2.4,4.1-4.3,6.8-5.4l1.2-0.5
			c0,0,0-0.1,0.1-0.3c-2.3-0.1-4.6-0.1-6.9,0c-4,0.4-7.9-0.1-11.9-0.4c-1.6-0.1-3.2,0-4.8-0.2c-2.7-0.2-5.4-0.5-8.2-0.8
			c-0.8-0.1-1.6-0.1-2.4-0.2c-1.9-0.2-3.7-0.7-5.3-1.7c-1.2-0.8-2.2-1.6-1.6-3.5c-2,0.2-3.8,0.5-5.6,0.7c-1.5,0.1-3.1,0.3-4.6,0.5
			c-1.8,0.3-3.3-0.3-5.1-0.1c-0.5,0.1-1.4,0.9-1.9,0.9c-1-0.1-2,0.1-3,0.5c-0.8,0.3-1.6,0.4-2.5,0.5c-2,0.3-3.9,0.7-5.8,0.8
			c-2.7,0.2-5.4,1-8.1,1.2c-0.9,0.1-1.9,0.1-2.8,0.1c-0.6,0-1.2,0.2-1.8,0.2c-1.1,0.1-2.2,0.2-3.3,0.3c-0.8,0.1-1.7,0.2-2.5,0.3
			c-0.2,0.1-0.5,0.1-0.7,0.1c-1.6-0.2-3.2,0.4-4.9,0.3s-3.3,0-5-0.2c-2.9-0.2-5.8-0.8-8.5-1.8c-1.3-0.5-2.4-1.4-3.2-2.5
			c-0.7-0.9-0.7-2.2,0.1-3c0.9-1.2,2.2-2,3.6-2.4c4.5-1.5,9-3.1,13.8-3.6C55.4,30.5,56.8,30.3,58.3,30z"/>
		<path d="M64.8,31.4c-0.5,0.3-1,0.4-1.6,0.4c-1.5-0.1-3-0.3-4.5-0.5c-0.1,0-0.3,0-0.4,0c-4.1,0.8-8.3,1-12.2,2.4
			c-1.9,0.6-3.8,1.2-5.6,1.8c-1,0.4-2,1-2.7,1.8c-0.5,0.4-0.6,1.1-0.2,1.6c0.1,0.1,0.1,0.1,0.2,0.2c0.9,1,2,1.7,3.3,2.1
			c3.2,1,6.5,1.5,9.8,1.5c3.7,0,7.3,0.1,11-0.2c3.7-0.3,7.4-0.8,11.1-1.4s7.5-1.3,11.2-1.8s7.5-0.8,11.2-1.3
			c0.7-0.1,1.4-0.2,2.2-0.3c2.3-0.2,4.6-0.4,6.8-0.7c2.8-0.4,5.6-1,8.3-1.5c2.6-0.4,5.2-0.8,7.9-1.1c0.8-0.2,1.6-0.2,2.4-0.1
			c0.6,0.1,1.2,0.6,0.4,1.1c-0.6,0.3-1.2,0.5-1.9,0.5c-3.7,0.5-7.4,0.9-11.1,1.4c-1,0.2-1.9,0.5-2.8,1c-1,0.6-1,1.2,0,2
			c1,0.8,2.1,1.2,3.4,1.4c3.5,0.5,6.9,0.9,10.4,1.2s7.1,0.4,10.7,0.6c2.8,0.2,5.6,0.3,8.5,0.4c1.6,0,3.2,0,4.7,0l5.2-0.1
			c0.6,0,1.8,0.5,1,1.2c-0.8,0.4-1.6,0.7-2.5,0.8c-3.5,1-6.7,2.5-9,5.6c-0.3,0.4-0.6,0.8-0.8,1.3c-0.5,2,0.9,3.2,2.6,3.7
			c2.5,0.6,5,0.9,7.5,1.1c2.3,0.2,4.6,0.3,6.9,0.4s4.4,0,6.6,0.2c0.5,0,0.5,0.1,1.1,0.9c-0.2,0.8-0.9,0.8-1.4,1
			c-1.9,0.8-3.9,1.6-5.9,2.5c-1.8,0.8-3.3,2.1-4.4,3.7c-0.9,1.2-0.9,1.8,0.1,2.9c0.7,0.9,1.7,1.5,2.8,1.8c1.9,0.6,3.9,0.9,5.9,0.8
			c0.6-0.1,1.3,0.2,1.5,0.8c-0.5,0.2-1.1,0.3-1.6,0.3c-1-0.1-2-0.2-2.9-0.1c-2.9,0.1-5.6-1.3-7.1-3.6c-0.6-0.9-0.6-2.1,0-3
			c1.2-2,3-3.6,5.2-4.7c1.4-0.7,2.8-1.3,4.2-2.2c-1-0.2-2.1-0.3-3.1-0.3c-1.2,0-2.3,0-3.5-0.1c-2.2-0.1-4.5-0.2-6.7-0.4
			c-1.6-0.1-3.2-0.4-4.8-0.7c-0.8-0.1-1.5-0.4-2.2-0.8c-0.5-0.4-1-0.8-1.4-1.2c-1-1-0.9-3.1,0-4.5c1.7-2.4,4.1-4.3,6.8-5.4l1.2-0.5
			c0,0,0-0.1,0.1-0.3c-2.3-0.1-4.6-0.1-6.9,0c-4,0.4-7.9-0.1-11.9-0.4c-1.6-0.1-3.2,0-4.8-0.2c-2.7-0.2-5.4-0.5-8.2-0.8
			c-0.8-0.1-1.6-0.1-2.4-0.2c-1.9-0.2-3.7-0.7-5.3-1.7c-1.2-0.8-2.2-1.6-1.6-3.5c-2,0.2-3.8,0.5-5.6,0.7c-1.5,0.1-3.1,0.3-4.6,0.5
			c-1.3,0.2-2.6,0.3-3.9,0.3c-1.5,0.2-2.9,0.4-4.4,0.8c-3,0.6-6,1.1-9.1,1.5c-7.6,1.1-15.2,1.9-22.8,2.2c-2.4,0.2-4.8,0.1-7.2-0.1
			c-2.9-0.2-5.8-0.8-8.5-1.8c-1.3-0.5-2.4-1.4-3.2-2.5c-0.7-0.9-0.7-2.2,0.1-3c0.9-1.2,2.2-2,3.6-2.4c4.5-1.5,9-3.1,13.8-3.6
			c1.3-0.1,2.7-0.4,4.2-0.6c-0.2-0.3-0.3-0.5-0.4-0.6c-1.4-1.8-1.3-3.3,0.1-5c1.2-1.3,2.8-2.3,4.5-2.9c1.7-0.8,3.5-1.3,5.3-1.7
			c1.7-0.3,3.5-0.5,5.2-0.7c3.6-0.4,7.3-0.7,10.9-0.8c3.8-0.1,7.5-0.1,11.3,0.3c3.7,0.4,7.4,0.9,11.1,1.7l4,0.8
			c0.8,0.2,1.7,0.3,2.5,0.5s1.5,0.4,2.3,0.6c5.3,1.6,10.7,2.9,15.9,4.6c4.5,1.6,9,3.5,13.3,5.5c4.3,2,8.4,4.4,12.1,7.3
			c1.7,1.2,3.4,2.5,4.9,4c0.9,0.9,1.8,1.8,2.9,2.6c2.3,1.8,3.9,4.2,5.9,6.3c2.8,3.3,5.1,7.1,6.8,11.1c1,2.3,1.7,4.7,2.6,7.1
			c0.1,0.4,0.2,0.9,0.3,1.4c0.1,1.1,0.1,2.2,0.3,3.3c0.2,0.8,0,1.6-0.6,2.2c-0.7,0.5-1.7,0.5-2.4-0.1c-0.1-0.1-0.3-0.3-0.3-0.5
			c0-0.2,0.1-0.4,0.2-0.5c0.1,0,0.2,0,0.2,0h0.9c0.2,0,0.4,0,0.5-0.1c0.1-0.1,0.1-0.2,0.1-0.4c0.1-0.6,0-1.3,0-1.9
			c0-0.7,0-1.3-0.1-2c-0.3-1.4-0.7-2.7-1.2-4c-1-3.1-2.4-6.1-4-8.9c-1.1-1.8-2.3-3.6-3.7-5.2c-1-1.2-1.9-2.5-3-3.6
			c-1.2-1.3-2.6-2.5-3.9-3.7c-1.7-1.5-3.3-3.2-5-4.6c-4-3.1-8.3-5.8-12.8-8.1c-2.9-1.5-5.8-2.8-8.8-4c-2.4-1-4.8-1.9-7.3-2.6
			c-3.3-0.8-6.7-1.7-10-2.7c-2.3-0.6-4.6-1.5-6.9-2.1s-4.8-1.2-7.2-1.7c-7.1-1.4-14.4-2-21.6-1.7c-3.6,0.1-7.3,0.5-10.8,1.1
			c-1.8,0.3-3.6,0.6-5.3,1c-1.7,0.5-3.5,1.1-5.1,1.8c-1.1,0.5-2.1,1.2-2.9,2.2c-0.9,0.9-1,2.3-0.1,3.2c0,0,0,0,0,0
			c0.7,0.9,1.7,1.4,2.8,1.6c0.6,0.1,1.3,0.2,1.9,0.3c0.3,0.1,1.1,0.1,1.3,0.4S64.9,31.2,64.8,31.4z"/>
		<path class="st3" d="M96.5,210.9c0.9,0.7,1.8,1.4,2.6,2.1c2.1,1.8,2.9,4.7,1.9,7.3c-0.8,1.8-1.2,3.7-2.8,5
			c-3,2.7-6.5,4.6-10.3,5.7c-2.9,0.8-5.7,1.6-8.6,2.3c-1.8,0.4-3.6,0.6-5.4,0.9s-3.3,0.6-5,0.9c-1.2,0.2-2.4,0.4-3.6,0.5
			c-2.1,0.2-4-0.7-6-0.6c-0.5,0-1.2,0.8-1.7,0.8c-3-0.2-6-0.4-9-0.6c-0.1,0-0.2,0-0.2,0c-2,2.6-3.9,5-5.7,7.5c-1,1.4-2,2.9-3,4.3
			c-2.6,3.5-5.3,6.1-8,9.6c-1.7,2.3-3.4,4.4-5.1,6.7c-2.1,2.8-4.6,5.6-6.6,8.5c-1.3,2.1-2.7,4-4.3,5.9c-3.7,4.1-7.1,8.4-10.2,13
			c-11.1,16.5-23.9,32.8-41.2,43c-3.4,2.1-7,3.7-10.9,4.6c-4.1,0.7-8.3,0.6-12.3-0.3c-8.6-1.8-17-6.5-21-14.3
			c-3.2-6.1-3.3-13.4-1.5-20s5.4-12.6,9.5-18.1c6.7-8.7,14.2-16.7,22.5-23.9c2.1-1.9,4.2-3.7,6.3-5.5c1.7-1.5,3-3.2,4.7-4.7
			c4.6-3.8,9.2-7.5,13.9-11.2l25.7-20.7l19-15.3c3.3-2.6,6.5-5.3,9.9-7.8c1-0.7,1.7-1.8,2-3c0.8-2.6,1.8-5.1,2.6-7.7
			c0.9-2.9,2.1-5.8,3.5-8.5c1-2.2,2.4-4.2,3.6-6.3c2-3.5,4.1-7,6.1-10.5c1.1-1.9,1.9-3.9,3-5.8c1.4-2.9,2.4-6.1,2.8-9.3
			c0.8-3.4,1.1-6.9,1.1-10.4c-0.1-0.9,0.6-1.6,1.5-1.7c0,0,0.1,0,0.1,0c1.4-0.2,2.8,0,4,0.6c3.2,1.5,5.4,4.4,6.2,7.9
			c0.9,3.7,1.1,7.6,0.6,11.4c-0.1,0.6-0.1,1.1-0.2,1.7l-1,8.3c-0.1,0.9-0.2,1.8-0.3,2.8c3.6-0.5,6.9-1,10.3-1.4
			c0.8-0.1,1.6,0,2.4-0.1c1.8-0.1,3.7-0.4,5.5-0.5c1.4,0,2.9,0.1,4.3,0.3c2.1,0.3,4.2,0.9,6.1,1.9c2.1,0.9,3.5,2.9,3.8,5.1
			c0.1,0.8,0.2,1.7,0.1,2.6c0,1.7-0.9,3.3-2.5,4c-0.2,0.1-0.3,0.2-0.4,0.3c-0.1,0.1-0.1,0.2-0.1,0.3c0.5,0.2,0.9,0.3,1.4,0.5
			c3,1.4,5,3.6,5.4,7.1c0.2,1.9-0.7,3.5-1.7,5.1c-0.8,1.2-2,2.3-3.3,2.9c2.1,1.2,3.8,2.8,5,4.8c1.9,3.3,1.1,7.4-1.8,9.8
			C98.9,209.5,97.7,210.1,96.5,210.9z M54.9,144.9l1.7-0.3c0.4-2,0.7-3.9-0.6-6L54.9,144.9z"/>
		<path d="M96.5,210.9c0.9,0.7,1.8,1.4,2.6,2.1c2.1,1.8,2.9,4.7,1.9,7.3c-0.8,1.8-1.2,3.7-2.8,5c-3,2.7-6.5,4.6-10.3,5.7
			c-2.9,0.8-5.7,1.6-8.6,2.3c-1.8,0.4-3.6,0.6-5.4,0.9s-3.3,0.6-5,0.9c-5.3,0.9-10.7,0.6-16,0.4c-1.2-0.1-2.4-0.1-3.7,0
			c-0.5,0-1,0.1-1.4,0.3c-0.4,0.4-0.8,0.9-1.1,1.4c-1.4,1.9-2.8,3.7-4.2,5.6c-1,1.4-2,2.9-3,4.3c-2.6,3.5-5.2,7-7.8,10.5
			c-1.7,2.3-3.5,4.6-5.2,6.9S-0.2,299.6-2,302.1c-0.5,0.7-1.1,1.4-1.7,2c-0.2,0.2-0.4,0.3-0.6,0c-0.1-0.2-0.2-0.4-0.2-0.6
			c0.3-0.5,0.6-0.9,1-1.3c2-2.8,27.2-35.9,29.3-38.7c2.5-3.4,5-6.7,7.5-10.1c1.4-1.8,2.8-3.6,4.2-5.5c1.1-1.5,2.1-3,3.2-4.4
			c1.2-1.7,2.5-3.3,3.7-5c0.7-0.8,1.3-1.6,2-2.5c0.4-0.6,1-1.1,1.8-1.2c0.8-0.2,1.7-0.3,2.5-0.3c7.6-0.1,15.1-0.6,22.6-1.6
			c2.2-0.3,4.4-0.8,6.6-1.2c5.1-1.2,10.3-2.4,14.8-5.4c2.3-1.5,4.1-3.7,4.9-6.4c0.4-1,0.4-2,0.2-3.1c-0.7-2.5-2.7-4.6-5.2-5.3
			c-0.3-0.1-0.7-0.1-1-0.1c-2.3,0.2-4.6,0.4-6.9,0.7c-0.5,0-0.9,0.2-1.4,0.2c-0.4,0.1-0.7,0-1-0.3c-0.7-1.1,2-1.3,2.5-1.3
			c1.7-0.2,3.4-0.4,5.1-0.6c2.5-0.3,4.9-1.1,7-2.6c1.9-1.2,3.1-4.7,2.2-6.8c-1.1-2.4-2.4-4.6-5-5.7c-0.6-0.2-1.2-0.3-1.8-0.2
			c-2.2,0.4-4.4,0.8-6.7,1.2c-0.6,0.1-1.9,0.7-2.3,0c-0.8-1.3,2.5-1.5,3.1-1.7c2-0.5,4.1-0.9,6.1-1.4c2-0.6,3.8-1.9,4.8-3.7
			c1.1-1.6,1.3-3.8,0.3-5.5c-0.9-1.7-2.3-3.1-4.1-3.9c-2.1-0.9-4.5-1-6.7-0.2c-1.8,0.5-3.7,0.9-5.5,1.3c-0.5,0-0.9-0.1-1.3-0.2
			c0.5-0.8,1.4-1.4,2.3-1.4c0.7-0.1,1.4-0.2,2-0.5c1.4-0.4,2.8-0.6,4.3-1s2.7-0.9,4-1.3c1-0.4,1.7-1.3,1.8-2.3
			c0.6-3.1-0.8-6.2-3.8-7.2c-1.8-0.7-3.7-1.1-5.6-1.4c-2.5-0.4-5-0.4-7.4,0c-1.8,0.3-3.8,0.3-5.6,0.5c-4.1,0.4-8.3,0.7-12.4,1.1
			c-0.9,0.1-1.8,0.2-2.6,0.3l-1.3,0.2c-0.3,0-0.7,0.2-1,0c-0.1-0.1-0.2-0.1-0.2-0.3c-0.1-0.6,1.9-0.7,2.2-0.8
			c1.4-0.2,2.7-0.4,4.1-0.6c0.4-0.1,1.1-0.1,1.3-0.6c0.2-0.6,0.2-1.2,0.2-1.8c0.2-2.4,0.6-4.8,0.9-7.2c0.7-4.6,0.7-9.4-0.1-14
			c-0.8-3.8-2.8-6.7-6.6-8c-0.9-0.3-1.8-0.3-2.6-0.1c-0.3,0.9-0.1,2,0.7,2.7c1.1,1,1.7,2.5,1.6,4c0,0.9-0.1,1.8-0.1,2.7
			c0,1.2-0.7,1.7-1.7,1.9c-0.5,0.1-1.1,0.2-1.6,0.3c-0.6,2.4-1.3,4.6-1.9,6.9c1.8,0.1,1.8,0.1,2.2,1.1l-3,0.4
			c-0.4,0.9-0.7,1.8-1.1,2.6c-0.6,1.1-1.2,2.3-1.8,3.4c-1,1.6-1.9,3.2-2.9,4.9c-1.2,2-2.3,4-3.6,5.9c-0.7,1.1-1.6,2.2-2.2,3.4
			s-1.1,2.4-1.6,3.6c-1,2.2-2.2,4.4-3,6.7c-1.3,3.6-2.8,7-3.5,10.8c-0.1,0.7,0.3,1.6-0.7,2.1l-0.6-1l-1.1,0.9l-9,7.3l-9.1,7.4
			l-9.1,7.4l-9.1,7.4l-9.1,7.4l-9.1,7.4l-9.1,7.4l-9.1,7.4l-4.6,3.7l-2.3,1.9c-0.4,0.3-1.3,1.3-1.8,0.8c0,0-0.1-0.1-0.1-0.1
			c0,0,0-0.1,0-0.1c0-0.4,0.2-0.8,0.5-1.1c4-3.2,8-6.4,12-9.6c4.8-3.9,9.6-7.8,14.4-11.7l25.7-20.8l19-15.3c3.3-2.6,6.5-5.3,9.9-7.8
			c1-0.7,1.7-1.8,2-3c0.8-2.6,1.8-5.1,2.6-7.7c0.9-2.9,2.1-5.8,3.5-8.5c1-2.2,2.4-4.2,3.6-6.3c2-3.5,4.1-7,6.1-10.5
			c1.1-1.9,1.9-3.9,3-5.8c1.4-2.9,2.4-6.1,2.8-9.3c0.8-3.4,1.1-6.9,1.1-10.4c-0.1-0.9,0.6-1.6,1.5-1.7c0,0,0.1,0,0.1,0
			c1.4-0.2,2.8,0,4,0.6c3.2,1.5,5.4,4.4,6.2,7.9c0.9,3.7,1.1,7.6,0.6,11.4c-0.1,0.6-0.1,1.1-0.2,1.7l-1,8.3
			c-0.1,0.9-0.2,1.8-0.3,2.8c3.6-0.5,6.9-1,10.3-1.4c0.8-0.1,1.6,0,2.4-0.1c1.8-0.1,3.7-0.4,5.5-0.5c1.4,0,2.9,0.1,4.3,0.3
			c2.1,0.3,4.2,0.9,6.1,1.9c2.1,0.9,3.5,2.9,3.8,5.1c0.1,0.8,0.2,1.7,0.1,2.6c0,1.7-0.9,3.3-2.5,4c-0.2,0.1-0.3,0.2-0.4,0.3
			c-0.1,0.1-0.1,0.2-0.1,0.3c0.5,0.2,0.9,0.3,1.4,0.5c3,1.4,5,3.6,5.4,7.1c0.2,1.9-0.7,3.5-1.7,5.1c-0.8,1.2-2,2.3-3.3,2.9
			c2.1,1.2,3.8,2.8,5,4.8c1.9,3.3,1.1,7.4-1.8,9.8C98.9,209.5,97.7,210.1,96.5,210.9z M54.9,144.9l1.7-0.3c0.4-2,0.7-3.9-0.6-6
			L54.9,144.9z"/>
	</g>
</g>
</svg>
