<?xml version="1.0" encoding="utf-8"?>
<!-- Generator: Adobe Illustrator 24.0.1, SVG Export Plug-In . SVG Version: 6.00 Build 0)  -->
<svg version="1.1" id="Layer_1" xmlns="http://www.w3.org/2000/svg" xmlns:xlink="http://www.w3.org/1999/xlink" x="0px" y="0px"
	 viewBox="0 0 216 342.8" style="enable-background:new 0 0 216 342.8;" xml:space="preserve">
<style type="text/css">
	.st0{clip-path:url(#SVGID_2_);}
	.st1{fill:#9F8BEA;}
	.st2{fill:#AFEFD2;}
	.st3{fill:#F2EBAF;}
	.st4{fill:#F2A7DF;}
	.st5{fill:#F1F2F2;}
	.st6{fill:#6484E8;}
</style>
<title>Mesa de trabajo 19</title>
<g>
	<defs>
		<rect id="SVGID_1_" y="5.5" width="215.8" height="337.3"/>
	</defs>
	<clipPath id="SVGID_2_">
		<use xlink:href="#SVGID_1_"  style="overflow:visible;"/>
	</clipPath>
	<g class="st0">
		<path class="st1" d="M-41.7,323.4c0,0,7.2-114.6,32.6-120.8l29.4-14.1l24.4-12.2l30.1-1l4.3-7.8l75.1,4.9l71.9,26.3
			c0,0,37.4,5.7,39.4,48.4s-1.8,98-1.8,98S80.2,412-41.7,323.4z"/>
		<path class="st2" d="M27.3,154.4c12,1.1,24.1,1.5,36.1,1.4c46.6-0.7,123.1-3.7,123.1-3.7c3.5-17.8,4.8-35.9,4-54.1
			c-1.3-23.3-7.9-47.9-24.3-63.7c-10-9.6-22.7-16.4-42.6-15.7c-31.1,1.1-50.8,14.6-65.4,27.9C14.9,85.8,27.3,154.4,27.3,154.4z"/>
		<path class="st3" d="M41.2,177.4l22.5-9.9l2.5-54.3c0,0-26.8,9-23.8-23.9c0,0,5-18.9,20.5-17.7c0,0,8.5,1,12.7,5.7
			c3.5-2.6,6.7-5.5,9.6-8.9C89.8,63,96.6,55,97.9,41.7l3.1,8l70.4-1.1c0,0,38.5,57.8-36.2,91.3l-0.3,26.4l24.8,8
			c0.2,7-0.6,14-2.4,20.8c-1.4,5.2-2.5,10.7-6.9,15.8c-8.2,9.4-23.5,16.8-47.8,18.3c-25.6,1.6-41-4.6-49.7-14
			C38.5,199.7,41.2,177.4,41.2,177.4z"/>
		<path d="M52.1,112.7c0.6,0.2,1.3,0.3,1.2,0.9c-0.4,1.6-1.7,4.3-2,5.9c-0.4,2,0.1,4.1,1.3,5.6c1.4,1.8,3.9,1.6,5.7-0.2
			c1.1-1.2,1.9-2.8,2.2-4.4c0.9-3.6,0.7-7.4-0.5-10.8c-0.1-0.4-0.2-0.7,0.2-1c0.3-0.2,0.8-0.2,1,0.2c0,0,0,0.1,0.1,0.1
			c0.3,0.4,0.5,0.9,0.7,1.4c1.6,4.8,1.1,10.1-1.4,14.5c-1.3,2.3-3.9,3.5-6.5,3c-1.6-0.4-3-1.5-3.7-3.1c-0.7-1.3-1-2.7-1-4.1
			C49.8,117.9,50.7,115.1,52.1,112.7z"/>
		<path d="M149.4,98.4c0,0.7,0.2,1.4,0.5,2.1c0.3,0.9,1.2,1.4,2.2,1.2c0.9,0,1.7-0.7,1.9-1.6c0.1-1,0-1.9-0.2-2.8c0-0.2,0-0.4,0-0.7
			c0-0.3,0.3-0.5,0.6-0.5c0.1,0,0.2,0.1,0.3,0.2c0.1,0.1,0.2,0.3,0.3,0.4c0.3,0.8,0.5,1.7,0.4,2.6c0,0.2,0,0.3,0,0.5
			c0,1.5-0.9,2.8-2.2,3.4c-1.3,0.5-2.8,0.1-3.7-0.9c-1.2-1.3-1.2-3-1.3-4.6c0-0.2,0-0.5,0.1-0.7c0.1-0.2,0.2-0.4,0.4-0.5
			c0.2-0.1,0.5,0,0.6,0.2c0.1,0.1,0.1,0.3,0.1,0.4C149.4,97.5,149.4,98,149.4,98.4z"/>
		<path d="M40.7,179.1c-0.8,0.4-1.5,0.7-2.2,1c-4.8,2.4-9.6,4.7-14.4,7.1c-3.9,1.9-7.9,3.7-11.8,5.6c-4.5,2.2-9,4.4-13.5,6.6
			c-2.4,1.2-4.8,2.4-7.3,3.5c-0.9,0.4-1.1,0.3-1.6-0.8c0.6-0.3,1.1-0.7,1.7-0.9c6-2.9,12-5.7,18-8.6c8-3.8,15.9-7.7,23.9-11.5
			c8.9-4.3,17.8-8.4,26.6-12.7c0.7-0.3,1.4-0.7,2.1-1c0.6-0.1,1-0.7,1-1.2c0.2-3.1,0.3-6.2,0.4-9.4c-2-0.1-3.8-0.1-5.7-0.2
			c-1,0-2.1-0.1-3.1-0.2c-0.6,0-1.2,0-1.8,0c-2.9,0.2-5.7-0.1-8.6-0.1c-2.5,0.1-4.9-0.1-7.4-0.2c-2.9-0.1-5.8-0.2-8.6-0.3
			c-1.8-0.1-2.5-0.8-2.7-2.6c-0.6-5.3-1-10.6-1.3-16c-0.2-5.1-0.1-10.2,0.2-15.3c0.5-8.5,1.8-16.9,3.9-25.2
			c3.7-14.4,9.7-27.7,18.9-39.5c6.3-8.1,13.9-15.2,22.4-21c5.8-3.9,12.1-7.3,18.6-10c10-4.4,20.8-7,31.7-7.6
			c14.7-0.9,23.4,2.5,24.6,2.9c9.1,2.7,17.4,7.7,24,14.6c2.1,2.1,3.9,4.4,5.6,6.9c0.6,0.9,1.3,1.7,1.9,2.6c1.9,2.9,3.6,5.9,5,9
			c1.3,2.6,2.5,5.3,3.5,8c1.2,2.9,2,6,2.6,9.1c0,0.2,0.1,0.5,0.2,0.7c1,3.3,1.7,6.7,2.2,10.1c0.5,2.6,0.8,5.2,1.1,7.8
			c0.4,2.8,0.5,5.7,0.7,8.6c0.2,3.6,0,17.5-0.1,20.2c0,0.2-0.9,13.2-1.5,17c-0.7,4.4-1.4,8.8-2.1,13.3c-0.1,0.7-0.3,1.4-0.4,2.2
			c-0.1,0.5-0.1,1.3-0.6,1.6c-0.2,0.2-0.5,0.3-0.8,0.3h-0.2c-0.9,0.2-1.8,0.3-2.8,0.3c-0.9,0-1.8-0.2-2.7-0.1
			c-1.9,0.1-3.9,0.1-5.8,0.1l-9.4,0.2l-29.8,0.8c0.1,3.4,0.3,6.8,0.4,10.3c0.3,0.3,0.7,0.5,1.1,0.6c2.2,0.7,4.5,1.4,6.7,2.1
			s4.5,1.6,6.8,2.5s4.6,1.7,6.9,2.6c2.6,1,5.1,2,7.7,2.9c3.1,1.1,6.1,2.1,9.2,3.2c1.9,0.7,3.7,1.5,5.5,2.2
			c0.9,0.3,26.2,9.5,28.8,10.4s5.4,1.9,8.1,3l0.8,0.3c1.9,0.8,3.8,1.5,5.7,2.3c0.6,0.2,1.1,0.5,1.6,0.8c0.1,0.1,0.2,0.2,0.3,0.3
			c0.1,0.3,0,0.6-0.3,0.8c-0.4,0.2-0.8,0.1-1.1-0.1c-0.5-0.3-1.1-0.4-1.7-0.7c-1.1-0.4-2.2-0.9-3.4-1.3c-3.1-1.1-6.3-2.2-9.4-3.3
			c-1.2-0.4-2.3-0.8-3.4-1.3c-2-1-4.3-1.5-6.4-2.3c-3.3-1.2-6.6-2.6-9.9-3.8c-2.8-1-5.7-1.9-8.5-3c-2.3-0.8-4.4-1.8-6.7-2.6
			c-3.1-1.1-6.2-2.2-9.3-3.3c-1.5-0.5-2.9-1.1-4.6-1.7c-0.1,0.6-0.1,1.1,0,1.7c0.5,2,0.1,4.1-0.1,6.1s-0.6,4.1-1,6.1
			c-1.1,5.5-2.8,10.9-4.9,16.1c-1.5,3.7-3.9,6.9-7,9.3c-6.4,5-13.2,9.2-21,11.4c-5.2,1.6-10.5,2.7-15.8,3.3c-3.4,0.4-6.8,0.7-10.2,1
			c-8.3,0.2-16.7-0.5-24.9-2.2c-1.7-0.4-3.4-0.9-5-1.4c-1.8-0.5-3.5-1.1-5.2-1.8c-1.6-0.7-3.1-1.6-4.6-2.5c-0.8-0.4-1.6-0.9-2.4-1.4
			c-0.6-0.5-1.2-1-1.8-1.5c-0.7-0.6-1.3-1.2-2-1.8c-1.5-1.2-2.9-2.5-4-4.1c-1.9-2.5-3.8-5-4.7-8c-0.3-0.8-0.7-1.7-1.1-2.4
			c-1.7-3.7-2.8-7.7-3.2-11.7c-0.3-2.4-0.7-4.8-0.9-7.2C40.6,182.9,40.7,181.1,40.7,179.1z M185.3,151.7L185.3,151.7
			c0.7-0.4,0.7-1.7,0.8-2.3c0.8-4.8,1.5-9.5,2.2-14.3c0.3-2,1.2-10.5,1.3-11.6c0.1-1.4,0.6-16.7,0.5-17.4c-0.1-1.4,0-2.8-0.1-4.3
			c-0.1-2-0.1-4.1-0.3-6.1s-0.1-4-0.4-5.9c-0.2-1.4-0.3-2.8-0.6-4.2c-0.7-3.4-1.1-6.9-1.8-10.3c-0.5-2.2-1.1-4.4-1.6-6.6
			c-0.5-2-1.3-3.9-2-5.9c-2-5.7-4.6-11.1-7.8-16.2c-2.6-4-5.6-7.7-9.1-11c-2.4-2.3-5-4.3-7.7-6.2c-5.1-3.4-10.8-5.9-16.8-7.4
			c-3-0.8-6.1-1.3-9.3-1.6c-3.7-0.3-7.4-0.7-11.2-0.6c-7.5,0-14.9,1.2-22,3.5c-2.5,0.8-5,1.6-7.4,2.6c-2.8,1.2-5.5,2.5-8.2,3.9
			c-3.4,1.8-6.9,3.6-10.1,5.7c-3,1.9-5.7,4-8.5,6.2c-2.2,1.7-4.4,3.6-6.4,5.5c-2.7,2.4-5.2,5-7.4,7.8c-1.5,2.1-3.3,4-4.8,6.1
			c-1.9,2.7-3.6,5.5-5.3,8.4c-2.9,4.7-5.2,9.8-7.1,15c-1.4,3.9-2.7,7.9-3.8,11.9c-1,3.5-1.6,7.1-2.3,10.6c-0.3,1.7-0.6,3.5-0.7,5.2
			c-0.5,5-1,10.1-1.2,15.1c-0.2,4.2,0,8.3,0.2,12.5c0.2,4.4,0.7,8.7,1.1,13c0.1,0.4,0.1,0.7,0.3,1.1c0.2,0.1,0.4,0.1,0.6,0.1
			c2.9,0,5.9,0,8.8,0.1c1.7,0.1,3.4,0.3,5.2,0.3l5.6,0.1l11.2,0.1c0.8,0,1.5,0,2.3,0c0.5,0,1.8,0.1,2.2-0.1s0.3-1.5,0.3-1.9
			c0.1-3.9,0.2-7.7,0.4-11.6c0.1-2.7,0.3-5.5,0.4-8.2c0.2-4.3,0.4-8.5,0.6-12.8c0.1-1.7,0.3-3.4,0.3-5.1c0-2.4,0.2-2.5,1-2.6
			c0.2,3.7-0.1,8.7-0.2,12.3c-0.1,3.6-0.2,7.3-0.4,10.9s-0.3,7.2-0.4,10.8s-0.5,7.1-0.5,10.8s-0.4,7.1-0.6,10.4l-22.5,11
			c0,0.5,0,0.8,0,1.1c-0.3,5.3,1.1,10.3,1.9,15.4c0.8,4.8,3,9.1,5.1,13.5c1.6,3.1,3.8,5.9,6.5,8.1c2.6,2.2,5.4,4.1,8.4,5.7
			c1.1,0.7,2.3,1.2,3.6,1.7c2.6,0.8,5.1,1.5,7.7,2.2c2.4,0.8,4.9,1.3,7.4,1.7c2.1,0.4,4.2,0.5,6.4,0.6c2.5,0,5.1,0.2,7.6,0.5
			c0.3,0,0.7,0,1,0c2.1-0.1,4.1-0.2,6.2-0.4c4.9-0.3,9.8-1,14.6-2.1c1.2-0.3,2.4-0.6,3.6-0.8c4.5-0.8,8.9-2.4,12.9-4.6
			c1.8-0.9,3.5-2.1,5.2-3.1c2.9-1.6,5.5-3.5,7.9-5.7c1.6-1.5,2.9-3.2,3.9-5.1c1.1-1.9,1.6-4,2.5-6c1.5-3.6,2.6-7.4,3.4-11.2
			c0.6-2.5,1-5,1.3-7.5c0.2-1.3,0.3-2.6,0.3-3.9c0-1.2-0.2-2.4-0.3-3.6l-5.4-2.1l-6.4-2.4c-1.8-0.7-11.6-3.9-12-4.1
			c-0.6-0.3-0.7-0.9-0.8-1.5c0-1.4,0-2.7,0-4.1c-0.1-3.4-0.3-6.9-0.5-10.3c-0.1-2.6,0.3-9.2,0.3-9.8c0.1,0,0-1.4,0.1-1.5
			c0.2,0.3,0.7-0.3,0.8,0c0.2,2.3-0.1,7,0,9.3c0.1,1.3,0.2,2.7,0.3,4c1.1,0.1,22,0,23.8-0.1c3.5-0.1,7-0.3,10.5-0.4
			c3.9-0.1,7.8-0.1,11.7-0.1c1,0.1,2,0,3-0.1C184.8,151.8,185,151.8,185.3,151.7L185.3,151.7z"/>
		<path d="M74.7,76.5c1.9-0.4,3.6-1.5,4.8-3c1.5-1.6,2.9-3.3,4.4-4.8c2.7-2.8,4.6-6,6.6-9.2c1-1.8,1.9-3.6,2.7-5.4
			c0.5-1,0.8-2,1.3-3c0.9-2.3,1.6-4.6,2.1-7c0.2-0.7,0.3-1.5,0.6-2.2c0.1-0.3,0.4-0.6,0.8-0.7c0.4-0.1,0.9,0.1,1,0.6c0,0,0,0,0,0.1
			c0.4,1.1,0.9,2.1,1.2,3.2c0.4,1.3,0.6,2.7,0.9,4.1c0.2,0.8,33.7-1.1,36.8-1.2l18.4-0.4c2.8-0.1,5.7-0.2,8.5-0.2
			c0.4,0,0.9,0.1,1.3,0.1c0.7,0,1.4-0.2,2.1-0.3c1.4-0.1,2.9-0.2,4.4-0.1c2.1,0.1,2.9,3,3.8,4.6c3.4,5.9,5.5,12.4,6.3,19.1
			c1.1,8.8,0,17.8-3,26.1c-2.4,6.8-5.9,13.1-10.3,18.7c-5.6,7.1-12.4,13.1-20.2,17.7c-3.1,1.9-6.3,3.6-9.7,5
			c-1.1,0.4-2.2,0.7-3.3,1.1c-0.4,0.1-0.6,0.4-1,0.5c-1.8,0.6-3.6,1.1-5.4,1.7c-0.8,0.2-1.6,0.3-2.3,0.6c-2.4,0.8-4.8,1.2-7.3,1.5
			c-0.9,0.1-1.9,0.3-2.8,0.4c-2.2,0.1-4.4,0.2-6.6,0.2c-0.9,0-1.9-0.3-2.8-0.3c-2.4,0-4.9-0.1-7.3-0.6c-1-0.1-1.9-0.3-2.9-0.6
			c-0.6-0.2-1.2-0.4-0.8-1.4c1.1-0.3,2.2,0.3,3.4,0.4c2.6,0.2,5.3,0.6,7.9,0.8c3.3,0.2,6.6,0.1,9.9-0.3c3.2-0.3,6.3-0.9,9.4-1.6
			c7.2-1.5,13.8-4.5,20.1-8.1c4.9-2.8,9.5-6.2,13.6-10.2c2.7-2.6,5.1-5.3,7.4-8.2c3.3-4.3,6-8.9,8.1-13.9c2.3-5.3,3.7-10.8,4.3-16.5
			c0.4-3.8,0.4-7.6,0.1-11.3c-0.5-5.1-1.8-10-3.8-14.7c-1.2-2.8-2.7-5.5-4.3-8.2c-0.3-0.6-1-1-1.7-0.9l-24.3,0.6
			c-5.8,0.1-11.5,0.3-17.3,0.5L110.4,50l-7.7,0.2h-0.3c-2.9-0.3-2.8-0.1-3.2-2.9c-0.2-1.2-0.4-2.4-0.7-3.6h-0.3
			c-0.2,0.8-0.4,1.7-0.6,2.5c-0.6,2.7-1.5,5.3-2.7,7.7c-1.2,2.3-2.2,4.7-3.5,7c-2.1,3.5-4.5,6.7-7.3,9.5c-1.6,1.7-3.2,3.4-4.9,5
			c-0.5,0.5-1.1,0.8-1.6,1.3s-1,0.6-1.2,1c-0.1,0.2-0.1,0.5-0.2,0.7c0,0.1-0.1,0.2-0.2,0.2c-0.2,0.1-0.4,0-0.6-0.2
			c-0.5-0.3-0.9-0.7-1.3-1.1c-0.3-0.4-0.6-0.8-1-1.2c-0.8-0.8-1.6-1.5-2.6-2.2c-1.8-1.2-3.9-2.1-6.1-2.4c-1.7-0.2-3.3-0.2-5,0
			C53.8,72.3,49,77,46.3,81.9c0,0.3-0.5,0.9-0.6,1.2s-0.3,0.8-0.5,1.2c-0.4,0.7-0.7,1.4-0.9,2.1c-0.6,1.8-1.1,3.6-1.5,5.4
			c-0.4,2.1-0.4,4.4,0,6.5c0.4,3.2,1.7,6.2,3.6,8.9c4.6,6.1,11.5,8.1,18.7,5.1c0.6-0.2,1.1-0.5,1.7-0.8c0.4-0.3,0.9-0.6,1.5-0.8
			c0.2,0,0.4,0,0.7,0c0.2,0.1,0.4,0.3,0.4,0.5c0,0.3-0.4,0.7-0.7,1c-0.4,0.3-0.8,0.6-1.2,0.8c-0.8,0.5-1.7,0.9-2.6,1.2
			c-1.8,0.7-3.7,1-5.7,1c-4.2,0-8.2-1.5-11.3-4.3c-2.6-2.4-4.5-5.4-5.5-8.8c-0.5-1.9-0.8-3.8-1-5.8c-0.3-3-0.1-6,0.7-8.9
			c0.9-2.9,2.2-5.6,3.8-8.2c1.8-2.6,4.1-4.9,6.8-6.5c4.8-2.9,9.9-3.7,15.2-1.7c2.5,0.9,4.7,2.6,6.3,4.7
			C74.3,76.1,74.5,76.3,74.7,76.5z"/>
		<path class="st4" d="M157.2,119.2c-4.7-2.1-12-1.5-14.9,1.1c1.3,2.5,4,4,6.8,3.8c0.5,0,1,0,1.5-0.1c1.1-0.5,2.2-1,3.3-1.6
			C155.1,121.5,156.3,120.4,157.2,119.2z"/>
		<path class="st1" d="M141.5,119c5.5-3.1,11.1-3.9,16.9-1.7c1.3-1.6,2.1-3.6,2.5-5.6c-0.8,0.7-1.6,1.4-2.5,1.9
			c-1.1,0.7-2.1,0-2.8-0.6c-0.7,0.6-1.6,1.2-2.4,1.6c-1,0.4-1.7-0.6-2.5-1c-0.3,0.3-0.5,0.5-0.8,0.7c-0.2,0.2-0.5,0.4-0.8,0.6
			c-0.9,0.7-2.2,0.7-3-0.1c-0.3-0.3-0.7-0.4-1-0.7c-2,2.2-2.4,2.4-4.6,1.8C140.9,117.2,141.2,118.1,141.5,119z"/>
		<path class="st5" d="M146.2,110.9c0.1,0.8,0.2,1.7,0.4,2.5c0.1,0.5,0.7,0.8,1.2,0.7c0.1,0,0.1,0,0.2-0.1c1.5-0.6,2.4-2.2,2.2-3.8
			L146.2,110.9z"/>
		<path class="st5" d="M140.2,111.7c0.4,1,0.6,1.9,1,2.7c0.2,0.5,0.7,0.9,1.3,0.5c1.2-0.9,2-2.3,2.1-3.8L140.2,111.7z"/>
		<path class="st5" d="M157,109.3c-0.2,1-0.6,1.8-0.1,2.7c0.3,0.5,0.6,0.7,1.1,0.3c1.2-0.8,2-2.1,2.1-3.6L157,109.3z"/>
		<path class="st5" d="M155.1,109.5L152,110c-0.1,1.2-0.4,2.3,0.4,3.3C153.9,113.1,154.8,111.8,155.1,109.5z"/>
		<path class="st4" d="M148.7,96.8c-0.3,0.5-0.5,1-0.8,1.6s-0.4,1-0.9,1c-0.3,0-0.6,0-1,0c-0.3,0-0.5,0-0.8-0.2
			c-0.1-0.1-0.2-0.1-0.3-0.2c-0.9-1-1.3-2.3-1.4-3.7c0-1.1,0.2-2.1,0.3-3.2c0.1-2.2-0.5-4.4-0.4-6.7c0-0.4-0.1-0.8-0.1-1.3
			c0-0.5,0.1-1,0.3-1.5c0.2-1.1,0.4-2.1,0.4-3.2c0-0.5,0-1.1-0.1-1.6c-0.1-1.9,0-3.8,0.4-5.7c0.1-0.5,0.2-0.9,0.3-1.4
			c0-0.3,0.1-0.5,0.2-0.8c0.6-1.5,2.7-1.4,4-0.9c1.6,0.7,2.9,1.8,3.8,3.3c0.9,1.6,1.6,3.3,2.3,5c0.5,1.3,0.9,2.7,1.3,4.1
			c1,3.6,2,7.2,2.8,10.8c0.2,1.4,0.2,2.7-0.1,4.1c-0.4,2.1-1.9,2.3-3.5,1.3c-0.5-0.4-0.9-0.8-1.3-1.2c-0.1,0.2-0.2,0.4-0.4,0.7
			c-0.4,0.8-0.8,1.7-1.8,1.8c-1,0.2-2-0.3-2.5-1.3C149.2,97.4,149,97.2,148.7,96.8z"/>
		<path d="M57.6,100.5c-1-0.2-1.8-0.9-2.3-1.8c-1.4-2.5-2-5.5-1.5-8.3c0.3-2.9,1.6-5.6,3.5-7.7c0.5-0.6,1-0.9,1.8-0.1
			c-0.2,0.3-0.4,0.6-0.6,1c-0.8,1.3-1.6,2.7-2.4,4c-0.4,0.5-0.2,1.2,0.3,1.6c0,0,0,0,0,0c1.5,1.3,2.7,2.9,4.6,3.8
			c0.3,0.1,0.5,0.3,0.6,0.6c0.1,0.3,0.1,0.6,0,0.9c-0.1,0.1-0.6,0.2-0.8,0c-1.5-0.8-2.9-1.9-4-3.2c-0.3-0.4-0.7-0.7-1.2-1.2
			c-0.6,1.9-0.5,3.9,0.3,5.8c0.5,1.2,0.7,2.5,2,3.4C58.3,99.3,58.1,100,57.6,100.5z"/>
		<path d="M95.1,171.4c1.5,0.8,2.9,1.7,4.1,2.9c0.8,0.8,1.8,1.4,2.9,2.3c0.7-1.6,1.7-2.8,1.9-4.4c0-0.4,0.2-0.8,0.2-1.3
			s0.4-0.9,0.8-0.8c0.3,0.1,0.5,0.5,0.6,0.8c0.1,0.6,0.1,1.2,0,1.8c-0.4,1.4-0.9,2.8-1.6,4.1c-0.8,1.5-1.8,1.6-3.2,0.6
			s-2.8-2.4-4.2-3.6c-0.4-0.4-0.8-0.8-1.3-1.1C94.8,172.4,94.9,172.1,95.1,171.4z"/>
		<path d="M148.7,96.8c-0.5,1-1,2.8-2.3,3.1c-0.9,0.2-1.9-0.2-2.5-0.9c-0.4-0.6-0.6-1.2-0.7-1.9c-0.1-0.4-0.2-0.9-0.3-1.4
			c-0.4-2-0.5-4-0.2-6.1c0.4-3.9,0.3-17.5,1.2-19.9c0.5-1.4,0.9-1.6,2.3-1.4c2.7,0.2,5,1.7,6.4,4c0.9,1.6,1.6,3.3,2.3,5
			c0.5,1.3,0.9,2.7,1.3,4.1c1,3.6,2,7.2,2.8,10.8c0.2,1.4,0.2,2.7-0.1,4.1c-0.4,2.1-1.9,2.3-3.5,1.3c-0.5-0.4-0.9-0.8-1.3-1.2
			c-0.1,0.2-0.2,0.4-0.4,0.7c-0.4,0.8-0.8,1.7-1.8,1.8c-1,0.2-2-0.3-2.5-1.3C149.2,97.4,149,97.2,148.7,96.8z M156.7,96.5
			c0.2-0.2,0.3-0.5,0.3-0.7c0.2-1.6,0.7-3.2-0.1-4.9c-0.6-1.6-1-3.3-1.2-5c-0.8-3.8-2-7.6-3.6-11.2c-0.9-2.3-2.9-4.1-5.4-4.7
			c-1.3-0.3-1.7-0.1-1.9,1.1c-0.3,1.5-0.6,11.2-0.6,13.8s-0.2,5.1-0.1,7.6c0.1,1.6,0.3,3.3,0.6,4.9c0.1,0.5,0.2,1,0.9,1.2l0.6-0.7
			c0.8-1.1,1.4-2.3,1.7-3.5c0.1-0.3,0.4-0.7,0.6-0.6c0.3,0.1,0.6,0.3,0.8,0.6c0.1,0.1,0.1,0.4,0.2,0.5c0.2,0.6,0.5,1.2,0.8,1.8
			c0.4,0.7,1.1,0.7,1.4,0c0.3-0.7,0.6-1.5,0.7-2.3c0.1-0.5,0.3-0.9,0.8-0.9c0.4,0.1,0.7,0.3,1,0.6c0.3,0.4,0.4,0.9,0.7,1.3
			C155.4,96.1,156,96.5,156.7,96.5L156.7,96.5z"/>
		<path d="M138.6,112.3c-0.4,0.7-0.6,1.2-0.8,1.6c-1.4,2.7-3.2,5.2-5.3,7.3c-0.1,0.1-0.2,0.2-0.3,0.3c-0.5,0.3-1.2,0.3-1.7-0.1
			c-0.5-0.4,0.2-1.1,0.5-1.4c3.6-2.8,5.5-6.8,7.2-11c0.3-0.7,0.5-1.4,0.7-2.1c0.2-0.5,0.3-1.4,0.9-1.6h0.1c0,0,0.1,0,0.1,0
			c0.1,0,0.1,0.1,0.2,0.2c0.2,0.3,0.1,0.8,0,1.1c-0.1,0.4-0.2,0.9-0.3,1.3c0,0.2-0.6,2.6-0.6,2.6c0.7,0,1.5-0.1,2.2-0.2
			c4.3-0.8,8.5-1.6,12.8-2.3c2.2-0.4,4.5-0.7,6.7-1c0.4-0.1,0.8-0.2,1.2-0.2s0.2-1.5,0.2-1.7c0-0.5,0-1.1,0.6-1.2s0.5,2.5,0.5,2.8
			c0.2,1.8,0.9,3.5,2.1,4.8c0.8,0.9,0.8,1.4,0.3,1.8s-0.9,0.1-1.6-0.8c-0.4-0.6-0.8-1.3-1.1-1.8c-0.9,2.1-1.7,4.3-2.8,6.3
			c-1.8,3.6-4.7,6.4-8.3,8c-4.5,2-8.8,0.3-11.3-3.8c-1.4-2.4-2.1-5.1-2.2-7.8C138.7,113.2,138.6,113,138.6,112.3z M157.2,119.2
			c-4.7-2.1-12-1.5-14.9,1.1c1.3,2.5,4,4,6.8,3.8c0.5,0,1,0,1.5-0.1c1.1-0.5,2.2-1,3.3-1.6C155.1,121.5,156.3,120.4,157.2,119.2z
			 M141.5,119c5.5-3.1,11.1-3.9,16.9-1.7c1.3-1.6,2.1-3.6,2.5-5.6c-0.8,0.7-1.6,1.4-2.5,1.9c-1.1,0.7-2.1,0-2.8-0.6
			c-0.7,0.6-1.6,1.2-2.4,1.6c-1,0.4-1.7-0.6-2.5-1c-0.3,0.3-0.5,0.5-0.8,0.7c-0.2,0.2-0.5,0.4-0.8,0.6c-0.9,0.7-2.2,0.7-3-0.1
			c-0.3-0.3-0.7-0.4-1-0.7c-2,2.2-2.4,2.4-4.6,1.8C140.9,117.2,141.2,118.1,141.5,119z M146.2,110.9c0.1,0.8,0.2,1.7,0.4,2.5
			c0.1,0.5,0.7,0.9,1.2,0.7c0.1,0,0.1,0,0.2-0.1c1.5-0.6,2.4-2.2,2.2-3.8L146.2,110.9z M140.2,111.7c0.4,1,0.6,1.9,1,2.7
			c0.2,0.5,0.7,0.9,1.3,0.5c1.2-0.9,2-2.3,2.1-3.8L140.2,111.7z M157,109.3c-0.2,1-0.6,1.8-0.1,2.7c0.3,0.5,0.6,0.7,1.1,0.3
			c1.2-0.8,2-2.1,2.1-3.6L157,109.3z M155.1,109.5L152,110c-0.1,1.2-0.4,2.3,0.4,3.3C153.9,113.1,154.8,111.8,155.1,109.5
			L155.1,109.5z"/>
		<path class="st5" d="M170.1,89.5c0.7-0.9,1.4-1.7,2.2-2.6c2.4-2.2,4.8-4.4,7.2-6.6c3.6-3.3,7.1-6.6,10.8-9.9c3.3-3,6.7-6,10.1-9
			c-0.5-1.2-0.6-2.6-1.6-3.8l-32.9,30.2c1,0.8,1.6,2,2.7,2.3L170.1,89.5l-0.6,1.4c1.5,0.8,2.9,1.5,4.4,2.1c0.6,0.2,1.2,0,1.7-0.4
			c1.7-1.6,3.4-3.2,5.1-4.8c2.4-2.1,4.8-4.3,7.1-6.4c2.7-2.4,5.5-4.8,8.2-7.2c1-0.9,2-1.7,3.1-2.5c2.2-1.7,2.2-1.9,2.2-4.7
			c0-0.5,0-0.9-0.1-1.4c-0.1-0.8-0.3-1.6-0.5-2.5c-0.3,0.2-0.7,0.4-0.9,0.7c-0.5,0.5-0.9,1.1-1.4,1.5c-1.7,1.6-3.4,3.1-5.1,4.7
			c-0.6,0.6-1.3,1.1-1.9,1.6c-0.9,0.7-1.7,1.5-2.5,2.2l-3.4,3c-1.7,1.5-3.4,3-5.1,4.5c-0.4,0.4-0.8,0.8-1.2,1.2
			c-1.9,1.1-3.3,2.8-4.9,4.1C172.9,87.7,171.7,89,170.1,89.5z"/>
		<path class="st5" d="M102.7,101.5c0.9-0.9,1.8-1.9,2.8-2.8c2.4-2.2,4.8-4.3,7.2-6.6c3.4-3.1,6.8-6.3,10.2-9.4s6.8-6.1,10.3-9.2
			c-0.3-0.9-0.6-1.9-1-2.8c-0.1-0.3-0.3-0.6-0.5-1l-33,30.2c0.6,0.6,1,1.2,1.6,1.7c0.4,0.3,0.8,0.5,1.2,0.7L102.7,101.5l-0.2,1.6
			c1.4,0.7,2.9,1.4,4.4,2c0.6,0.2,1.3,0,1.6-0.5c1-1.1,2.1-2.1,3.3-3.1c1.7-1.5,3.4-3,5.1-4.4c1-0.9,2.2-1.7,3.2-2.6
			s1.8-1.9,2.8-2.7c3.1-2.7,6.2-5.3,9.3-7.9c0.6-0.4,1.1-0.9,1.5-1.4c0.3-0.4,0.4-0.8,0.5-1.3c0.1-1.1,0.1-2.3,0-3.4
			c-0.1-0.9-0.3-1.7-0.6-2.6c-0.5,0.6-1,1.2-1.5,1.8c-2.2,2-4.4,4-6.6,5.9c-1.2,1-2.4,2-3.5,3s-2.2,2.1-3.3,3.1
			c-2,1.5-3.9,3.2-5.6,5c-0.4,0.4-0.8,0.8-1.3,1.1c-2.2,1.3-3.8,3.3-5.8,4.9C104.9,100.6,103.9,101.2,102.7,101.5z"/>
		<path class="st5" d="M165.1,87.1l33-31.1c-0.8-1.7-1.9-3.3-3.3-4.6c-1.3-1.4-2.8-2.6-4.5-3.5c-2.4,2.3-4.8,4.5-7.2,6.8
			c-2.7,2.5-5.3,5-8,7.5c-1.9,1.8-3.9,3.5-5.8,5.4c-2.7,2.5-5.2,5.1-8,7.4c-1.3,0.8-1.7,2.4-1,3.8c0.1,0.2,0.1,0.3,0.2,0.5
			c0.6,1.9,1.6,3.7,2.7,5.4C163.8,85.5,164.4,86.3,165.1,87.1z"/>
		<path class="st5" d="M131.1,68.1c-1.8-3.4-4.5-6.2-7.9-8.1l-8.3,7.8c-2.3,2.2-4.7,4.4-7,6.6c-1.4,1.3-2.9,2.7-4.3,4.1
			c-1.8,1.7-3.7,3.3-5.6,5c-1.4,1.3-2.8,2.8-4.3,4.1C93,88,92.7,89,93.1,89.8c0.4,1.4,0.9,2.8,1.5,4.1c0.8,2,2.1,3.7,3.6,5.2
			L131.1,68.1z"/>
		<path class="st6" d="M121.7,59.3c-3.5-1.6-7.4-2-11.1-1.2c-9.2,2.1-14.5,8.2-17.4,16.8c-1.2,3.7-1.5,7.5-0.9,11.3
			c0.1,0.3,0.2,0.7,0.3,1L121.7,59.3z"/>
		<path class="st6" d="M159.6,75.1c0.2-0.1,0.4-0.2,0.6-0.3c1.7-1.7,3.5-3.3,5.2-5c4-3.9,8.1-7.8,12.1-11.7c3.5-3.4,7-6.7,10.6-10
			c0.2-0.2,0.4-0.5,0.6-0.8c-1.7-0.8-3.5-1.3-5.4-1.4c-5.4-0.5-10.8,1.2-14.9,4.8c-4.6,3.8-7.7,9.1-8.7,15c-0.3,1.3-0.4,2.7-0.5,4.1
			C159.1,71.5,159.2,73.3,159.6,75.1z"/>
		<path class="st6" d="M176.3,93.4c2.1,0.5,4.3,0.5,6.4,0.1c4.2-0.7,8.1-2.7,11.1-5.7c3.3-3.3,5.6-7.4,6.8-11.9
			c0.4-1,0.5-2.2,0.3-3.3c-0.2,0-0.4-0.1-0.5,0L176.3,93.4z"/>
		<path class="st6" d="M134,84.7l-0.3-0.3c-1.1,0.6-2,1.3-2.9,2.1c-1.7,1.5-3.3,3.2-5.1,4.7c-2.4,2.1-4.9,4.2-7.3,6.3
			c-2,1.7-4,3.5-6,5.2c-1.1,0.9-2.2,1.7-3.4,2.7c1.3,0.3,2.7,0.4,4,0.3c5-0.1,9.7-2.1,13.3-5.6c3.6-3.4,6.1-7.8,7.2-12.6
			C133.7,86.6,133.9,85.6,134,84.7z"/>
		<path d="M203,66.2c-0.2-2.6-0.8-5.1-1.6-7.6c-0.9-2.1-2-4.1-3.4-5.9c-1.5-2-3.4-3.8-5.5-5.2c-2-1.3-4.2-2.3-6.5-2.8
			c-1.7-0.4-3.5-0.7-5.3-0.6c-2.3,0-4.6,0.5-6.8,1.3c-2,0.8-3.8,1.8-5.5,3.1c-1.9,1.4-3.6,3.1-5,5c-1.9,2.3-3.3,4.9-4,7.7
			c-0.2,1-0.6,2.1-1,3.1c-8.8-1-17.3-0.5-25.3,3.8c-0.2-0.3-0.4-0.6-0.5-0.8c-1.4-2.5-3.3-4.7-5.5-6.5c-2.4-1.9-5.2-3.3-8.2-4
			c-2.5-0.7-5.2-0.8-7.7-0.3c-3.6,0.5-6.9,2-9.8,4.2c-1.8,1.4-3.4,2.9-4.7,4.7c-2,2.4-3.5,5.2-4.3,8.2c-0.1,0.3-0.2,0.6-0.4,0.8
			c-6.2,0.4-10.2,1.8-16.3,2.2c0,0.5,0,0.8,0.1,1.3c6-0.1,9.8-1.6,15.8-1.7c-0.2,1.1-0.3,2.1-0.5,3c-0.1,0.7-0.2,1.4-0.3,2.1
			c0,1.2,0.1,2.3,0.1,3.5c0,2.2,0.4,4.4,1.1,6.5c0.5,1.5,1.1,2.9,1.9,4.2c0.9,1.5,1.9,3,2.9,4.5c0.4,0.5,0.8,1,1.3,1.4
			c2,1.9,4.4,3.4,7,4.4c2.8,1.1,5.7,1.6,8.7,1.5c6.6-0.4,12.7-3.7,16.5-9c5.6-7.2,7-15.4,5-24.3c-0.4-1.6-0.9-3.1-1.4-4.7
			c7.8-3.7,16-4.1,24.4-2.9c-0.2,0.9-0.4,1.8-0.4,2.7c0,2.4,0.1,4.9,0.4,7.3c0.3,2.2,1,4.2,2.1,6.2c0.8,1.3,1.5,2.7,2.5,4
			c1.1,1.6,2.4,3,3.9,4.3c2.2,1.7,4.6,2.9,7.3,3.6c2.9,0.9,6.1,1.2,9.1,0.6c5.7-1,10.8-4.1,14.3-8.8c2.7-3.4,4.5-7.5,5.3-11.8
			C203.1,71.7,203.3,69,203,66.2z M92.4,86.2c-0.6-3.8-0.3-7.7,0.9-11.3c2.9-8.6,8.2-14.7,17.4-16.8c3.7-0.8,7.6-0.4,11.1,1.2
			l-29.1,28C92.5,86.8,92.4,86.5,92.4,86.2L92.4,86.2z M94.5,93.9c-0.6-1.3-1.1-2.7-1.5-4.1c-0.4-0.8-0.1-1.8,0.7-2.3
			c1.5-1.2,2.8-2.7,4.3-4.1c1.8-1.7,3.7-3.3,5.6-5c1.5-1.3,2.9-2.7,4.3-4.1c2.3-2.2,4.7-4.4,7-6.6c2.7-2.6,5.4-5.1,8.3-7.7
			c3.3,1.9,6.1,4.7,7.9,8.1l-33,31C96.5,97.7,95.3,95.9,94.5,93.9L94.5,93.9z M100.5,101.6c-0.6-0.5-1-1.1-1.6-1.7l33-30.2
			c0.2,0.3,0.4,0.7,0.5,1c0.4,1,0.7,2,1,2.8c-3.5,3.1-6.9,6.1-10.3,9.2s-6.8,6.3-10.2,9.4c-2.4,2.2-4.8,4.3-7.2,6.6
			c-0.7,0.7-1.4,1.4-2.1,2.1l-0.1,0.1l-1.7,1.5C101.3,102.1,100.9,101.9,100.5,101.6L100.5,101.6z M133.6,87.6
			c-1.2,4.8-3.7,9.2-7.2,12.6c-3.5,3.5-8.3,5.5-13.3,5.6c-1.3,0.1-2.7,0-4-0.3c1.3-1,2.4-1.8,3.4-2.7c2-1.7,4-3.5,6-5.2
			c2.4-2.1,4.9-4.1,7.3-6.2c1.7-1.5,3.3-3.2,5.1-4.7c0.8-0.9,1.8-1.6,2.8-2.1l0.3,0.3C134,85.7,133.8,86.6,133.6,87.6L133.6,87.6z
			 M134.2,77.7c0.1,1.1,0.1,2.3,0,3.4c0,0.5-0.2,0.9-0.5,1.3c-0.5,0.5-1,1-1.5,1.5c-3.1,2.6-14.3,12.3-15.3,13.2
			c-1.7,1.5-3.4,2.9-5.1,4.4c-1.1,1-2.2,2-3.2,3.1c-0.4,0.5-1,0.7-1.6,0.6c-1.5-0.6-3-1.3-4.4-2c0-0.4,3-2.6,4.3-4l0,0
			c3-2.5,10-8.8,11.7-10.2c1.2-0.9,2.2-2.1,3.3-3.1s2.4-2,3.5-3c2.2-2,4.4-3.9,6.6-5.9c0.6-0.6,1.1-1.2,1.6-1.8
			C133.8,75.9,134,76.8,134.2,77.7L134.2,77.7z M159.2,69.7c0.1-1.4,0.2-2.7,0.5-4.1c1-5.9,4.1-11.2,8.7-15
			c4.1-3.5,9.5-5.3,14.9-4.8c1.9,0.2,3.7,0.6,5.4,1.4c-0.2,0.3-0.4,0.5-0.6,0.8c-3.5,3.4-7,6.7-10.6,10.1
			c-4.1,3.9-8.1,7.8-12.1,11.7c-1.7,1.7-3.5,3.3-5.2,5c-0.2,0.1-0.4,0.2-0.6,0.3C159.2,73.4,159.1,71.5,159.2,69.7L159.2,69.7z
			 M165.2,87.2c-0.6-0.8-1.3-1.6-1.9-2.5c-1.1-1.7-2-3.5-2.7-5.4c-0.1-0.2-0.1-0.3-0.2-0.5c-0.7-1.3-0.3-3,1-3.8
			c2.8-2.3,5.3-4.9,8-7.4c1.9-1.8,3.9-3.6,5.8-5.3l8-7.5l7-6.8c1.7,0.8,3.3,2,4.6,3.5c1.4,1.3,2.5,2.9,3.3,4.6L165.2,87.2z
			 M166,87.9l32.8-30.3c1,1.2,1.1,2.6,1.6,3.8c-3.4,3.1-6.8,6-10.1,9c-3.6,3.3-7.2,6.6-10.8,9.9c-2.4,2.2-4.9,4.3-7.2,6.6l-0.2,0.2
			c-0.8,0.7-1.9,1.6-3.5,3.1c-1.1-0.3-1.8-1.4-2.7-2.2L166,87.9z M200.6,75.8c-1.1,4.5-3.5,8.7-6.8,11.9c-3,3.1-6.9,5.1-11.1,5.7
			c-2.1,0.4-4.3,0.4-6.4-0.1c8.1-7,16.1-13.9,24.1-20.9c0.1-0.1,0.3,0,0.5,0c0.1,1.1,0,2.2-0.4,3.2L200.6,75.8z M199.2,71.8
			c-1,0.8-2.1,1.6-3.1,2.5c-2.7,2.4-5.5,4.8-8.2,7.2c-2.4,2.1-4.8,4.2-7.2,6.4c-1.7,1.6-3.4,3.1-5.1,4.8c-0.4,0.5-1.1,0.6-1.7,0.4
			c-1.5-0.6-2.9-1.3-4.4-2.1c0.2-0.5,4.9-4.1,5.1-4.6c1.4-1.4,2.9-2.7,4.5-3.8c0.4-0.3,0.9-0.7,1.2-1.2c1.7-1.5,3.4-3,5.1-4.5
			c1.1-1,2.2-2,3.4-3c0.8-0.7,1.7-1.5,2.5-2.2c0.6-0.6,1.3-1.1,1.9-1.6c1.7-1.5,3.4-3.1,5.1-4.7c0.5-0.5,0.9-1,1.4-1.5
			c0.3-0.2,0.6-0.5,0.9-0.7c0.2,0.9,0.4,1.7,0.5,2.5c0,0.5,0.1,0.9,0.1,1.4c-0.1,2.7-0.1,2.9-2.3,4.6L199.2,71.8z"/>
		<path class="st2" d="M174.4,40.2c-0.2-1.8-0.3-3.5-0.5-5.3c-1.4,0-2.8,0.3-4,1c0.4,1.3,0.8,2.7,1.1,3.9c0.1,0.5,0.4,0.8,1,0.7
			C172.9,40.4,173.6,40.3,174.4,40.2z M168.8,36.3l-3.1,1.6c0.5,1.1,0.8,2.1,1.4,3.1c0.2,0.3,0.7,0.8,0.9,0.8
			c0.7-0.1,1.3-0.3,1.9-0.6L168.8,36.3z M175,34.8c0.4,1.8,0.3,3.5,0.9,5.2l1.2-0.2l0.7-4.8L175,34.8z M164.9,38.8
			c-1,0.6-1.7,1.6-2,2.8c-0.3,1.3,0.3,2,1.6,1.6c0.6-0.2,1.1-0.4,1.6-0.6L164.9,38.8z M179,35.6c-0.1,1.2-0.2,2.3-0.3,3.3
			c1.1,0.3,1.7-0.3,2.4-0.8c0.4-0.3,0.5-0.8,0.2-1.2C180.8,36,179.9,35.5,179,35.6L179,35.6z"/>
		<path class="st2" d="M119.6,46.5l-0.5,4.6l1.8,0.1c1-1.4,1.7-3,2.1-4.7H119.6z M117.5,50.5c0.2-1.2,0.5-2.5,0.7-3.8
			c-1.1,0-2-0.2-3,0.5c0.2,1.2,0.3,2.3,0.4,3.5L117.5,50.5z M122.7,51.6c1.1-0.1,2,0,2.8-0.6s0.8-1.2,0.3-1.8s-1.2-1.3-1.8-2
			C123.5,48.8,123.1,50.1,122.7,51.6L122.7,51.6z M110.8,48.5l1.6,2.7l1.6-0.3c-0.3-1.2,0.2-2.4-0.4-3.5L110.8,48.5z M109.7,49.1
			c-1,1-2.3,1.5-1.7,3.2c1,0,2-0.2,2.8-0.8L109.7,49.1z"/>
		<path d="M174.8,32.9c1.5,0.3,3.3,0.6,5.1,1c1.1,0.2,2,0.9,2.6,1.8c0.7,1.3,0.3,2.9-0.9,3.7c-0.6,0.4-1.3,0.7-1.9,0.9
			c-0.9,0.2-1.7,0.5-2.5,0.9c-0.6,0.3-1.3,0.4-2,0.4c-1.7,0.3-3.4,0.6-5.1,1c-1.1,0.4-2.1,0.8-3.1,1.3c-0.8,0.4-1.7,0.7-2.6,0.8
			c-1.4,0.3-2.8-0.6-3.1-2c-0.1-0.3-0.1-0.7,0-1c0.3-1.8,1.3-3.4,2.7-4.5c1.2-1,2.6-1.8,4.2-2.3c0.9-0.3,1.8-0.6,2.6-1.1
			C172.1,33.4,173.4,33,174.8,32.9z M174.5,40.2c-0.2-1.8-0.3-3.5-0.5-5.3c-1.4,0-2.8,0.3-4,1c0.4,1.3,0.8,2.7,1.1,3.9
			c0.1,0.5,0.4,0.8,1,0.7C172.9,40.4,173.6,40.3,174.5,40.2L174.5,40.2z M168.8,36.3l-3.1,1.6c0.5,1.1,0.8,2.1,1.3,3.1
			c0.2,0.3,0.7,0.8,0.9,0.8c0.7-0.1,1.3-0.3,1.9-0.6L168.8,36.3z M175,34.8c0.4,1.8,0.3,3.5,0.9,5.2l1.2-0.2l0.7-4.8L175,34.8z
			 M164.9,38.8c-1,0.6-1.7,1.6-2,2.8c-0.3,1.3,0.3,2,1.6,1.6c0.6-0.2,1.1-0.4,1.6-0.6L164.9,38.8z M179,35.6
			c-0.1,1.2-0.2,2.3-0.3,3.3c1.1,0.3,1.7-0.3,2.4-0.8c0.4-0.3,0.5-0.8,0.2-1.2C180.8,36,179.9,35.5,179,35.6L179,35.6z"/>
		<path d="M119.9,44.9c1.2,0.3,2.8-0.1,4.2,0.6c1.4,0.7,2.6,1.8,3.3,3.3c0.6,1.1,0.3,2.5-0.8,3.2c-1.3,1.2-3.1,1.6-4.8,1.1
			c-0.8,0-1.7-0.1-2.5-0.3c-1-0.3-2.1-0.5-3.1-0.4c-1.4,0-2.7,0.3-4,0.7c-0.9,0.3-1.8,0.5-2.8,0.8c-0.4,0.1-0.7,0.1-1.1,0
			c-1.8-0.4-2.3-1.5-1.6-3.2c0.7-1.3,1.8-2.4,3.3-2.9l2.1-1c0.1-0.1,0.3-0.2,0.4-0.2c1.7-0.7,3.5-1.1,5.4-1.4L119.9,44.9z
			 M119.6,46.5l-0.5,4.6l1.8,0.1c1-1.4,1.7-3,2.1-4.7H119.6z M117.5,50.5c0.2-1.2,0.5-2.5,0.7-3.8c-1.1,0-2-0.2-3,0.5
			c0.2,1.2,0.3,2.3,0.4,3.5L117.5,50.5z M122.7,51.6c1.1-0.1,2,0,2.8-0.6s0.8-1.2,0.3-1.8s-1.2-1.3-1.8-2
			C123.5,48.8,123.1,50.1,122.7,51.6L122.7,51.6z M110.8,48.5l1.6,2.7l1.6-0.3c-0.3-1.2,0.2-2.4-0.4-3.5L110.8,48.5z M109.7,49.1
			c-1,1-2.3,1.5-1.7,3.2c1,0,2-0.2,2.8-0.8L109.7,49.1z"/>
		<path class="st3" d="M144.9,136.5c-1.9-1.2-4.3-1.5-6.4-0.8c-3.1,0.9-6.1,2.2-9.1,3.3s-5.9,2.2-8.9,3.2c-1.9,0.7-3.9,1.2-5.8,1.8
			c-1.6,0.5-3.1,1.1-4.6,1.7c-0.8,0.2-1.6,0.5-2.3,0.8c-2.7,1.5-5.9,1.7-8.7,3.1c-1.7,0.1-3.2,1.1-4.7,1.7c-3.1,1.2-6.2,2.6-9.3,3.8
			c-2.4,1-4.8,1.8-7.2,2.7c-1.7,0.6-3.4,1.2-5.1,1.5c-0.1-2.3-0.2-4.6-0.4-6.8c-0.2-2.9-0.5-5.8-0.7-8.7c-0.2-1.9-0.3-3.9-0.5-5.8
			c-0.1-1.1-0.1-2.2,0-3.4c0.3-2.4,0-4.9-1-7.2c-1.6-3.8-3.9-6.8-7.9-8.4c-2.5-1-5.4-0.7-7.7,0.9c-0.7,0.4-1,1.3-0.7,2
			c0.4,1.7,1,3.4,1.6,5c1.1,2.4,1,5,1.4,7.5c0,0.2,0,0.3,0,0.5c-0.1,1.7-0.3,3.5-0.3,5.2c0,2.3-0.3,4.6-0.9,6.8
			c-0.6,2.3-1.2,4.5-2,6.7c-0.2,0.8-0.4,1.5-0.7,2.2c-0.8,2-1.6,4.1-2.3,6.1c-0.9,2.5-1.7,5-2.7,7.5c-1.2,3.2-2.4,6.3-3.6,9.4
			c-1.1,3-2,6.2-2.6,9.3c-0.7,3.4-0.7,6.9-0.2,10.3l0.2,1.2l-7.9,4.6l-5.7,3.3c-1.9,1.1-3.9,2.3-5.8,3.4c-1,0.6-2.1,1.1-3.1,1.7
			c-1.5,0.9-3.1,1.8-4.6,2.7c-0.8,0.5-1.6,1-2.4,1.5c-1.1,0.6-2.2,1.2-3.2,1.8c-0.9,0.5-1.8,1-2.7,1.5c-1.1,0.7-2.3,1.4-3.4,2
			c-2.2,1.3-4.3,2.5-6.5,3.7c-1.1,0.6-2.3,1.2-3.4,1.9c-14.8,8.5-63.8,41.3-76.3,53.1c-7,6.6-13.5,14.2-16.3,23.4
			s-1.2,20.3,6.2,26.5c4.6,3.9,9.8,7.1,15.4,9.3c6.5,2.7,20.2-2.8,26.1-6.1c15-8.1,76.3-61.2,77.4-62.3c3.4-3.2,6.8-6.5,10.2-9.8
			l9.7-9.3c2.3-2.2,4.6-4.4,6.9-6.6l11.2-10.6c1.8-1.7,3.5-3.4,5.2-5c0.3-0.3,0.6-0.5,1-0.6c0.9-0.1,1.8-0.1,2.7-0.1
			c0.8,0.1,1.5,0.1,2.3,0.1c4.5-0.4,8.9-1.5,13-3.3c2.5-1.1,5-2.3,7.3-3.6c1.3-0.7,2.5-1.4,3.8-2.1c1.7-0.7,3.4-1.3,5.2-1.7
			c1.1-0.4,2.3-0.5,3.4-0.9c1.8-0.7,3.5-1.8,4.9-3.1c2.1-1.7,3.3-4.1,3.4-6.8c0.2-2-0.2-3.9-0.9-5.7c-0.4-0.9-0.7-1.7-1.1-2.6
			c-0.5-1-0.4-2.3,0.3-3.2c0.7-1.1,1.3-2.3,1.9-3.5c0.7-1.8,1.2-3.6,0.1-5.4c-0.3-0.5-0.7-1-1.1-1.5c-1.4-1.5-3-2.8-4.8-3.7l0.6-1.1
			c0.6-1.2,1.3-2.3,1.9-3.5c0.7-1.3,0.9-2.8,0.7-4.2c-0.3-1.7-0.9-3.4-1.8-4.9l-2.4-4.2l4.8-2.5c3-1.6,6-3.3,9-4.9
			c2.7-1.4,5.3-2.9,8-4.4c1.4-0.8,2.9-1.4,4.3-2.2c2.3-1.3,4.5-2.6,6.7-4.1c1.5-0.9,2.9-2.1,3.8-3.6c0.5-0.9,1.3-1.9,1.1-3
			C146.9,138.7,146.1,137.4,144.9,136.5z"/>
		<path d="M147.3,140.2c-0.2-1.6-1-3-2.3-3.9c-2-1.3-4.4-1.6-6.6-0.8c-2.1,0.6-4.3,1.5-6.3,2.3l-2.8,1.1l-2.3,0.8
			c-2.2,0.8-4.4,1.6-6.6,2.4c-1,0.4-2.1,0.7-3.1,1s-1.8,0.6-2.7,0.9s-2.1,0.7-3.1,1.1l-1.6,0.6c-0.3,0.1-0.5,0.2-0.8,0.3
			c-0.5,0.1-1.1,0.3-1.6,0.6c-1.5,0.7-3,1.3-4.6,1.6c-1.4,0.3-2.7,0.8-4,1.4c-1.2,0.2-2.3,0.6-3.4,1.1c-0.4,0.2-0.9,0.4-1.3,0.6
			c-1.7,0.7-3.5,1.4-5.2,2.1c-1.4,0.6-2.7,1.1-4.1,1.7s-2.5,1-3.7,1.4s-2.3,0.9-3.5,1.3c-1.6,0.6-3.2,1.1-4.8,1.5
			c0-0.6-0.1-1.2-0.1-1.8c-0.1-1.6-0.2-3.2-0.3-4.7c-0.1-2-0.3-4.1-0.5-6.1l-0.4-4.3c-0.1-1.4-0.2-2.7-0.3-4.1v-0.3
			c-0.1-1-0.1-2,0-3c0.3-2.5,0-5-1-7.3c-1.8-4.4-4.4-7.1-8-8.5c-2.6-1.1-5.6-0.7-7.9,0.9c-0.8,0.5-1.1,1.4-0.8,2.3l0.3,1.2
			c0.3,1.3,0.8,2.6,1.3,3.8c0.7,1.6,1,3.4,1.1,5.1c0.1,0.8,0.2,1.5,0.3,2.3c0,0.1,0,0.1,0,0.2c0,0.1,0,0.1,0,0.2
			c0,0.5-0.1,1.1-0.1,1.6c-0.1,1.2-0.2,2.4-0.2,3.6c0,2.3-0.3,4.5-0.9,6.8c-0.3,1.6-0.8,3.1-1.3,4.6c-0.2,0.7-0.5,1.4-0.7,2.1
			l-0.2,0.8c-0.1,0.5-0.3,1-0.4,1.4c-0.3,0.9-0.7,1.9-1.1,2.8c-0.4,1.1-0.8,2.2-1.3,3.3s-0.8,2.3-1.2,3.4c-0.5,1.3-0.9,2.7-1.4,4.1
			c-0.6,1.6-1.2,3.2-1.8,4.7s-1.2,3.1-1.8,4.7c-1.1,3.1-2,6.2-2.6,9.4c-0.7,3.4-0.7,7-0.2,10.4l0.1,1l-7.8,4.5
			c-0.7,0.4-90.4,52.4-92.1,53.3c-0.5,0.2-0.7,0.8-0.5,1.3c0,0.1,0,0.1,0.1,0.1c0.1,0.1,0.2,0.2,0.3,0.1l0.3-0.1
			c0.2-0.1,0.5-0.2,0.7-0.3c0.6-0.3,26-15,50.5-29.2c23.2-13.5,45.2-26.2,46.2-26.8c0.6-0.4,1.3-0.7,2-1l0.7-0.4l0.2,0.5
			c0.2,0.6,0.5,1.1,0.7,1.6c0.2,0.6,0.8,0.9,1.3,0.7c0,0,0,0,0,0c0.1,0,0.1-0.1,0.2-0.1c0-0.1,0-0.2,0-0.2c-0.1-0.2-0.2-0.4-0.3-0.6
			c-0.2-0.4-0.4-0.8-0.5-1.2l-0.3-1.5c-0.4-2-0.7-4.1-0.9-6.2c0-2.4,0.3-4.9,1-7.2c1.6-5.9,3.5-11.7,5.8-17.3l0.4-1.2
			c1.5-4.1,3-8.2,4.5-12.3l1.6-4.5c0.2-0.6,0.4-1.2,0.6-1.8c0-0.2,0.1-0.3,0.1-0.5l0.3,0.1c0.4,0.1,0.8,0.2,1.2,0.3
			c1.3,0.1,2.6,0,3.8-0.5c0.8-0.3,0.7-0.8,0.7-1.3v-0.1c0-0.1-0.1-0.1-0.1-0.2c-0.1,0-0.1,0-0.2,0l-0.8,0.2
			c-0.5,0.2-1.1,0.3-1.6,0.4l-0.4,0.1c-0.6,0.2-1.2,0.1-1.7-0.1l0.1-0.1c0.1-0.2,0.3-0.4,0.4-0.6c1.1-1.3,2.6-2.4,4.2-3.1
			c0.6-0.2,1.2-0.6,0.9-1.6c0-0.1-0.2-0.2-0.3-0.2h-0.3l-0.7,0.1l-0.9,0.2c-0.6,0.1-1.3,0.3-1.9,0.3s-1,0-1.1-0.4s0.2-0.5,0.6-0.8
			l0.1-0.1c1.1-0.9,2.4-1.7,3.8-2.2c0.5-0.2,0.7-0.7,0.5-1.2c0-0.1-0.1-0.2-0.2-0.2c-0.8-0.1-1.7-0.1-2.5,0c-0.7,0.1-1.5,0.1-2.3,0
			l0.1-5.5l0.2-0.1c0.2-0.1,0.4-0.3,0.7-0.4c1-0.6,1.7-1.5,2.1-2.5c0.7-2.1,0.6-4.5-0.1-6.6c-0.2-0.6-0.8-1-1.4-0.9c0,0,0,0,0,0
			c-0.7,0.1-1.3,0.2-2,0.4c-0.5,0.1-1,0.3-1.6,0.4l-0.5,0.2l-0.8-2.2c1.5-1.4,3.5-2,5.5-1.6c1.9,0.3,3.7,1.1,5.1,2.4
			c1.6,1.6,3,3.4,3.9,5.5c0.6,1.3,0.9,2.8,1,4.2c0.1,1.5,0.2,3.1,0.2,4.5c0,0.3,0,0.7-0.1,1c0,0.5,0,1,0,1.4l0.1,0.9
			c0.2,1.4,0.3,2.8,0.3,4.2c0,0.6,0.1,1.3,0.1,1.9c0,0.4,0.1,0.8,0.1,1.2l0.1,0.8c0.2,2.6,0.3,5.2,0.5,7.8c0.1,0.9,0.1,1.9,0.1,2.8
			v1.1l-1.2,0.6c-0.1,0-0.2,0.2-0.1,0.3L70,161c0,0.1,0.1,0.2,0.3,0.2h0.3c0.3,0,0.5,0,0.8-0.1c0.4-0.1,0.9-0.2,1.3-0.4l1.1-0.3
			l1.2-0.3c1.7-0.3,3.4-0.9,5-1.7c0.2-0.1,0.5-0.2,0.8-0.3l0.3-0.1l0.6-0.2c2.2-0.6,4.3-1.4,6.3-2.5h0.1c0.1,0,0.1-0.1,0.2-0.1
			l2-0.8c1.3-0.5,2.6-1,4-1.5c0.6-0.2,1.2-0.5,1.8-0.8c0.8-0.4,1.7-0.8,2.6-1.1c1.5-0.5,3.1-1,4.6-1.5s3.3-1.1,4.9-1.6
			c1.4-0.5,2.8-1,4.1-1.5c1.2-0.4,2.4-0.9,3.6-1.4c1-0.4,2.1-0.7,3.1-1c0.7-0.2,1.3-0.4,2-0.6c0.4-0.1,0.8-0.3,1.3-0.5l0.9-0.4
			l1.6-0.6c0.8-0.3,1.6-0.5,2.3-0.8s1.4-0.5,2.1-0.8s1.5-0.6,2.3-0.9c0.4-0.2,0.9-0.3,1.4-0.4s0.9-0.3,1.4-0.4
			c1.4-0.5,2.6-1,3.8-1.5c1.1-0.4,2.2-0.6,3.3-0.4c1.7,0.1,3.3,1.1,3.9,2.7c0.3,0.5,0.3,1.2,0,1.7c-0.6,1.3-1.5,2.5-2.7,3.3
			c-1.7,1.3-3.5,2.5-5.4,3.5c-1.2,0.6-2.4,1.3-3.6,2c-0.8,0.4-1.6,0.9-2.4,1.3s-1.6,0.9-2.5,1.3c-1.5,0.8-3.1,1.6-4.6,2.5
			c-5.6,3.4-11.3,6.3-16.3,8.7c-0.9,0.4-1.7,0.9-2.6,1.5c-0.2,0.1-0.4,0.3-0.6,0.5l-0.2,0.2c-0.1,0.1-0.1,0.3,0,0.4
			c0.4,0.5,1.2,0.6,1.7,0.1c0,0,0,0,0,0l0.4-0.3c0.5-0.4,1.1-0.6,1.7-0.8c0.3,0.5,0.6,1.1,0.9,1.6c0.7,1.3,1.5,2.6,2.1,4
			c0.9,1.8,1.1,3.9,0.4,5.8c-0.4,1-0.9,2-1.4,2.9c-0.5,0.8-1.1,1.6-1.6,2.4c-0.3,0.4-0.6,0.9-1,1.4l-0.1,0.1
			c-0.4,0.5-0.5,1.2-0.3,1.7c0,0.1,0.1,0.1,0.2,0.1c0.1,0,0.2,0,0.2-0.1l0.4-0.4c0.3-0.3,0.5-0.5,0.7-0.8c0.7-0.9,0.8-0.9,1.7-0.3
			c1.4,1,2.7,2.1,3.8,3.4c1.2,1.3,1.4,2.8,0.6,4.8c-0.4,1-0.9,2-1.5,3c-0.3,0.5-0.5,1-0.8,1.5c-0.1,0.3-0.2,0.5-0.3,0.8v0.1
			c-0.3,1.5,0.1,3.1,0.9,4.4c0.8,1.7,1.2,3.5,1.3,5.3c0.1,1.5-0.2,3-1,4.3v0.1c-0.4,0.6-0.8,1.2-1.3,1.7c-0.2,0.2-0.4,0.3-0.6,0.5
			c-0.9,0.9-2,1.8-3.1,2.4c-1.4,0.7-3,1.2-4.6,1.4c-2.8,0.5-5.4,1.4-7.8,2.9c-2.5,1.5-5.1,2.9-7.8,4c-0.4,0.2-0.8,0.4-1.2,0.6
			c-0.9,0.4-1.8,0.8-2.7,1.1c-4.7,1.6-9.6,2.3-14.5,2c-0.7-0.1-1.4-0.1-2.1-0.1s-1.1,0-1.6-0.1c-0.5-0.1-1.1,0.2-1.2,0.8
			c0,0,0,0,0,0c0,0.1,0,0.2,0.1,0.2c0.5,0.4,1.2,0.7,1.9,0.6c0.3,0,0.5,0,0.8,0.1l-1.3,1.2l-3.3,3.1c-1.6,1.5-18.6,17.4-36.6,34.2
			c-21.3,19.7-43.2,40.3-45,41.9c-0.2,0.2-0.3,0.4-0.4,0.6l-0.1,0.3c0,0.1,0,0.1,0,0.2c0,0.1,0.1,0.1,0.1,0.2
			c0.2,0.1,0.4,0.2,0.6,0.2c0.4,0,0.7-0.2,0.9-0.5c0.5-0.5,0.9-0.9,1.4-1.3l2.1-2c1.8-1.7,22.3-20.9,42.1-39.4
			C46,252.5,62.3,237.3,64,235.6l2.5-2.4l2.8-2.7c0.2-0.2,0.5-0.4,0.8-0.6c0.9-0.1,1.8-0.1,2.6-0.1c0.3,0,0.6,0,0.9,0.1
			c0.5,0,0.9,0,1.4,0c4.5-0.3,8.9-1.5,13.1-3.3c2.4-1.1,5-2.3,7.3-3.6l0.8-0.4c1-0.6,2-1.1,3-1.6c1.1-0.5,2.3-0.9,3.6-1.2
			c0.5-0.1,1-0.3,1.6-0.4s1.1-0.3,1.7-0.4s1.2-0.3,1.7-0.4c1.8-0.7,3.4-1.7,4.8-3l0.2-0.2c2.1-1.7,3.4-4.3,3.5-7
			c0.2-2-0.2-4-0.9-5.9c-0.2-0.4-0.3-0.8-0.5-1.2s-0.4-0.9-0.6-1.4c-0.5-1-0.4-2.1,0.3-3c0.7-1.1,1.4-2.3,1.9-3.5
			c0.7-1.6,1.3-3.6,0.1-5.6c-0.3-0.6-0.7-1.1-1.2-1.5l-0.1-0.1c-1.3-1.4-2.8-2.6-4.6-3.6l0.1-0.1l0.4-0.7l0.6-1
			c0.5-0.8,0.9-1.6,1.3-2.5c0.7-1.3,0.9-2.9,0.7-4.4c-0.3-1.7-0.9-3.3-1.8-4.8l-1.7-2.9l-0.6-1l1.4-0.7l3.2-1.7c3-1.6,6-3.3,9.1-4.9
			l3.6-2c1.5-0.8,2.9-1.6,4.4-2.4c0.6-0.3,1.2-0.6,1.8-0.9c0.8-0.4,1.6-0.8,2.4-1.3c1.9-1.1,4.3-2.5,6.7-4.1
			c1.6-0.9,2.9-2.1,3.9-3.6l0.2-0.4C147,142.2,147.3,141.2,147.3,140.2z M56.1,125l0.5-0.2c1-0.4,2-0.6,3.1-0.6l0.1,0.4
			c0.4,2,0.7,3.8-0.3,5.7c-0.3,0.6-0.8,1-1.4,1.2L56.1,125z M57.9,141.3l0.1-1h1.2L57.9,141.3z M57.2,146.6l0.3-1.7l1.3,0.2
			L57.2,146.6z"/>
		<path d="M118.4,147.1c-0.4-0.2-0.8-0.3-1.2-0.1c-0.2,0.2-0.4,0.5-0.4,0.8l-0.1,0.2c0,0.2,0,0.3,0,0.5c0.4,1.5,1,3,1.8,4.3
			c0.1,0.3,0.4,0.5,0.6,0.6c0.1,0,0.1,0,0.2,0c0.2,0,0.4-0.1,0.6-0.2c0.1,0,0.1-0.1,0.1-0.2c0-0.9-0.3-1.9-0.8-2.6l-0.2-0.4l0.4,0.4
			c0.3,0.3,0.5,0.7,0.8,1s0.7,0.9,1,1.3c0.5,0.6,1,0.7,1.4,0.4s0.3-0.9,0.1-1.3c-0.3-0.6-0.6-1.1-0.9-1.7c-0.1-0.1-0.1-0.3-0.2-0.4
			c-0.1-0.3-0.2-0.5-0.4-0.7c-0.5-0.5-0.6-1.3-0.4-2l0,0c0.1,0,0.2,0,0.3,0.1l0.4,0.3c0.9,0.5,1.6,1.2,2.1,2c0.3,0.5,0.6,0.9,1,1.4
			l0.3,0.4c0.3,0.4,0.8,0.7,1.3,0.5c0.1,0,0.1-0.1,0.2-0.2c0.1-0.7-0.1-1.3-0.5-1.9c-0.1-0.1-0.1-0.2-0.2-0.3s-0.3-0.5-0.4-0.7
			c-0.5-0.7-0.9-1.6-1-2.4c0-0.6-0.4-1-1-1c0,0-0.1,0-0.1,0c-0.1,0-0.2,0.1-0.3,0.2v1l-0.2-0.1c-0.4-0.3-0.8-0.5-1.2-0.7
			c-0.4-0.2-0.9-0.3-1.3-0.1c-0.4,0.2-0.7,0.6-0.8,1c-0.1,0.3-0.1,0.7,0,1c0,0.1,0,0.2,0,0.3c0,0.1,0,0.3,0,0.4l0,0
			C119.1,147.7,118.8,147.4,118.4,147.1z"/>
		<path d="M137.7,144.8c1.2-0.1,2.5-0.2,3.7-0.5h0.2c0.7-0.1,1.3-0.6,1.6-1.2c0-0.1,0-0.1,0-0.2l-0.5-1c-0.4-0.8-0.9-1.6-1.3-2.4
			c-0.3-0.5-0.6-1-0.9-1.4c-0.2-0.2-0.4-0.4-0.7-0.5c-0.3,0-0.6,0.1-0.8,0.3l-0.8,0.6c-0.7,0.5-1.3,1.1-1.9,1.6
			c-0.4,0.5-0.7,1.1-0.9,1.8c-0.2,0.7-0.1,1.5,0.4,2.1C136.3,144.5,137,144.8,137.7,144.8L137.7,144.8z M141.3,142.8
			c-1.2,0.3-2.5,0.4-3.7,0.3c-0.3,0-0.5-0.2-0.5-0.5c0,0,0-0.1,0-0.1c0-0.4,0.1-0.8,0.4-1.1c0.5-0.5,0.9-1,1.4-1.4l0.5-0.4
			L141.3,142.8z"/>
		<path d="M110.5,193.5h0.2c0.3,0,0.7-0.1,0.9-0.3c0.1-0.2,0.2-0.4,0.1-0.6c0-0.1-0.1-0.3-0.1-0.4c-0.1-0.7-0.4-1.4-0.9-1.9
			c-0.1,0-0.1-0.1-0.2-0.1c-0.1,0-0.1,0-0.2,0.1c-0.5,0.6-0.5,1.4-0.2,2.1c0.1,0.3,0.2,0.6,0.2,0.9
			C110.2,193.4,110.3,193.5,110.5,193.5z"/>
		<path d="M107.1,175.7h0.3c0.1,0,0.1-0.1,0.2-0.1c0-0.1,0-0.1,0-0.2c-0.4-1.6-0.7-2.1-1.8-1.9c-0.1,0-0.1,0-0.2,0.1
			c0,0.1,0,0.1,0,0.2c0,0.7,0.3,1.3,0.8,1.7C106.6,175.7,106.9,175.7,107.1,175.7z"/>
	</g>
</g>
</svg>
