<svg id="Layer_1" data-name="Layer 1" xmlns="http://www.w3.org/2000/svg" viewBox="0 0 382.06 364.65"><defs><style>.cls-1{fill:#f2ebaf;}.cls-2{fill:#afefd2;}.cls-3{fill:#9f8bea;}.cls-4{fill:#fff;}.cls-5{fill:#6484e8;}.cls-6{fill:#f2a7df;}</style></defs><title>Mesa de trabajo 21</title><path class="cls-1" d="M31.3,304.05l2.35-25.48L35.05,252l5.78-15.47,11.34-19.81L68.43,205l21.78-8.92,23.22-7,30.41-8.34h39.91l32.1,2.32,9.83-4.64L259.4,187l34.19,11.87L317.35,211l13.56,15.51,8.57,10.58,2.32,10.23s-.49,55.6.67,72.31-99.09,34.15-149.9,34.72-160.07-49-160.07-49Z"/><path class="cls-2" d="M226.9,84.76a40.39,40.39,0,0,1-13.48-5.87c-2.15-1.42-4.23-3-6.23-4.57-1.17-.94-2.1-2.15-3.18-3.2s-2-1.92-3.19-3c-.31.36-.64.76-1,1.14a24,24,0,0,1-6.43,5.21c-2.26,1.24-4.47,2.59-6.73,3.83a35,35,0,0,1-8.88,3.25c-2.08.49-4.12,1.14-6.21,1.56-2.77.56-5.56,1.09-8.36,1.4A10.92,10.92,0,0,1,156.36,83a8.59,8.59,0,0,0-1.07-.49,2.69,2.69,0,0,0-.54-.06c-2,3.86-3.08,8.06-4.33,12.16,1.24,1,2.48,2,3.6,3a17.43,17.43,0,0,1,2,2.21c.2.25,1.07,1.47,0,1.3-.4-.07-.67-.56-.92-.83a19.58,19.58,0,0,0-5.5-4.69,16.21,16.21,0,0,0-6.31-2c-7.15-.42-12.11,3.76-13.8,10.29-2.11,8.12,2.15,18.47,10.22,22.63a16.57,16.57,0,0,0,7.43,1.85,8.87,8.87,0,0,0,5.12-1.26c.62-.4,1.85-.66,2,.32.23,1.16-2.51,1.61-3.32,2.06a41.1,41.1,0,0,1,.19,4.52,93.09,93.09,0,0,0,.82,15c.46,4.32.89,8.65,1.58,12.93a34.71,34.71,0,0,1,0,8.15,10.31,10.31,0,0,1-3,6.19,16,16,0,0,1-6.74,4.48,11.36,11.36,0,0,0-1.47.75,26.41,26.41,0,0,0,3.13,5.06,86.64,86.64,0,0,0,7.73,10.06A40.75,40.75,0,0,0,168.5,207a44.65,44.65,0,0,0,9.18,2.41,50.44,50.44,0,0,0,13.33.42,31.34,31.34,0,0,0,3.4-.86c2-.48,4-.85,6-1.42a19,19,0,0,0,6.76-3.36,75.59,75.59,0,0,0,9-8.3,54.08,54.08,0,0,0,6.47-9,11.41,11.41,0,0,0,1.71-6.8c-1.8-.55-3.62-1.05-5.41-1.65-3.09-1-5.76-2.64-7.23-5.73a16.21,16.21,0,0,1-1.58-5c-.13-1.1-.39-2.19-.61-3.39a9.31,9.31,0,0,0-1.12.16,36,36,0,0,1-11.58,1.39c-3.05-.08-6.11-.35-9.15-.67a23.07,23.07,0,0,1-4.27-.93c-2.14-.64-4.26-1.3-6.38-2l-3.21-1c-.47-.14-2.21-.54-1.93-1.38.08-.26.38-.36.64-.43a5.3,5.3,0,0,1,2.82.54l3.18,1c2.12.65,4.24,1.31,6.34,2a23.73,23.73,0,0,0,4.84.91c1.63.19,3.26.46,4.9.57,1.26.08,2.54-.17,3.78-.05a16.89,16.89,0,0,0,6.29-.65c1.3-.37,2.65-.57,4-.87a7.8,7.8,0,0,0,1.25-.37,42,42,0,0,0,18-14.41,59.78,59.78,0,0,0,6-10.36c.55-1.19.88-2.48,1.38-3.69a39.88,39.88,0,0,0,2.27-8,63,63,0,0,0,.94-9.87,108.19,108.19,0,0,0-1.17-19.86c-.5-3.21-1.17-6.41-1.73-9.48C232.48,86.1,229.7,85.38,226.9,84.76Z"/><path class="cls-3" d="M122.49,33.41a3.22,3.22,0,0,1,3.07,2.25c.26.91,0,1.37-.89,1.64a3.74,3.74,0,0,1-3-.26l-1.27-.68c-1.34,1-1.67,2.43-2.08,3.81a15.5,15.5,0,0,0-.5,5.64,22.85,22.85,0,0,0,1.6,7.07,5.55,5.55,0,0,0,.64,1.14,19.09,19.09,0,0,0,5.43,5.24c2.52,1.48,5.09,2.88,7.68,4.23s5.32,1.54,8.1,1.73A36.51,36.51,0,0,0,154,63.49a28.5,28.5,0,0,0,4.19-1.75c1.21-.58,2.47-1,3.66-1.63a19.45,19.45,0,0,0,5.19-4c.69-.76,1.48-1.36,2.14-2.14a22.77,22.77,0,0,0,2.06-3c.6-1,1.13-2.05,1.72-3.06a8.37,8.37,0,0,0,1-3.77,22,22,0,0,0-4-13.94,15.14,15.14,0,0,0-4.9-4.79c-1,.37-1.83.73-2.7,1a1.94,1.94,0,0,1-2.24-.64,1.75,1.75,0,0,1,1.09-3,4.05,4.05,0,0,1,1.15,0c.47.05.94.12,1.62.22a13.39,13.39,0,0,0-.26-1.83,16,16,0,0,0-3.71-7,28.62,28.62,0,0,0-3.34-3.27,16.85,16.85,0,0,0-4.25-2.21A32.08,32.08,0,0,0,133.49,8c-4.4,1.11-8.51,4.76-11.2,8.3l-.3.4a21.45,21.45,0,0,0-3.53,9.12,9.81,9.81,0,0,0,2.19,7.84C121.25,33.57,121.87,33.44,122.49,33.41Z"/><path class="cls-3" d="M149,94.11c1.53-4.48,2.47-9.17,5-13.38a3.12,3.12,0,0,1,2.51.57,12.74,12.74,0,0,0,8.87,1.44,123.94,123.94,0,0,0,14.36-3.44,39.56,39.56,0,0,0,7.58-3.06,20,20,0,0,0,2.31-1.75,9.1,9.1,0,0,1,1.19-.84,34.54,34.54,0,0,0,9-6.85c.74-.79,1.43-.71,2.24.12,1.35,1.4,2.63,2.9,4.1,4.16,2.3,2,4.73,3.74,7.1,5.61A44.4,44.4,0,0,0,221,81a24.45,24.45,0,0,0,5,1.85,56.58,56.58,0,0,1,7.64,2.44,4.13,4.13,0,0,0,1.07.12,4.15,4.15,0,0,0-.06-1.23,44.33,44.33,0,0,0-5.08-9.69A44.81,44.81,0,0,0,212.28,60a51.86,51.86,0,0,0-21.89-5.18,53.89,53.89,0,0,0-20.52,3.43,50,50,0,0,0-23,16.91,39.42,39.42,0,0,0-7.56,16.64c0,.23-.05.47-.08.72A20.72,20.72,0,0,1,149,94.11Z"/><path class="cls-3" d="M141.72,129.21c-.29,3.57,5.77,17.5,8.63,19.75-.35-6.35-.69-12.6-1-19.12A15,15,0,0,1,141.72,129.21Z"/><path class="cls-3" d="M163.2,24.79c-.91-.9-1.39-.9-2.21.16Z"/><path class="cls-3" d="M121.62,34.84c-.75.33.45.87.79,1a2.79,2.79,0,0,0,1.73.28.32.32,0,0,0,.24-.13.47.47,0,0,0-.07-.51,1.55,1.55,0,0,0-.89-.58A2.86,2.86,0,0,0,121.62,34.84Z"/><path class="cls-4" d="M195.34,110.62a7,7,0,0,1-6.07,6.32,11.23,11.23,0,0,1-6.53-1c-3-1.47-5.39-3.59-6.33-7a4.94,4.94,0,0,1-.09-3.2Z"/><path class="cls-4" d="M235,113.94a7,7,0,0,1-2.85,3.65,10.49,10.49,0,0,1-13.35-1.81,5.72,5.72,0,0,1-1.59-4.66Z"/><path class="cls-5" d="M194.54,147.56a19.18,19.18,0,0,0,4,1.85c1.71.54,3.5.85,5.26,1.22a5.82,5.82,0,0,0,3.4-.63,1.33,1.33,0,0,0,.55-2.34,8.15,8.15,0,0,0-3.54-2.5,28,28,0,0,0-4.08-1.12c-2.24-.37-4.51-.58-6.77-.83a10.71,10.71,0,0,0-1.33,0A5,5,0,0,0,194.54,147.56Zm4.9-5.84c2-.28,4-.48,6.05-.79a13.22,13.22,0,0,0,2.52-.74c1.24-.48,1.34-1.16.34-2a8.64,8.64,0,0,0-5.57-1.89,28.42,28.42,0,0,0-7.92,1.11,2.91,2.91,0,0,0-2.36,2.27c-.14.66-.34,1.3-.51,1.93C194.55,142.48,197,142.07,199.44,141.72Z"/><path class="cls-6" d="M209.37,125.94c.79-1.33,1.48-1.37,2.38-.13q.65.89,1.32,1.74c.08.1.24.13.48.24a4,4,0,0,0,.33-2.94c-.35-2.3-.77-4.6-1.26-6.88a36.65,36.65,0,0,0-1.31-4.75c-.66-1.77-1.45-1.91-2.73-.51a14.91,14.91,0,0,0-2,2.71c-1.16,2-2.29,4.08-3.29,6.18a22.23,22.23,0,0,0-1.08,3.06c-.13.42-.42.93-.22,1.33.54,1.06,1.83.23,2.39-.3.24-.24.43-.54.68-.77.73-.66,1.36-.53,1.82.37l1,2.06.4.12C208.71,127,209.06,126.46,209.37,125.94Z"/><path class="cls-3" d="M188.92,84.54c-.12,2-.24,3.93-.37,6l1.72.19a9.26,9.26,0,0,0,1.79-5.49Zm6.73,5.66a1.53,1.53,0,0,0,.6-2.52,4.5,4.5,0,0,0-2.85-2c-.4,1.62-.79,3.24-1.2,4.94A4.73,4.73,0,0,0,195.65,90.2Zm-10-.13a.73.73,0,0,0,1.4.19,10.58,10.58,0,0,0,.28-5.84l-2.58.51C185.05,86.75,185.31,88.42,185.64,90.07Zm-2.26-4.43a2.48,2.48,0,0,0-1.47,2.61c.06,1.25,1.1,1.72,2.28,2.06A7.21,7.21,0,0,0,183.38,85.64Z"/><path class="cls-3" d="M229.23,93.74c.78-1.24,1.78-2.31,2.11-3.93l-2.54-1.63c-.48,1.72-.91,3.27-1.39,5Zm-4-6.86-.43,5.34,1.31.41,1.64-5Zm5.17,7.55c.88.23,1.65.5,2.43.63s1.31-.15,1.24-1a4.13,4.13,0,0,0-.47-1.64,13.9,13.9,0,0,0-1.28-1.71C231.62,92,231.06,93.13,230.4,94.43Zm-8-5.44a2.25,2.25,0,0,0,1.07,2.4,18.33,18.33,0,0,0,.54-4.45A2.26,2.26,0,0,0,222.43,89Z"/><path d="M170.32,56.22a58.75,58.75,0,0,1,12.82-2.88,62.59,62.59,0,0,1,7.87-.19,48.49,48.49,0,0,1,9.7,1,54.55,54.55,0,0,1,12.66,4.37,52,52,0,0,1,10,6.51,41.93,41.93,0,0,1,6.63,7.2,34.73,34.73,0,0,1,4.37,7.59q1.09,2.63,2.06,5.29c.47,1.27.87,2.56,1.22,3.86.4,1.5.73,3,1.06,4.55a75.4,75.4,0,0,1,1.67,14.51c.06,3.85-.11,7.7-.28,11.55a19,19,0,0,1-1,6.58,4,4,0,0,0-.17,1,32.74,32.74,0,0,1-.8,4.49,54,54,0,0,1-2.84,6.74,55.62,55.62,0,0,1-8.16,13.31,15.68,15.68,0,0,1-1.71,2c-2.38,2.09-4.77,4.18-7.26,6.14a24.72,24.72,0,0,1-3.89,2.3c-1.11.58-2.29,1-3.51,1.56.4,1.68.68,3.32,1.19,4.87a26.51,26.51,0,0,0,1.88,4.26,5.93,5.93,0,0,0,2.65,2.66,32.38,32.38,0,0,0,4.48,1.78c2.52.72,5.11,1.21,7.67,1.84,5.16,1.26,10.32,2.52,15.46,3.85q12.89,3.31,25.75,6.73c3.68,1,7.33,2,11,3.12,3,.89,6,1.73,8.92,2.82,3.56,1.33,7.09,2.79,10.54,4.37a74,74,0,0,1,11.58,6.82,108.55,108.55,0,0,1,10,7.88,119.32,119.32,0,0,1,10,10.46,54.47,54.47,0,0,1,6.39,9.26c1.76,3.15,2.42,6.68,3.68,10,.19.5.3,1,.44,1.54s.05,1.13-.6,1.28-.86-.36-1-.84c-.52-1.63-1.07-3.25-1.52-4.89a32.5,32.5,0,0,0-3.73-8.71,59.14,59.14,0,0,0-6.75-8.79c-2.51-2.72-5-5.46-7.75-7.93a103,103,0,0,0-10.83-8.46c-1-.69-2-1.41-3-2a80.85,80.85,0,0,0-13.59-6.77c-3.16-1.16-6.28-2.43-9.5-3.39-5.93-1.76-11.92-3.32-17.89-5-3.66-1-7.31-2.08-11-3-5.86-1.46-11.76-2.76-17.62-4.21-3.79-.94-7.53-2-11.29-3.06a2.6,2.6,0,0,0-.71,0,10.94,10.94,0,0,1-1,6.06,51.58,51.58,0,0,1-8.35,12.08,54.39,54.39,0,0,1-7.82,7,17.35,17.35,0,0,1-4.49,2.68c-3.41,1.15-6.93,2-10.42,2.88a14.77,14.77,0,0,1-2,.12,7.69,7.69,0,0,0-1.24.29,9.15,9.15,0,0,1-1.5.44c-4.07.38-8.07-.41-12.06-1a42.46,42.46,0,0,1-12.35-4,40.26,40.26,0,0,1-14-11.11c-2.09-2.58-4-5.27-5.94-8-1.27-1.82-2.8-3.51-3.41-5.75-.46.18-.87.35-1.28.5-2.55.95-5.09,2-7.67,2.83-1.56.54-3.22.79-4.79,1.31-3.79,1.26-7.53,2.68-11.34,3.89-1.94.62-4,.93-6,1.38-1.33.3-2.69.5-4,.92-3,1-6,2.1-9,3.15a63.65,63.65,0,0,1-9.43,2.63,22.27,22.27,0,0,0-5.09,1.71c-1.46.66-2.88,1.38-4.39,2-2.69,1-5.33,2.22-8,3.4a19.14,19.14,0,0,0-3.47,1.83c-2.06,1.47-4,3.09-6,4.66-1.49,1.18-2.9,2.47-4.48,3.52a13.76,13.76,0,0,0-3.69,3.27,82.73,82.73,0,0,0-10.59,19c-1.22,3.13-2.73,6.15-3.41,9.48A9.22,9.22,0,0,1,38,248.9a22.8,22.8,0,0,0-1.38,3.83c-1.23,6.91-3,13.73-2.92,20.83.06,5.16-.1,10.33,0,15.49a77.85,77.85,0,0,1-.51,12.68c-.18,1.2-.41,2.38-.62,3.56-1.42-.15-1.41-.18-1.2-1.24a31.72,31.72,0,0,0,.74-4.41c.14-3.26.23-6.53.13-9.79-.14-5-.43-10-.17-15.05.15-2.83.13-5.67.48-8.47.45-3.52,1.17-7,1.83-10.51A29.74,29.74,0,0,1,35.69,250c.91-2.22,1.65-4.47,2.34-6.76a9.09,9.09,0,0,1,.38-1.11c1.61-3.7,3.19-7.42,4.89-11.09a55.7,55.7,0,0,1,3.23-6c1.46-2.35,3.24-4.51,4.68-6.87A11.18,11.18,0,0,1,56,213.78a6.19,6.19,0,0,0,1-.81c3.61-2.91,6.85-6.36,11.4-7.93,1.35-1.14,3.19-1.33,4.63-2.33a11.53,11.53,0,0,1,1.88-.64,20.27,20.27,0,0,1,2.89-1.41c2.27-.61,4.17-2,6.36-2.79.38-.13.78-.25,1.17-.39.76-.28,1.5-.63,2.27-.85s1.75-.26,2.58-.51c3.41-1,6.79-2.13,10.18-3.22,2.13-.68,4.24-1.43,6.39-2.05,1.58-.46,3.24-.68,4.82-1.16,4.55-1.41,9.09-2.89,13.63-4.35,1.56-.5,3.12-1,4.7-1.51,1.3-.39,2.66-.61,3.92-1.09,2.92-1.1,5.78-2.35,8.7-3.45a17,17,0,0,0,7.14-4.65c1-1.22,2.16-2.42,2.38-4.1.25-1.89.4-3.79.57-5.69a4.37,4.37,0,0,0-.09-1.3c-.21-1-.54-2-.69-3-.39-2.71-.69-5.43-1.06-8.14a1.83,1.83,0,0,0-.51-1.12,12.51,12.51,0,0,1-3.79-4.58,68.8,68.8,0,0,1-3.06-6.29,38.54,38.54,0,0,1-3.19-10.91,1.62,1.62,0,0,0-1-1.43,21.34,21.34,0,0,1-8.88-8.85,21.1,21.1,0,0,1-2.67-14.38c.58-3.38,1.68-6.53,4.48-8.77a13.27,13.27,0,0,1,3.32-2.32c1.68-.66,2.18-1.69,2.43-3.38a30.54,30.54,0,0,1,2.92-8.56A45.49,45.49,0,0,1,150.93,68l2.76-2.52a12.31,12.31,0,0,0-2.22.21,35,35,0,0,1-8.76,1.22,23.86,23.86,0,0,1-12.88-3.23c-1.39-.8-2.8-1.57-4.22-2.34a23.37,23.37,0,0,1-7.24-6.51,6.38,6.38,0,0,1-.89-1.67,24.12,24.12,0,0,1-1.18-12.81,12.57,12.57,0,0,1,1.85-4.43c.68-1,.74-1,.15-2.06A12.64,12.64,0,0,1,117,23.55a42.09,42.09,0,0,1,2.93-7.26A15.42,15.42,0,0,1,124.32,11c.73-.54,1.6-.91,2.31-1.47a16.72,16.72,0,0,1,7.43-3.49c1.19-.23,2.41-.33,3.61-.55A29.09,29.09,0,0,1,151.8,6.65c2.38.75,4.74,1.55,6.53,3.43.51.53,1,1,1.58,1.53a16.51,16.51,0,0,1,5.72,12.18,16.92,16.92,0,0,1,5.21,4.67,23.8,23.8,0,0,1,4.81,16.76,6.64,6.64,0,0,1-.7,2.66c-1.52,2.7-2.68,5.65-5.08,7.78-.11.11-.09.37-.15.64A4.6,4.6,0,0,0,170.32,56.22ZM226.9,84.76a40.39,40.39,0,0,1-13.48-5.87c-2.15-1.42-4.23-3-6.23-4.57-1.17-.94-2.1-2.15-3.18-3.2s-2-1.92-3.19-3c-.31.36-.64.76-1,1.14a24,24,0,0,1-6.43,5.21c-2.26,1.24-4.47,2.59-6.73,3.83a35,35,0,0,1-8.88,3.25c-2.08.49-4.12,1.14-6.21,1.56-2.77.56-5.56,1.09-8.36,1.4A10.92,10.92,0,0,1,156.36,83a8.59,8.59,0,0,0-1.07-.49,2.69,2.69,0,0,0-.54-.06c-2,3.86-3.08,8.06-4.33,12.16,1.24,1,2.48,2,3.6,3a17.43,17.43,0,0,1,2,2.21c.2.25,1.07,1.47,0,1.3-.4-.07-.67-.56-.92-.83a19.58,19.58,0,0,0-5.5-4.69,16.21,16.21,0,0,0-6.31-2c-7.15-.42-12.11,3.76-13.8,10.29-2.11,8.12,2.15,18.47,10.22,22.63a16.57,16.57,0,0,0,7.43,1.85,8.87,8.87,0,0,0,5.12-1.26c.62-.4,1.85-.66,2,.32.23,1.16-2.51,1.61-3.32,2.06a41.1,41.1,0,0,1,.19,4.52,93.09,93.09,0,0,0,.82,15c.46,4.32.89,8.65,1.58,12.93a34.71,34.71,0,0,1,0,8.15,10.31,10.31,0,0,1-3,6.19,16,16,0,0,1-6.74,4.48,11.36,11.36,0,0,0-1.47.75,26.41,26.41,0,0,0,3.13,5.06,86.64,86.64,0,0,0,7.73,10.06A40.75,40.75,0,0,0,168.5,207a44.65,44.65,0,0,0,9.18,2.41,50.44,50.44,0,0,0,13.33.42,31.34,31.34,0,0,0,3.4-.86c2-.48,4-.85,6-1.42a19,19,0,0,0,6.76-3.36,75.59,75.59,0,0,0,9-8.3,54.08,54.08,0,0,0,6.47-9,11.41,11.41,0,0,0,1.71-6.8c-1.8-.55-3.62-1.05-5.41-1.65-3.09-1-5.76-2.64-7.23-5.73a16.21,16.21,0,0,1-1.58-5c-.13-1.1-.39-2.19-.61-3.39a9.31,9.31,0,0,0-1.12.16,36,36,0,0,1-11.58,1.39c-3.05-.08-6.11-.35-9.15-.67a23.07,23.07,0,0,1-4.27-.93c-2.14-.64-4.26-1.3-6.38-2l-3.21-1c-.47-.14-2.21-.54-1.93-1.38.08-.26.38-.36.64-.43a5.3,5.3,0,0,1,2.82.54l3.18,1c2.12.65,4.24,1.31,6.34,2a23.73,23.73,0,0,0,4.84.91c1.63.19,3.26.46,4.9.57,1.26.08,2.54-.17,3.78-.05a16.89,16.89,0,0,0,6.29-.65c1.3-.37,2.65-.57,4-.87a7.8,7.8,0,0,0,1.25-.37,42,42,0,0,0,18-14.41,59.78,59.78,0,0,0,6-10.36c.55-1.19.88-2.48,1.38-3.69a39.88,39.88,0,0,0,2.27-8,63,63,0,0,0,.94-9.87,108.19,108.19,0,0,0-1.17-19.86c-.5-3.21-1.17-6.41-1.73-9.48C232.48,86.1,229.7,85.38,226.9,84.76ZM122.49,33.41a3.22,3.22,0,0,1,3.07,2.25c.26.91,0,1.37-.89,1.64a3.74,3.74,0,0,1-3-.26l-1.27-.68c-1.34,1-1.67,2.43-2.08,3.81a15.5,15.5,0,0,0-.5,5.64,22.85,22.85,0,0,0,1.6,7.07,5.55,5.55,0,0,0,.64,1.14,19.09,19.09,0,0,0,5.43,5.24c2.52,1.48,5.09,2.88,7.68,4.23s5.32,1.54,8.1,1.73A36.51,36.51,0,0,0,154,63.49a28.5,28.5,0,0,0,4.19-1.75c1.21-.58,2.47-1,3.66-1.63a19.45,19.45,0,0,0,5.19-4c.69-.76,1.48-1.36,2.14-2.14a22.77,22.77,0,0,0,2.06-3c.6-1,1.13-2.05,1.72-3.06a8.37,8.37,0,0,0,1-3.77,22,22,0,0,0-4-13.94,15.14,15.14,0,0,0-4.9-4.79c-1,.37-1.83.73-2.7,1a1.94,1.94,0,0,1-2.24-.64,1.75,1.75,0,0,1,1.09-3,4.05,4.05,0,0,1,1.15,0c.47.05.94.12,1.62.22a13.39,13.39,0,0,0-.26-1.83,16,16,0,0,0-3.71-7,28.62,28.62,0,0,0-3.34-3.27,16.85,16.85,0,0,0-4.25-2.21A32.08,32.08,0,0,0,133.49,8c-4.4,1.11-8.51,4.76-11.2,8.3l-.3.4a21.45,21.45,0,0,0-3.53,9.12,9.81,9.81,0,0,0,2.19,7.84C121.25,33.57,121.87,33.44,122.49,33.41ZM149,94.11c1.53-4.48,2.47-9.17,5-13.38a3.12,3.12,0,0,1,2.51.57,12.74,12.74,0,0,0,8.87,1.44,123.94,123.94,0,0,0,14.36-3.44,39.56,39.56,0,0,0,7.58-3.06,20,20,0,0,0,2.31-1.75,9.1,9.1,0,0,1,1.19-.84,34.54,34.54,0,0,0,9-6.85c.74-.79,1.43-.71,2.24.12,1.35,1.4,2.63,2.9,4.1,4.16,2.3,2,4.73,3.74,7.1,5.61A44.4,44.4,0,0,0,221,81a24.45,24.45,0,0,0,5,1.85,56.58,56.58,0,0,1,7.64,2.44,4.13,4.13,0,0,0,1.07.12,4.15,4.15,0,0,0-.06-1.23,44.33,44.33,0,0,0-5.08-9.69A44.81,44.81,0,0,0,212.28,60a51.86,51.86,0,0,0-21.89-5.18,53.89,53.89,0,0,0-20.52,3.43,50,50,0,0,0-23,16.91,39.42,39.42,0,0,0-7.56,16.64c0,.23-.05.47-.08.72A20.72,20.72,0,0,1,149,94.11Zm-7.31,35.1c-.29,3.57,5.77,17.5,8.63,19.75-.35-6.35-.69-12.6-1-19.12A15,15,0,0,1,141.72,129.21ZM163.2,24.79c-.91-.9-1.39-.9-2.21.16ZM121.62,34.84c-.75.33.45.87.79,1a2.79,2.79,0,0,0,1.73.28.32.32,0,0,0,.24-.13.47.47,0,0,0-.07-.51,1.55,1.55,0,0,0-.89-.58A2.86,2.86,0,0,0,121.62,34.84Z"/><path d="M189.74,99.67a12.49,12.49,0,0,1,5.59,4.94c2.75,4.28,2.11,9.84-3.05,12.38-3.42,1.68-6.93,1.32-10.33-.14a12.08,12.08,0,0,1-5.82-5.3,8.23,8.23,0,0,1,.15-9,9.06,9.06,0,0,1,6.45-3.84A12.81,12.81,0,0,1,189.74,99.67Zm-13.42,6a4.94,4.94,0,0,0,.09,3.2c.94,3.43,3.32,5.55,6.33,7a11.3,11.3,0,0,0,6.53,1,7,7,0,0,0,6.07-6.31Z"/><path d="M234.77,116.28a3.36,3.36,0,0,1-.35.49,4.84,4.84,0,0,1-.65.63,13.87,13.87,0,0,1-2.59,1.72,11.14,11.14,0,0,1-12.66-2.07c-4.57-4.45-3-11.06,2.48-13.73a10.81,10.81,0,0,1,7.85-.6,11.49,11.49,0,0,1,6.22,4.39,8.16,8.16,0,0,1,1.51,4.21,4.2,4.2,0,0,1-.32,1.69,11.83,11.83,0,0,1-.7,1.88c-.17.34-.36.67-.55,1Zm-17.55-5.15a5.75,5.75,0,0,0,1.6,4.65,10.5,10.5,0,0,0,13.35,1.82,7.09,7.09,0,0,0,2.85-3.66Z"/><path d="M204.24,135.22a7.26,7.26,0,0,1,5.41,2.84,1.41,1.41,0,0,1-.1,2.06,4.31,4.31,0,0,1-2.3,1.49c-1.91.44-3.83.85-5.72,1.27,0,0,0,.13.11.15.32.11.65.19,1,.28a11.3,11.3,0,0,1,5.66,3.16,2.76,2.76,0,0,1-.88,4.63,7.93,7.93,0,0,1-4.28.72,22.25,22.25,0,0,1-7.8-2.35,7.71,7.71,0,0,1-3.8-3.67c-.06-.13-.26-.2-.49-.37a25.59,25.59,0,0,1-2,4.62c-.39.64-2.41,3.6-3.24,2.8s1.27-2.14,1.7-2.67a15.83,15.83,0,0,0,2.33-5.34,26,26,0,0,0,1.39-7.37,16.69,16.69,0,0,0-.32-3.86,6.16,6.16,0,0,1-.33-1.38.5.5,0,0,1,1-.18,7.33,7.33,0,0,1,.57,2.06c.18.95.27,1.92.42,3A23.56,23.56,0,0,1,204.24,135.22Zm-9.7,12.34a19.18,19.18,0,0,0,4,1.85c1.71.54,3.5.85,5.26,1.22a5.82,5.82,0,0,0,3.4-.63,1.33,1.33,0,0,0,.55-2.34,8.15,8.15,0,0,0-3.54-2.5,28,28,0,0,0-4.08-1.12c-2.24-.37-4.51-.58-6.77-.83a10.71,10.71,0,0,0-1.33,0A5,5,0,0,0,194.54,147.56Zm4.9-5.84c2-.28,4-.48,6.05-.79a13.22,13.22,0,0,0,2.52-.74c1.24-.48,1.34-1.16.34-2a8.64,8.64,0,0,0-5.57-1.89,28.42,28.42,0,0,0-7.92,1.11,2.91,2.91,0,0,0-2.36,2.27c-.14.66-.34,1.3-.51,1.93C194.55,142.48,197,142.07,199.44,141.72Z"/><path d="M204.11,127.87a2.73,2.73,0,0,1-2.91-.24,2.27,2.27,0,0,1-.66-2.64c1.13-4.48,3.47-8.36,6-12.15a6.83,6.83,0,0,1,2.26-2c1.74-1,2.72-.61,3.51,1.29a17,17,0,0,1,1.56,4.95c.18,1.88.9,3.69,1.25,5.56a25.16,25.16,0,0,1,.39,4.07,4.13,4.13,0,0,1-.51,1.94,1.51,1.51,0,0,1-2.64.37c-.59-.55-1.08-1.21-1.68-1.89-.23.33-.41.6-.61.86-1.36,1.77-2.43,1.36-3.54-.23-.25-.35-.45-.73-.67-1.1A16,16,0,0,1,204.11,127.87Zm5.26-1.93c.79-1.33,1.48-1.37,2.38-.13q.65.89,1.32,1.74c.08.1.24.13.48.24a4,4,0,0,0,.33-2.94c-.35-2.3-.77-4.6-1.26-6.88a36.65,36.65,0,0,0-1.31-4.75c-.66-1.77-1.45-1.91-2.73-.51a14.91,14.91,0,0,0-2,2.71c-1.16,2-2.29,4.08-3.29,6.18a22.23,22.23,0,0,0-1.08,3.06c-.13.42-.42.93-.22,1.33.54,1.06,1.83.23,2.39-.3.24-.24.43-.54.68-.77.73-.66,1.36-.53,1.82.37l1,2.06.4.12C208.71,127,209.06,126.46,209.37,125.94Z"/><path d="M190.83,83.73a42.27,42.27,0,0,1,4.08,1.48,4.72,4.72,0,0,1,2.62,2.62,2.37,2.37,0,0,1-1.3,3.48,9.69,9.69,0,0,1-3.11.64c-2.28.08-4.56,0-6.85,0a6.69,6.69,0,0,1-4.44-1.57,3.63,3.63,0,0,1-.08-5.09,5.66,5.66,0,0,1,3.51-1.77A11.85,11.85,0,0,1,190.83,83.73Zm-1.91.81c-.12,2-.24,3.93-.37,6l1.72.19a9.26,9.26,0,0,0,1.79-5.49Zm6.73,5.66a1.53,1.53,0,0,0,.6-2.52,4.5,4.5,0,0,0-2.85-2c-.4,1.62-.79,3.24-1.2,4.94A4.73,4.73,0,0,0,195.65,90.2Zm-10-.13a.73.73,0,0,0,1.4.19,10.58,10.58,0,0,0,.28-5.84l-2.58.51C185.05,86.75,185.31,88.42,185.64,90.07Zm-2.26-4.43a2.48,2.48,0,0,0-1.47,2.61c.06,1.25,1.1,1.72,2.28,2.06A7.21,7.21,0,0,0,183.38,85.64Z"/><path d="M225.3,85.83c.14,0,.29,0,.44,0a14.52,14.52,0,0,1,8.75,5.6,4.31,4.31,0,0,1,.92,2.86,1.93,1.93,0,0,1-1.48,1.94,4.68,4.68,0,0,1-2.4-.18c-2.2-.76-4.38-1.62-6.53-2.52a15,15,0,0,1-2.54-1.41A2.75,2.75,0,0,1,221.19,90C220.8,87.8,222.23,85.22,225.3,85.83Zm3.93,7.91c.78-1.24,1.78-2.31,2.11-3.93l-2.54-1.63c-.48,1.72-.91,3.27-1.39,5Zm-4-6.86-.43,5.34,1.31.41,1.64-5Zm5.17,7.55c.88.23,1.65.5,2.43.63s1.31-.15,1.24-1a4.13,4.13,0,0,0-.47-1.64,13.9,13.9,0,0,0-1.28-1.71C231.62,92,231.06,93.13,230.4,94.43Zm-8-5.44a2.25,2.25,0,0,0,1.07,2.4,18.33,18.33,0,0,0,.54-4.45A2.26,2.26,0,0,0,222.43,89Z"/><path d="M145.6,120.72a.69.69,0,0,0,0-.32,2.13,2.13,0,0,0-.83-1.14,14.14,14.14,0,0,1-4.11-6,24.5,24.5,0,0,1-.61-2.51c2.16,1.08,4.31,2.36,6.55,3.26,1,.39,1.57-.33.6-1s-2.08-1.34-3.15-1.94c-1.31-.74-2.66-1.4-4-2.11a8.57,8.57,0,0,1,1.31-5.29,9.83,9.83,0,0,1,1.78-2.13c.26-.21.7-.33.73-.7a.55.55,0,0,0-.73-.52,5.05,5.05,0,0,0-1.66,1,9.44,9.44,0,0,0-3.16,7,15.36,15.36,0,0,0,1.4,7.29,13.77,13.77,0,0,0,2.06,3.11c.74.85,1.84,2.22,3,2.37a.82.82,0,0,0,.56-.07A.57.57,0,0,0,145.6,120.72Z"/><path d="M212.9,134c-.42.1-.71,1.08-.78,1.39A28.56,28.56,0,0,0,211,143c.08,1.73.49,3.43.58,5.15a16.4,16.4,0,0,0,1,4.06c.14.49.38,1.07,1,1s-.63-3.56-.72-3.92a25.9,25.9,0,0,1-.73-4.8,27.41,27.41,0,0,1,.53-7.17c.12-.58,1-2.75.53-3.19A.36.36,0,0,0,212.9,134Z"/><path d="M200.49,196.89a3.32,3.32,0,0,0-.55.35,8.63,8.63,0,0,1-6.43,2.3,33.09,33.09,0,0,1-8.12-.71,4.36,4.36,0,0,0-1.06,0,2.31,2.31,0,0,0,2.15,1.66c1.75.06,3.49.18,5.24.2a32.21,32.21,0,0,0,4.05-.19,7.58,7.58,0,0,0,4.62-2.28C200.76,197.87,201,197.5,200.49,196.89Z"/><path d="M198.59,154.57c-.05.09,0,.23.08.41a1.07,1.07,0,0,0,.73.42,30.55,30.55,0,0,0,3.71.45c.51,0,1,.12,1.09-.76,0-.1-3-.52-3.27-.56S198.84,154.11,198.59,154.57Z"/><path d="M129.41,45.16c-.78.05-1.55.22-2.32.3s-1.64-.6-1.68-1.12.63-1.05,1.3-1.18a3.81,3.81,0,0,1,.59,0l5.06-.16c-.06-1.73-.14-3.67-.19-5.61a34.35,34.35,0,0,1,1.1-11,14.85,14.85,0,0,1,2.83-5.74A6.14,6.14,0,0,1,139,18.44a7.69,7.69,0,0,1,6.6,1.46,14.52,14.52,0,0,1,3.19,3A33.37,33.37,0,0,1,154.2,32c.46,1.31,1,2.62,1.42,3.92l1.58,0a5.09,5.09,0,0,1,4.91,2.5,12,12,0,0,1,1.35,3,23.42,23.42,0,0,1-.94,13.78,7.65,7.65,0,0,1-1.15,2c-.2.26-.58.77-1,.61s-.39-.68-.35-1c.09-.77.73-1.4,1-2.08a13.57,13.57,0,0,0,.69-2.38,23.13,23.13,0,0,0,.26-10.17,7.69,7.69,0,0,0-1.84-3.76,3.22,3.22,0,0,0-4.29-.45c.08.63.19,1.31.26,2a20,20,0,0,1-.92,9.22,11.85,11.85,0,0,1-2.38,4,1.84,1.84,0,0,1-2.73.27,2.77,2.77,0,0,1-1.23-2.36c-.07-.92-.12-1.85-.12-2.78,0-4.26,1-8.13,4.57-10.93a1.15,1.15,0,0,0,.42-1.4,32.32,32.32,0,0,0-7-12.71,13.5,13.5,0,0,0-3.28-2.64,4.49,4.49,0,0,0-5.81,1.09,12.3,12.3,0,0,0-2.5,4.92c-1.28,4.22-1.13,8.56-1,12.89,0,1.31.13,2.62.19,3.73a28.62,28.62,0,0,1,4,2.16c3,2.29,4.89,5.75,3.26,9.73-.79,1.92-2.63,2.68-4.38,1.55a7,7,0,0,1-2.05-2,14.42,14.42,0,0,1-2.21-6.15c-.12-1.06-.28-2.12-.46-3.43C131.43,45.14,130.41,45.11,129.41,45.16Zm24.79-5.87c-1.91.89-2.79,3.31-3.23,5.22a16.13,16.13,0,0,0-.42,3.79c0,1-.17,3,1,3.26.59.14,1.38-1.64,1.59-2.1a14,14,0,0,0,1-3.21,18.42,18.42,0,0,0,.39-3.63C154.55,42.32,154.23,39.27,154.2,39.29ZM137.11,54.08a1.77,1.77,0,0,0,1.82.93c.87-.11,1.06-.78,1.25-1.43a4.85,4.85,0,0,0-.18-3.3,7.39,7.39,0,0,0-5.25-4.52A15.8,15.8,0,0,0,137.11,54.08Z"/><path d="M189.5,62.07a.76.76,0,0,0-.32-.23c-.53-.21-1.12.38-1.45.72-1.57,1.59-3.29,3-5,4.48a11.54,11.54,0,0,1-1.85.83,26.06,26.06,0,0,1-3.25,1.65,45.18,45.18,0,0,1-6.42,1.66c-2.41.58-4.88.93-7.33,1.38a26.24,26.24,0,0,1-9-.33,4.62,4.62,0,0,0-1.43-.09.62.62,0,0,0-.33,1.1,2.61,2.61,0,0,0,1.11.65c3.51.85,7.21,1.55,10.78.74s6.93-1.1,10.32-2.21a39.57,39.57,0,0,0,6.43-2.91,22,22,0,0,0,4.06-2.73c1.25-1.09,2.23-2.4,3.37-3.59C189.46,62.89,189.78,62.41,189.5,62.07Z"/><path d="M210.74,64.37a2.34,2.34,0,0,0,.69,1.9,71.5,71.5,0,0,1,4.91,5.56c1.1,1.52,2.7,2.46,3.82,4,1,1.3,2.66,1.91,4.24,2.41.35.12.93.25,1.19-.11a.92.92,0,0,0-.27-1.08,6,6,0,0,0-.9-.34,11.41,11.41,0,0,1-1.8-1,19.83,19.83,0,0,1-3-2.75c-2.35-2.53-4.64-5.12-6.94-7.7A2,2,0,0,0,210.74,64.37Z"/><path d="M145.13,87.48a1,1,0,0,0,.06.25c.54,1.41,2-1.53,2.18-2,.59-1.57,1-3.27,2.21-4.54.5-.51.22-1.61-.61-1.42-.32.07-.37.24-.55.5A16.32,16.32,0,0,0,147,82.48c-.4.86-.76,1.74-1.12,2.61A5.55,5.55,0,0,0,145.13,87.48Z"/><path class="cls-2" d="M334.67,268.72c-.12-.56-.28-1.12-.41-1.68q-1.61-6.93-3.22-13.85-1.49-6.36-3-12.72L324,223.13q-2.19-9.34-4.38-18.69c-.75-3.15-1.5-6.3-2.29-9.44a1.46,1.46,0,0,1,.26-1.49,12.46,12.46,0,0,0,2.77-6.63c.34-2.18.83-4.33,1.18-6.5a77.81,77.81,0,0,0,1.47-11c.05-2.38.25-4.76.4-7.14a9.52,9.52,0,0,1,.25-1.6,9.14,9.14,0,0,0-.05-4.13,19.18,19.18,0,0,0-3.37-7.92,10.14,10.14,0,0,0-7-4,5.34,5.34,0,0,0-1.69.37c-2.08-4.12-5.7-5.26-10-5.41-.16-.33-.39-.76-.57-1.22a13.16,13.16,0,0,0-4-5.26,8,8,0,0,0-4.74-1.52,7.78,7.78,0,0,0-2.25.55,13.83,13.83,0,0,1-.13-2.18,17.19,17.19,0,0,0-.37-3.86,10.55,10.55,0,0,1-.08-1.49,27,27,0,0,0-.46-5.38c-.42-2.65-.84-5.31-1.31-8a17.29,17.29,0,0,0-.65-2.2c0-.11-.12-.2-.15-.31-.44-1.86-.86-3.73-1.32-5.58a12.36,12.36,0,0,0-.75-2.17,4.42,4.42,0,0,0-3.74-2.38,4.69,4.69,0,0,0-5.39,3.73,15.64,15.64,0,0,0-.08,6.21c.43,3.08,1,6.15,1.42,9.24.29,1.89.53,3.8.79,5.7.31,2.32.6,4.65.91,7a1.79,1.79,0,0,1,0,.23c0,1.87,0,3.73.13,5.6A2.28,2.28,0,0,1,278,138c-1.43,1.66-3.13,3.05-4.69,4.58a2.58,2.58,0,0,0-.72,1.52c-.29,1.86-.71,3.71-1,5.58a32.75,32.75,0,0,0-.29,3.45c-.11,2.35-.26,4.69-.25,7a35.07,35.07,0,0,0,.39,5.43,69.14,69.14,0,0,0,1.5,7,36.64,36.64,0,0,0,2.87,7.57c.78,1.5,1.54,3,2.41,4.47a21.66,21.66,0,0,0,5.76,5.81,6.38,6.38,0,0,1,2.84,3.53,2.69,2.69,0,0,0-.35,2c0,1.89,0,3.77.06,5.65,0,1.51,0,3,0,4.52.09,4.32.17,8.64.28,13,.06,2.61.18,5.22.24,7.84.06,2.12.07,4.23.12,6.35.05,2.62.12,5.25.16,7.87,0,1,0,1.92,0,2.89.07,3,.18,6,.24,9,.05,2.53.06,5.06.1,7.6,0,3.08.1,6.16.16,9.24a2.66,2.66,0,0,0,.15,1s-1.11,24.87,24.64,19.94,21.66-21.29,21.66-21.29C334.73,269.44,334.74,269.07,334.67,268.72Z"/><path class="cls-5" d="M303.46,162.84c1,.44,1.1.76.63,2.06l-2.41-.61c0-.34,0-.65,0-.95s.11-.59.2-1.06C302.49,162.49,303,162.62,303.46,162.84Z"/><path class="cls-5" d="M286,158.79c3.14-.4,4.27.8,3.84,3.72l-3.56.25C286.15,161.35,286.06,160.11,286,158.79Z"/><path class="cls-5" d="M294.05,163.7c.59.1,1.19.16,1.78.32.22.06.53.3.56.5a3.8,3.8,0,0,1-.11,2.65l-2.42-.54A5.22,5.22,0,0,1,294.05,163.7Z"/><path class="cls-5" d="M281.31,136.57c.38.68.75,1.3,1.08,1.94a.93.93,0,0,1,.07.55,3.21,3.21,0,0,1-1.87,2.05,2.13,2.13,0,0,1-2.38-1.3Z"/><path d="M313.19,144.63a10.1,10.1,0,0,1,7,4,19,19,0,0,1,3.36,7.92,9,9,0,0,1,.06,4.12,8.6,8.6,0,0,0-.25,1.6c-.15,2.38-.35,4.76-.4,7.15a78.2,78.2,0,0,1-1.47,11c-.35,2.17-.84,4.32-1.18,6.49a12.49,12.49,0,0,1-2.77,6.64,1.46,1.46,0,0,0-.26,1.49c.79,3.14,1.54,6.29,2.29,9.44q2.2,9.35,4.38,18.69l4.08,17.33q1.49,6.36,3,12.72,1.6,6.93,3.22,13.85c.13.56.29,1.12.41,1.69.07.35.06.71-.4.82a.7.7,0,0,1-.91-.5,6.9,6.9,0,0,1-.21-.78c-.92-4.1-1.82-8.2-2.77-12.29-.73-3.15-1.62-6.26-2.27-9.43a72.39,72.39,0,0,1-1.71-7.89,27.5,27.5,0,0,0-1-4c-.5-1.94-1-3.88-1.46-5.83q-1.86-7.89-3.69-15.77c-.92-3.91-1.84-7.82-2.72-11.73-.4-1.77-.7-3.55-1.06-5.33a5.72,5.72,0,0,0-.35-.88,9.06,9.06,0,0,0-1,.55,12.69,12.69,0,0,1-4.59,2.1,8.26,8.26,0,0,1-3.53.34c-.48-.07-1-.18-1.08-.81a2.42,2.42,0,0,1,1.64-.39,6.58,6.58,0,0,0,1.71-.22c.93-.25,1.83-.65,2.76-.85a5.66,5.66,0,0,0,2.55-1.41,12.12,12.12,0,0,0,3.55-4.89,9.51,9.51,0,0,0,.61-1.61c.3-1.66.5-3.34.8-5s.71-3.55,1.08-5.32c.3-1.47.64-2.93.93-4.4a5.83,5.83,0,0,0,.09-1.38,14.1,14.1,0,0,1,.3-4,20.2,20.2,0,0,0,.36-3.31c0-.41-.22-.86-.13-1.24a14.49,14.49,0,0,0,.17-5.87,17.9,17.9,0,0,0-2.65-7.32,8.5,8.5,0,0,0-3.25-3.05c-.56-.27-1.06-.64-1.63-.88a3.61,3.61,0,0,0-1.44-.3,6.49,6.49,0,0,0-3.91,1.49,6.48,6.48,0,0,1-1.23.86,20.38,20.38,0,0,0-4.08,3,2.3,2.3,0,0,0-.72,1.4c-.4,2.2-.85,4.39-1.26,6.59-.12.59-.18,1.19-.25,1.64.9.35,1.67.6,2.39.95a2.51,2.51,0,0,1,.79,3.83,1.32,1.32,0,0,1-1.63.5c-.52-.2-1.06-.38-1.71-.61a7.64,7.64,0,0,0,.1,1.28,1.05,1.05,0,0,0,.81.89,2.29,2.29,0,0,0,2.09-.39,11.6,11.6,0,0,0,2-2.23c1-1.69,1.89-3.45,2.77-5.21a21.24,21.24,0,0,0,.83-2.18,18,18,0,0,0,6.15-1.39l.61,1c-.9.31-1.68.63-2.5.83s-1.6.26-2.63.42l4.13,2.95-.45,1c-1.49-1.23-3.18-1.94-4.41-3.45-.43,1.07-.79,2.07-1.24,3s-1,1.94-1.58,3c.54.13.91.2,1.27.31A8.46,8.46,0,0,1,313,167a8.61,8.61,0,0,0,1,.72c.53.33.54.55,0,1.1-2.88-1.84-4.05-2.34-6.16-2.6a16.36,16.36,0,0,1-1.57,1.55,11.64,11.64,0,0,1-1.9,1.11,2.22,2.22,0,0,1-2.86-.31c-.36-.37-.68-.77-1-1.08a19.68,19.68,0,0,1-1.4,2.26,7.07,7.07,0,0,1-1.56,1.17,2.85,2.85,0,0,1-3.5-.31,4.29,4.29,0,0,1-1.32-2.39c-.12-.82-.25-1.64-.39-2.6a6.67,6.67,0,0,0-.44.54,3.65,3.65,0,0,1-3.47,1.69,1.81,1.81,0,0,1-1.16-.39,5.77,5.77,0,0,1-2-3.08c-.2-1.17-.38-2.35-.57-3.53-.06-.37-.09-.75-.14-1.16l-3.48-1c-.26-1.22-.12-1.37,1-1.1.82.19,1.62.44,2.52.68,0-3.47.44-6.82.31-10.51-.92,1-1.74,1.74-2.88,1.76s-2.25.32-3.19-.84l.74-.77a3.12,3.12,0,0,0,2.81.47,3.36,3.36,0,0,0,2.81-3.53,23.71,23.71,0,0,1,1.35-8.77,18.1,18.1,0,0,0-1.3-1.52,1.34,1.34,0,0,0-2-.06,12,12,0,0,0-1.23,1.43c.48.75.88,1.36,1.27,2a2,2,0,0,1,.39,1.74,3.45,3.45,0,0,1-2.87,2.54c-1.26.22-2.54.21-3.39-1.06,0-.08-.18-.13-.33-.24a8.84,8.84,0,0,0-2.76,2.58c.53.55,1,1,1.39,1.44.57.63.53.75-.32,1.22l-1.6-1.24c-.3,1.56-.58,2.91-.81,4.28a31.27,31.27,0,0,0-.4,3.21c-.12,2-.07,4.09-.28,6.12a53.17,53.17,0,0,0,.07,6.56,2.7,2.7,0,0,0,.07.69c.47,2,.95,4,1.44,6.07a31.66,31.66,0,0,0,2.92,7.88c.83,1.52,1.64,3.06,2.54,4.54,1.33,2.19,3.42,3.65,5.34,5.25a4.53,4.53,0,0,0,1,.52c1.44.62,2.89,1.21,4.31,1.87a11.22,11.22,0,0,0,3.1,1.23.66.66,0,0,1,.4.19c.14.21.32.49.27.68a.73.73,0,0,1-.59.39,3.61,3.61,0,0,1-1.35-.21c-.92-.38-1.8-.85-2.7-1.28l-1.72-.83c0,1.77-.1,3.3-.07,4.82,0,2,.16,4,.24,6,0,1.35.11,2.7.14,4.05q.13,6.19.26,12.39c.05,2.16.13,4.33.17,6.49,0,2.54,0,5.08.1,7.62,0,1.89.15,3.78.18,5.67.11,5.36.17,10.72.29,16.07.12,5,.29,10,.44,14.94a1.59,1.59,0,0,1-.07.79c-.12.23-.41.52-.61.52a1,1,0,0,1-.65-.52,2.66,2.66,0,0,1-.15-1c-.06-3.08-.12-6.16-.16-9.24,0-2.53-.05-5.06-.1-7.6-.06-3-.17-6-.24-9,0-1,0-1.92,0-2.89,0-2.62-.11-5.24-.16-7.86-.05-2.12-.06-4.24-.12-6.36-.06-2.61-.18-5.22-.24-7.84-.11-4.32-.19-8.64-.28-13,0-1.5,0-3,0-4.51,0-1.88,0-3.77-.06-5.65a2.68,2.68,0,0,1,.35-2,6.41,6.41,0,0,0-2.84-3.54,21.66,21.66,0,0,1-5.76-5.81c-.87-1.45-1.63-3-2.41-4.47a36.77,36.77,0,0,1-2.87-7.56,70.33,70.33,0,0,1-1.5-7,35.25,35.25,0,0,1-.39-5.43c0-2.35.14-4.7.25-7.05a33.2,33.2,0,0,1,.29-3.45c.3-1.87.71-3.71,1-5.58a2.61,2.61,0,0,1,.72-1.52c1.56-1.53,3.26-2.91,4.69-4.58a2.28,2.28,0,0,0,.73-1.71c-.09-1.86-.09-3.73-.13-5.6a2,2,0,0,0,0-.23c-.31-2.32-.6-4.64-.91-7-.26-1.9-.5-3.8-.79-5.7-.46-3.08-1-6.15-1.42-9.24a15.46,15.46,0,0,1,.08-6.21,4.68,4.68,0,0,1,5.39-3.72,4.39,4.39,0,0,1,3.74,2.37,12.65,12.65,0,0,1,.75,2.17c.46,1.85.88,3.72,1.32,5.58,0,.11.12.2.15.31a17.93,17.93,0,0,1,.65,2.21c.47,2.65.89,5.3,1.31,8a26.87,26.87,0,0,1,.46,5.37,10.77,10.77,0,0,0,.08,1.5,17.1,17.1,0,0,1,.37,3.85,13.69,13.69,0,0,0,.13,2.18,7.75,7.75,0,0,1,2.25-.54,7.88,7.88,0,0,1,4.74,1.52,13.06,13.06,0,0,1,4,5.25c.18.46.41.89.57,1.22,4.34.16,8,1.3,10,5.42A5.34,5.34,0,0,1,313.19,144.63Zm-31.58-10.24c1.56-1.94,3.41-2,5.06-.18.1.12.21.22.36.39l1.8-2.58c-.1-1.34-.24-3.17-.35-5-.07-1.19-.06-2.39-.14-3.57,0-.73-.21-1.44-.31-2.16-.15-1-.25-2-.43-3-.27-1.4-.59-2.78-.87-4.17-.64-3.09-1.17-6.2-1.92-9.26a11.65,11.65,0,0,0-1.67-3.78,3.63,3.63,0,0,0-6.08.55,7.32,7.32,0,0,0-.67,2.78,37.6,37.6,0,0,0,.85,7.82c1.57.47,3.13-.34,4.7,0-.34.81-.52.92-2.07,1.09-.79.09-1.59.12-2.44.18.4,2.87.79,5.6,1.18,8.36a14.66,14.66,0,0,0,5.62.44c.24.66-.11.79-.52.89a9,9,0,0,1-3.54.15c-.46-.06-.91-.14-1.5-.25.16,1.36.34,2.6.46,3.85s.16,2.52.24,3.78v.12l.36,5.15.26.13C280.53,135.56,281.11,135,281.61,134.39Zm6.46,23.07a3.39,3.39,0,0,1,2.92,3.33c-.05.45,0,.91,0,1.36,0,1.16-.44,1.62-1.57,1.72-.92.08-1.83.13-2.82.2a3.38,3.38,0,0,0,1.31,2.3,2.4,2.4,0,0,0,3-.72,8.36,8.36,0,0,0,1.76-4.15,75.88,75.88,0,0,1,.91-7.68,33.52,33.52,0,0,1,1.11-5.3,31.53,31.53,0,0,1,1.4-4.39c.3-.58.52-1.2.81-1.78a1.68,1.68,0,0,1,.47-.49c.87-.67,1.76-1.32,2.73-2.06a11.66,11.66,0,0,0-1.79-3.53,12.84,12.84,0,0,0-2.17-2.37,6.13,6.13,0,0,0-3.74-1.33,4.12,4.12,0,0,0-4,2.48,18.39,18.39,0,0,0-1.73,6.67c-.22,2.34-.37,4.68-.49,7-.1,1.81-.1,3.62-.15,5.43,0,1-.08,2.06-.13,3.2C286.85,157.41,287.46,157.46,288.07,157.46Zm19.2-15.39a9.31,9.31,0,0,0-5.57-1.17,12.89,12.89,0,0,0-2.18.71A3.83,3.83,0,0,0,297.1,144a6.54,6.54,0,0,0-.92,3.26,2.08,2.08,0,0,1-.24.88,21.08,21.08,0,0,0-1,4.71c-.24,1.7-.6,3.38-.85,5.07-.15,1-.18,2-.25,3,0,.49,0,1,0,1.56a5,5,0,0,1,2.79.6,1.91,1.91,0,0,1,1.13,1.62,14,14,0,0,1,0,2.42c-.07,1.11-.6,1.39-1.63.94a3,3,0,0,0-.64-.26c-.4-.08-.82-.1-1.32-.15a2.81,2.81,0,0,0,1.55,2.44,1.73,1.73,0,0,0,2.09-.53,6.42,6.42,0,0,0,1.48-2,25.55,25.55,0,0,0,1.1-4.12c.18-1,0-2,.2-3,.38-2.19.88-4.36,1.33-6.54.15-.72.31-1.42.44-2.14a2.27,2.27,0,0,1,.81-1.35c.46-.41.84-.9,1.27-1.35.13-.14.24-.33.4-.4,1.4-.52,2.39-1.66,3.65-2.38a7.21,7.21,0,0,1,.94-.41l.89-.34A6.08,6.08,0,0,0,307.27,142.07Zm-21,20.69,3.56-.24c.43-2.93-.7-4.13-3.84-3.73Zm-5.66-21.65a3.24,3.24,0,0,0,1.87-2,1,1,0,0,0-.07-.56c-.33-.63-.7-1.25-1.08-1.93l-3.1,3.23A2.1,2.1,0,0,0,280.59,141.11Zm13.26,25.53,2.43.53a3.8,3.8,0,0,0,.11-2.65.88.88,0,0,0-.56-.5c-.59-.15-1.19-.22-1.78-.32A5.36,5.36,0,0,0,293.85,166.64Zm9.61-3.8c-.47-.21-1-.35-1.55-.55-.09.47-.16.76-.2,1.05s0,.61,0,1l2.41.61C304.55,163.61,304.46,163.29,303.46,162.84Z"/><path d="M289.84,146.39l1.77-1.28a2.4,2.4,0,0,0-2.93,1.52.86.86,0,0,0,.5,1c.32.2.64.38,1,.6-.79.52-1.72.85-1.58,1.94a1.33,1.33,0,0,0,1.1,1.06c.55.14,1.15.19,1.49-.52-.42-.45-1.35-.1-1.44-1.09.41-.31.88-.68,1.36-1a2.87,2.87,0,0,0,.58-.37,4.47,4.47,0,0,0,.43-.74,2.69,2.69,0,0,0-.77-.36C290.81,147,290.2,147.07,289.84,146.39Z"/><path d="M294.17,141c-.36-.78-.58-1.22-1.23-1.32a2,2,0,0,1-.85-.55,1.06,1.06,0,0,0-1.29-.08c-.63.34-.25.82-.11,1.12Z"/><path d="M302.42,148.42c-.94-1.07-2.28-1.42-3.1-.86A2.79,2.79,0,0,0,302.42,148.42Z"/></svg>