<svg id="Layer_1" data-name="Layer 1" xmlns="http://www.w3.org/2000/svg" viewBox="0 0 382.06 364.65"><defs><style>.cls-1{fill:#afefd2;}.cls-2{fill:#f2ebaf;}.cls-3{fill:#6484e8;}.cls-4{fill:#9f8bea;}.cls-5{fill:#f2a7df;}.cls-6{fill:#fff;}</style></defs><title>Mesa de trabajo 22</title><path class="cls-1" d="M36.73,278.67s.7-42.69,10.61-48.82,26.18-15.33,26.18-15.33l28.43-13,53.4-20.32,83,.12,17.49,7.22,40.61,8.84s28.29,11.51,44.89,37.93,11.88,54.24,11.88,54.24-96,31.84-207.31,27.36S36.73,278.67,36.73,278.67Z"/><path class="cls-2" d="M189.1,164.37a.61.61,0,0,1,.41-.21c.61-.07,1.22-.1,1.83-.16,2.23-.23,4.47-.39,6.69-.72a44.3,44.3,0,0,0,5.61-1.16,69.24,69.24,0,0,0,8-2.62c3-1.24,5.75-2.85,8.61-4.3,4.62-2.33,8.55-5.64,12.42-9a65,65,0,0,0,5.26-5.49c1.32-1.45,2.63-2.93,3.84-4.49a44.42,44.42,0,0,0,5.1-8.51c1.33-2.85,2.67-5.7,3.77-8.64a42,42,0,0,0,1.58-6.2,42.9,42.9,0,0,0,1-6.13,46.44,46.44,0,0,0-1.81-17,34.17,34.17,0,0,0-3.68-8.13,41.14,41.14,0,0,0-10.31-11.67,51.93,51.93,0,0,0-14.11-7.09,4.76,4.76,0,0,0-2.62,0c-2.11.57-4.12,1.51-6.24,2a28.69,28.69,0,0,1-10.57.62c-1.34-.21-1.83,0-2.34,1.34a4.8,4.8,0,0,1-1.88,2.29,22.78,22.78,0,0,0-2,1.54,16.8,16.8,0,0,1-7.21,3.34c-.43.09-.86.21-1.3.32-2.14.56-4.25,1.41-6.54.87-.14,0-.32.09-.36.1-4.14,7.93-10.82,11.5-19.51,12,.48,1.28,1,2.51,1.39,3.78a26.78,26.78,0,0,1,1.09,4.71,32.49,32.49,0,0,1-.12,4.62c-.08,1.94-1.18,2.87-3.11,2.58-.62-.1-1.23-.32-2.14-.56a35.13,35.13,0,0,0,1.49,4c1.84,3.46,2.81,7.26,4.42,10.81a18.55,18.55,0,0,1,1.34,4.82,19.69,19.69,0,0,1,.25,5.19c-.23,2-1.48,3.16-3.7,2.28a7.52,7.52,0,0,1-2.18-1.26,24.19,24.19,0,0,1-5.45-7,4.83,4.83,0,0,0-3.5-2.79,21.27,21.27,0,0,0-12.61.86c-5.28,2.18-9.85,5.27-12.56,10.66a22.12,22.12,0,0,0-2.27,6.76,31.64,31.64,0,0,0-.5,6,20.28,20.28,0,0,0,3.33,9.29,12.24,12.24,0,0,0,1.08,1.32c.19-.73.32-1.14.4-1.56.12-.63.41-1.08,1.12-1s.89.66.85,1.26a9.48,9.48,0,0,1-.31,2.33,2.08,2.08,0,0,0,.58,2.28,14.66,14.66,0,0,0,3.82,2.85c1.05.62,2.63,1.88,3.93,1.71a20.84,20.84,0,0,0-.45-2c-.15-.57-.37-1.3.42-1.5a1.15,1.15,0,0,1,.88.18A1.94,1.94,0,0,1,141,159a17,17,0,0,1,.34,2c.17,1.85,3.11,1.67,4.45,1.74a24.6,24.6,0,0,0,4.46-.2,37.41,37.41,0,0,0,4.34-1,1.49,1.49,0,0,0,1.23-1.74c-.35-4.78,3.67-9.18,8.29-9.84a8.66,8.66,0,0,1,6.51,1.76,11.12,11.12,0,0,1,3.51,3.84,12.14,12.14,0,0,1-1.2,13.23,7.3,7.3,0,0,1-3.91,2.8,9.48,9.48,0,0,1-7.84-.76c-.07,0-.21,0-.45.08a26.79,26.79,0,0,1-5.4,10.28,8.34,8.34,0,0,0,.38,1c2.45,4.56,6.24,7.88,10.4,10.76a29.87,29.87,0,0,0,7.8,3.43,80.06,80.06,0,0,0,7.91,2.24,27.35,27.35,0,0,0,3.69.46c1.4.11,2.79.43,4.18.6a20.35,20.35,0,0,0,3.12.2c1.66,0,3.31-.19,5-.35s3.33-.29,5-.57c2.37-.41,4.74-.87,7.08-1.42a28.29,28.29,0,0,0,6.62-2.2c.65-.34,1.35-.58,2-.89a46.35,46.35,0,0,0,9.18-5.24c1.46-1.14,2.89-2.31,4.35-3.44a18.6,18.6,0,0,0,4.74-5.7c-.85-.68-1.64-1.38-2.49-2-4-2.81-6.27-6.52-6.25-11.51q0-6.35,0-12.7a13.45,13.45,0,0,0-.17-1.38c-1,.72-1.82,1.36-2.69,1.85-2.55,1.44-5.22,2.68-7.68,4.25q-.57.36-1.17.69a31.15,31.15,0,0,1-6.07,2.43c-1.1.32-2.16.9-3.25,1.27s-2.22.72-3.35,1a62,62,0,0,1-6.5,1.05l-4.34.55-2.17.28c-.56.07-.91.26-1.38-.21a1.09,1.09,0,0,1-.23-.3A.82.82,0,0,1,189.1,164.37Z"/><path class="cls-3" d="M165.92,158.82a13.12,13.12,0,0,1,1,3.52c.11,1.13-.82,1.5-1.82.9-1.18-.73-1.16-2-1.39-3.11a3.13,3.13,0,0,1,.16-1c.21-.43.54-1.13.8-1.12A1.68,1.68,0,0,1,165.92,158.82Z"/><path class="cls-1" d="M170,153.55a8.77,8.77,0,0,0-3.38-1.41c-3.6-1-5-.36-7.21,2.47a7.48,7.48,0,0,0-1.53,3.84,9.73,9.73,0,0,0,.22,4,32.16,32.16,0,0,0,1.29,3.1c.14.32.18.67.34,1a5.81,5.81,0,0,0,1.11,1.26A7,7,0,0,0,166,170.1c2.73-.07,5.08-1.1,6.4-3.68a11.7,11.7,0,0,0,1.19-5.77A9.68,9.68,0,0,0,170,153.55Zm-1.58,9.8c-.38,1.29-1.51,2.52-3,2.15a5.15,5.15,0,0,1-3.27-3.18,9.23,9.23,0,0,1-.47-2.37,4.26,4.26,0,0,1,.73-2.93,4.06,4.06,0,0,1,.67-.76,2.07,2.07,0,0,1,2.21-.25,4.58,4.58,0,0,1,2.07,1.52A7.34,7.34,0,0,1,168.39,163.35Z"/><path class="cls-4" d="M224.23,135.19c4.18-1.68,8.15-3.23,12.08-4.88a18.88,18.88,0,0,0,3.81-2.11c1.49-1.09,1.4-2.16-.11-3.24a2.72,2.72,0,0,0-1.39-.56,18,18,0,0,0-5.52.15,35,35,0,0,0-9.25,4.41c-.56.34-1.06.77-1.59,1.16C222.94,131.86,223.57,133.48,224.23,135.19Zm-2.95-6.77c.62-.57,1.16-1,1.67-1.55,1-1,1.86-2,2.82-2.91,3.23-3.23,6.29-6.6,8.34-10.75a2.94,2.94,0,0,0,.41-.91c0-.47.08-1.12-.18-1.38a1.55,1.55,0,0,0-1.36-.07,7.68,7.68,0,0,0-2,1.19,75.29,75.29,0,0,0-6.14,5.26,26,26,0,0,0-5.8,8.3Z"/><path class="cls-5" d="M218.06,110.52c1.08.28,1.2-1.87,1.3-2.61a10.28,10.28,0,0,1,.18-1.49c.28-.89.64-1,1.52-.74a10.84,10.84,0,0,0,1.56.63,2.31,2.31,0,0,0,1.55-.17c.24-.16.13-.88.13-1.35,0-.88-.76-1.94-.35-2.81.28-.57.73-.43,1.21-.31a4.35,4.35,0,0,0,2.17.23c1.16-.36.42-1.47-.19-2a51.46,51.46,0,0,0-4.68-3.83c-3.4-2.31-6.89-4.46-10.35-6.67a25.54,25.54,0,0,0-2.88-1.73,4.55,4.55,0,0,0-4.07-.32,10.72,10.72,0,0,0,.64,2.21c1.76,3.25,3.66,6.42,5.38,9.7.9,1.71,1.51,3.57,2.27,5.35a5.83,5.83,0,0,0,.67,1.16c.59.82,1.19,1.61,1.8,2.41s1,1.73,1.84,2.21A.94.94,0,0,0,218.06,110.52Z"/><path d="M246.5,184.79a18.63,18.63,0,0,1-3.45,5.14,52.89,52.89,0,0,1-13.82,10.14A102.85,102.85,0,0,1,214,206.3a48,48,0,0,1-5.27,1c-2.14.46-4.25,1-6.4,1.46a12.58,12.58,0,0,1-2,.18c-.37,0-1.31.2-1.54-.21-.51-.92.72-1.24,1.37-1.3a54.81,54.81,0,0,0,7.74-1.18c2.9-.65,5.79-1.36,8.63-2.26a65.13,65.13,0,0,0,8.06-3.34,81,81,0,0,0,7.59-4c2-1.2,3.9-2.51,5.79-3.86a21.79,21.79,0,0,0,2.75-2.11c.72-.72,3.49-5.08,4.31-6.29l-6.57-3.06c-.94,1.08-1.92,2.08-2.77,3.19-3,4-7.07,6.74-11.27,9.28a57.15,57.15,0,0,1-17.81,6.52,61.51,61.51,0,0,1-16,1,67.76,67.76,0,0,1-8.17-.87,49.45,49.45,0,0,1-5.63-1.64c-.92-.27-1.87-.41-2.76-.72a37.25,37.25,0,0,1-12.88-7.23,32.14,32.14,0,0,1-6.49-8.08,4.4,4.4,0,0,0-.46-.6c-.37.17-.72.31-1,.48a102.3,102.3,0,0,1-10.47,4.7c-2.63,1-5.15,2.25-7.77,3.24l-9.32,3.6-9.12,3.53c-2.91,1.12-5.87,2.18-8.76,3.32-2.23.88-4.48,1.74-6.72,2.6-1.2.46-2.41.9-3.62,1.37-13.68,5.28-26.51,12.48-39.27,19.66A51.74,51.74,0,0,0,48,231.38a25.23,25.23,0,0,0-3.3,3.7c-.45.61-1.34,1.29-1.82.71a1.07,1.07,0,0,1-.16-.84,7.56,7.56,0,0,1,2.85-4.52,48.12,48.12,0,0,1,7.4-5.14c13.56-8.22,27.32-16.53,42.53-21a22.84,22.84,0,0,0,4.24-1.92,48.4,48.4,0,0,1,5.31-2c5.66-2.13,11.33-4.43,17-6.51,1.67-.62,18.32-7.46,23-9.35a41.81,41.81,0,0,0,8.7-4.27,9.85,9.85,0,0,0,2.69-3,21,21,0,0,0,2.5-7.11,1.82,1.82,0,0,0-.06-1.09c-1-1.91-2.14-3.78-3.31-5.81a28.1,28.1,0,0,1-14.32.87c-.23.92-.41,1.79-.66,2.63-.8,2.62-3.08,3.5-5.47,2.16a3.73,3.73,0,0,1-1.84-3.24,16,16,0,0,1,.31-3.84,1.2,1.2,0,0,0-.61-1.52,18.25,18.25,0,0,1-1.86-1.45l-1.58-1.23a4.64,4.64,0,0,1-.58,1,3.67,3.67,0,0,1-5.84-.95c-1.58-2.64-1-5.82.56-8.33a2.26,2.26,0,0,0,.36-.77c.11-.55-.36-1.42-.5-2a23.08,23.08,0,0,1-.49-2.45,26.36,26.36,0,0,1-.19-5.1,16.9,16.9,0,0,1,.3-2c-.46-.83-.9-1.51-1.24-2.23a53.06,53.06,0,0,1-3.2-9.55,47.47,47.47,0,0,1-1.29-10.52,30.14,30.14,0,0,1,1.13-9.64,22.15,22.15,0,0,1,5.2-9.32,12.84,12.84,0,0,1,5.48-3.54A2.23,2.23,0,0,0,131,90.45c.77-2.64,1.53-5.28,2.5-7.85a47.31,47.31,0,0,1,6.12-10.66,37.37,37.37,0,0,1,8.05-8.17A45.51,45.51,0,0,1,162.87,56c1.08-.29,2.13-.72,3.19-1.09a7.62,7.62,0,0,1,4.3-.48,1.76,1.76,0,0,0,1.09-.31c5.43-3,10.79-6.59,16.75-8.48a27.83,27.83,0,0,1,4.24-1,21.83,21.83,0,0,1,5.17-.17,19.65,19.65,0,0,1,2.64.44,7,7,0,0,1,2.37.84c2.13,1.55,2.81,2.87,2.33,5.45,0,.21-.08.42-.15.82,1.29-.21,2.47-.41,3.65-.58,1-.15,2-.32,3-.38,2.13-.13,4.27-.23,6.4-.28a11,11,0,0,1,7,2.16,4.12,4.12,0,0,1,.61,6.32c-.49.52-1,1.05-1.56,1.7,1.24.51,2.26.94,3.29,1.34a41.17,41.17,0,0,1,11.11,6.26,54.61,54.61,0,0,1,8,7.49,30.87,30.87,0,0,1,2.73,4c.69,1.15,1.16,2.44,1.85,3.6,1.08,1.81,1.39,3.89,2.22,5.79a35.12,35.12,0,0,1,1.75,6.31,26.74,26.74,0,0,1,.46,7.2,53.26,53.26,0,0,1-.36,6.57,58.83,58.83,0,0,1-3.34,13,7.45,7.45,0,0,1-.49.87,6.18,6.18,0,0,0-.9,1.56c-.72,3.22-2.63,5.81-4.37,8.5-.82,1.27-1.66,2.54-2.53,3.77a38.56,38.56,0,0,1-7,7.53c-.77.63-1.35,1.48-2.07,2.17-1.55,1.47-3.14,2.9-4.62,4.27a8.46,8.46,0,0,1,.32,1.54c0,1.51,0,3,0,4.54,0,2.53,0,5.06-.1,7.58a14.14,14.14,0,0,0,1,6.56,11.59,11.59,0,0,0,2.91,3.87,59.8,59.8,0,0,0,7,5.11,57.66,57.66,0,0,0,7.71,3.74c2.82,1.22,22.79,7.11,23,7.16,2.79.66,5.56,1.38,8.36,1.95,3.75.77,7.61,1.29,11.36,2,15.35,3,31.43,17.4,34.87,20.47a83.38,83.38,0,0,1,13.8,15.67c4,5.92,8.67,11.29,8.46,18.45,0,.43-.14,1-.57,1a.87.87,0,0,1-.67-.33c-1.13-1.19-1.29-3-1.59-4.56-1.29-6.86-6-12.5-10.55-17.79a100.18,100.18,0,0,0-10.47-11c-4.17-3.58-8.89-6.45-13.25-9.79-1.94-1.49-3.82-3.08-5.89-4.4a46.26,46.26,0,0,0-18.42-6.46c-5.88-.77-27.37-6.66-30.06-7.76s-5.25-1.95-7.86-2.95C248.13,185.63,247.36,185.19,246.5,184.79Zm-57.4-20.42a.61.61,0,0,1,.41-.21c.61-.07,1.22-.1,1.83-.16,2.23-.23,4.47-.39,6.69-.72a44.3,44.3,0,0,0,5.61-1.16,69.24,69.24,0,0,0,8-2.62c3-1.24,5.75-2.85,8.61-4.3,4.62-2.33,8.55-5.64,12.42-9a65,65,0,0,0,5.26-5.49c1.32-1.45,2.63-2.93,3.84-4.49a44.42,44.42,0,0,0,5.1-8.51c1.33-2.85,2.67-5.7,3.77-8.64a42,42,0,0,0,1.58-6.2,42.9,42.9,0,0,0,1-6.13,46.44,46.44,0,0,0-1.81-17,34.17,34.17,0,0,0-3.68-8.13,41.14,41.14,0,0,0-10.31-11.67,51.93,51.93,0,0,0-14.11-7.09,4.76,4.76,0,0,0-2.62,0c-2.11.57-4.12,1.51-6.24,2a28.69,28.69,0,0,1-10.57.62c-1.34-.21-1.83,0-2.34,1.34a4.8,4.8,0,0,1-1.88,2.29,22.78,22.78,0,0,0-2,1.54,16.8,16.8,0,0,1-7.21,3.34c-.43.09-.86.21-1.3.32-2.14.56-4.25,1.41-6.54.87-.14,0-.32.09-.36.1-4.14,7.93-10.82,11.5-19.51,12,.48,1.28,1,2.51,1.39,3.78a26.78,26.78,0,0,1,1.09,4.71,32.49,32.49,0,0,1-.12,4.62c-.08,1.94-1.18,2.87-3.11,2.58-.62-.1-1.23-.32-2.14-.56a35.13,35.13,0,0,0,1.49,4c1.84,3.46,2.81,7.26,4.42,10.81a18.55,18.55,0,0,1,1.34,4.82,19.69,19.69,0,0,1,.25,5.19c-.23,2-1.48,3.16-3.7,2.28a7.52,7.52,0,0,1-2.18-1.26,24.19,24.19,0,0,1-5.45-7,4.83,4.83,0,0,0-3.5-2.79,21.27,21.27,0,0,0-12.61.86c-5.28,2.18-9.85,5.27-12.56,10.66a22.12,22.12,0,0,0-2.27,6.76,31.64,31.64,0,0,0-.5,6,20.28,20.28,0,0,0,3.33,9.29,12.24,12.24,0,0,0,1.08,1.32c.19-.73.32-1.14.4-1.56.12-.63.41-1.08,1.12-1s.89.66.85,1.26a9.48,9.48,0,0,1-.31,2.33,2.08,2.08,0,0,0,.58,2.28,14.66,14.66,0,0,0,3.82,2.85c1.05.62,2.63,1.88,3.93,1.71a20.84,20.84,0,0,0-.45-2c-.15-.57-.37-1.3.42-1.5a1.15,1.15,0,0,1,.88.18A1.94,1.94,0,0,1,141,159a17,17,0,0,1,.34,2c.17,1.85,3.11,1.67,4.45,1.74a24.6,24.6,0,0,0,4.46-.2,37.41,37.41,0,0,0,4.34-1,1.49,1.49,0,0,0,1.23-1.74c-.35-4.78,3.67-9.18,8.29-9.84a8.66,8.66,0,0,1,6.51,1.76,11.12,11.12,0,0,1,3.51,3.84,12.14,12.14,0,0,1-1.2,13.23,7.3,7.3,0,0,1-3.91,2.8,9.48,9.48,0,0,1-7.84-.76c-.07,0-.21,0-.45.08a26.79,26.79,0,0,1-5.4,10.28,8.34,8.34,0,0,0,.38,1c2.45,4.56,6.24,7.88,10.4,10.76a29.87,29.87,0,0,0,7.8,3.43,80.06,80.06,0,0,0,7.91,2.24,27.35,27.35,0,0,0,3.69.46c1.4.11,2.79.43,4.18.6a20.35,20.35,0,0,0,3.12.2c1.66,0,3.31-.19,5-.35s3.33-.29,5-.57c2.37-.41,4.74-.87,7.08-1.42a28.29,28.29,0,0,0,6.62-2.2c.65-.34,1.35-.58,2-.89a46.35,46.35,0,0,0,9.18-5.24c1.46-1.14,2.89-2.31,4.35-3.44a18.6,18.6,0,0,0,4.74-5.7c-.85-.68-1.64-1.38-2.49-2-4-2.81-6.27-6.52-6.25-11.51q0-6.35,0-12.7a13.45,13.45,0,0,0-.17-1.38c-1,.72-1.82,1.36-2.69,1.85-2.55,1.44-5.22,2.68-7.68,4.25q-.57.36-1.17.69a31.15,31.15,0,0,1-6.07,2.43c-1.1.32-2.16.9-3.25,1.27s-2.22.72-3.35,1a62,62,0,0,1-6.5,1.05l-4.34.55-2.17.28c-.56.07-.91.26-1.38-.21a1.09,1.09,0,0,1-.23-.3A.82.82,0,0,1,189.1,164.37Zm-15.49-3.72a9.64,9.64,0,0,0-3.64-7.1,8.62,8.62,0,0,0-3.38-1.41c-3.6-1-5-.36-7.21,2.47a7.39,7.39,0,0,0-1.52,3.84,9.56,9.56,0,0,0,.21,4,29.81,29.81,0,0,0,1.29,3.1c.15.32.18.67.34,1a5.82,5.82,0,0,0,1.11,1.27A7,7,0,0,0,166,170.1a6.85,6.85,0,0,0,6.4-3.68A11.72,11.72,0,0,0,173.61,160.65Zm-38,1.32a5.21,5.21,0,0,0,.17,4.33,1.77,1.77,0,0,0,1.75,1.13c1.25-.12,2.48-2.77,1.79-3.85a1.48,1.48,0,0,0-.68-.45C137.68,162.75,136.73,162.41,135.58,162Zm-10.49-10.68a6.42,6.42,0,0,0-1.2,3.51,3.36,3.36,0,0,0,1.17,2.68,1.56,1.56,0,0,0,2-.1,1.62,1.62,0,0,0,.64-2C126.9,154,126,152.74,125.09,151.29Z"/><path d="M149.51,191.28l.16-.05c.55-.13,1.1.33,1.43.69a17.8,17.8,0,0,0,1.8,1.54c1.22,1,2.46,2,3.78,2.88a79.19,79.19,0,0,0,23.12,10.38,52.14,52.14,0,0,0,5.43,1.08,8,8,0,0,0,1.68-.13,5.23,5.23,0,0,1,2,.09.63.63,0,0,1,.26,1.12,1.61,1.61,0,0,1-.91.29c-3.46.37-7.08-.58-10.44-1.31a53.55,53.55,0,0,1-16.45-6.5c-1.82-1.09-3.81-1.87-5.52-3.1s-3.31-2.69-4.92-4.1C150.6,193.86,148.35,191.77,149.51,191.28Z"/><path class="cls-6" d="M135.58,162c1.15.44,2.1.78,3,1.16a1.48,1.48,0,0,1,.68.45c.69,1.08-.54,3.73-1.79,3.85a1.77,1.77,0,0,1-1.75-1.13A5.21,5.21,0,0,1,135.58,162Z"/><path class="cls-6" d="M125.09,151.29c.94,1.45,1.81,2.73,2.62,4.05a1.62,1.62,0,0,1-.64,2,1.56,1.56,0,0,1-2,.1,3.36,3.36,0,0,1-1.17-2.68A6.42,6.42,0,0,1,125.09,151.29Z"/><path d="M229,124.54a5.82,5.82,0,0,0,.81-.35,13.43,13.43,0,0,1,4.9-1.58,18.6,18.6,0,0,1,5.2.46,4.48,4.48,0,0,1,3,2.29,2.48,2.48,0,0,1-.29,2.86,10.12,10.12,0,0,1-2.45,2.26,29.26,29.26,0,0,1-4.1,2q-5.09,2.07-10.21,4a1.87,1.87,0,0,0-1.45,2.11,17.07,17.07,0,0,1-1.32,7.25c-.18.46-.41,1.16-.91,1.35a.82.82,0,0,1-1-.28c-.36-.63.1-1.64.26-2.27.36-1.52.83-3,1.05-4.58.4-2.79-.5-5.35-1.67-7.82a25.37,25.37,0,0,0-5.4-7.31c-.83-.8-1.69-1.58-2.55-2.36-.68-.6-1.92-1.34-2.1-2.3a1.06,1.06,0,0,1,.14-.87c.65-.77,1.5-.26,2.06.24,1.5,1.34,2.95,2.76,4.5,4.22.7-.94,1.37-1.88,2.09-2.78a48.35,48.35,0,0,1,4.49-5.45c1.34-1.26,2.55-2.68,4-3.83a33.64,33.64,0,0,1,4.54-2.85,2.77,2.77,0,0,1,1.31-.3,2.54,2.54,0,0,1,2.76,3.28,13.9,13.9,0,0,1-1.46,3.57,39.2,39.2,0,0,1-3,4.24c-.68.87-1.41,1.68-2.14,2.5s-1.37,1.26-2,2c-.08.08-.17.2-.12.31a.3.3,0,0,0,.25.12A2.21,2.21,0,0,0,229,124.54Zm-4.79,10.65c4.18-1.68,8.15-3.23,12.08-4.88a18.88,18.88,0,0,0,3.81-2.11c1.49-1.09,1.4-2.16-.11-3.24a2.72,2.72,0,0,0-1.39-.56,18,18,0,0,0-5.52.15,35,35,0,0,0-9.25,4.41c-.56.34-1.06.77-1.59,1.16C222.94,131.86,223.57,133.48,224.23,135.19Zm-2.95-6.77c.62-.57,1.16-1,1.67-1.55,1-1,1.86-2,2.82-2.91,3.23-3.23,6.29-6.6,8.34-10.75a2.94,2.94,0,0,0,.41-.91c0-.47.08-1.12-.18-1.38a1.55,1.55,0,0,0-1.36-.07,7.68,7.68,0,0,0-2,1.19,75.29,75.29,0,0,0-6.14,5.26,26,26,0,0,0-5.8,8.3Z"/><path d="M226.26,103.93c.46,4.42-1.24,5.19-4.88,4.15-.3.87-.57,1.75-.9,2.62a4.84,4.84,0,0,1-.65,1.33c-.82,1-1.66,1.16-2.6.29a14.12,14.12,0,0,1-2.61-3.07c-1.74-3-3.31-6-5-9-1.13-2.08-2.3-4.13-3.42-6.21-.85-1.58-1.66-3.19-2.48-4.79a2,2,0,0,1-.11-.32c-.91-2.6.6-4.47,3.3-4a11.21,11.21,0,0,1,4.64,1.93c1.79,1.25,3.7,2.34,5.51,3.57,3.35,2.27,6.67,4.58,10,6.9a10.41,10.41,0,0,1,1.23,1.17,3.36,3.36,0,0,1,.63,3.89,2,2,0,0,1-1.56,1.38Zm-8.2,6.59c1.08.28,1.2-1.87,1.3-2.61a10.28,10.28,0,0,1,.18-1.49c.28-.89.64-1,1.52-.74a10.84,10.84,0,0,0,1.56.63,2.31,2.31,0,0,0,1.55-.17c.24-.16.13-.88.13-1.35,0-.88-.76-1.94-.35-2.81.28-.57.73-.43,1.21-.31a4.35,4.35,0,0,0,2.17.23c1.16-.36.42-1.47-.19-2a51.46,51.46,0,0,0-4.68-3.83c-3.4-2.31-6.89-4.46-10.35-6.67a25.54,25.54,0,0,0-2.88-1.73,4.55,4.55,0,0,0-4.07-.32,10.72,10.72,0,0,0,.64,2.21c1.76,3.25,3.66,6.42,5.38,9.7.9,1.71,1.51,3.57,2.27,5.35a5.83,5.83,0,0,0,.67,1.16c.59.82,1.19,1.61,1.8,2.41s1,1.73,1.84,2.21A.94.94,0,0,0,218.06,110.52Z"/><path d="M187.15,87.91a3.24,3.24,0,0,1-.09.4,6.87,6.87,0,0,1-.45.9,12.2,12.2,0,0,1-1.17,2.05A19.59,19.59,0,0,1,177.66,97c-2.55,1.19-4.71-1.47-4.38-3.78a9.25,9.25,0,0,1,2.64-5,12.19,12.19,0,0,1,7-4.06C185.07,83.83,187.48,85.69,187.15,87.91Z"/><path d="M223.37,69.14a4.52,4.52,0,0,1-2,3.75,17.72,17.72,0,0,1-7.17,3.59,8.07,8.07,0,0,1-3.17-.08,2.6,2.6,0,0,1-1.55-3.69,14.81,14.81,0,0,1,6.37-6.52,27.26,27.26,0,0,1,3-1A3.64,3.64,0,0,1,223.37,69.14Z"/><path d="M152.62,152.46a1,1,0,0,1-.53,1,5.09,5.09,0,0,1-2.13.11,7,7,0,0,1-3.32-.88,22.85,22.85,0,0,1-2.81-2,18.52,18.52,0,0,1-3.07-2.79,22.19,22.19,0,0,1-3.4-7,17.06,17.06,0,0,1-.25-7.85,1.66,1.66,0,0,1,.69-1.06c.74-.46,1.31,0,1.27.83a34.19,34.19,0,0,0-.14,4.52,45.15,45.15,0,0,0,1,4.95c.38,1.75,2.74,1.44,4.1,1.45a25.15,25.15,0,0,0,5.41-.39c.58-.13,2.77-1.16,2.88.11a1,1,0,0,1-.54.87,2.9,2.9,0,0,1-1.05.26l-1.57.19c-1.35.16-2.7.32-4.06.39s-2.53-.15-3.76-.07a4.79,4.79,0,0,0,1.8,3,12.89,12.89,0,0,0,5.63,3.59,7.71,7.71,0,0,0,2.17.41c.53,0,1.26-.48,1.62.16A1.34,1.34,0,0,1,152.62,152.46Z"/><path d="M223.48,81.06a.56.56,0,0,1,.43-.09,3.46,3.46,0,0,1,1.43,1,64.33,64.33,0,0,1,4.32,5.15A8.75,8.75,0,0,0,233,89.57a2,2,0,0,0,2.87-1.72,10.63,10.63,0,0,0-.47-5.81,46.1,46.1,0,0,0-2.8-5c-.36-.58-1.23-1.8-.81-2.5,1-1.56,3,2.2,3.39,2.82.46.8.92,1.68,1.33,2.53a12.69,12.69,0,0,1,1.19,2.7,14.45,14.45,0,0,1,.11,6.07,4.4,4.4,0,0,1-5.27,2.78,8.21,8.21,0,0,1-3.89-2.56c-1.47-1.7-2.93-3.41-4.36-5.15a4.22,4.22,0,0,1-1.13-2A.78.78,0,0,1,223.48,81.06Z"/><path d="M184.29,108a.57.57,0,0,1,.23-.26c1-.65,2.14,1,2.67,1.67a28.19,28.19,0,0,0,5.07,5.45,4.77,4.77,0,0,0,3,1.33,2.47,2.47,0,0,0,2.17-1.85,6.24,6.24,0,0,0,.14-2.16c-.26-2.89-1.67-5.33-3.16-7.74a14.39,14.39,0,0,1-1.25-2.19c-.19-.46-.06-1.34.57-1.38s1.33.82,1.62,1.33a51.35,51.35,0,0,1,3.2,5.86c.87,2.2,1.87,4.49.72,7-.74,1.65-2.58,3.09-4.35,2.88a9.79,9.79,0,0,1-7-4.29c-.77-1.07-1.57-2.12-2.35-3.17C185.31,110.06,184,108.7,184.29,108Z"/><path d="M161.65,160a4.32,4.32,0,0,1,.74-2.93,4,4,0,0,1,.66-.76,2.09,2.09,0,0,1,2.22-.25,4.62,4.62,0,0,1,2.06,1.52,7.3,7.3,0,0,1,1.06,5.82c-.38,1.29-1.51,2.52-3,2.16a5.2,5.2,0,0,1-3.28-3.19A10.16,10.16,0,0,1,161.65,160Zm2,.19c.23,1.15.21,2.37,1.39,3.1,1,.61,1.93.23,1.82-.9a13.29,13.29,0,0,0-1-3.53,1.67,1.67,0,0,0-1.3-.77c-.26,0-.6.69-.8,1.12A3.1,3.1,0,0,0,163.66,160.14Z"/></svg>