<svg id="Layer_1" data-name="Layer 1" xmlns="http://www.w3.org/2000/svg" viewBox="0 0 382.06 364.65"><defs><style>.cls-1{fill:#6484e8;}.cls-2{fill:#f2a7df;}.cls-3{fill:#afefd2;}.cls-4{fill:#f2ebaf;}.cls-5{fill:#9f8bea;}.cls-6{fill:#fff;}</style></defs><title>Mesa de trabajo 20</title><path class="cls-1" d="M51.52,304l31.3-98.25L93.4,193.29l11.35-8.42L119,176.93l52.05-20.36L217,194.51l49-43.45L298.18,165,334,183.67l17,12.65,7.57,11.15,4,9.21,2.08,30,1,69S324.05,355.23,217,346.12,51.52,304,51.52,304Z"/><path class="cls-2" d="M253.85,145.22c-.38-.36-.71-.66-1-1a15.88,15.88,0,0,1-3.93-6.82,17.17,17.17,0,0,1-.52-5.85,40.21,40.21,0,0,0,.11-4.11,130.53,130.53,0,0,1,.85-14.92c.24-2.5.59-5,.87-7.49.22-2,.41-4,.6-6a4.93,4.93,0,0,0-.05-.72,30.69,30.69,0,0,1-3.32.11c-.7,0-2.14,0-2.38-.83-.31-1.19,1.07-.91,1.74-.88a15.64,15.64,0,0,0,6.46-.86,19.66,19.66,0,0,0,10-8.44A20.09,20.09,0,0,0,266,76c-.27-5.14-2-9.65-6.18-12.95a13.37,13.37,0,0,0-10.48-3.1c-.54.08-1.08.18-1.63.21a4.42,4.42,0,0,0-4,2.7c-.38.83-.71,1.69-1,2.54a18.87,18.87,0,0,1-2.25,4.84,2.75,2.75,0,0,1-3.65,1.06,4.1,4.1,0,0,0-.42.66,22.27,22.27,0,0,1-7.52,9.25,23.48,23.48,0,0,1-11.28,4.2,17.28,17.28,0,0,1-7-.72,17.75,17.75,0,0,1-7.8-4.94c-.23-.23-.49-.43-.79-.69-.16,1.37-.25,2.6-.45,3.81-.33,2-.74,2.26-2.73,1.53a8.76,8.76,0,0,1-1.31-.71c-.3-.16-.59-.35-.89-.54-.93,2.6-3.25,2.48-5.42-.37-.25.33-.49.65-.74,1a2.18,2.18,0,0,1-4-.55,5.52,5.52,0,0,1-.44-3.08c.07-.5,0-1,.05-1.59-.28.1-.39.11-.44.17a4.54,4.54,0,0,0-.45.52,19.67,19.67,0,0,1-6.22,5.29,24.7,24.7,0,0,1-8.63,2.87,17.67,17.67,0,0,1-7.45-.58,15.91,15.91,0,0,1-5.6-2.82,6.67,6.67,0,0,0-.81-.47,24,24,0,0,0,.33,4.31c.24,1.76.55,3.53.93,5.27a18.16,18.16,0,0,0,.73,2.62,1,1,0,0,0,.16.37c.26.22.62-.28.87-.49.78-.66,1.58-1.28,2.39-1.89a37.76,37.76,0,0,1,3.3-2.33A12.28,12.28,0,0,1,168.61,90a24.16,24.16,0,0,1,7.63-.53,39.54,39.54,0,0,1,4.06.53A2.34,2.34,0,0,0,181,90a4.47,4.47,0,0,0,1.39-.71c.52-.28,1-.55,1.6-.78a18.8,18.8,0,0,1,3.37-1.13,20.75,20.75,0,0,1,7.07-.45,19.7,19.7,0,0,1,5.88,1.57,2.91,2.91,0,0,0,1.36.36,3,3,0,0,0,1.33-.59,10.73,10.73,0,0,1,7.15-1.48,14.79,14.79,0,0,1,8,3.8,9.75,9.75,0,0,1,2.56,3.48,15.09,15.09,0,0,1,3.11.06,10.38,10.38,0,0,1,5.21,3.13,18.15,18.15,0,0,1,3.77,6.78,7.26,7.26,0,0,1-.07,5c-.19.51-.37,1-.57,1.54a15,15,0,0,1-9,8.9c-2.35.9-4.77,1.59-7.06,2.61a43.76,43.76,0,0,1-8.94,2.53,57.46,57.46,0,0,1-7.6,1.08c-2.4.18-4.81.41-7.22.6a5.27,5.27,0,0,1-.68,0l-3.58-.17c-.67,3.81-1.27,7.46-2,11.09a33.59,33.59,0,0,1-1.29,5.3,29.52,29.52,0,0,1-3.73,7c-.47.65-.86,1.35-1.22,1.93,1.35,1.14,2.59,2.13,3.76,3.19.83.75,1.55,1.62,2.36,2.4.49.47,1.08.83,1.58,1.28,3.8,3.39,7.13,7.26,11,10.62,1,.88,1.79,2,2.81,2.92a41.41,41.41,0,0,1,4.89,4.66A29.89,29.89,0,0,0,209.2,179c1.42,1.33,2.81,2.68,4.25,4Z"/><path class="cls-2" d="M161.33,50.38a6.05,6.05,0,0,1-.8-.14c-1.16-.36-2.29-.85-2.46-2.23a4.72,4.72,0,0,1,1.12-4,18.77,18.77,0,0,1,5.64-4.29c1.83-.83,3.71-1.56,5.59-2.29a16.15,16.15,0,0,1,6.21-.78,2.6,2.6,0,0,1,2.58,2.91A5.69,5.69,0,0,1,177.12,44c-.59.44-1.14.92-1.75,1.32-1.09.71-2.21,1.38-3.51,2.18.56.05.91.07,1.26.12,1.35.2,2.71.34,4,.63,4.49,1,7.62,3.92,10.43,7.31.2.24.37.49.57.76a16.42,16.42,0,0,1,6.25-.94,6,6,0,0,1,3.84,1.2c.61.47,1.24.91,1.93,1.41.31-.47.6-.87.85-1.3a22.31,22.31,0,0,1,12.16-9.94,2.35,2.35,0,0,0,.47-.27,45.22,45.22,0,0,1-4.61-3,3.63,3.63,0,0,1,.39-6.2A9.74,9.74,0,0,1,212.71,36a18.54,18.54,0,0,1,5.82-.34c2.12.26,4.27.2,6.31,1a13.1,13.1,0,0,1,4.23,2.29,18.51,18.51,0,0,1,2,2.34,4.68,4.68,0,0,1,1,3.6,2.38,2.38,0,0,1-1.74,2.36,5.09,5.09,0,0,0-1,.64c2.69,1.65,4.61,3.92,6.73,6.18a11.59,11.59,0,0,1,3.07-5.4,7.89,7.89,0,0,1,5.2-2.62c2.48-.21,5,0,7.49-.05a5.45,5.45,0,0,1,3,.65,2.77,2.77,0,0,0,.84.12c-.13-1.54-.24-3-.37-4.41a7.89,7.89,0,0,0-.28-1.75c-.61-1.72-1.22-3.44-2-5.11s-1.78-3.2-2.47-4.88a26,26,0,0,0-3.74-6.16A17.19,17.19,0,0,0,240,18.9c-3.61-1.52-7.11-3.32-10.93-4.31a49.09,49.09,0,0,0-5.48-1.19c-2.31-.31-4.64-.45-7-.55-3.46-.15-6.91-.23-10.37-.29-.95,0-1.9.14-2.85.21-2.68.21-5.38.31-8,.68-2.38.33-4.73,1-7.08,1.47a40.62,40.62,0,0,0-12.57,4.9c-1.33.81-2.69,1.56-4,2.4a21.49,21.49,0,0,0-3.09,2.23c-1.37,1.27-2.58,2.7-3.89,4a15.73,15.73,0,0,0-4.22,6.4,3.69,3.69,0,0,1-.24.49c-.75,1.65-1.58,3.26-2.22,4.95a25.59,25.59,0,0,0-1,3.87c-.44,2.14-.88,4.28-1.17,6.44a37.64,37.64,0,0,0-.14,4.18Z"/><path class="cls-3" d="M230.67,103.1a13,13,0,0,0-4-5.62c-1.73-1.38-3.63-2.23-5.89-1.16-.74.35-1.08.22-1.4-.53a8.32,8.32,0,0,0-.64-1.8,13.33,13.33,0,0,0-5.09-4.28,11.14,11.14,0,0,0-5.09-1,23.06,23.06,0,0,0-2.61.36,8.54,8.54,0,0,0-2.19.53,4.76,4.76,0,0,1-1.15.4,3.35,3.35,0,0,1-.71,0l-.34-.06c-2.16-.44-4.25-1.27-6.45-1.45a27,27,0,0,0-7-.21A13,13,0,0,0,182,91.12a1.59,1.59,0,0,1-1.49.36,50.47,50.47,0,0,0-5-.75c-2.59-.21-5.7-.21-8.05,1a46.14,46.14,0,0,0-6,3.45,6.29,6.29,0,0,0-.74.81,8.12,8.12,0,0,0-1,1,2.61,2.61,0,0,0-.28,2.48,9.75,9.75,0,0,1,.47,1.86A29.12,29.12,0,0,0,164.17,112a16.84,16.84,0,0,0,5.63,5.69,30.74,30.74,0,0,0,3.77,1.87c2.64,1.13,5.26,2.37,8,3.25a28.07,28.07,0,0,0,7.08,1.84,2.48,2.48,0,0,1,.27,0c1.4.08,2.8.24,4.19.21,1.6,0,3.19-.21,4.78-.33,1.23-.08,2.46-.15,3.69-.27s2.51-.53,3.76-.6a39.31,39.31,0,0,0,7.1-1.66c1.07-.29,2.15-.57,3.2-.93a47.56,47.56,0,0,0,4.7-2c1.66-.79,3.32-1.59,4.93-2.45a13.3,13.3,0,0,0,2.72-2.25,11.25,11.25,0,0,0,2.22-3.24c.28-.62.37-1.34.69-1.93C232,107.11,231.39,105,230.67,103.1Zm-42.61-2.48a10,10,0,0,1,4.53-.9c2.69.14,5.37.33,8.06.57,1.53.13,3.06.39,4.64.6l-.11,2.3c0,.63.07,1.29-.74,1.27l-5,0c-1.2,0-2.41,0-3.62-.08a16.19,16.19,0,0,1-5.83-1.24,15.75,15.75,0,0,1-1.89-1,1.28,1.28,0,0,1-.58-.8C187.44,101.07,187.8,100.73,188.06,100.62Zm.42,10.24a15.75,15.75,0,0,1,3.94-2.16,34.4,34.4,0,0,1,10.91-2.46l1.84-.19c.17,1.5.32,2.81.47,4.11-3,1.31-11.88,2.46-17.4,1.6C187.92,111.36,188.17,111.12,188.48,110.86Z"/><path class="cls-2" d="M236,59a8,8,0,0,0-.61-2.25c-.25-.53-.55-1-.78-1.53a10.11,10.11,0,0,0-.95-1.7,17.32,17.32,0,0,0-3.21-3.36,10.55,10.55,0,0,0-4-1.93,33.24,33.24,0,0,0-6.87-1.09,12.77,12.77,0,0,0-3.95.27,23.61,23.61,0,0,0-3.35,1.14,20.12,20.12,0,0,0-5.84,3.84c-4.49,4.24-7,9.33-6.78,15.56a15.57,15.57,0,0,0,5.42,11.74,16.68,16.68,0,0,0,16.28,3.53,20.89,20.89,0,0,0,10.13-6.34,19.41,19.41,0,0,0,4.92-12.68c0-.69-.07-1.36-.12-2l-.14-1.66C236.1,60,236.06,59.48,236,59Z"/><path class="cls-2" d="M155.58,61.29l.15,6c.06,2.32.09,4.65.19,7,.08,2,.28,3.92.36,5.88a2.09,2.09,0,0,0,.88,1.61,17.31,17.31,0,0,0,14.74,3.83,20.18,20.18,0,0,0,11.26-6.37,15.8,15.8,0,0,0,4.1-6.7c.41-1.56.82-3.13,1.17-4.71a12.82,12.82,0,0,0-.61-8c-.5-1.16-1.21-2.23-1.67-3.41a6.56,6.56,0,0,0-1.6-2.33c-.48-.47-1.07-.84-1.59-1.26a9.75,9.75,0,0,0-1.55-1.28,27.47,27.47,0,0,0-3.35-1.44,17.65,17.65,0,0,0-3-.82,17.91,17.91,0,0,0-7.74.26c-4.15,1.1-8.92,4.7-11.8,7.81A27.27,27.27,0,0,1,155.58,61.29Z"/><path class="cls-3" d="M262.21,62.68a9,9,0,0,0,.12-1.06c-.06-2.14-.1-4.29-.23-6.42a7.86,7.86,0,0,0-1.23-3.88,5.2,5.2,0,0,0-2.21-2.22,17,17,0,0,0-2.05-.79,25.48,25.48,0,0,0-5.29-.92,19.87,19.87,0,0,0-8.68.74,7.08,7.08,0,0,0-2.14,1.21,11,11,0,0,0-1.45,1.82c-1,1.31-1.32,3-1.82,4.54-.32,1,.14,1.79.37,2.71a18.83,18.83,0,0,1,.18,9.66c-.2.72.2,2.19,1.2,1.45.57-.42.83-1.46,1.1-2.08.35-.8.69-1.61,1-2.42.76-1.88,1.35-3.84,3.15-4.95A11.71,11.71,0,0,1,247,58.68a14.24,14.24,0,0,1,3.26-.46A15.4,15.4,0,0,1,257,59.5a14.62,14.62,0,0,1,4.3,2.64A7.56,7.56,0,0,0,262.21,62.68Z"/><path class="cls-4" d="M199.67,82.78l.11-.09c.31-.26.2-.57.24-.93a12.45,12.45,0,0,0,.08-1.5,35.53,35.53,0,0,0-1-5.5A56.06,56.06,0,0,0,197.32,68c-.63-2-1.47-3.91-2.29-5.83a4.73,4.73,0,0,0-1.09-1.4c-.72-.71-1.41-.57-1.82.36-.52,1.17-1,2.34-1.49,3.54a3.92,3.92,0,0,0-.35,1.73A13.4,13.4,0,0,1,189,72.79a17.08,17.08,0,0,0-1.17,4.82,22.67,22.67,0,0,0-.1,2.47,5.1,5.1,0,0,0,.28,2.27.88.88,0,0,0,.88.51c.36-.06.33-.25.43-.54.31-.87.79-1.73,1.19-2.57.21-.44.33-1,1-1s.91.55,1,1.1.12.91.25,1.35a4.36,4.36,0,0,0,.6,1.44c.21.28.66.67,1,.59s.47-.86.55-1.22c.14-.66.21-1.35.37-2a1,1,0,0,1,1-.82c.55,0,.77.27.88.82a7.67,7.67,0,0,0,.72,1.9C198.21,82.52,199,83.22,199.67,82.78Z"/><path class="cls-3" d="M218.13,37.21a14.57,14.57,0,0,0-6.48,1.14,7.86,7.86,0,0,0-1.83,1.38,1.14,1.14,0,0,0-.15,1.39A4.3,4.3,0,0,0,212,43.48a29.9,29.9,0,0,0,8.52,2.16,38.54,38.54,0,0,1,5.39.85c1.55.43,2.75-.23,4-.74a1.12,1.12,0,0,0,.46-.76,2.86,2.86,0,0,0-.35-2.11,8.73,8.73,0,0,0-4.8-4.23A32.86,32.86,0,0,0,218.13,37.21Z"/><path class="cls-3" d="M162.37,48.58a2.81,2.81,0,0,0,1,0c1.91-.6,3.84-1.15,5.67-1.92A33.9,33.9,0,0,0,175.33,43a4.51,4.51,0,0,0,1.93-3.41A1.11,1.11,0,0,0,176,38.27a18.15,18.15,0,0,0-3.39.39,29.37,29.37,0,0,0-7.9,3,12.07,12.07,0,0,0-4.28,3.75C159.15,47.4,159.72,48.45,162.37,48.58Z"/><path class="cls-1" d="M206,177.72c-.65.6-1.26,1.16-1.88,1.71a5,5,0,0,0-1,.87,17.52,17.52,0,0,1-3.74,3.51c-1.62,1.37-2.59,3.25-4.38,4.59l6.37,6.42,10.93-10.57Z"/><path class="cls-1" d="M244.78,156l-5.69,5.35a29.59,29.59,0,0,0,3.59,3.65c2.07,1.69,3.95,3.59,5.91,5.39.53.49,1.09.93,1.74,1.48l5.78-5.38Z"/><path class="cls-1" d="M232.38,167.67l11.15,10,5.42-4.8c-3.54-3.51-7.11-7-10.75-10.64Z"/><path class="cls-1" d="M257.26,165.43l5.44-5a34.13,34.13,0,0,0-3.63-3.31,40.47,40.47,0,0,1-7.75-6.66c-.08-.09-.23-.12-.1-.06l-5.73,4.95C249.41,158.72,253.29,162,257.26,165.43Z"/><path class="cls-1" d="M225.94,173.51c.53.55.88,1,1.28,1.31.63.57,1.3,1.11,1.95,1.67.31.27.57.59.89.84,1.12.9,2.3,1.73,3.38,2.69,1.34,1.18,2.59,2.45,3.92,3.71l5.38-4.93c-3.8-3.5-7.68-6.68-10.88-10.35Z"/><path class="cls-1" d="M199.31,171.57l-10.49,10.7,4.72,4.76c3.67-3.54,7.74-6.38,11.6-10a6,6,0,0,1-.94-.66,33.21,33.21,0,0,1-3-3.17A4.43,4.43,0,0,0,199.31,171.57Z"/><path class="cls-1" d="M236.34,184.83l-11.2-10.45-5.09,4.72c1.88,1.86,3.63,3.65,5.45,5.37s3.7,3.34,5.34,4.82Z"/><path class="cls-1" d="M202.18,195.66c1.7,1.85,3.35,3.67,5,5.46.4.43.92.75,1.33,1.17,1.37,1.42,2.7,2.87,4.12,4.38-.16-.17,5.16-4.3,5.12-5a.84.84,0,0,0-.17-.4,7.65,7.65,0,0,0-1-1c-.79-.75-8.25-8.53-8.9-9.15-.46-.44-1,.42-1.36.72L205,193.09Z"/><path class="cls-1" d="M223.91,196.12l-10.37-10.49-5.12,4.14c1.22,1.39,2.27,2.7,3.44,3.9s5.61,6.07,7.24,6.88Z"/><path class="cls-1" d="M172.76,166l4.4,4.64c1-.8,1.9-1.51,2.75-2.32,2.33-2.19,4.62-4.42,6.92-6.63l1.13-1.1-4.48-4.4A59.37,59.37,0,0,0,172.76,166Z"/><path class="cls-1" d="M219.37,180.23l-5,4.35,10.53,10.3,4.69-4.18Z"/><path class="cls-1" d="M264.32,159.07l5.71-5.29-14.94-7.47c-1,1-2.08,2-3.21,3.09.94.82,1.76,1.62,2.65,2.31C257.72,154.14,260.93,156.53,264.32,159.07Z"/><path class="cls-1" d="M193.28,165.66,188.6,161c-3,3.87-6.81,7.16-10.22,10.71l3.19,3.25a1.13,1.13,0,0,0,1.66.11c1.17-1.14,2.29-2.34,3.5-3.43,1.78-1.61,3.64-3.14,5.45-4.72A14.72,14.72,0,0,0,193.28,165.66Z"/><path class="cls-1" d="M198.25,170.56a25.11,25.11,0,0,0-4.31-3.89c-1.68,1.8-3.26,3.6-5,5.28s-3.58,3.3-5.42,5c.75.73,1.4,1.31,2,1.94s1.09,1.3,1.68,2A104.81,104.81,0,0,0,198.25,170.56Z"/><path class="cls-1" d="M171.57,164.78c3.09-3.85,7-6.61,11-9.57l-3-3.19a22.61,22.61,0,0,1-6.39,4.43,77.21,77.21,0,0,1-7.31,3.1Z"/><path class="cls-2" d="M154.59,58.94c-3.55,5.12-3.83,15.26.17,19.8C154.49,72.74,154.66,59.06,154.59,58.94Z"/><path class="cls-2" d="M188.54,57.77c.68,1.31.94,2.64,1.66,4,.23-.57.35-.91.5-1.24a2.48,2.48,0,0,1,4.16-.82,9.59,9.59,0,0,1,2.75,4,9.64,9.64,0,0,0,.47,1c.46-1.64.87-3.06,1.25-4.49a.73.73,0,0,0-.14-.61c-1.4-1.33-2.83-2.65-4.93-2.61-1.23,0-2.46.1-3.69.23A15.18,15.18,0,0,0,188.54,57.77Z"/><path class="cls-5" d="M205.64,110.16c-3,1.31-11.88,2.46-17.4,1.6-.32-.4-.07-.64.24-.9a15.75,15.75,0,0,1,3.94-2.16,34.4,34.4,0,0,1,10.91-2.46l1.84-.19C205.34,107.55,205.49,108.86,205.64,110.16Z"/><path class="cls-5" d="M204.44,104.46l-5,0c-1.2,0-2.41,0-3.62-.08a16.19,16.19,0,0,1-5.83-1.24,15.75,15.75,0,0,1-1.89-1,1.28,1.28,0,0,1-.58-.8c0-.19.32-.53.58-.64a10,10,0,0,1,4.53-.9c2.69.14,5.37.33,8.06.57,1.53.13,3.06.39,4.64.6l-.11,2.3C205.15,103.82,205.25,104.48,204.44,104.46Z"/><path class="cls-6" d="M227.88,68.77a15.56,15.56,0,0,1-8.78,4.42,16.59,16.59,0,0,1-6.27-.11,80,80,0,0,0,7.86-14.45c.48,0,1.11,0,1.73.09a10.69,10.69,0,0,1,4.82,1.83C230.83,62.94,230,66.58,227.88,68.77Z"/><path class="cls-6" d="M184.14,68a7.46,7.46,0,0,1-2.37,3.12,17,17,0,0,1-9.87,3.64,37.77,37.77,0,0,1-4.51-.16,10.27,10.27,0,0,1-1.34-.31,21.89,21.89,0,0,0,1.2-2.56c1.33-2.87,2.64-5.75,3.89-8.64.21-.52.44-1,.64-1.55.13-.31.18-.66.38-.84a.55.55,0,0,1,.39-.15c1.3,0,2.68.1,4,.18a11.35,11.35,0,0,1,3.82.81,11.74,11.74,0,0,1,1.34.75C183.59,63.51,185,65.73,184.14,68Z"/><path d="M187.05,126c0-.2.08-.4,0-.47a.33.33,0,0,0-.18-.08l-2.68-.6c-1.15-.26-2.29-.52-3.41-.86-.66-.2-1.31-.43-2-.66-1.74-.63-3.49-1.25-5.2-2a29.69,29.69,0,0,1-6.66-3.75,16.85,16.85,0,0,1-4.44-5.31c-.83-1.51-1.46-3.13-2.31-4.63a18.9,18.9,0,0,1-1.72-5c-.37-1.51-.67-3-1.17-4.51a39.45,39.45,0,0,1-1.78-8.86c-.23-2.27-.45-4.54-.74-6.8a2.94,2.94,0,0,0-.61-1.33,19.2,19.2,0,0,1-3.76-8.29,19.94,19.94,0,0,1,2.47-13.74,5.08,5.08,0,0,1,.49-.82,4.85,4.85,0,0,0,.94-3.06c.3-4,.4-8,1.42-11.91a40.22,40.22,0,0,1,5.9-13.6,31.94,31.94,0,0,1,7.58-7.85,53,53,0,0,1,12.39-6.7,86.85,86.85,0,0,1,8.71-2.38,49.2,49.2,0,0,1,5.27-.92c2.39-.3,4.8-.54,7.21-.72s4.84-.32,7.26-.32,4.74.2,7.11.31c1.23.06,2.46.13,3.69.18a37.76,37.76,0,0,1,12.73,3.07c2.37,1,4.66,2.12,7,3a16.71,16.71,0,0,1,6.88,5.27A28.49,28.49,0,0,1,252.08,30c.67,1.65,1.66,3.16,2.37,4.79s1.41,3.57,2,5.39a17.13,17.13,0,0,1,.55,6.4c.31.51.9.6,1.49.73a6.22,6.22,0,0,1,4.87,4.67,19.61,19.61,0,0,1,.73,4.44A28,28,0,0,1,264,64a2.07,2.07,0,0,0,.52,1.87A15.47,15.47,0,0,1,267,71.78,22.08,22.08,0,0,1,265.67,86a21.43,21.43,0,0,1-6.46,8.54,15.19,15.19,0,0,1-5.91,3.1C252,98,252,98,251.87,99.38c-.15,2.38-.24,4.75-.42,7.13-.39,5-.89,10-1.23,15-.17,2.41-.1,4.85-.14,7.27,0,1.05-.05,2.1-.05,3.15,0,.73.07,1.46.1,2.19a12.58,12.58,0,0,0,3.11,7.48,16.79,16.79,0,0,0,5.63,4.5c4.26,2.12,8.48,4.31,12.75,6.38,2.35,1.14,4.78,2.08,7.17,3.12a25.89,25.89,0,0,1,3.12,1.42,36.19,36.19,0,0,0,7.91,3.06,17,17,0,0,1,2.44,1.16,6.59,6.59,0,0,0,.71.34,20.34,20.34,0,0,1,5,2.42,9.67,9.67,0,0,0,2,.92c2.71,1.06,5.5,1.91,8,3.54a31.18,31.18,0,0,0,3.84,1.77c3.49,1.68,7,3.33,10.44,5.09,1.24.64,2.33,1.57,3.53,2.32,1.62,1,3.3,1.94,4.92,3,2.08,1.31,4.15,2.66,6.18,4,3.52,2.38,7.1,4.68,10.48,7.25A32.9,32.9,0,0,1,355,200a20.26,20.26,0,0,0,2.32,3.13,16,16,0,0,1,2.11,3.48c.82,1.47,1.67,2.93,2.36,4.45a39.83,39.83,0,0,1,2.87,9.8,75.15,75.15,0,0,1,.58,10.39c0,1.36-.17,2.73-.16,4.09,0,1.6.19,3.2.24,4.81,0,1.35,0,2.71,0,4.07,0,.18-.08.39,0,.54.9,1.82.4,3.77.52,5.65.14,2.5,0,5,0,7.51,0,.41-.07.82-.1,1.23a16.11,16.11,0,0,0,0,4.22c.26,1.55.26,3.14.41,4.71s.31,2.9.51,4.34a2.39,2.39,0,0,1-.77,2.24,6.68,6.68,0,0,1-1.2-.35c-.65-.32-.74-.86-.54-1.55a4.91,4.91,0,0,0,.16-1.71c-.25-3.18-.6-6.36-.8-9.55a35.23,35.23,0,0,1,.27-3.68c0-.84,0-1.68,0-2.53,0-2.87.06-5.74,0-8.6-.05-2-.32-4.08-.42-6.12s-.11-4.11-.16-6.17c-.07-3.06-.08-6.13-.24-9.19a35.6,35.6,0,0,0-3.39-14.31,43.41,43.41,0,0,0-5.85-9.41,33.83,33.83,0,0,1-2.43-3.15,26.4,26.4,0,0,0-5.41-5.2c-4.4-3.52-9.28-6.33-13.9-9.53-2.25-1.56-4.79-2.7-7-4.29-4.58-3.26-9.76-5.35-14.69-7.94-1.9-1-3.77-2.07-5.75-2.89-3.17-1.31-6.22-2.85-9.31-4.32s-6.42-2.36-9.64-3.52c-.6-.21-1.21-.43-1.79-.69-3.75-1.66-7.5-3.32-11.22-5a1.32,1.32,0,0,0-1.67.38q-8.88,8.2-17.79,16.36-8.44,7.72-16.94,15.43-7,6.32-13.94,12.61L214,207.1c-.51.47-1.08,1.13-1.84.82a2.72,2.72,0,0,1-.89-.66c-.78-.76-1.52-1.56-2.26-2.37a71.19,71.19,0,0,0-5.39-5.6c-2-1.8-7.54-7.53-8.35-8.45-.4-.46-3.17-3.12-4.09-4-.67-.66-1.39-1.27-2-2-1-1-8.49-8.49-10.17-10.23-.09-.1-3.49-3.45-5-5.11s-3.19-3.28-4.73-5c-1.39-1.51-2.71-3.09-4.15-4.74-1.48.56-3,1.16-4.61,1.77-6.52,2.52-13.07,5-19.55,7.58s-12.83,5.31-19.22,8c-3,1.3-6,2.67-9,4.13a95.43,95.43,0,0,0-15.83,10.06A61.68,61.68,0,0,0,85,204.22a17.48,17.48,0,0,0-2.47,5.17c-1.18,3.7-2.49,7.36-3.72,11-.49,1.47-.89,3-1.38,4.45q-1.27,3.83-2.64,7.62a1.27,1.27,0,0,1-1.62.83,1.58,1.58,0,0,1,.14-1.74A35.29,35.29,0,0,0,76,224.11c.42-1.68,1.13-3.28,1.7-4.92.34-1,.68-2,1-3q1.31-4,2.59-8.09a19.83,19.83,0,0,1,3.36-5.94,56.89,56.89,0,0,1,7.88-8.95,66.53,66.53,0,0,1,9-7c2.67-1.58,5.15-3.48,7.85-5s5.84-3,8.81-4.4c2.81-1.33,5.66-2.57,8.5-3.82,1.55-.67,3.13-1.28,4.69-1.91,2.46-1,4.91-2,7.37-2.95,1.47-.58,3-1.12,4.44-1.69l19.43-7.5c2.38-.92,4.79-1.75,7.14-2.75a39.86,39.86,0,0,0,3.86-2.07c.71-.41,1.38-.9,2.11-1.28a9.3,9.3,0,0,0,3.49-3.58c1.17-1.9,2.33-3.81,3.45-5.73a15.79,15.79,0,0,0,1.75-5.15c.69-3.68,1.53-7.34,2.31-11,.08-.38.22-.75.29-1.13Zm66.8,19.27c-.38-.36-.71-.66-1-1a15.88,15.88,0,0,1-3.93-6.82,17.17,17.17,0,0,1-.52-5.85,40.21,40.21,0,0,0,.11-4.11,130.53,130.53,0,0,1,.85-14.92c.24-2.5.59-5,.87-7.49.22-2,.41-4,.6-6a4.93,4.93,0,0,0-.05-.72,30.69,30.69,0,0,1-3.32.11c-.7,0-2.14,0-2.38-.83-.31-1.19,1.07-.91,1.74-.88a15.64,15.64,0,0,0,6.46-.86,19.66,19.66,0,0,0,10-8.44A20.09,20.09,0,0,0,266,76c-.27-5.14-2-9.65-6.18-12.95a13.37,13.37,0,0,0-10.48-3.1c-.54.08-1.08.18-1.63.21a4.42,4.42,0,0,0-4,2.7c-.38.83-.71,1.69-1,2.54a18.87,18.87,0,0,1-2.25,4.84,2.75,2.75,0,0,1-3.65,1.06,4.1,4.1,0,0,0-.42.66,22.27,22.27,0,0,1-7.52,9.25,23.48,23.48,0,0,1-11.28,4.2,17.28,17.28,0,0,1-7-.72,17.75,17.75,0,0,1-7.8-4.94c-.23-.23-.49-.43-.79-.69-.16,1.37-.25,2.6-.45,3.81-.33,2-.74,2.26-2.73,1.53a8.76,8.76,0,0,1-1.31-.71c-.3-.16-.59-.35-.89-.54-.93,2.6-3.25,2.48-5.42-.37-.25.33-.49.65-.74,1a2.18,2.18,0,0,1-4-.55,5.52,5.52,0,0,1-.44-3.08c.07-.5,0-1,.05-1.59-.28.1-.39.11-.44.17a4.54,4.54,0,0,0-.45.52,19.67,19.67,0,0,1-6.22,5.29,24.7,24.7,0,0,1-8.63,2.87,17.67,17.67,0,0,1-7.45-.58,15.91,15.91,0,0,1-5.6-2.82,6.67,6.67,0,0,0-.81-.47,24,24,0,0,0,.33,4.31c.24,1.76.55,3.53.93,5.27a18.16,18.16,0,0,0,.73,2.62,1,1,0,0,0,.16.37c.26.22.62-.28.87-.49.78-.66,1.58-1.28,2.39-1.89a37.76,37.76,0,0,1,3.3-2.33A12.28,12.28,0,0,1,168.61,90a24.16,24.16,0,0,1,7.63-.53,39.54,39.54,0,0,1,4.06.53A2.34,2.34,0,0,0,181,90a4.47,4.47,0,0,0,1.39-.71c.52-.28,1-.55,1.6-.78a18.8,18.8,0,0,1,3.37-1.13,20.75,20.75,0,0,1,7.07-.45,19.7,19.7,0,0,1,5.88,1.57,2.91,2.91,0,0,0,1.36.36,3,3,0,0,0,1.33-.59,10.73,10.73,0,0,1,7.15-1.48,14.79,14.79,0,0,1,8,3.8,9.75,9.75,0,0,1,2.56,3.48,15.09,15.09,0,0,1,3.11.06,10.38,10.38,0,0,1,5.21,3.13,18.15,18.15,0,0,1,3.77,6.78,7.26,7.26,0,0,1-.07,5c-.19.51-.37,1-.57,1.54a15,15,0,0,1-9,8.9c-2.35.9-4.77,1.59-7.06,2.61a43.76,43.76,0,0,1-8.94,2.53,57.46,57.46,0,0,1-7.6,1.08c-2.4.18-4.81.41-7.22.6a5.27,5.27,0,0,1-.68,0l-3.58-.17c-.67,3.81-1.27,7.46-2,11.09a33.59,33.59,0,0,1-1.29,5.3,29.52,29.52,0,0,1-3.73,7c-.47.65-.86,1.35-1.22,1.93,1.35,1.14,2.59,2.13,3.76,3.19.83.75,1.55,1.62,2.36,2.4.49.47,1.08.83,1.58,1.28,3.8,3.39,7.13,7.26,11,10.62,1,.88,1.79,2,2.81,2.92a41.41,41.41,0,0,1,4.89,4.66A29.89,29.89,0,0,0,209.2,179c1.42,1.33,2.81,2.68,4.25,4ZM161.33,50.38a6.05,6.05,0,0,1-.8-.14c-1.16-.36-2.29-.85-2.46-2.23a4.72,4.72,0,0,1,1.12-4,18.77,18.77,0,0,1,5.64-4.29c1.83-.83,3.71-1.56,5.59-2.29a16.15,16.15,0,0,1,6.21-.78,2.6,2.6,0,0,1,2.58,2.91A5.69,5.69,0,0,1,177.12,44c-.59.44-1.14.92-1.75,1.32-1.09.71-2.21,1.38-3.51,2.18.56.05.91.07,1.26.12,1.35.2,2.71.34,4,.63,4.49,1,7.62,3.92,10.43,7.31.2.24.37.49.57.76a16.42,16.42,0,0,1,6.25-.94,6,6,0,0,1,3.84,1.2c.61.47,1.24.91,1.93,1.41.31-.47.6-.87.85-1.3a22.31,22.31,0,0,1,12.16-9.94,2.35,2.35,0,0,0,.47-.27,45.22,45.22,0,0,1-4.61-3,3.63,3.63,0,0,1,.39-6.2A9.74,9.74,0,0,1,212.71,36a18.54,18.54,0,0,1,5.82-.34c2.12.26,4.27.2,6.31,1a13.1,13.1,0,0,1,4.23,2.29,18.51,18.51,0,0,1,2,2.34,4.68,4.68,0,0,1,1,3.6,2.38,2.38,0,0,1-1.74,2.36,5.09,5.09,0,0,0-1,.64c2.69,1.65,4.61,3.92,6.73,6.18a11.59,11.59,0,0,1,3.07-5.4,7.89,7.89,0,0,1,5.2-2.62c2.48-.21,5,0,7.49-.05a5.45,5.45,0,0,1,3,.65,2.77,2.77,0,0,0,.84.12c-.13-1.54-.24-3-.37-4.41a7.89,7.89,0,0,0-.28-1.75c-.61-1.72-1.22-3.44-2-5.11s-1.78-3.2-2.47-4.88a26,26,0,0,0-3.74-6.16A17.19,17.19,0,0,0,240,18.9c-3.61-1.52-7.11-3.32-10.93-4.31a49.09,49.09,0,0,0-5.48-1.19c-2.31-.31-4.64-.45-7-.55-3.46-.15-6.91-.23-10.37-.29-.95,0-1.9.14-2.85.21-2.68.21-5.38.31-8,.68-2.38.33-4.73,1-7.08,1.47a40.62,40.62,0,0,0-12.57,4.9c-1.33.81-2.69,1.56-4,2.4a21.49,21.49,0,0,0-3.09,2.23c-1.37,1.27-2.58,2.7-3.89,4a15.73,15.73,0,0,0-4.22,6.4,3.69,3.69,0,0,1-.24.49c-.75,1.65-1.58,3.26-2.22,4.95a25.59,25.59,0,0,0-1,3.87c-.44,2.14-.88,4.28-1.17,6.44a37.64,37.64,0,0,0-.14,4.18ZM201.86,90l-.34-.06c-2.16-.44-4.24-1.28-6.45-1.46a27.49,27.49,0,0,0-7-.2A13.11,13.11,0,0,0,182,91.12a1.61,1.61,0,0,1-1.49.36c-1.66-.29-3.33-.62-5-.76-2.59-.21-5.69-.2-8.06,1a47.21,47.21,0,0,0-6,3.45,7.11,7.11,0,0,0-.74.81,8.83,8.83,0,0,0-1,1,2.61,2.61,0,0,0-.28,2.48,9.75,9.75,0,0,1,.47,1.86A29.12,29.12,0,0,0,164.17,112a16.66,16.66,0,0,0,5.63,5.69,30.87,30.87,0,0,0,3.78,1.87c2.63,1.14,5.24,2.37,8,3.26a28.33,28.33,0,0,0,7.09,1.82,2.51,2.51,0,0,0,.27,0c1.4.08,2.8.23,4.2.21,1.59,0,3.18-.21,4.77-.32,1.23-.09,2.46-.16,3.69-.29s2.51-.52,3.76-.6a37.51,37.51,0,0,0,7.1-1.66c1.07-.28,2.15-.56,3.2-.92a46.56,46.56,0,0,0,4.7-2c1.66-.79,3.32-1.58,4.93-2.45a13.3,13.3,0,0,0,2.72-2.25,11.46,11.46,0,0,0,2.22-3.24c.28-.62.37-1.34.69-1.93,1.15-2.09.51-4.18-.22-6.1a12.93,12.93,0,0,0-4-5.62c-1.73-1.39-3.63-2.23-5.89-1.16-.74.35-1.08.22-1.39-.53a8.91,8.91,0,0,0-.65-1.8,13.33,13.33,0,0,0-5.09-4.28,11.3,11.3,0,0,0-5.09-1,23.06,23.06,0,0,0-2.61.36,8.18,8.18,0,0,0-2.18.53,4.5,4.5,0,0,1-1.17.4A2.35,2.35,0,0,1,201.86,90ZM236,59a8,8,0,0,0-.61-2.25c-.25-.53-.55-1-.78-1.53a10.11,10.11,0,0,0-.95-1.7,17.32,17.32,0,0,0-3.21-3.36,10.55,10.55,0,0,0-4-1.93,33.24,33.24,0,0,0-6.87-1.09,12.77,12.77,0,0,0-3.95.27,23.61,23.61,0,0,0-3.35,1.14,20.12,20.12,0,0,0-5.84,3.84c-4.49,4.24-7,9.33-6.78,15.56a15.57,15.57,0,0,0,5.42,11.74,16.68,16.68,0,0,0,16.28,3.53,20.89,20.89,0,0,0,10.13-6.34,19.41,19.41,0,0,0,4.92-12.68c0-.69-.07-1.36-.12-2l-.14-1.66C236.1,60,236.06,59.48,236,59Zm-80.41,2.31.15,6c.06,2.32.09,4.65.19,7,.08,2,.28,3.92.36,5.88a2.09,2.09,0,0,0,.88,1.61,17.31,17.31,0,0,0,14.74,3.83,20.18,20.18,0,0,0,11.26-6.37,15.8,15.8,0,0,0,4.1-6.7c.41-1.56.82-3.13,1.17-4.71a12.82,12.82,0,0,0-.61-8c-.5-1.16-1.21-2.23-1.67-3.41a6.56,6.56,0,0,0-1.6-2.33c-.48-.47-1.07-.84-1.59-1.26a9.75,9.75,0,0,0-1.55-1.28,27.47,27.47,0,0,0-3.35-1.44,17.65,17.65,0,0,0-3-.82,17.91,17.91,0,0,0-7.74.26c-4.15,1.1-8.92,4.7-11.8,7.81A27.27,27.27,0,0,1,155.58,61.29Zm106.63,1.39a9,9,0,0,0,.12-1.06c-.06-2.14-.1-4.29-.23-6.42a7.86,7.86,0,0,0-1.23-3.88,5.2,5.2,0,0,0-2.21-2.22,17,17,0,0,0-2.05-.79,25.48,25.48,0,0,0-5.29-.92,19.87,19.87,0,0,0-8.68.74,7.08,7.08,0,0,0-2.14,1.21,11,11,0,0,0-1.45,1.82c-1,1.31-1.32,3-1.82,4.54-.32,1,.14,1.79.37,2.71a18.83,18.83,0,0,1,.18,9.66c-.2.72.2,2.19,1.2,1.45.57-.42.83-1.46,1.1-2.08.35-.8.69-1.61,1-2.42.76-1.88,1.35-3.84,3.15-4.95A11.71,11.71,0,0,1,247,58.68a14.24,14.24,0,0,1,3.26-.46A15.4,15.4,0,0,1,257,59.5a14.62,14.62,0,0,1,4.3,2.64A7.56,7.56,0,0,0,262.21,62.68Zm-62.54,20.1.11-.09c.31-.26.2-.57.24-.93a12.45,12.45,0,0,0,.08-1.5,35.53,35.53,0,0,0-1-5.5A56.06,56.06,0,0,0,197.32,68c-.63-2-1.47-3.91-2.29-5.83a4.73,4.73,0,0,0-1.09-1.4c-.72-.71-1.41-.57-1.82.36-.52,1.17-1,2.34-1.49,3.54a3.92,3.92,0,0,0-.35,1.73A13.4,13.4,0,0,1,189,72.79a17.08,17.08,0,0,0-1.17,4.82,22.67,22.67,0,0,0-.1,2.47,5.1,5.1,0,0,0,.28,2.27.88.88,0,0,0,.88.51c.36-.06.33-.25.43-.54.31-.87.79-1.73,1.19-2.57.21-.44.33-1,1-1s.91.55,1,1.1.12.91.25,1.35a4.36,4.36,0,0,0,.6,1.44c.21.28.66.67,1,.59s.47-.86.55-1.22c.14-.66.21-1.35.37-2a1,1,0,0,1,1-.82c.55,0,.77.27.88.82a7.67,7.67,0,0,0,.72,1.9C198.21,82.52,199,83.22,199.67,82.78ZM206,177.72c-.65.6-1.26,1.16-1.88,1.71a5,5,0,0,0-1,.87,17.52,17.52,0,0,1-3.74,3.51c-1.62,1.37-2.59,3.25-4.38,4.59l6.37,6.42,10.93-10.57ZM218.13,37.21a14.57,14.57,0,0,0-6.48,1.14,7.86,7.86,0,0,0-1.83,1.38,1.14,1.14,0,0,0-.15,1.39A4.3,4.3,0,0,0,212,43.48a29.9,29.9,0,0,0,8.52,2.16,38.54,38.54,0,0,1,5.39.85c1.55.43,2.75-.23,4-.74a1.12,1.12,0,0,0,.46-.76,2.86,2.86,0,0,0-.35-2.11,8.73,8.73,0,0,0-4.8-4.23A32.86,32.86,0,0,0,218.13,37.21ZM244.78,156l-5.69,5.35a29.59,29.59,0,0,0,3.59,3.65c2.07,1.69,3.95,3.59,5.91,5.39.53.49,1.09.93,1.74,1.48l5.78-5.38Zm-12.4,11.65,11.15,10,5.42-4.8c-3.54-3.51-7.11-7-10.75-10.64Zm24.88-2.24,5.44-5a34.13,34.13,0,0,0-3.63-3.31,40.47,40.47,0,0,1-7.75-6.66c-.08-.09-.23-.12-.1-.06l-5.73,4.95C249.41,158.72,253.29,162,257.26,165.43Zm-31.32,8.08c.53.55.88,1,1.28,1.31.63.57,1.3,1.11,1.95,1.67.31.27.57.59.89.84,1.12.9,2.3,1.73,3.38,2.69,1.34,1.18,2.59,2.45,3.92,3.71l5.38-4.93c-3.8-3.5-7.68-6.68-10.88-10.35Zm-26.63-1.94-10.49,10.7,4.72,4.76c3.67-3.54,7.74-6.38,11.6-10a6,6,0,0,1-.94-.66,33.21,33.21,0,0,1-3-3.17A4.43,4.43,0,0,0,199.31,171.57Zm37,13.26-11.2-10.45-5.09,4.72c1.88,1.86,3.63,3.65,5.45,5.37s3.7,3.34,5.34,4.82Zm-34.16,10.83c1.7,1.85,3.35,3.67,5,5.46.4.43.92.75,1.33,1.17,1.37,1.42,2.7,2.87,4.12,4.38-.16-.17,5.16-4.3,5.12-5a.84.84,0,0,0-.17-.4,7.65,7.65,0,0,0-1-1c-.79-.75-8.25-8.53-8.9-9.15-.46-.44-1,.42-1.36.72L205,193.09Zm21.73.46-10.37-10.49-5.12,4.14c1.22,1.39,2.27,2.7,3.44,3.9s5.61,6.07,7.24,6.88ZM162.37,48.58a2.81,2.81,0,0,0,1,0c1.91-.6,3.84-1.15,5.67-1.92A33.9,33.9,0,0,0,175.33,43a4.51,4.51,0,0,0,1.93-3.41A1.11,1.11,0,0,0,176,38.27a18.15,18.15,0,0,0-3.39.39,29.37,29.37,0,0,0-7.9,3,12.07,12.07,0,0,0-4.28,3.75C159.15,47.4,159.72,48.45,162.37,48.58ZM172.76,166l4.4,4.64c1-.8,1.9-1.51,2.75-2.32,2.33-2.19,4.62-4.42,6.92-6.63l1.13-1.1-4.48-4.4A59.37,59.37,0,0,0,172.76,166Zm46.61,14.25-5,4.35,10.53,10.3,4.69-4.18Zm44.95-21.16,5.71-5.29-14.94-7.47c-1,1-2.08,2-3.21,3.09.94.82,1.76,1.62,2.65,2.31C257.72,154.14,260.93,156.53,264.32,159.07Zm-71,6.59L188.6,161c-3,3.87-6.81,7.16-10.22,10.71l3.19,3.25a1.13,1.13,0,0,0,1.66.11c1.17-1.14,2.29-2.34,3.5-3.43,1.78-1.61,3.64-3.14,5.45-4.72A14.72,14.72,0,0,0,193.28,165.66Zm5,4.9a25.11,25.11,0,0,0-4.31-3.89c-1.68,1.8-3.26,3.6-5,5.28s-3.58,3.3-5.42,5c.75.73,1.4,1.31,2,1.94s1.09,1.3,1.68,2A104.81,104.81,0,0,0,198.25,170.56Zm-26.68-5.78c3.09-3.85,7-6.61,11-9.57l-3-3.19a22.61,22.61,0,0,1-6.39,4.43,77.21,77.21,0,0,1-7.31,3.1Zm-17-105.84c-3.55,5.12-3.83,15.26.17,19.8C154.49,72.74,154.66,59.06,154.59,58.94Zm33.95-1.17c.68,1.31.94,2.64,1.66,4,.23-.57.35-.91.5-1.24a2.48,2.48,0,0,1,4.16-.82,9.59,9.59,0,0,1,2.75,4,9.64,9.64,0,0,0,.47,1c.46-1.64.87-3.06,1.25-4.49a.73.73,0,0,0-.14-.61c-1.4-1.33-2.83-2.65-4.93-2.61-1.23,0-2.46.1-3.69.23A15.18,15.18,0,0,0,188.54,57.77Z"/><path d="M248.58,81.48c-.3-.49.61-1.21.89-1.49q1-1,2-1.86c.92-.83,1.89-1.59,2.9-2.43a5.61,5.61,0,0,0-2.53-3.38c-1.18-.81-2.47-1.47-3.68-2.17.08-.61.45-.71.82-.62a11.82,11.82,0,0,1,2.34.75,12.75,12.75,0,0,1,3.84,3,4,4,0,0,1,.75,1.14c.12.31.23.62.32.93a11.74,11.74,0,0,1,0,7.41,11.35,11.35,0,0,1-1.83,3.41c-.38.45-.7.46-1.14,0a1.07,1.07,0,0,1-.24-1.32,20.87,20.87,0,0,0,1.22-2.29,9.85,9.85,0,0,0,.64-2.51,10.85,10.85,0,0,0,.06-1.4,11.66,11.66,0,0,1-.11-1.33c-.53.35-.91.56-1.24.83l-2.49,2.1c-.43.36-1.6,1.72-2.24,1.42A.79.79,0,0,1,248.58,81.48Z"/><path d="M216.93,169.19c.31,1.36,0,2.08-1.07,2.17-1.8.15-3.62.18-5.43.26a3.82,3.82,0,0,1-.68-.07.76.76,0,0,1-.67-.88c0-.48.37-.58.75-.6.68,0,1.37,0,2-.08C213.53,169.76,215.18,169.47,216.93,169.19Z"/><path d="M195.66,105.85c-1.59-.32-2.93-.52-4.21-.88a33.45,33.45,0,0,1-4-1.38,3.51,3.51,0,0,1-1.34-1.08,1.9,1.9,0,0,1,.63-3,11.54,11.54,0,0,1,5.66-1.41,56,56,0,0,1,6.47.31c2.14.23,4.23.65,6.37.9a.61.61,0,0,0,.3,0c.37-.13.48-1.46.63-1.82s.34-.91.73-.9c.57,0,.79.38.6.9a11.12,11.12,0,0,0-.46,1.74,27.22,27.22,0,0,0-.39,4,26.57,26.57,0,0,0,1.11,8,12.44,12.44,0,0,0,.94,2.34c.27.48,1.18,1.32,1,1.9a.74.74,0,0,1-.48.49,1.12,1.12,0,0,1-.93-.19,2.87,2.87,0,0,1-1.3-1.45c-.19-.48-.36-1-.57-1.43s-.3-.82-.91-.72c-5.61,1-11.36,1.84-17,1-.65-.1-1.57-.15-2-.75a1.86,1.86,0,0,1,.49-2.34,7.74,7.74,0,0,1,2.11-1.5c2-.88,4-1.64,5.94-2.45C195.23,106.08,195.34,106,195.66,105.85Zm9.52.21-1.85.18a35,35,0,0,0-10.91,2.46,15.9,15.9,0,0,0-3.94,2.16c-.31.26-.56.49-.25.9,5.53.86,14.4-.29,17.41-1.6C205.49,108.86,205.35,107.56,205.18,106.06Zm.11-5.16c-1.58-.22-3.11-.48-4.64-.61q-4-.36-8.06-.57a10,10,0,0,0-4.53.9c-.26.11-.62.45-.59.64a1.36,1.36,0,0,0,.58.8,14.07,14.07,0,0,0,1.91,1,15.68,15.68,0,0,0,5.82,1.23c1.21.07,2.42.08,3.62.09l5,0c.83,0,.72-.64.75-1.27Z"/><path d="M200.8,118.07c-.38.94-1.15.82-1.8.79-1.1,0-2.2-.12-3.3-.19-.55,0-1.1-.09-1.65-.12-.37,0-.9,0-1.11-.36a.56.56,0,0,1,0-.49c.25-.54.88-.4,1.38-.42l1.74-.06,3.38-.09A1.23,1.23,0,0,1,200.8,118.07Z"/><path d="M215.39,75.1a13.67,13.67,0,0,1-7.5-2.33c-2.09-.57-5.89-6.59.33-11.56A16.06,16.06,0,0,1,214,58a18.39,18.39,0,0,1,11.06-.12,8.34,8.34,0,0,1,5.58,4.52,6.19,6.19,0,0,1-.59,6c-2,3.29-5.21,4.88-8.73,6a16.36,16.36,0,0,1-2.94.62C217.4,75.1,216.39,75.07,215.39,75.1Zm-2.56-2a16.85,16.85,0,0,0,6.28.12,15.52,15.52,0,0,0,8.76-4.43c2.1-2.19,3-5.83-.64-8.22a10.61,10.61,0,0,0-4.81-1.83c-.62-.06-1.25-.06-1.73-.08A80.22,80.22,0,0,1,212.83,73.08Z"/><path d="M174.81,59.13c1.68.26,3.57.5,5.44.86a5.85,5.85,0,0,1,1.54.81,10,10,0,0,0,.94.55,5.48,5.48,0,0,1,3,7.45,9.32,9.32,0,0,1-2.82,3.65,18.59,18.59,0,0,1-9.63,3.91,28.47,28.47,0,0,1-6,.24,11.57,11.57,0,0,1-8.62-4.43,5.2,5.2,0,0,1-.65-5.45,9.28,9.28,0,0,1,3.49-3.95,18.53,18.53,0,0,1,9-3.37C171.86,59.26,173.23,59.23,174.81,59.13Zm-2.65,1.59a2.33,2.33,0,0,0-.38.84c-.2.52-.42,1-.64,1.54-1.25,2.91-2.56,5.78-3.88,8.65a25.84,25.84,0,0,1-1.2,2.56,8.48,8.48,0,0,0,1.33.31,37.78,37.78,0,0,0,4.51.17,17,17,0,0,0,9.86-3.65A7.37,7.37,0,0,0,184.14,68c.87-2.28-.55-4.5-2.45-5.7a9.25,9.25,0,0,0-5.16-1.55c-1.3-.08-2.68-.23-4-.19A.58.58,0,0,0,172.16,60.72Z"/><path class="cls-1" d="M63.89,175.3a3.89,3.89,0,0,0-.16.5c-.2,1.71-.39,3.42-.61,5.13-.17,1.31-.42,2.62-.57,3.94-.2,1.8-.34,3.61-.5,5.42-.11,1.24-.36,2.47-.45,3.72-2.14,27.69-13.27,54.27-15.32,82.16a70.62,70.62,0,0,0,2.48,23.31c2,7.53,6.3,14.68,12.83,18.94,4.8,3.12,10.51,4.52,16.14,5.58,8.44,1.58,17.7,2.38,25.1-1.95,8.31-4.85,12-14.77,14.59-24,1.75-6.3,3.25-12.75,3.43-19.31s-1.78-12.64-3.31-19c-.34-1.41-.75-2.81-1.19-4.19-.8-2.51-1.74-5-2.45-7.51-1.91-6.89-7.59-39.89-9.43-46.81-1.43-5.37-2.83-10.74-4.24-16.11q-1.35-5.11-2.71-10.22c-.27-1-.59-2-.9-3.06-5.09,2.75-10.56,3.6-16.07,4.37A42.62,42.62,0,0,1,63.89,175.3Z"/><path class="cls-2" d="M56.05,125.68a.48.48,0,0,1-.25,0c-.2-.06-.32-.35-.43-.51-.31-.46-.63-.91-.95-1.36a41.48,41.48,0,0,0-6.06-6.57,43.58,43.58,0,0,0-7.24-5.11q-2-1.11-4-2c-.7-.32-1.41-.62-2.12-.91l-1.08-.43c-.22-.08-.93-.21-1.06-.39,1,1.43,1.92,2.64,2.75,3.91s1.6,2.61,2.33,4a21.93,21.93,0,0,1,2.11,4c-.92.46-.94.47-1.32-.22-.76-1.37-1.51-2.75-2.22-4.15A39,39,0,0,0,32,109.12a3,3,0,0,0-.59-.43c-.27.47-.19,1.55-.87,1.65a.62.62,0,0,1-.71-.32,2.25,2.25,0,0,1-.08-.93,19.65,19.65,0,0,0-.46-9.54A1.4,1.4,0,0,1,29.72,98a10.18,10.18,0,0,0,2.36-3.36c.2-.44.5-.84.72-1.28a2.23,2.23,0,0,0,.23-.76c0-.64,0-1.28,0-1.92A4.57,4.57,0,0,0,29.51,86l-.76,1.11c.33.24.59.39.81.59a1.13,1.13,0,0,1,.38,1.53A16.12,16.12,0,0,1,28.16,92c-1.29,1.5-1.55,1.49-3.41.63l-3,4.2c1.1,1.14,2.7.94,4,1.61-.55,1-.62,1-1.36.75-.47-.15-.95-.28-1.41-.45s-.87-.37-1.33-.56c-.07,2.85-.14,5.61-.2,8.36,0,1.15,0,2.3,0,3.45-.06,1.59-.19,3.17-.2,4.76a1.62,1.62,0,0,0,.58,1.17,13.3,13.3,0,0,1,2,2c.82.85,1.76,1.59,2.54,2.48a57.42,57.42,0,0,0,4,4.21c1.8,1.69,3.47,3.53,5.18,5.32.69.72,1.33,1.48,2,2.22a6,6,0,0,0,.86.88c1.8,1.29,3.64,2.53,5.44,3.82,2.73,2,5.44,4,8.17,5.93l10.09,7.24c1.44,1,2.87,2.1,4.3,3.15.77.57,1.55,1.12,2.3,1.72.27.22.7.5.38.94a.78.78,0,0,1-1.14.08c-.38-.25-.71-.58-1.08-.85s-.55-.32-1-.56c-.21,2.6-.4,5-.6,7.54a14.88,14.88,0,0,0,2,.62,36.81,36.81,0,0,0,5.11.65,51.77,51.77,0,0,0,7.68-.31,46.55,46.55,0,0,0,11.23-3.24c.66-.26,1.29-.61,2-.94-.65-2.5-1.27-4.87-1.88-7.25l-.25,0c-.15.57-.29,1.14-.46,1.71-.22.77-.43,1.54-.71,2.29a1.46,1.46,0,0,1-1.64,1c0-.35,0-.74.14-.93a5.44,5.44,0,0,0,1-2.43c.14-.6.23-1.21.38-1.8.36-1.48.85-2.95,1.11-4.45a27.67,27.67,0,0,0-.21-8.47,15,15,0,0,0-2.86-7.18c-.8-1.07-1.57-2.17-2.4-3.22-2.54-3.22-5.07-6.46-8.37-9-.46-.35-.89-.74-1.35-1.08-1.44-1.06-2.88-2.14-4.36-3.14a2.54,2.54,0,0,0-1.42-.3c-1.87.07-3.74.23-5.61.3-2.78.1-5.57.14-8.35.23-2.37.08-4.74.18-7.1.28a3.57,3.57,0,0,0-.55.13c.08.17.09.3.17.37,1.3,1.24,2.62,2.47,3.91,3.72a1,1,0,0,0,.92.28,11.93,11.93,0,0,1,2.39,0,66.56,66.56,0,0,1,9.48,1.7,33.64,33.64,0,0,1,12.19,5.73A13.09,13.09,0,0,1,81,131.43a8,8,0,0,1,.34.86c-.63.51-.9.07-1.13-.25-2.08-3-5-4.89-8.18-6.53a45.16,45.16,0,0,0-11-3.72c-2.27-.52-4.59-.81-6.89-1.18a2.72,2.72,0,0,0-.7.08c.51,1,1.23,1.79,1.82,2.7a7.67,7.67,0,0,1,.74,1.42C56.13,125,56.33,125.59,56.05,125.68Z"/><path class="cls-2" d="M10.55,89.16c0,.62,0,1,0,1.45.22,3.48.44,7,.68,10.44.12,1.64.25,3.28.43,4.91a2.11,2.11,0,0,0,.57,1.19c1.11,1,2.25,2.08,3.45,3a19.47,19.47,0,0,1,3.23,2.92,12.17,12.17,0,0,0,1.15,1c.09-1.18.19-2.1.22-3,0-1.72,0-3.44,0-5.15.09-2.72.21-5.43.38-8.15a10.4,10.4,0,0,0-.16-3.47c-.63-2.28-1.15-4.6-1.71-6.9a1.91,1.91,0,0,1,0-.79c.28-1.37.51-2.76.88-4.11A13.14,13.14,0,0,0,20.19,78c-.16-2.29-1.31-3.77-3.29-4.12a12.65,12.65,0,0,0-2.38,0l-.33,1.27c.29.1.5.18.72.24s.46,0,.68.1a1.16,1.16,0,0,1,.94,1.26A24.22,24.22,0,0,1,16,79.68a2,2,0,0,1-.65.88,3.06,3.06,0,0,1-3,.87l-1.8,6.82a16.73,16.73,0,0,1,1.69-.32,13,13,0,0,1,1.53,0c.11.72-.1,1-.7,1C12.28,89,11.48,89.09,10.55,89.16Z"/><path class="cls-2" d="M54.49,114.07l13.8-.53.08-.27c-.72-.46-1.43-1-2.17-1.38A22.31,22.31,0,0,1,57.53,103c-.91-1.63-1.88-3.24-2.94-4.77a12.44,12.44,0,0,0-2.19-2.34A3.14,3.14,0,0,0,49.67,95a6.77,6.77,0,0,0-2.8,1.26,2.38,2.38,0,0,0-.81,3,16.81,16.81,0,0,0,.93,2c1.23,2.24,2.49,4.47,3.75,6.7.51.9,1.06,1.77,1.59,2.66C53,111.63,53.71,112.76,54.49,114.07Z"/><path class="cls-1" d="M76.32,175.39l8.13-1-2.06-9.93-5.22.39c0,.84,0,1.56-.07,2.28,0,.56-.19,1.12-.25,1.68-.16,1.41-.3,2.81-.43,4.22C76.36,173.7,76.36,174.41,76.32,175.39Z"/><path class="cls-1" d="M70.37,164.68c-.79,1.94-1.68,8.8-1.33,10.16a13.82,13.82,0,0,0,5.69.3c.45-3.37.89-6.76,1.35-10.24Z"/><path class="cls-1" d="M83.5,164.07c.79,3.31,1.56,6.57,2.36,10l6-1.38c-.33-1-.64-2-1-3-.41-1.2-.89-2.37-1.24-3.57s-.58-2.42-.87-3.69Z"/><path class="cls-1" d="M89.84,162c.32,3.65,1.94,6.82,3.17,10.26l3.31-1.74c-.84-3.5-1.77-6.82-2.66-10.23Z"/><path class="cls-1" d="M63.91,174c1.3.2,2.33.82,3.37.59.58-3.44,1.15-6.77,1.72-10.18-.62-.15-1.29-.28-2-.47s-1.34-.44-2-.67c-.22,2.27-.42,4.42-.65,6.58C64.25,171.18,64.08,172.53,63.91,174Z"/><path class="cls-2" d="M9.55,97.64a2.7,2.7,0,0,0,.13-.46c0-1.5-.13-3-.14-4.48,0-2.27-.46-4.53.36-6.81s1.22-4.56,1.85-6.84c.48-1.76,1-3.5,1.56-5.25a2,2,0,0,0-1.83-.6,2.34,2.34,0,0,0-.67.3c.15.18.25.45.45.55a1.8,1.8,0,0,1,.88,2.16c-.17.74-.52,1.43-.74,2.16-.34,1.13-1,1.77-2.24,1.47C8.41,82.5,7.67,85.07,7,87.65a1.38,1.38,0,0,0,0,.67q1.1,4.11,2.21,8.2C9.27,96.84,9.39,97.15,9.55,97.64Z"/><path class="cls-2" d="M14,76.21a11.26,11.26,0,0,0-1.08,4c1.85,0,2.76-1.52,2.23-3.71Z"/><path class="cls-2" d="M25.47,91.66c1,.66,1.17.7,1.71,0a29.65,29.65,0,0,0,1.53-2.55,1.23,1.23,0,0,0,.05-.39l-.88-.46Z"/><path class="cls-2" d="M10.59,74.9a6.53,6.53,0,0,0-.74,3.86c.44-1,1.19-1.86,1.25-3C11.12,75.52,10.84,75.29,10.59,74.9Z"/><path d="M119,265a1.56,1.56,0,0,1-.16-.2,5.58,5.58,0,0,1-.48-1.8c-.28-1.09-.56-2.19-.83-3.29-.34-1.41-.75-2.81-1.19-4.19-.8-2.51-1.74-5-2.45-7.51-1.91-6.89-7.59-39.89-9.43-46.81-1.43-5.37-2.83-10.74-4.24-16.11q-1.35-5.11-2.71-10.22c-.27-1-.59-2-.9-3.06-5.09,2.75-10.56,3.6-16.07,4.37a42.62,42.62,0,0,1-16.66-.89,3.89,3.89,0,0,0-.16.5c-.2,1.71-.39,3.42-.61,5.13-.17,1.31-.42,2.62-.57,3.94-.2,1.8-.34,3.61-.5,5.42-.11,1.24-.36,2.47-.45,3.72q-.3,3.88-.8,7.75c-.7,5.54-1.66,11.05-2.76,16.53s-2.32,11-3.54,16.44-2.45,11-3.55,16.47c-.55,2.75-1.07,5.51-1.53,8.27-.24,1.39-.46,2.77-.67,4.16l-.3,2.08c-.06.42,0,1.18-.66,1-1-.24-.37-2.06-.27-2.77.16-1.06.33-2.13.49-3.19.76-4.76,1.6-9.49,2.51-14.22q1.29-6.7,2.74-13.39,1.16-5.41,2.42-10.81c.51-2.14,1-4.3,1.58-6.43,2.05-7.61,3-22.23,3.67-28.13q.85-7.53,1.76-15.06c.37-3.11.83-6.21,1.22-9.32.32-2.5.59-5,.9-7.5.07-.61.21-1.2.36-2-.15-.09-.35-.2-.53-.33-3.19-2.33-6.38-4.64-9.56-7q-5.28-3.88-10.52-7.8c-1.41-1-2.74-2.19-4.15-3.24-1.12-.84-2.3-1.6-3.45-2.41a4.3,4.3,0,0,1-.68-.6L22.71,118.44c-.67-.69-1.3-1.41-1.95-2.11a38.56,38.56,0,0,0-6.59-5.85c-.42-.28-.77-.63-1.16-.94A9,9,0,0,1,9.68,104C8.58,98.69,7.24,93.45,6,88.19a3,3,0,0,1,0-1.45q1.71-6.09,3.5-12.15a11.47,11.47,0,0,1,.89-2,1,1,0,0,1,.52-.36,2.9,2.9,0,0,1,2.24.08,3.47,3.47,0,0,0,1.88.25,9.18,9.18,0,0,1,2.62.13c2.36.56,3.21,2.45,3.62,4.56a10,10,0,0,1-.21,4.2c-.21.88-.46,1.75-.67,2.61a16.21,16.21,0,0,1-.55,2.65.33.33,0,0,0,0,.21,35.64,35.64,0,0,1,1.78,7.33,3.07,3.07,0,0,0,.19.44c.44-.59.83-1.08,1.19-1.6q2.57-3.67,5.11-7.37c.65-.94,1-1.12,2-.71a5.42,5.42,0,0,1,3.85,4.41,12.08,12.08,0,0,1,.23,2.15,10.07,10.07,0,0,1-1.74,4.66c-.6,1-1.38,2-2.14,3.08a18.55,18.55,0,0,1,1,7.38c1.42.54,2.78,1,4.12,1.59s2.63,1.05,3.91,1.66c.69.34,3.42,2.13,4.11,2.5A13.56,13.56,0,0,0,53,113.83c-.34-.68-.6-1.31-.95-1.88-1-1.7-2.15-3.35-3.17-5-1.11-1.88-2.16-3.79-3.22-5.7a12.29,12.29,0,0,1-.7-1.57,4.17,4.17,0,0,1,1.29-4.55,6.38,6.38,0,0,1,3.45-1.4,4.43,4.43,0,0,1,2.12.33,7.29,7.29,0,0,1,3.39,2.84c1.39,2.16,2.72,4.35,4,6.56a20.32,20.32,0,0,0,7.48,7.28c4.4,2.57,8.81,5.14,12.58,8.63a27.28,27.28,0,0,1,2.83,2.86c2.43,3,4.87,6,7.15,9.14a16.71,16.71,0,0,1,2.87,8.28,35.77,35.77,0,0,1,.11,7.46s0,.07,0,.11c0,1-.64,1.8-.34,2.77s.56,1.75.8,2.63q2,7.43,4,14.86c1.34,4.95,2.7,9.91,4,14.87q2.8,10.6,5.58,21.24c1.36,5.19,6.53,36.46,7.88,41.66.08.31.22.61.33.91q1.8,4.88,3.2,9.88,1.08,3.84,1.94,7.74c.08.4.33,1.12-.19,1.37A.44.44,0,0,1,119,265Zm-63-139.33a.48.48,0,0,1-.25,0c-.2-.06-.32-.35-.43-.51-.31-.46-.63-.91-.95-1.36a41.48,41.48,0,0,0-6.06-6.57,43.58,43.58,0,0,0-7.24-5.11q-2-1.11-4-2c-.7-.32-1.41-.62-2.12-.91l-1.08-.43c-.22-.08-.93-.21-1.06-.39,1,1.43,1.92,2.64,2.75,3.91s1.6,2.61,2.33,4a21.93,21.93,0,0,1,2.11,4c-.92.46-.94.47-1.32-.22-.76-1.37-1.51-2.75-2.22-4.15A39,39,0,0,0,32,109.12a3,3,0,0,0-.59-.43c-.27.47-.19,1.55-.87,1.65a.62.62,0,0,1-.71-.32,2.25,2.25,0,0,1-.08-.93,19.65,19.65,0,0,0-.46-9.54A1.4,1.4,0,0,1,29.72,98a10.18,10.18,0,0,0,2.36-3.36c.2-.44.5-.84.72-1.28a2.23,2.23,0,0,0,.23-.76c0-.64,0-1.28,0-1.92A4.57,4.57,0,0,0,29.51,86l-.76,1.11c.33.24.59.39.81.59a1.13,1.13,0,0,1,.38,1.53A16.12,16.12,0,0,1,28.16,92c-1.29,1.5-1.55,1.49-3.41.63l-3,4.2c1.1,1.14,2.7.94,4,1.61-.55,1-.62,1-1.36.75-.47-.15-.95-.28-1.41-.45s-.87-.37-1.33-.56c-.07,2.85-.14,5.61-.2,8.36,0,1.15,0,2.3,0,3.45-.06,1.59-.19,3.17-.2,4.76a1.62,1.62,0,0,0,.58,1.17,13.3,13.3,0,0,1,2,2c.82.85,1.76,1.59,2.54,2.48a57.42,57.42,0,0,0,4,4.21c1.8,1.69,3.47,3.53,5.18,5.32.69.72,1.33,1.48,2,2.22a6,6,0,0,0,.86.88c1.8,1.29,3.64,2.53,5.44,3.82,2.73,2,5.44,4,8.17,5.93l10.09,7.24c1.44,1,2.87,2.1,4.3,3.15.77.57,1.55,1.12,2.3,1.72.27.22.7.5.38.94a.78.78,0,0,1-1.14.08c-.38-.25-.71-.58-1.08-.85s-.55-.32-1-.56c-.21,2.6-.4,5-.6,7.54a14.88,14.88,0,0,0,2,.62,36.81,36.81,0,0,0,5.11.65,51.77,51.77,0,0,0,7.68-.31,46.55,46.55,0,0,0,11.23-3.24c.66-.26,1.29-.61,2-.94-.65-2.5-1.27-4.87-1.88-7.25l-.25,0c-.15.57-.29,1.14-.46,1.71-.22.77-.43,1.54-.71,2.29a1.46,1.46,0,0,1-1.64,1c0-.35,0-.74.14-.93a5.44,5.44,0,0,0,1-2.43c.14-.6.23-1.21.38-1.8.36-1.48.85-2.95,1.11-4.45a27.67,27.67,0,0,0-.21-8.47,15,15,0,0,0-2.86-7.18c-.8-1.07-1.57-2.17-2.4-3.22-2.54-3.22-5.07-6.46-8.37-9-.46-.35-.89-.74-1.35-1.08-1.44-1.06-2.88-2.14-4.36-3.14a2.54,2.54,0,0,0-1.42-.3c-1.87.07-3.74.23-5.61.3-2.78.1-5.57.14-8.35.23-2.37.08-4.74.18-7.1.28a3.57,3.57,0,0,0-.55.13c.08.17.09.3.17.37,1.3,1.24,2.62,2.47,3.91,3.72a1,1,0,0,0,.92.28,11.93,11.93,0,0,1,2.39,0,66.56,66.56,0,0,1,9.48,1.7,33.64,33.64,0,0,1,12.19,5.73A13.09,13.09,0,0,1,81,131.43a8,8,0,0,1,.34.86c-.63.51-.9.07-1.13-.25-2.08-3-5-4.89-8.18-6.53a45.16,45.16,0,0,0-11-3.72c-2.27-.52-4.59-.81-6.89-1.18a2.72,2.72,0,0,0-.7.08c.51,1,1.23,1.79,1.82,2.7a7.67,7.67,0,0,1,.74,1.42C56.13,125,56.33,125.59,56.05,125.68ZM10.55,89.16c0,.62,0,1,0,1.45.22,3.48.44,7,.68,10.44.12,1.64.25,3.28.43,4.91a2.11,2.11,0,0,0,.57,1.19c1.11,1,2.25,2.08,3.45,3a19.47,19.47,0,0,1,3.23,2.92,12.17,12.17,0,0,0,1.15,1c.09-1.18.19-2.1.22-3,0-1.72,0-3.44,0-5.15.09-2.72.21-5.43.38-8.15a10.4,10.4,0,0,0-.16-3.47c-.63-2.28-1.15-4.6-1.71-6.9a1.91,1.91,0,0,1,0-.79c.28-1.37.51-2.76.88-4.11A13.14,13.14,0,0,0,20.19,78c-.16-2.29-1.31-3.77-3.29-4.12a12.65,12.65,0,0,0-2.38,0l-.33,1.27c.29.1.5.18.72.24s.46,0,.68.1a1.16,1.16,0,0,1,.94,1.26A24.22,24.22,0,0,1,16,79.68a2,2,0,0,1-.65.88,3.06,3.06,0,0,1-3,.87l-1.8,6.82a16.73,16.73,0,0,1,1.69-.32,13,13,0,0,1,1.53,0c.11.72-.1,1-.7,1C12.28,89,11.48,89.09,10.55,89.16Zm43.94,24.91,13.8-.53.08-.27c-.72-.46-1.43-1-2.17-1.38A22.31,22.31,0,0,1,57.53,103c-.91-1.63-1.88-3.24-2.94-4.77a12.44,12.44,0,0,0-2.19-2.34A3.14,3.14,0,0,0,49.67,95a6.77,6.77,0,0,0-2.8,1.26,2.38,2.38,0,0,0-.81,3,16.81,16.81,0,0,0,.93,2c1.23,2.24,2.49,4.47,3.75,6.7.51.9,1.06,1.77,1.59,2.66C53,111.63,53.71,112.76,54.49,114.07Zm21.83,61.32,8.13-1-2.06-9.93-5.22.39c0,.84,0,1.56-.07,2.28,0,.56-.19,1.12-.25,1.68-.16,1.41-.3,2.81-.43,4.22C76.36,173.7,76.36,174.41,76.32,175.39Zm-5.95-10.71c-.79,1.94-1.68,8.8-1.33,10.16a13.82,13.82,0,0,0,5.69.3c.45-3.37.89-6.76,1.35-10.24Zm13.13-.61c.79,3.31,1.56,6.57,2.36,10l6-1.38c-.33-1-.64-2-1-3-.41-1.2-.89-2.37-1.24-3.57s-.58-2.42-.87-3.69ZM89.84,162c.32,3.65,1.94,6.82,3.17,10.26l3.31-1.74c-.84-3.5-1.77-6.82-2.66-10.23ZM63.91,174c1.3.2,2.33.82,3.37.59.58-3.44,1.15-6.77,1.72-10.18-.62-.15-1.29-.28-2-.47s-1.34-.44-2-.67c-.22,2.27-.42,4.42-.65,6.58C64.25,171.18,64.08,172.53,63.91,174ZM9.55,97.64a2.7,2.7,0,0,0,.13-.46c0-1.5-.13-3-.14-4.48,0-2.27-.46-4.53.36-6.81s1.22-4.56,1.85-6.84c.48-1.76,1-3.5,1.56-5.25a2,2,0,0,0-1.83-.6,2.34,2.34,0,0,0-.67.3c.15.18.25.45.45.55a1.8,1.8,0,0,1,.88,2.16c-.17.74-.52,1.43-.74,2.16-.34,1.13-1,1.77-2.24,1.47C8.41,82.5,7.67,85.07,7,87.65a1.38,1.38,0,0,0,0,.67q1.1,4.11,2.21,8.2C9.27,96.84,9.39,97.15,9.55,97.64ZM14,76.21a11.26,11.26,0,0,0-1.08,4c1.85,0,2.76-1.52,2.23-3.71ZM25.47,91.66c1,.66,1.17.7,1.71,0a29.65,29.65,0,0,0,1.53-2.55,1.23,1.23,0,0,0,.05-.39l-.88-.46ZM10.59,74.9a6.53,6.53,0,0,0-.74,3.86c.44-1,1.19-1.86,1.25-3C11.12,75.52,10.84,75.29,10.59,74.9Z"/><path d="M12.78,97.05c-1.43-.32-1.43-.32-1.32-1.16l2.93-.36a.79.79,0,0,1,.46,0,1.54,1.54,0,0,1,.62.56c.06.15-.12.51-.3.64a4.82,4.82,0,0,0-1.65,2c-.07.17-.1.36-.2.71a6.06,6.06,0,0,0,1,0,6.29,6.29,0,0,0,1-.35.62.62,0,0,1,.84.39.61.61,0,0,1-.3.87,3.53,3.53,0,0,1-2.31.51,1.74,1.74,0,0,1-1.32-2.37C12.36,98,12.59,97.55,12.78,97.05Z"/><path d="M51.6,104.4c-.37-.52.76-1,1.07-1.16.61-.35,1.23-.68,1.85-1a1.22,1.22,0,0,1,.87.09.53.53,0,0,1,.09.94,2.58,2.58,0,0,1-.64.25,15,15,0,0,0-1.83.7c-.35.18-1,.64-1.37.22Z"/></svg>